<svg width="482" height="191" viewBox="0 0 482 191" fill="none" xmlns="http://www.w3.org/2000/svg">
<path d="M36.031 22.4066C34.3526 22.4066 33.0099 21.9031 32.0028 20.8961C30.9958 19.889 30.4923 18.5183 30.4923 16.784C30.4923 13.1475 32.3385 11.3292 36.031 11.3292C37.7094 11.3292 39.0241 11.8327 39.9752 12.8398C40.9823 13.7908 41.4858 15.1056 41.4858 16.784C41.4858 20.5324 39.6675 22.4066 36.031 22.4066ZM48.9547 22.4066C47.2763 22.4066 45.9335 21.9031 44.9265 20.8961C43.9195 19.889 43.4159 18.5183 43.4159 16.784C43.4159 13.1475 45.2622 11.3292 48.9547 11.3292C50.6331 11.3292 51.9478 11.8327 52.8989 12.8398C53.9059 13.7908 54.4095 15.1056 54.4095 16.784C54.4095 20.5324 52.5912 22.4066 48.9547 22.4066ZM58.2698 67.052C57.1508 72.4788 54.1857 76.5629 49.3743 79.3043C44.9545 81.766 39.2479 82.9968 32.2546 82.9968C22.9675 82.9968 15.9741 80.3393 11.2746 75.0244C7.80594 71.0522 6.0716 66.1848 6.0716 60.4223C6.0716 56.0026 7.10661 52.1422 9.17663 48.8414L19.247 46.7434C17.0092 50.5478 15.8902 54.5479 15.8902 58.7439C15.8902 63.1637 17.2889 66.6044 20.0862 69.0661C22.8835 71.5837 26.9397 72.8425 32.2546 72.8425C40.3669 72.8425 45.2622 70.7725 46.9406 66.6324L45.43 66.4646C39.0521 65.7932 34.2407 63.5833 30.9958 59.8349C28.1985 56.6459 26.7998 52.5898 26.7998 47.6665C26.7998 41.5124 28.4782 36.645 31.835 33.0644C34.8002 29.9314 38.7164 28.3649 43.5838 28.3649C48.563 28.3649 52.4513 29.9594 55.2486 33.1484C57.6544 35.8898 58.8572 39.4703 58.8572 43.8901V56.8977H69.0954V67.052H58.2698ZM48.2833 56.7299V43.7223C48.2833 40.0298 46.7168 38.1836 43.5838 38.1836C41.5697 38.1836 39.9752 38.9948 38.8004 40.6172C37.6814 42.2397 37.122 44.4776 37.122 47.3308C37.122 52.8695 40.0871 55.8907 46.0175 56.3942L48.2833 56.7299ZM64.0616 67.052V56.8977H71.6143C73.7403 56.8977 75.2509 56.4501 76.146 55.555C77.0412 54.6039 77.4887 53.0374 77.4887 50.8555V35.3303L88.0626 29.7916V51.359C88.0626 56.4501 86.4961 60.4223 83.3631 63.2756C80.6217 65.7932 77.0412 67.052 72.6214 67.052H64.0616ZM68.5932 85.7661C66.9148 85.7661 65.5721 85.2626 64.5651 84.2556C63.558 83.2485 63.0545 81.8778 63.0545 80.1435C63.0545 76.507 64.9007 74.6887 68.5932 74.6887C70.2716 74.6887 71.5864 75.1643 72.5375 76.1153C73.5445 77.1224 74.048 78.4651 74.048 80.1435C74.048 83.8919 72.2298 85.7661 68.5932 85.7661ZM81.5169 85.7661C79.8385 85.7661 78.4958 85.2626 77.4887 84.2556C76.4817 83.2485 75.9782 81.8778 75.9782 80.1435C75.9782 76.507 77.8244 74.6887 81.5169 74.6887C83.1953 74.6887 84.51 75.1643 85.4611 76.1153C86.4682 77.1224 86.9717 78.4651 86.9717 80.1435C86.9717 83.8919 85.1534 85.7661 81.5169 85.7661ZM163.166 56.8977V67.052H152.844C152.452 72.0872 150.214 76.1153 146.13 79.1365C142.773 81.5981 138.857 82.8289 134.381 82.8289C130.857 82.8289 127.416 81.8778 124.059 79.9757V70.8284C127.08 72.5627 130.101 73.4299 133.122 73.4299C135.472 73.4299 137.542 72.7865 139.332 71.4998C141.179 70.213 142.186 68.6745 142.354 66.8842C141.906 66.8282 141.207 66.7723 140.256 66.7163C139.304 66.6044 138.577 66.5205 138.074 66.4646C132.311 65.8492 127.863 63.5833 124.73 59.6671C122.101 56.3662 120.786 52.366 120.786 47.6665C120.786 41.5124 122.465 36.645 125.821 33.0644C128.787 29.9314 132.703 28.3649 137.57 28.3649C142.549 28.3649 146.438 29.9594 149.235 33.1484C151.641 35.8898 152.844 39.4703 152.844 43.8901V56.8977H163.166ZM142.354 43.7223C142.354 40.0298 140.759 38.1836 137.57 38.1836C133.318 38.1836 131.192 41.2327 131.192 47.3308C131.192 52.7576 133.654 55.7788 138.577 56.3942C139.36 56.562 140.619 56.7019 142.354 56.8138V43.7223ZM184.662 37.1765C190.425 31.3021 196.999 28.3649 204.383 28.3649C211.041 28.3649 216.328 30.6587 220.244 35.2464C223.601 39.1067 225.28 43.8901 225.28 49.5967V51.6107C225.28 56.8697 223.769 60.8699 220.748 63.6113C218.23 65.9051 214.873 67.052 210.677 67.052H158.144V56.8977H173.165C173.389 56.1144 173.697 55.2473 174.088 54.2962V18.5463L184.662 12.9237V37.1765ZM214.79 51.1911V49.5967C214.79 46.2399 213.81 43.4985 211.852 41.3725C209.95 39.2465 207.489 38.1836 204.467 38.1836C200.551 38.1836 196.831 39.6382 193.306 42.5474C189.837 45.4007 186.956 49.3729 184.662 54.464V56.8977H210.258C212.104 56.8977 213.307 56.534 213.866 55.8067C214.482 55.0794 214.79 53.5409 214.79 51.1911ZM264.319 19.6373C262.64 19.6373 261.298 19.1337 260.29 18.1267C259.283 17.1197 258.78 15.749 258.78 14.0146C258.78 10.3781 260.626 8.55984 264.319 8.55984C265.997 8.55984 267.312 9.06336 268.263 10.0704C269.27 11.0215 269.773 12.3362 269.773 14.0146C269.773 17.7631 267.955 19.6373 264.319 19.6373ZM277.242 19.6373C275.564 19.6373 274.221 19.1337 273.214 18.1267C272.207 17.1197 271.704 15.749 271.704 14.0146C271.704 10.3781 273.55 8.55984 277.242 8.55984C278.921 8.55984 280.235 9.06336 281.187 10.0704C282.194 11.0215 282.697 12.3362 282.697 14.0146C282.697 17.7631 280.879 19.6373 277.242 19.6373ZM291.425 56.8977H298.978V67.052H290.418C285.215 67.052 281.187 65.3177 278.333 61.849C275.928 63.6952 272.99 64.6183 269.522 64.6183C264.375 64.6183 260.263 62.6882 257.185 58.8279C254.668 55.6389 253.409 51.8066 253.409 47.3308C253.409 41.7921 255.199 37.2884 258.78 33.8197C261.801 30.9105 265.298 29.4559 269.27 29.4559C271.34 29.4559 273.242 29.8475 274.976 30.6308V28.4489L285.466 22.9101V50.8555C285.466 53.0374 285.914 54.6039 286.809 55.555C287.76 56.4501 289.299 56.8977 291.425 56.8977ZM274.976 41.2047C273.522 39.9739 271.871 39.3584 270.025 39.3584C268.179 39.3584 266.668 40.1137 265.494 41.6243C264.375 43.1348 263.815 45.1209 263.815 47.5826C263.815 50.0442 264.375 52.0024 265.494 53.457C266.612 54.9116 268.151 55.6389 270.109 55.6389C272.235 55.6389 273.886 54.9116 275.06 53.457C275.004 53.0094 274.976 52.3101 274.976 51.359V41.2047ZM313.661 30.0433C317.857 30.379 321.549 31.6378 324.738 33.8197C330.445 37.68 333.298 43.2467 333.298 50.5198V51.6107C333.298 56.6459 331.732 60.5902 328.599 63.4434C325.857 65.8492 322.305 67.052 317.941 67.052H293.94V56.8977H316.85C320.766 56.8977 322.724 54.9675 322.724 51.1072V50.6037C322.724 47.5826 321.549 45.1209 319.2 43.2188C316.906 41.3166 313.885 40.3655 310.136 40.3655C307.339 40.3655 304.374 40.9249 301.241 42.0439V31.8896L318.277 12.9237H328.934L313.661 30.0433ZM387.112 56.8977H394.665V67.052H386.105C384.203 67.052 382.441 66.8002 380.818 66.2967C380.091 71.6676 377.937 75.9195 374.357 79.0525C371.112 81.8499 367.223 83.2485 362.692 83.2485C359.167 83.2485 355.726 82.3534 352.37 80.5631V71.3319C355.279 72.9544 358.132 73.7656 360.929 73.7656C364.007 73.7656 366.384 72.7586 368.063 70.7445C369.797 68.7863 370.664 66.045 370.664 62.5203V35.3303L377.546 31.7217L381.154 29.7916V29.8755L381.238 29.7916V50.8555C381.238 53.0374 381.686 54.6039 382.581 55.555C383.476 56.4501 384.986 56.8977 387.112 56.8977ZM437.327 10.0704C433.971 10.0704 432.292 8.36403 432.292 4.95129C432.292 1.65044 433.971 1.27736e-05 437.327 1.27736e-05C440.628 1.27736e-05 442.279 1.65044 442.279 4.95129C442.279 8.36403 440.628 10.0704 437.327 10.0704ZM430.949 22.4066C429.271 22.4066 427.928 21.9031 426.921 20.8961C425.914 19.889 425.411 18.5183 425.411 16.784C425.411 15.1615 425.914 13.8468 426.921 12.8398C427.928 11.8327 429.271 11.3292 430.949 11.3292C432.628 11.3292 433.943 11.8327 434.894 12.8398C435.901 13.7908 436.404 15.1056 436.404 16.784C436.404 20.5324 434.586 22.4066 430.949 22.4066ZM443.873 22.4066C442.195 22.4066 440.852 21.9031 439.845 20.8961C438.838 19.889 438.334 18.5183 438.334 16.784C438.334 15.1615 438.838 13.8468 439.845 12.8398C440.852 11.8327 442.195 11.3292 443.873 11.3292C445.552 11.3292 446.866 11.8327 447.817 12.8398C448.824 13.7908 449.328 15.1056 449.328 16.784C449.328 20.5324 447.51 22.4066 443.873 22.4066ZM389.661 67.052V56.8977H398.556C400.682 56.8977 402.193 56.4501 403.088 55.555C404.039 54.6039 404.515 53.0374 404.515 50.8555V39.778L415.089 34.2393V50.8555C415.089 53.0374 415.536 54.6039 416.431 55.555C417.326 56.4501 418.837 56.8977 420.963 56.8977H426.67C428.796 56.8977 430.306 56.4501 431.201 55.555C432.096 54.6039 432.544 53.0374 432.544 50.8555V37.5961L443.118 31.9735V50.8555C443.118 53.0374 443.565 54.6039 444.461 55.555C445.412 56.4501 446.95 56.8977 449.076 56.8977H454.783C456.909 56.8977 458.419 56.4501 459.314 55.555C460.21 54.6039 460.657 53.0374 460.657 50.8555V35.3303L471.231 29.7916V51.359C471.231 56.3382 469.72 60.2545 466.699 63.1078C464.07 65.6254 460.601 66.9401 456.293 67.052H447.985C443.845 67.052 440.46 65.8212 437.831 63.3595C435.425 65.7652 432.236 66.9961 428.264 67.052H419.956C415.816 67.052 412.431 65.8212 409.802 63.3595C407.172 65.8212 403.787 67.052 399.647 67.052H389.661Z" fill="#A5812C"/>
<path d="M5.6637 95.0783C4.97881 95.0783 4.43089 94.8729 4.01996 94.4619C3.60903 94.051 3.40356 93.4917 3.40356 92.784C3.40356 91.3 4.15694 90.5581 5.6637 90.5581C6.34859 90.5581 6.88509 90.7635 7.27319 91.1745C7.68413 91.5626 7.88959 92.0991 7.88959 92.784C7.88959 94.3135 7.14763 95.0783 5.6637 95.0783ZM10.9374 95.0783C10.2525 95.0783 9.70456 94.8729 9.29362 94.4619C8.88269 94.051 8.67722 93.4917 8.67722 92.784C8.67722 91.3 9.4306 90.5581 10.9374 90.5581C11.6222 90.5581 12.1587 90.7635 12.5469 91.1745C12.9578 91.5626 13.1633 92.0991 13.1633 92.784C13.1633 94.3135 12.4213 95.0783 10.9374 95.0783ZM16.7247 110.283H19.8067V114.427H16.3138C14.1906 114.427 12.5469 113.719 11.3825 112.303C10.4009 113.057 9.2023 113.433 7.78686 113.433C5.68653 113.433 4.00855 112.646 2.75291 111.071C1.72558 109.769 1.21191 108.205 1.21191 106.379C1.21191 104.119 1.94246 102.281 3.40356 100.866C4.63636 99.6785 6.06322 99.085 7.68413 99.085C8.52883 99.085 9.30504 99.2448 10.0128 99.5644V98.674L14.2933 96.4139V107.817C14.2933 108.708 14.476 109.347 14.8412 109.735C15.2293 110.1 15.8572 110.283 16.7247 110.283ZM10.0128 103.879C9.41918 103.377 8.74571 103.126 7.99233 103.126C7.23895 103.126 6.62255 103.434 6.14312 104.05C5.68653 104.667 5.45823 105.477 5.45823 106.482C5.45823 107.486 5.68653 108.285 6.14312 108.879C6.59972 109.472 7.22753 109.769 8.02657 109.769C8.8941 109.769 9.56758 109.472 10.047 108.879C10.0242 108.696 10.0128 108.411 10.0128 108.023V103.879ZM29.942 110.283H33.024V114.427H29.5311C27.8645 114.427 26.4833 113.981 25.3875 113.091C24.2917 113.981 22.9105 114.427 21.2439 114.427H17.751V110.283H20.833C21.7005 110.283 22.3169 110.1 22.6822 109.735C23.0474 109.347 23.2301 108.708 23.2301 107.817V101.482L27.5449 99.2219V107.817C27.5449 108.708 27.7275 109.347 28.0928 109.735C28.4581 110.1 29.0745 110.283 29.942 110.283ZM21.0727 117.543C21.7576 117.543 22.2941 117.737 22.6822 118.125C23.0931 118.536 23.2986 119.084 23.2986 119.769C23.2986 121.298 22.5566 122.063 21.0727 122.063C20.3878 122.063 19.8399 121.858 19.4289 121.447C19.018 121.036 18.8125 120.476 18.8125 119.769C18.8125 118.285 19.5659 117.543 21.0727 117.543ZM26.3463 117.543C27.0312 117.543 27.5677 117.737 27.9558 118.125C28.3668 118.536 28.5722 119.084 28.5722 119.769C28.5722 121.298 27.8303 122.063 26.3463 122.063C25.6614 122.063 25.1135 121.858 24.7026 121.447C24.2917 121.036 24.0862 120.476 24.0862 119.769C24.0862 118.285 24.8396 117.543 26.3463 117.543ZM38.6998 95.7632C38.0149 95.7632 37.467 95.5578 37.0561 95.1468C36.6451 94.7359 36.4396 94.1766 36.4396 93.4688C36.4396 92.8068 36.6451 92.2703 37.0561 91.8594C37.467 91.4484 38.0149 91.243 38.6998 91.243C39.3847 91.243 39.9212 91.4484 40.3093 91.8594C40.7202 92.2475 40.9257 92.784 40.9257 93.4688C40.9257 94.9984 40.1837 95.7632 38.6998 95.7632ZM30.9605 114.427V110.283H34.0425C34.9101 110.283 35.5265 110.1 35.8917 109.735C36.257 109.347 36.4396 108.708 36.4396 107.817V101.482L40.7545 99.2219V108.023C40.7545 110.1 40.1152 111.721 38.8368 112.886C37.7181 113.913 36.257 114.427 34.4535 114.427H30.9605ZM63.1745 110.283V114.427H58.9624C58.8026 116.481 57.8894 118.125 56.2228 119.358C54.8531 120.362 53.255 120.864 51.4286 120.864C49.9903 120.864 48.5863 120.476 47.2165 119.7V115.968C48.4493 116.675 49.6821 117.029 50.9149 117.029C51.8738 117.029 52.7185 116.767 53.449 116.241C54.2024 115.716 54.6133 115.089 54.6818 114.358C54.4992 114.335 54.2138 114.312 53.8257 114.29C53.4376 114.244 53.1408 114.21 52.9354 114.187C50.5839 113.936 48.7689 113.011 47.4905 111.413C46.4175 110.066 45.881 108.434 45.881 106.516C45.881 104.005 46.5659 102.019 47.9357 100.557C49.1456 99.279 50.7437 98.6398 52.7299 98.6398C54.7617 98.6398 56.3484 99.2904 57.4899 100.592C58.4716 101.71 58.9624 103.171 58.9624 104.975V110.283H63.1745ZM54.6818 104.907C54.6818 103.4 54.0312 102.646 52.7299 102.646C50.9948 102.646 50.1273 103.891 50.1273 106.379C50.1273 108.594 51.1318 109.826 53.1408 110.077C53.4604 110.146 53.9741 110.203 54.6818 110.249V104.907ZM68.8644 95.7632C68.1795 95.7632 67.6316 95.5578 67.2207 95.1468C66.8097 94.7359 66.6043 94.1766 66.6043 93.4688C66.6043 92.8068 66.8097 92.2703 67.2207 91.8594C67.6316 91.4484 68.1795 91.243 68.8644 91.243C69.5493 91.243 70.0858 91.4484 70.4739 91.8594C70.8848 92.2475 71.0903 92.784 71.0903 93.4688C71.0903 94.9984 70.3484 95.7632 68.8644 95.7632ZM61.1252 114.427V110.283H64.2072C65.0747 110.283 65.6911 110.1 66.0564 109.735C66.4216 109.347 66.6043 108.708 66.6043 107.817V101.482L70.9191 99.2219V108.023C70.9191 110.1 70.2799 111.721 69.0014 112.886C67.8827 113.913 66.4216 114.427 64.6181 114.427H61.1252ZM83.3739 114.427C81.2964 114.427 79.6869 113.764 78.5455 112.44C77.5638 111.299 77.0729 109.826 77.0729 108.023V94.5989L81.3878 92.3388V107.817C81.3878 108.708 81.5704 109.347 81.9357 109.735C82.3009 110.1 82.9173 110.283 83.7849 110.283H86.8669V114.427H83.3739ZM93.055 96.2084C92.3701 96.2084 91.8222 96.0029 91.4112 95.592C91.0003 95.1811 90.7948 94.6217 90.7948 93.914C90.7948 92.4301 91.5482 91.6881 93.055 91.6881C93.7399 91.6881 94.2764 91.8936 94.6645 92.3045C95.0754 92.6926 95.2809 93.2291 95.2809 93.914C95.2809 95.4436 94.5389 96.2084 93.055 96.2084ZM98.3286 96.2084C97.6438 96.2084 97.0958 96.0029 96.6849 95.592C96.274 95.1811 96.0685 94.6217 96.0685 93.914C96.0685 92.4301 96.8219 91.6881 98.3286 91.6881C99.0135 91.6881 99.55 91.8936 99.9381 92.3045C100.349 92.6926 100.555 93.2291 100.555 93.914C100.555 95.4436 99.8126 96.2084 98.3286 96.2084ZM101.137 110.283H106.547V114.427H98.4314C97.2671 114.427 96.3539 114.347 95.6918 114.187C94.9841 114.347 94.0709 114.427 92.9523 114.427H84.802V110.283H90.2127C89.3452 108.89 88.9114 107.475 88.9114 106.037C88.9114 103.754 89.5849 101.916 90.9318 100.523C92.1418 99.2676 93.7285 98.6398 95.6918 98.6398C97.9291 98.6398 99.6642 99.4502 100.897 101.071C101.924 102.395 102.438 104.05 102.438 106.037C102.438 107.475 102.004 108.89 101.137 110.283ZM95.6576 109.906C96.4338 109.541 97.0616 108.982 97.541 108.228C98.0433 107.452 98.2944 106.642 98.2944 105.797C98.2944 104.815 98.0547 104.05 97.5753 103.503C97.1187 102.932 96.4909 102.646 95.6918 102.646C93.9568 102.646 93.0892 103.685 93.0892 105.763C93.0892 106.653 93.3289 107.486 93.8084 108.262C94.2878 109.016 94.9042 109.564 95.6576 109.906ZM104.499 114.427V110.283H106.657C107.707 110.283 108.449 110.055 108.883 109.598C109.339 109.141 109.568 108.365 109.568 107.269V94.6332L113.848 92.3388V107.304C113.848 109.518 113.175 111.287 111.828 112.612C110.595 113.822 108.951 114.427 106.896 114.427H104.499ZM120.012 114.427V94.6332L124.327 92.3388V114.427H120.012ZM148.021 98.5028C147.336 98.5028 146.788 98.2973 146.377 97.8864C145.966 97.4526 145.761 96.8933 145.761 96.2084C145.761 95.5464 145.966 95.0099 146.377 94.5989C146.788 94.188 147.336 93.9825 148.021 93.9825C148.706 93.9825 149.242 94.188 149.63 94.5989C150.041 94.987 150.247 95.5235 150.247 96.2084C150.247 97.738 149.505 98.5028 148.021 98.5028ZM153.295 98.5028C152.61 98.5028 152.062 98.2973 151.651 97.8864C151.24 97.4755 151.034 96.9161 151.034 96.2084C151.034 94.7245 151.788 93.9825 153.295 93.9825C153.98 93.9825 154.516 94.188 154.904 94.5989C155.315 94.987 155.521 95.5235 155.521 96.2084C155.521 97.738 154.779 98.5028 153.295 98.5028ZM144.733 114.427C142.793 114.427 141.275 113.776 140.179 112.475C139.197 111.333 138.706 109.861 138.706 108.057V104.564L142.987 102.304V107.783C142.987 108.696 143.17 109.347 143.535 109.735C143.923 110.1 144.551 110.283 145.418 110.283H156.582C157.45 110.283 158.066 110.089 158.431 109.701C158.797 109.313 158.979 108.673 158.979 107.783V101.482L163.294 99.2219V108.057C163.294 110.135 162.643 111.755 161.342 112.92C160.201 113.924 158.74 114.427 156.959 114.427H144.733ZM169.473 114.427V94.6332L173.788 92.3388V114.427H169.473ZM188.345 112.303C188.345 114.952 187.614 117.098 186.153 118.741C184.806 120.271 183.026 121.036 180.811 121.036C179.373 121.036 177.969 120.67 176.599 119.94V116.173C177.786 116.835 178.951 117.166 180.092 117.166C181.348 117.166 182.318 116.755 183.003 115.933C183.711 115.134 184.064 114.016 184.064 112.577V101.516L188.345 99.2219V112.303ZM200.822 114.427C198.745 114.427 197.135 113.764 195.994 112.44C195.012 111.299 194.521 109.826 194.521 108.023V94.5989L198.836 92.3388V107.817C198.836 108.708 199.019 109.347 199.384 109.735C199.749 110.1 200.365 110.283 201.233 110.283H204.315V114.427H200.822ZM221.701 91.1745C220.331 91.1745 219.646 90.4782 219.646 89.0855C219.646 87.7386 220.331 87.0651 221.701 87.0651C223.048 87.0651 223.721 87.7386 223.721 89.0855C223.721 90.4782 223.048 91.1745 221.701 91.1745ZM219.098 96.2084C218.414 96.2084 217.866 96.0029 217.455 95.592C217.044 95.1811 216.838 94.6217 216.838 93.914C216.838 93.252 217.044 92.7155 217.455 92.3045C217.866 91.8936 218.414 91.6881 219.098 91.6881C219.783 91.6881 220.32 91.8936 220.708 92.3045C221.119 92.6926 221.324 93.2291 221.324 93.914C221.324 95.4436 220.582 96.2084 219.098 96.2084ZM224.372 96.2084C223.687 96.2084 223.139 96.0029 222.728 95.592C222.317 95.1811 222.112 94.6217 222.112 93.914C222.112 93.252 222.317 92.7155 222.728 92.3045C223.139 91.8936 223.687 91.6881 224.372 91.6881C225.057 91.6881 225.594 91.8936 225.982 92.3045C226.393 92.6926 226.598 93.2291 226.598 93.914C226.598 95.4436 225.856 96.2084 224.372 96.2084ZM202.25 114.427V110.283H205.88C206.748 110.283 207.364 110.1 207.729 109.735C208.117 109.347 208.311 108.708 208.311 107.817V103.297L212.626 101.037V107.817C212.626 108.708 212.809 109.347 213.174 109.735C213.539 110.1 214.156 110.283 215.023 110.283H217.352C218.22 110.283 218.836 110.1 219.201 109.735C219.566 109.347 219.749 108.708 219.749 107.817V102.407L224.064 100.112V107.817C224.064 108.708 224.247 109.347 224.612 109.735C225 110.1 225.628 110.283 226.495 110.283H228.824C229.691 110.283 230.308 110.1 230.673 109.735C231.038 109.347 231.221 108.708 231.221 107.817V101.482L235.536 99.2219V107.269C235.536 108.365 235.753 109.141 236.186 109.598C236.643 110.055 237.396 110.283 238.447 110.283H241.597V114.427H238.207C236.289 114.427 234.748 113.879 233.584 112.783C232.557 113.856 231.175 114.404 229.44 114.427H226.05C224.361 114.427 222.98 113.924 221.907 112.92C220.925 113.901 219.624 114.404 218.003 114.427H214.612C212.923 114.427 211.542 113.924 210.469 112.92C209.396 113.924 208.015 114.427 206.325 114.427H202.25ZM242.791 96.2084C242.106 96.2084 241.558 96.0029 241.147 95.592C240.736 95.1811 240.531 94.6217 240.531 93.914C240.531 93.252 240.736 92.7155 241.147 92.3045C241.558 91.8936 242.106 91.6881 242.791 91.6881C243.476 91.6881 244.013 91.8936 244.401 92.3045C244.812 92.6926 245.017 93.2291 245.017 93.914C245.017 95.4436 244.275 96.2084 242.791 96.2084ZM248.031 96.2084C247.346 96.2084 246.798 96.0029 246.387 95.592C245.976 95.1582 245.77 94.5989 245.77 93.914C245.77 93.252 245.976 92.7155 246.387 92.3045C246.821 91.8936 247.368 91.6881 248.031 91.6881C248.715 91.6881 249.252 91.8936 249.64 92.3045C250.051 92.6926 250.256 93.2291 250.256 93.914C250.256 95.4436 249.514 96.2084 248.031 96.2084ZM251.729 110.283H254.811V114.427H251.318C249.651 114.427 248.27 113.981 247.174 113.091C246.079 113.981 244.697 114.427 243.031 114.427H239.538V110.283H242.62C243.487 110.283 244.104 110.1 244.469 109.735C244.834 109.347 245.017 108.708 245.017 107.817V101.482L249.332 99.2219V107.817C249.332 108.708 249.514 109.347 249.88 109.735C250.245 110.1 250.861 110.283 251.729 110.283ZM252.747 114.427V110.283H256.377C257.245 110.283 257.861 110.1 258.227 109.735C258.615 109.347 258.809 108.708 258.809 107.817V103.297L263.124 101.037V107.817C263.124 108.708 263.306 109.347 263.671 109.735C264.037 110.1 264.653 110.283 265.521 110.283H267.849C268.717 110.283 269.333 110.1 269.699 109.735C270.064 109.347 270.246 108.708 270.246 107.817V102.407L274.561 100.112V107.817C274.561 108.708 274.744 109.347 275.109 109.735C275.497 110.1 276.125 110.283 276.993 110.283H279.321C280.189 110.283 280.805 110.1 281.17 109.735C281.536 109.347 281.718 108.708 281.718 107.817V101.482L286.033 99.2219V108.023C286.033 110.055 285.417 111.653 284.184 112.817C283.111 113.844 281.696 114.381 279.938 114.427H276.547C274.858 114.427 273.477 113.924 272.404 112.92C271.422 113.901 270.121 114.404 268.5 114.427H265.11C263.42 114.427 262.039 113.924 260.966 112.92C259.893 113.924 258.512 114.427 256.823 114.427H252.747ZM305.389 94.6332L309.704 92.3388V107.304C309.704 109.518 309.03 111.287 307.684 112.612C306.428 113.822 304.773 114.427 302.718 114.427H289.808L291.965 110.283H296.486V99.085L300.8 96.7906V110.283H302.478C303.528 110.283 304.27 110.055 304.704 109.598C305.161 109.141 305.389 108.365 305.389 107.269V94.6332ZM315.848 114.427V94.6332L320.163 92.3388V114.427H315.848ZM334.055 113.433C333.347 113.57 332.617 113.639 331.863 113.639C329.763 113.639 328.085 112.851 326.829 111.276C325.802 109.952 325.288 108.354 325.288 106.482C325.288 103.971 325.973 101.996 327.343 100.557C328.553 99.279 330.151 98.6398 332.137 98.6398C334.169 98.6398 335.756 99.2904 336.897 100.592C337.879 101.71 338.37 103.171 338.37 104.975V112.303C338.37 114.997 337.662 117.12 336.247 118.673C334.923 120.134 333.119 120.864 330.836 120.864C329.398 120.864 327.994 120.476 326.624 119.7V115.968C327.857 116.675 329.09 117.029 330.322 117.029C332.537 117.029 333.781 115.831 334.055 113.433ZM334.089 104.907C334.089 103.4 333.439 102.646 332.137 102.646C331.315 102.646 330.665 102.977 330.185 103.639C329.729 104.302 329.5 105.203 329.5 106.345C329.5 108.765 330.368 109.975 332.103 109.975C333.016 109.975 333.678 109.746 334.089 109.29V104.907ZM356.03 95.0783C355.345 95.0783 354.797 94.8729 354.386 94.4619C353.975 94.051 353.769 93.4917 353.769 92.784C353.769 91.3 354.523 90.5581 356.03 90.5581C356.714 90.5581 357.251 90.7635 357.639 91.1745C358.05 91.5626 358.255 92.0991 358.255 92.784C358.255 94.3135 357.514 95.0783 356.03 95.0783ZM361.269 95.0783C360.584 95.0783 360.036 94.8729 359.625 94.4619C359.214 94.0282 359.009 93.4688 359.009 92.784C359.009 92.1219 359.214 91.5854 359.625 91.1745C360.036 90.7635 360.584 90.5581 361.269 90.5581C361.954 90.5581 362.49 90.7635 362.878 91.1745C363.289 91.5626 363.495 92.0991 363.495 92.784C363.495 94.3135 362.753 95.0783 361.269 95.0783ZM358.666 114.427C356.498 114.427 354.797 113.696 353.564 112.235C352.514 110.979 351.989 109.37 351.989 107.406C351.989 105.352 352.582 103.56 353.769 102.03C354.957 100.5 356.646 99.3703 358.838 98.6398C361.166 99.416 362.924 100.637 364.111 102.304C365.184 103.765 365.721 105.466 365.721 107.406C365.721 109.667 365.036 111.436 363.666 112.714C362.479 113.856 360.927 114.427 359.009 114.427H358.666ZM358.632 110.283H359.077C360.675 110.283 361.474 109.335 361.474 107.441C361.474 105.272 360.596 103.685 358.838 102.681C357.103 103.685 356.235 105.249 356.235 107.372C356.235 109.313 357.034 110.283 358.632 110.283ZM377.262 114.427C375.184 114.427 373.575 113.764 372.433 112.44C371.452 111.299 370.961 109.826 370.961 108.023V94.5989L375.276 92.3388V107.817C375.276 108.708 375.458 109.347 375.823 109.735C376.189 110.1 376.805 110.283 377.673 110.283H380.755V114.427H377.262ZM384.169 104.975C384.169 102.92 384.808 101.311 386.087 100.147C387.205 99.142 388.644 98.6398 390.401 98.6398C392.662 98.6398 394.419 99.4731 395.675 101.14C396.748 102.532 397.285 104.324 397.285 106.516C397.285 109.05 396.611 111.048 395.264 112.509C394.054 113.787 392.513 114.427 390.641 114.427C388.815 114.427 387.319 114.027 386.155 113.228C385.059 114.027 383.735 114.427 382.183 114.427H378.69V110.283H381.772C382.639 110.283 383.256 110.1 383.621 109.735C383.986 109.347 384.169 108.708 384.169 107.817V104.975ZM388.484 108.365C388.484 109.644 389.157 110.283 390.504 110.283C392.194 110.283 393.038 108.982 393.038 106.379C393.038 103.891 392.159 102.646 390.401 102.646C389.123 102.646 388.484 103.4 388.484 104.907V108.365ZM409.232 114.427C407.155 114.427 405.545 113.764 404.404 112.44C403.422 111.299 402.931 109.826 402.931 108.023V94.5989L407.246 92.3388V107.817C407.246 108.708 407.429 109.347 407.794 109.735C408.159 110.1 408.776 110.283 409.643 110.283H412.725V114.427H409.232ZM432.988 110.283H435.864V114.427H432.954C431.15 114.427 429.7 114.232 428.604 113.844C427.531 113.433 426.527 112.726 425.591 111.721C422.737 113.525 419.45 114.427 415.729 114.427H410.66V110.283H415.763C419.781 110.283 422.977 109.084 425.351 106.687C423.799 103.971 421.915 102.612 419.701 102.612C417.875 102.612 415.877 103.605 413.708 105.591V101.79C415.626 99.6899 417.795 98.6398 420.215 98.6398C421.995 98.6398 423.73 99.2904 425.42 100.592C427.109 101.893 428.604 103.742 429.906 106.139V107.852C429.541 108.331 429.061 108.867 428.468 109.461C429.381 110.009 430.887 110.283 432.988 110.283ZM455.582 110.283H458.629V114.427H455.137C453.493 114.427 452.146 114.004 451.096 113.159C449.863 114.461 448.242 115.111 446.233 115.111C444.178 115.111 442.557 114.461 441.37 113.159C440.274 114.004 438.916 114.427 437.295 114.427H433.802V110.283H436.884C437.752 110.283 438.368 110.1 438.733 109.735C439.099 109.347 439.281 108.708 439.281 107.817V106.824C439.281 104.153 439.978 102.076 441.37 100.592C442.58 99.2904 444.201 98.6398 446.233 98.6398C448.539 98.6398 450.319 99.4845 451.575 101.174C452.625 102.612 453.15 104.496 453.15 106.824V107.817C453.15 108.708 453.333 109.347 453.698 109.735C454.086 110.1 454.714 110.283 455.582 110.283ZM446.233 110.968C447.968 110.968 448.836 109.552 448.836 106.721C448.836 104.005 447.968 102.646 446.233 102.646C444.475 102.646 443.596 104.005 443.596 106.721C443.596 109.552 444.475 110.968 446.233 110.968ZM468.356 110.283H471.438V114.427H467.945C466.165 114.427 464.715 113.924 463.596 112.92C462.341 113.924 460.8 114.427 458.973 114.427H456.576V110.283H458.734C459.784 110.283 460.526 110.055 460.959 109.598C461.416 109.141 461.644 108.365 461.644 107.269V94.6332L465.925 92.3388V99.2562L465.959 99.2219V107.817C465.959 108.708 466.142 109.347 466.507 109.735C466.872 110.1 467.489 110.283 468.356 110.283ZM469.384 114.427V110.283H471.542C472.592 110.283 473.334 110.055 473.768 109.598C474.224 109.141 474.453 108.365 474.453 107.269V94.6332L478.733 92.3388V107.304C478.733 109.518 478.06 111.287 476.713 112.612C475.48 113.822 473.836 114.427 471.781 114.427H469.384Z" fill="#A5812C"/>
<path d="M83.2545 142.05C81.5456 144.2 80.1538 146.75 79.0789 149.699C78.0315 152.62 77.5078 155.376 77.5078 157.967C77.5078 162.212 78.4725 166.332 80.4018 170.329C80.8979 171.348 81.4354 172.299 82.0142 173.181C82.6205 174.063 83.0202 174.504 83.2131 174.504H78.6654C78.4449 174.504 77.935 173.939 77.1358 172.809C76.364 171.707 75.7301 170.659 75.234 169.667C73.47 166.112 72.5881 162.212 72.5881 157.967C72.5881 155.128 73.1531 152.234 74.2831 149.285C75.4131 146.336 76.8739 143.925 78.6654 142.05H83.2545ZM93.158 168.716C90.5947 168.716 88.6103 167.917 87.2046 166.318C86.0746 165.023 85.5096 163.48 85.5096 161.688C85.5096 159.676 86.3364 157.953 87.9901 156.52C86.6396 155.363 85.9643 153.929 85.9643 152.221V152.179C85.9643 152.152 85.9643 152.124 85.9643 152.097C85.9643 150.195 86.7085 148.582 88.1968 147.259C89.6301 145.992 91.394 145.358 93.4887 145.358H98.0777V150.029H94.0675C93.2131 150.029 92.5103 150.264 91.959 150.732C91.4078 151.201 91.1322 151.793 91.1322 152.51C91.1322 153.254 91.4078 153.861 91.959 154.329C92.5103 154.798 93.2131 155.032 94.0675 155.032H97.0442V158.629H93.8194C92.8823 158.629 92.1244 158.891 91.5456 159.414C90.9668 159.91 90.6774 160.558 90.6774 161.357C90.705 162.129 91.0081 162.763 91.5869 163.259C92.1657 163.755 92.9099 164.003 93.8194 164.003H97.995L101.013 168.716H93.158ZM121.495 145.358H126.208V150.443C126.208 152.179 125.616 153.599 124.431 154.701C123.273 155.776 121.757 156.314 119.883 156.314C118.284 156.314 116.934 155.928 115.831 155.156C114.757 155.928 113.434 156.314 111.863 156.314C111.201 156.314 110.636 156.258 110.168 156.148V166.566L104.958 169.336V145.358H110.168V150.443C110.168 151.408 110.719 151.89 111.821 151.89C112.924 151.89 113.475 151.408 113.475 150.443V146.598H118.188V150.443C118.188 151.408 118.753 151.89 119.883 151.89C120.958 151.89 121.495 151.408 121.495 150.443V145.358ZM128.286 168.716L135.232 145.358H141.847L148.916 168.716H143.624L138.581 151.973H138.498L133.537 168.716H128.286ZM160.701 169.336V160.034C159.847 160.393 158.965 160.572 158.056 160.572C157.284 160.572 156.553 160.434 155.864 160.158C152.75 159.111 151.193 156.699 151.193 152.923C151.193 150.25 152.006 148.183 153.632 146.722C154.982 145.509 156.691 144.903 158.758 144.903C160.936 144.903 162.7 145.606 164.05 147.011C165.29 148.334 165.911 150.071 165.911 152.221V166.525L160.701 169.336ZM160.701 152.055C160.701 150.429 159.999 149.616 158.593 149.616C157.849 149.616 157.242 149.905 156.774 150.484C156.333 151.063 156.112 151.821 156.112 152.758C156.112 154.743 156.884 155.804 158.428 155.941C158.51 155.941 158.565 155.941 158.593 155.941C159.337 155.941 160.04 155.707 160.701 155.239V152.055ZM175.67 165.037L170.254 159.58L175.67 154.288L181.003 159.58L175.67 165.037ZM184.139 174.504C184.387 174.504 184.869 173.925 185.586 172.768C186.302 171.61 186.936 170.398 187.487 169.13C189.058 165.464 189.844 161.743 189.844 157.967C189.844 155.376 189.306 152.62 188.231 149.699C187.184 146.75 185.806 144.2 184.097 142.05H188.686C190.478 143.925 191.939 146.336 193.069 149.285C194.199 152.234 194.764 155.128 194.764 157.967C194.764 162.68 193.689 166.952 191.539 170.783C191.07 171.583 190.519 172.396 189.885 173.223C189.251 174.077 188.852 174.504 188.686 174.504H184.139ZM230.805 163.714H234.485V168.716H230.268C228.394 168.716 226.795 168.234 225.472 167.269C224.066 168.234 222.275 168.716 220.098 168.716H214.351C213.304 168.716 212.559 168.937 212.118 169.378C211.677 169.846 211.457 170.618 211.457 171.693V179.011L206.248 181.739V171.445C206.248 169.268 206.84 167.49 208.026 166.112C209.238 164.734 210.864 163.948 212.904 163.755C212.353 162.405 212.077 160.875 212.077 159.166C212.077 156.134 212.904 153.736 214.558 151.973C216.018 150.429 217.948 149.657 220.346 149.657C222.799 149.657 224.714 150.443 226.092 152.014C227.277 153.364 227.87 155.128 227.87 157.306V160.737C227.87 161.812 228.09 162.584 228.531 163.052C229 163.493 229.758 163.714 230.805 163.714ZM222.661 161.399V157.223C222.661 155.404 221.889 154.494 220.346 154.494C219.353 154.494 218.568 154.894 217.989 155.693C217.438 156.493 217.162 157.595 217.162 159.001C217.162 162.143 218.196 163.714 220.263 163.714C221.862 163.714 222.661 162.942 222.661 161.399ZM242.54 146.722C241.714 146.722 241.052 146.474 240.556 145.978C240.06 145.482 239.812 144.806 239.812 143.952C239.812 142.161 240.721 141.265 242.54 141.265C243.367 141.265 244.015 141.513 244.484 142.009C244.98 142.478 245.228 143.125 245.228 143.952C245.228 145.799 244.332 146.722 242.54 146.722ZM248.907 146.722C248.08 146.722 247.419 146.474 246.923 145.978C246.427 145.482 246.179 144.806 246.179 143.952C246.179 142.161 247.088 141.265 248.907 141.265C249.734 141.265 250.382 141.513 250.85 142.009C251.346 142.478 251.595 143.125 251.595 143.952C251.595 145.799 250.699 146.722 248.907 146.722ZM231.998 168.716V163.714H238.613C237.786 162.501 237.373 160.985 237.373 159.166C237.373 156.134 238.2 153.736 239.853 151.973C241.342 150.429 243.285 149.657 245.683 149.657C248.136 149.657 250.037 150.443 251.388 152.014C252.601 153.364 253.207 155.128 253.207 157.306V161.027C253.179 163.397 252.476 165.271 251.098 166.649C249.748 168.027 247.915 168.716 245.6 168.716H231.998ZM247.998 157.223C247.998 155.404 247.226 154.494 245.683 154.494C243.56 154.494 242.499 155.997 242.499 159.001C242.499 162.143 243.519 163.714 245.558 163.714C247.185 163.714 247.998 162.832 247.998 161.068V157.223ZM267.696 166.153C267.696 169.35 266.815 171.941 265.051 173.925C263.424 175.772 261.275 176.695 258.601 176.695C256.865 176.695 255.17 176.254 253.516 175.372V170.825C254.949 171.624 256.355 172.024 257.733 172.024C259.249 172.024 260.42 171.528 261.247 170.535C262.101 169.571 262.529 168.22 262.529 166.484V153.13L267.696 150.36V166.153ZM337.3 163.714H341.021V168.716H336.804C334.792 168.716 333.125 168.179 331.802 167.104C330.479 168.179 328.811 168.716 326.799 168.716H308.939C308.002 168.716 307.134 168.592 306.335 168.344C305.811 170.99 304.474 173.071 302.324 174.587C300.395 175.91 298.052 176.571 295.296 176.571C291.575 176.571 288.695 175.262 286.656 172.644C285.057 170.604 284.258 168.206 284.258 165.45C284.258 163.273 284.768 161.371 285.787 159.745L290.749 158.711C289.646 160.586 289.095 162.556 289.095 164.623C289.095 166.718 289.687 168.413 290.873 169.709C292.003 170.949 293.477 171.569 295.296 171.569C297.198 171.569 298.673 171.087 299.72 170.122C300.795 169.157 301.332 167.807 301.332 166.07V155.28L306.541 152.551V160.737C306.541 162.501 307.244 163.48 308.65 163.673C309.945 159.676 311.875 156.41 314.438 153.874C317.249 151.063 320.474 149.657 324.112 149.657C327.364 149.657 329.969 150.787 331.926 153.047C333.58 154.949 334.406 157.306 334.406 160.117V160.985C334.406 162.804 335.371 163.714 337.3 163.714ZM326.593 163.714C327.585 163.714 328.26 163.507 328.618 163.094C329.004 162.653 329.197 161.853 329.197 160.696V160.117C329.197 158.463 328.729 157.113 327.792 156.065C326.854 155.018 325.642 154.494 324.153 154.494C322.004 154.494 319.992 155.321 318.117 156.975C316.271 158.629 314.81 160.875 313.735 163.714H326.593ZM353.262 163.714H356.983V168.716H352.766C350.754 168.716 349.087 168.179 347.764 167.104C346.441 168.179 344.773 168.716 342.761 168.716H338.544V163.714H342.265C343.312 163.714 344.056 163.493 344.497 163.052C344.938 162.584 345.159 161.812 345.159 160.737V153.089L350.368 150.36V160.737C350.368 161.812 350.589 162.584 351.03 163.052C351.471 163.493 352.215 163.714 353.262 163.714ZM342.554 172.478C343.381 172.478 344.029 172.713 344.497 173.181C344.994 173.677 345.242 174.339 345.242 175.166C345.242 177.012 344.346 177.936 342.554 177.936C341.728 177.936 341.066 177.688 340.57 177.192C340.074 176.695 339.826 176.02 339.826 175.166C339.826 173.374 340.735 172.478 342.554 172.478ZM348.921 172.478C349.748 172.478 350.396 172.713 350.864 173.181C351.36 173.677 351.608 174.339 351.608 175.166C351.608 177.012 350.713 177.936 348.921 177.936C348.094 177.936 347.433 177.688 346.937 177.192C346.441 176.695 346.193 176.02 346.193 175.166C346.193 173.374 347.102 172.478 348.921 172.478ZM367.308 146.185C366.481 146.185 365.82 145.937 365.324 145.44C364.827 144.944 364.579 144.269 364.579 143.415C364.579 142.615 364.827 141.968 365.324 141.472C365.82 140.975 366.481 140.727 367.308 140.727C368.135 140.727 368.783 140.975 369.251 141.472C369.747 141.94 369.995 142.588 369.995 143.415C369.995 145.261 369.1 146.185 367.308 146.185ZM354.492 168.716V163.714H360.652C365.503 163.714 369.361 162.267 372.228 159.373C370.354 156.093 368.08 154.453 365.406 154.453C363.201 154.453 360.79 155.652 358.171 158.05V153.461C360.486 150.925 363.105 149.657 366.026 149.657C368.176 149.657 370.271 150.443 372.31 152.014C374.35 153.585 376.155 155.817 377.726 158.711V160.779C375.742 163.314 373.261 165.271 370.285 166.649C367.336 168.027 364.111 168.716 360.61 168.716H354.492ZM395.144 163.714H398.865V168.716H394.648C393.711 168.716 392.843 168.592 392.043 168.344C391.685 170.99 390.624 173.085 388.86 174.628C387.262 176.006 385.346 176.695 383.113 176.695C381.377 176.695 379.682 176.254 378.028 175.372V170.825C379.462 171.624 380.867 172.024 382.245 172.024C383.761 172.024 384.933 171.528 385.759 170.535C386.614 169.571 387.041 168.22 387.041 166.484V153.089L390.431 151.311L392.209 150.36V150.402L392.25 150.36V160.737C392.25 161.812 392.471 162.584 392.912 163.052C393.353 163.493 394.097 163.714 395.144 163.714ZM399.376 146.185C398.549 146.185 397.888 145.937 397.392 145.44C396.896 144.944 396.648 144.269 396.648 143.415C396.648 141.623 397.557 140.727 399.376 140.727C400.203 140.727 400.851 140.975 401.319 141.472C401.815 141.94 402.064 142.588 402.064 143.415C402.064 145.261 401.168 146.185 399.376 146.185ZM405.743 146.185C404.916 146.185 404.255 145.937 403.759 145.44C403.262 144.944 403.014 144.269 403.014 143.415C403.014 141.623 403.924 140.727 405.743 140.727C406.57 140.727 407.218 140.975 407.686 141.472C408.182 141.94 408.43 142.588 408.43 143.415C408.43 145.261 407.535 146.185 405.743 146.185ZM396.4 168.716V163.714H400.12C401.168 163.714 401.912 163.493 402.353 163.052C402.794 162.584 403.014 161.812 403.014 160.737V153.089L408.224 150.36V160.985C408.224 163.493 407.452 165.45 405.908 166.856C404.558 168.096 402.794 168.716 400.617 168.716H396.4Z" fill="#A5812C"/>
</svg>
