<svg width="471" height="228" viewBox="0 0 471 228" fill="none" xmlns="http://www.w3.org/2000/svg">
<path d="M25.9763 11.1804H16.7756V38.0001H10.3245V11.1804H1.10253V5.5119H25.9763V11.1804ZM52.3942 35.2716C49.8278 37.3726 46.6833 38.4231 42.9607 38.4231C39.2381 38.4231 36.0866 37.3726 33.5062 35.2716C30.9398 33.1565 29.6566 30.569 29.6566 27.5091V5.5119H36.1924V26.3458C36.1924 28.1084 36.848 29.6102 38.1594 30.851C39.4849 32.0919 41.0853 32.7123 42.9607 32.7123C44.8361 32.7123 46.4295 32.0919 47.7409 30.851C49.0523 29.6102 49.708 28.1084 49.708 26.3458V5.5119H56.2437V27.5091C56.2437 30.569 54.9605 33.1565 52.3942 35.2716ZM108.381 5.5119L99.4133 38.0001H92.3065L84.2902 16.3413L77.1411 38.0001H70.0766L60.199 5.5119H67.2635L73.8626 30.851L81.0963 5.5119H87.5474L95.606 30.8933L101.359 5.5119H108.381ZM127.692 31.4221H113.585L111.11 38.0001H104.045L117.075 5.5119H124.414L137.443 38.0001H130.379L127.692 31.4221ZM125.831 25.7747L120.776 12.1322L115.488 25.7747H125.831ZM140.15 5.5119H146.686V38.0001H140.15V5.5119ZM183.532 33.0719V38.0001H182.136C179.851 38.0001 177.948 37.1893 176.425 35.5677L176.213 35.3985C173.492 37.4149 170.354 38.4231 166.801 38.4231C162.148 38.4231 158.34 36.8227 155.379 33.6218C152.432 30.4209 150.959 26.4657 150.959 21.756C150.959 17.0463 152.439 13.0911 155.4 9.89019C158.362 6.68931 162.162 5.08887 166.801 5.08887C171.426 5.08887 175.226 6.69636 178.201 9.91134C181.177 13.1263 182.664 17.0745 182.664 21.756C182.664 25.4222 181.713 28.6865 179.809 31.549L180.317 32.0566C180.979 32.7194 181.917 33.0578 183.13 33.0719H183.532ZM166.801 32.0989C168.761 32.0989 170.453 31.6689 171.877 30.8087L167.372 26.0497L170.968 22.3694L175.304 26.8746C175.995 25.3376 176.34 23.6314 176.34 21.756C176.34 18.7243 175.487 16.2355 173.781 14.2896C172.075 12.3296 169.748 11.3496 166.801 11.3496C163.826 11.3496 161.478 12.3296 159.758 14.2896C158.051 16.2355 157.198 18.7243 157.198 21.756C157.198 24.7595 158.058 27.2342 159.779 29.1801C161.513 31.126 163.854 32.0989 166.801 32.0989ZM218.389 31.4221H204.281L201.806 38.0001H194.742L207.771 5.5119H215.11L228.139 38.0001H221.075L218.389 31.4221ZM216.527 25.7747L211.472 12.1322L206.184 25.7747H216.527ZM230.847 5.5119H242.099C246.781 5.5119 250.658 6.94313 253.732 9.80559C256.806 12.668 258.343 16.6515 258.343 21.756C258.343 26.9028 256.813 30.9004 253.753 33.7487C250.694 36.583 246.809 38.0001 242.099 38.0001H230.847V5.5119ZM242.057 32.2893C245.004 32.2893 247.373 31.4292 249.164 29.7089C250.954 27.9886 251.85 25.3376 251.85 21.756C251.85 18.0898 250.962 15.4107 249.185 13.7186C247.408 12.0265 245.032 11.1804 242.057 11.1804H237.34V32.2893H242.057ZM291.255 5.5119L278.225 38.0001H270.886L257.857 5.5119H265.175L274.587 30.428L283.936 5.5119H291.255ZM306.695 38.4231C302.042 38.4231 298.234 36.8227 295.273 33.6218C292.326 30.4209 290.853 26.4657 290.853 21.756C290.853 17.0463 292.333 13.0911 295.294 9.89019C298.256 6.68931 302.056 5.08887 306.695 5.08887C311.32 5.08887 315.12 6.69636 318.095 9.91134C321.071 13.1263 322.558 17.0745 322.558 21.756C322.558 26.4375 321.071 30.3857 318.095 33.6007C315.12 36.8157 311.32 38.4231 306.695 38.4231ZM299.673 29.1801C301.407 31.126 303.748 32.0989 306.695 32.0989C309.642 32.0989 311.969 31.126 313.675 29.1801C315.381 27.2342 316.234 24.7595 316.234 21.756C316.234 18.7243 315.381 16.2355 313.675 14.2896C311.969 12.3296 309.642 11.3496 306.695 11.3496C303.72 11.3496 301.372 12.3296 299.652 14.2896C297.945 16.2355 297.092 18.7243 297.092 21.756C297.092 24.7595 297.952 27.2342 299.673 29.1801ZM341.637 38.4231C337.012 38.4231 333.211 36.8157 330.236 33.6007C327.275 30.3857 325.794 26.4375 325.794 21.756C325.794 17.0463 327.275 13.0911 330.236 9.89019C333.197 6.68931 336.997 5.08887 341.637 5.08887C345.796 5.08887 349.251 6.30859 352.001 8.74803C354.764 11.1875 356.266 14.3672 356.506 18.2872H350.351C350.125 16.4682 349.279 14.8537 347.813 13.4436C346.36 12.0194 344.302 11.3073 341.637 11.3073C338.661 11.3073 336.307 12.3014 334.572 14.2896C332.852 16.2638 331.992 18.7525 331.992 21.756C331.992 24.7877 332.852 27.2976 334.572 29.2858C336.307 31.2599 338.661 32.247 341.637 32.247C344.175 32.247 346.205 31.542 347.728 30.1319C349.251 28.7077 350.125 27.1425 350.351 25.4363H356.506C356.224 28.9051 354.631 31.9368 351.726 34.5313C348.835 37.1259 345.472 38.4231 341.637 38.4231ZM383.156 31.4221H369.049L366.574 38.0001H359.509L372.539 5.5119H379.878L392.907 38.0001H385.843L383.156 31.4221ZM381.295 25.7747L376.24 12.1322L370.952 25.7747H381.295ZM415.412 11.1804H406.211V38.0001H399.76V11.1804H390.538V5.5119H415.412V11.1804ZM425.543 11.1804V18.9006H438.594V24.6114H425.543V32.2893H440.413V38.0001H419.008V5.5119H440.413V11.1804H425.543ZM465.879 35.9696C463.637 37.6053 460.753 38.4231 457.228 38.4231C453.703 38.4231 450.861 37.4361 448.704 35.462C446.561 33.4879 445.327 30.8369 445.003 27.5091L450.692 27.5514C451.468 30.7523 453.717 32.3598 457.439 32.3739C459.005 32.3739 460.253 32.0848 461.183 31.5067C462.128 30.9286 462.614 30.0473 462.643 28.8628C462.643 28.2847 462.488 27.7347 462.177 27.213C461.881 26.6913 461.55 26.2683 461.183 25.9439C460.831 25.6055 460.246 25.2319 459.428 24.8229C458.624 24.3999 457.982 24.0967 457.503 23.9134C457.023 23.716 456.269 23.4129 455.24 23.0039C454.112 22.5668 453.216 22.2002 452.554 21.9041C451.891 21.608 451.094 21.1849 450.163 20.635C449.247 20.0851 448.535 19.5281 448.027 18.9641C447.52 18.4 447.075 17.695 446.695 16.8489C446.328 15.9888 446.145 15.0511 446.145 14.0358C446.145 11.3849 447.238 9.23451 449.423 7.58471C451.623 5.92082 454.323 5.08887 457.524 5.08887C464.278 5.08887 468.297 8.60702 469.58 15.6433H463.51C463.369 14.2614 462.805 13.0699 461.818 12.0688C460.831 11.0535 459.456 10.5459 457.693 10.5459C456.34 10.5459 455.19 10.842 454.246 11.4342C453.315 12.0265 452.85 12.8091 452.85 13.782C452.85 14.3037 452.991 14.7832 453.273 15.2203C453.569 15.6433 454.055 16.0593 454.732 16.4682C455.409 16.8771 456.015 17.2015 456.551 17.4412C457.087 17.6668 457.891 17.9981 458.962 18.4353C460.034 18.8583 460.838 19.1897 461.374 19.4294C461.923 19.655 462.685 20.0146 463.658 20.5081C464.631 20.9875 465.378 21.4669 465.9 21.9464C466.436 22.4258 467 23.0039 467.592 23.6808C468.184 24.3576 468.607 25.1261 468.861 25.9862C469.129 26.8323 469.263 27.7629 469.263 28.7782C469.263 31.9227 468.135 34.3198 465.879 35.9696Z" fill="#A5812C"/>
<path d="M34.9858 74.1111H24.4164L22.5624 79.0393H17.2698L27.031 54.6995H32.5297L42.2909 79.0393H36.9983L34.9858 74.1111ZM33.5914 69.8802L29.8041 59.6594L25.8426 69.8802H33.5914ZM66.6466 54.6995V79.0393H61.655L49.2157 62.0997V79.0393H44.3193V54.6995H49.3108L61.7818 71.6074V54.6995H66.6466ZM70.5289 54.6995H78.9591C82.4664 54.6995 85.3715 55.7718 87.6745 57.9163C89.9775 60.0608 91.129 63.0452 91.129 66.8694C91.129 70.7253 89.9828 73.7203 87.6904 75.8542C85.398 77.9776 82.4875 79.0393 78.9591 79.0393H70.5289V54.6995ZM78.9274 74.7608C81.1353 74.7608 82.9101 74.1164 84.2518 72.8276C85.5934 71.5388 86.2642 69.5527 86.2642 66.8694C86.2642 64.1227 85.5987 62.1155 84.2676 60.8478C82.9365 59.5801 81.1565 58.9463 78.9274 58.9463H75.3937V74.7608H78.9274ZM102.253 54.6995H107.15V74.7608H115.358V79.0393H102.253V54.6995ZM123.249 58.9463V64.7302H133.026V69.0086H123.249V74.7608H134.389V79.0393H118.353V54.6995H134.389V58.9463H123.249ZM159.965 66.0296V70.9577V79.0393H156.685L156.099 76.0919C154.472 78.173 152.005 79.2083 148.698 79.1978C145.212 79.1978 142.413 78.0885 140.3 75.8701C138.198 73.6516 137.146 70.6936 137.146 66.9962C137.146 63.2987 138.192 60.3144 140.284 58.0431C142.376 55.7718 145.107 54.6361 148.477 54.6361C150.399 54.6361 152.126 54.9372 153.658 55.5394C155.201 56.1309 156.495 57.087 157.541 58.4075C158.597 59.7175 159.231 61.3285 159.442 63.2406H154.736C154.524 61.9835 153.885 60.9693 152.818 60.1981C151.762 59.427 150.478 59.0414 148.968 59.0414C146.612 59.0414 144.811 59.7386 143.564 61.1331C142.318 62.517 141.694 64.4713 141.694 66.9962C141.694 69.352 142.376 71.243 143.738 72.6691C145.101 74.0847 146.744 74.7925 148.667 74.7925C150.42 74.7925 151.91 74.3752 153.135 73.5407C154.361 72.7061 154.973 71.5652 154.973 70.1179H149.158V66.0296H159.965ZM179.313 74.1111H168.744L166.89 79.0393H161.597L171.358 54.6995H176.857L186.618 79.0393H181.326L179.313 74.1111ZM177.919 69.8802L174.132 59.6594L170.17 69.8802H177.919ZM188.647 54.6995H193.543V74.7608H201.752V79.0393H188.647V54.6995ZM223.857 79.3562C220.392 79.3562 217.545 78.1519 215.316 75.7433C213.097 73.3347 211.988 70.3767 211.988 66.8694C211.988 63.341 213.097 60.3777 215.316 57.9797C217.534 55.5816 220.381 54.3826 223.857 54.3826C226.973 54.3826 229.562 55.2964 231.622 57.124C233.692 58.9516 234.817 61.3338 234.997 64.2706H230.386C230.217 62.9079 229.583 61.6983 228.484 60.6418C227.396 59.5749 225.854 59.0414 223.857 59.0414C221.628 59.0414 219.864 59.7861 218.564 61.2757C217.276 62.7547 216.631 64.6192 216.631 66.8694C216.631 69.1407 217.276 71.0211 218.564 72.5107C219.864 73.9896 221.628 74.7291 223.857 74.7291C225.759 74.7291 227.28 74.2009 228.421 73.1445C229.562 72.0775 230.217 70.9049 230.386 69.6266H234.997C234.786 72.2254 233.592 74.4967 231.416 76.4405C229.25 78.3843 226.73 79.3562 223.857 79.3562ZM250.32 79.3562C246.834 79.3562 243.982 78.1572 241.763 75.7591C239.555 73.3611 238.451 70.3978 238.451 66.8694C238.451 63.341 239.561 60.3777 241.779 57.9797C243.998 55.5816 246.845 54.3826 250.32 54.3826C253.785 54.3826 256.632 55.5869 258.861 57.9955C261.09 60.4041 262.205 63.3621 262.205 66.8694C262.205 70.3767 261.09 73.3347 258.861 75.7433C256.632 78.1519 253.785 79.3562 250.32 79.3562ZM245.059 72.4314C246.359 73.8893 248.112 74.6182 250.32 74.6182C252.528 74.6182 254.271 73.8893 255.549 72.4314C256.828 70.9736 257.467 69.1196 257.467 66.8694C257.467 64.5981 256.828 62.7335 255.549 61.2757C254.271 59.8073 252.528 59.0731 250.32 59.0731C248.091 59.0731 246.332 59.8073 245.043 61.2757C243.765 62.7335 243.126 64.5981 243.126 66.8694C243.126 69.1196 243.77 70.9736 245.059 72.4314ZM287.67 54.6995V79.0393H282.678L270.239 62.0997V79.0393H265.342V54.6995H270.334L282.805 71.6074V54.6995H287.67ZM306.86 77.5181C305.18 78.7435 303.019 79.3562 300.378 79.3562C297.737 79.3562 295.609 78.6167 293.992 77.1378C292.387 75.6588 291.462 73.6727 291.219 71.1796L295.482 71.2113C296.063 73.6093 297.748 74.8136 300.537 74.8242C301.709 74.8242 302.644 74.6076 303.342 74.1745C304.049 73.7414 304.414 73.0811 304.435 72.1937C304.435 71.7606 304.319 71.3486 304.086 70.9577C303.865 70.5669 303.616 70.2499 303.342 70.007C303.078 69.7534 302.639 69.4735 302.026 69.1671C301.424 68.8502 300.944 68.6231 300.584 68.4857C300.225 68.3378 299.66 68.1107 298.889 67.8043C298.044 67.4768 297.373 67.2022 296.876 66.9803C296.38 66.7585 295.783 66.4416 295.086 66.0296C294.399 65.6176 293.866 65.2003 293.485 64.7777C293.105 64.3551 292.772 63.8269 292.487 63.1931C292.212 62.5487 292.075 61.8462 292.075 61.0855C292.075 59.0995 292.894 57.4884 294.531 56.2524C296.179 55.0059 298.202 54.3826 300.6 54.3826C305.66 54.3826 308.671 57.0183 309.633 62.2898H305.085C304.979 61.2546 304.557 60.3619 303.817 59.6118C303.078 58.8512 302.048 58.4709 300.727 58.4709C299.713 58.4709 298.852 58.6928 298.144 59.1364C297.447 59.5801 297.098 60.1665 297.098 60.8954C297.098 61.2863 297.204 61.6454 297.415 61.9729C297.637 62.2898 298.001 62.6015 298.509 62.9079C299.016 63.2142 299.47 63.4572 299.871 63.6368C300.273 63.8058 300.875 64.0541 301.678 64.3815C302.481 64.6985 303.083 64.9467 303.484 65.1263C303.896 65.2953 304.467 65.5647 305.196 65.9345C305.925 66.2937 306.484 66.6528 306.875 67.012C307.277 67.3712 307.699 67.8043 308.143 68.3114C308.587 68.8185 308.904 69.3942 309.094 70.0387C309.295 70.6725 309.395 71.3697 309.395 72.1304C309.395 74.4862 308.55 76.2821 306.86 77.5181ZM329.662 76.9951C327.74 78.5692 325.384 79.3562 322.595 79.3562C319.806 79.3562 317.445 78.5692 315.512 76.9951C313.589 75.4105 312.628 73.472 312.628 71.1796V54.6995H317.524V70.308C317.524 71.6286 318.015 72.7536 318.998 73.6833C319.991 74.6129 321.19 75.0778 322.595 75.0778C324 75.0778 325.194 74.6129 326.176 73.6833C327.159 72.7536 327.65 71.6286 327.65 70.308V54.6995H332.546V71.1796C332.546 73.472 331.585 75.4105 329.662 76.9951ZM336.524 54.6995H341.42V74.7608H349.628V79.0393H336.524V54.6995ZM367.455 58.9463H360.562V79.0393H355.729V58.9463H348.82V54.6995H367.455V58.9463ZM382.684 74.1111H372.114L370.26 79.0393H364.968L374.729 54.6995H380.228L389.989 79.0393H384.696L382.684 74.1111ZM381.289 69.8802L377.502 59.6594L373.54 69.8802H381.289ZM414.344 54.6995V79.0393H409.353L396.914 62.0997V79.0393H392.017V54.6995H397.009L409.48 71.6074V54.6995H414.344ZM435.658 58.9463H428.765V79.0393H423.931V58.9463H417.022V54.6995H435.658V58.9463ZM452.803 77.5181C451.124 78.7435 448.963 79.3562 446.322 79.3562C443.681 79.3562 441.552 78.6167 439.936 77.1378C438.33 75.6588 437.406 73.6727 437.163 71.1796L441.426 71.2113C442.007 73.6093 443.692 74.8136 446.481 74.8242C447.653 74.8242 448.588 74.6076 449.285 74.1745C449.993 73.7414 450.358 73.0811 450.379 72.1937C450.379 71.7606 450.263 71.3486 450.03 70.9577C449.808 70.5669 449.56 70.2499 449.285 70.007C449.021 69.7534 448.583 69.4735 447.97 69.1671C447.368 68.8502 446.887 68.6231 446.528 68.4857C446.169 68.3378 445.604 68.1107 444.833 67.8043C443.987 67.4768 443.317 67.2022 442.82 66.9803C442.324 66.7585 441.727 66.4416 441.03 66.0296C440.343 65.6176 439.809 65.2003 439.429 64.7777C439.049 64.3551 438.716 63.8269 438.431 63.1931C438.156 62.5487 438.019 61.8462 438.019 61.0855C438.019 59.0995 438.837 57.4884 440.475 56.2524C442.123 55.0059 444.146 54.3826 446.544 54.3826C451.604 54.3826 454.615 57.0183 455.576 62.2898H451.028C450.923 61.2546 450.5 60.3619 449.761 59.6118C449.021 58.8512 447.991 58.4709 446.671 58.4709C445.657 58.4709 444.796 58.6928 444.088 59.1364C443.391 59.5801 443.042 60.1665 443.042 60.8954C443.042 61.2863 443.148 61.6454 443.359 61.9729C443.581 62.2898 443.945 62.6015 444.452 62.9079C444.959 63.2142 445.414 63.4572 445.815 63.6368C446.217 63.8058 446.819 64.0541 447.622 64.3815C448.424 64.6985 449.027 64.9467 449.428 65.1263C449.84 65.2953 450.41 65.5647 451.139 65.9345C451.868 66.2937 452.428 66.6528 452.819 67.012C453.221 67.3712 453.643 67.8043 454.087 68.3114C454.53 68.8185 454.847 69.3942 455.038 70.0387C455.238 70.6725 455.339 71.3697 455.339 72.1304C455.339 74.4862 454.494 76.2821 452.803 77.5181Z" fill="#A5812C"/>
<path d="M89.9199 99.0706H94.531V117.963H102.261V121.992H89.9199V99.0706ZM107.305 103.935C106.648 103.935 106.081 103.702 105.604 103.234C105.136 102.757 104.902 102.185 104.902 101.518C104.902 100.841 105.141 100.264 105.619 99.7869C106.096 99.3094 106.658 99.0706 107.305 99.0706C107.982 99.0706 108.559 99.3094 109.036 99.7869C109.514 100.264 109.752 100.841 109.752 101.518C109.752 102.185 109.514 102.757 109.036 103.234C108.559 103.702 107.982 103.935 107.305 103.935ZM104.992 105.189H109.752V121.992H104.992V105.189ZM120.497 122.141C118.05 122.141 116.08 121.351 114.587 119.769C113.105 118.177 112.364 116.108 112.364 113.561C112.364 111.014 113.1 108.955 114.572 107.383C116.055 105.811 118.03 105.025 120.497 105.025C121.74 105.025 122.85 105.184 123.825 105.502C124.8 105.821 125.581 106.214 126.168 106.681C126.764 107.149 127.267 107.711 127.675 108.368C128.083 109.014 128.366 109.621 128.525 110.188C128.694 110.745 128.809 111.317 128.869 111.904H124.616C124.516 111.108 124.118 110.422 123.422 109.845C122.735 109.268 121.9 108.979 120.915 108.979C119.691 108.979 118.756 109.397 118.109 110.233C117.472 111.059 117.154 112.168 117.154 113.561C117.154 114.924 117.472 116.028 118.109 116.874C118.756 117.719 119.691 118.142 120.915 118.142C121.87 118.142 122.695 117.834 123.392 117.217C124.088 116.59 124.496 115.889 124.616 115.113H128.869C128.809 115.739 128.694 116.346 128.525 116.933C128.366 117.51 128.083 118.127 127.675 118.784C127.267 119.43 126.764 119.997 126.168 120.485C125.581 120.963 124.8 121.36 123.825 121.679C122.85 121.987 121.74 122.141 120.497 122.141ZM146.105 113.561C146.105 114.008 146.075 114.486 146.015 114.993H134.703C134.843 116.098 135.246 116.963 135.912 117.59C136.579 118.207 137.409 118.515 138.404 118.515C140.155 118.515 141.369 117.859 142.045 116.545H145.896C145.607 118.177 144.806 119.52 143.493 120.575C142.18 121.619 140.444 122.141 138.285 122.141C135.838 122.141 133.848 121.346 132.316 119.754C130.794 118.152 130.033 116.098 130.033 113.591C130.033 111.064 130.759 109.004 132.211 107.413C133.674 105.821 135.708 105.025 138.315 105.025C140.722 105.025 142.623 105.791 144.015 107.323C145.408 108.855 146.105 110.934 146.105 113.561ZM138.255 108.696C136.385 108.696 135.231 109.706 134.793 111.725H141.493C141.165 109.706 140.086 108.696 138.255 108.696ZM158.311 104.965C160.271 104.965 161.793 105.502 162.878 106.577C163.972 107.641 164.519 109.154 164.519 111.113V121.992H159.654V111.695C159.654 110.024 158.729 109.188 156.879 109.188C155.884 109.188 155.013 109.442 154.267 109.949C153.521 110.457 153.148 111.128 153.148 111.964V121.992H148.283V105.189H152.656L152.939 107.233C153.546 106.537 154.337 105.985 155.312 105.577C156.297 105.169 157.297 104.965 158.311 104.965ZM174.294 122.201C172.055 122.201 170.275 121.634 168.951 120.5C167.628 119.356 166.887 118.028 166.728 116.515H170.817C170.996 117.252 171.404 117.819 172.04 118.217C172.687 118.615 173.389 118.794 174.145 118.754C175.488 118.674 176.159 118.132 176.159 117.127C176.159 116.859 176.08 116.625 175.92 116.426C175.761 116.227 175.488 116.043 175.1 115.874C174.712 115.695 174.373 115.56 174.085 115.471C173.796 115.381 173.339 115.242 172.712 115.053C171.876 114.824 171.205 114.615 170.697 114.426C170.19 114.237 169.618 113.959 168.981 113.591C168.355 113.223 167.882 112.765 167.564 112.218C167.245 111.661 167.086 111.009 167.086 110.263C167.086 108.651 167.723 107.358 168.996 106.383C170.27 105.398 171.956 104.905 174.055 104.905C175.687 104.905 177.174 105.363 178.517 106.278C179.86 107.194 180.616 108.522 180.785 110.263H176.652C176.343 109.159 175.518 108.567 174.174 108.487C173.518 108.447 172.996 108.537 172.608 108.756C172.23 108.965 172.04 109.283 172.04 109.711C172.04 109.87 172.07 110.019 172.13 110.158C172.19 110.288 172.289 110.407 172.428 110.516C172.578 110.626 172.717 110.72 172.846 110.8C172.976 110.87 173.175 110.954 173.443 111.054C173.712 111.153 173.931 111.228 174.1 111.278C174.279 111.327 174.538 111.407 174.876 111.516C175.224 111.616 175.493 111.695 175.682 111.755C176.458 112.004 177.099 112.243 177.607 112.471C178.114 112.69 178.651 112.994 179.218 113.382C179.795 113.76 180.228 114.247 180.517 114.844C180.815 115.431 180.964 116.113 180.964 116.889C180.964 118.54 180.362 119.838 179.159 120.783C177.955 121.729 176.333 122.201 174.294 122.201ZM198.603 113.561C198.603 114.008 198.573 114.486 198.514 114.993H187.202C187.341 116.098 187.744 116.963 188.411 117.59C189.077 118.207 189.908 118.515 190.903 118.515C192.654 118.515 193.868 117.859 194.544 116.545H198.394C198.106 118.177 197.305 119.52 195.992 120.575C194.679 121.619 192.942 122.141 190.784 122.141C188.336 122.141 186.347 121.346 184.814 119.754C183.292 118.152 182.531 116.098 182.531 113.591C182.531 111.064 183.258 109.004 184.71 107.413C186.172 105.821 188.207 105.025 190.813 105.025C193.221 105.025 195.121 105.791 196.514 107.323C197.907 108.855 198.603 110.934 198.603 113.561ZM190.754 108.696C188.883 108.696 187.729 109.706 187.292 111.725H193.992C193.664 109.706 192.584 108.696 190.754 108.696ZM229.673 99.0706V121.992H224.972L213.257 106.04V121.992H208.646V99.0706H213.347L225.091 114.993V99.0706H229.673ZM247.282 119.724C245.64 121.375 243.566 122.201 241.059 122.201C238.552 122.201 236.477 121.375 234.836 119.724C233.194 118.062 232.374 116.008 232.374 113.561C232.374 111.113 233.194 109.059 234.836 107.398C236.477 105.736 238.552 104.905 241.059 104.905C243.566 104.905 245.64 105.736 247.282 107.398C248.923 109.059 249.744 111.113 249.744 113.561C249.744 116.008 248.923 118.062 247.282 119.724ZM241.059 117.963C242.203 117.963 243.138 117.54 243.864 116.695C244.601 115.849 244.969 114.804 244.969 113.561C244.969 112.317 244.601 111.268 243.864 110.412C243.138 109.556 242.203 109.129 241.059 109.129C239.895 109.129 238.95 109.551 238.223 110.397C237.507 111.243 237.149 112.297 237.149 113.561C237.149 114.824 237.507 115.874 238.223 116.709C238.95 117.545 239.895 117.963 241.059 117.963ZM253.952 122.291C253.276 122.291 252.689 122.042 252.191 121.545C251.694 121.047 251.445 120.465 251.445 119.799C251.445 119.102 251.694 118.505 252.191 118.008C252.699 117.51 253.286 117.262 253.952 117.262C254.649 117.262 255.246 117.51 255.743 118.008C256.24 118.505 256.489 119.102 256.489 119.799C256.489 120.475 256.24 121.062 255.743 121.559C255.246 122.047 254.649 122.291 253.952 122.291ZM272.77 128.379C271.099 126.917 269.746 124.842 268.711 122.156C267.676 119.48 267.159 116.595 267.159 113.501C267.159 109.939 267.741 106.831 268.905 104.174C270.079 101.508 271.581 99.3989 273.412 97.847H276.053C274.362 99.6178 273.034 101.951 272.069 104.846C271.114 107.741 270.636 110.626 270.636 113.501C270.636 116.147 271.153 118.908 272.188 121.783C273.233 124.648 274.416 126.857 275.74 128.409L272.77 128.379ZM295.065 117.157H293.05V121.992H288.618V117.157H277.739V114.352L287.454 99.0706H293.05V113.247H295.065V117.157ZM288.618 113.247V103.443L282.813 113.247H288.618ZM310.629 120.127C309.177 121.569 307.391 122.291 305.272 122.291C303.153 122.291 301.312 121.639 299.751 120.336C298.199 119.032 297.423 117.466 297.423 115.635L301.78 115.575C301.899 116.371 302.282 116.998 302.929 117.456C303.576 117.913 304.357 118.142 305.272 118.142C306.187 118.142 306.943 117.824 307.54 117.187C308.147 116.54 308.451 115.739 308.451 114.784C308.451 113.819 308.147 113.029 307.54 112.412C306.943 111.785 306.187 111.472 305.272 111.472H303.466L303.436 107.965H305.003C305.759 107.965 306.381 107.706 306.869 107.189C307.356 106.671 307.6 106.025 307.6 105.249C307.6 104.572 307.306 104.005 306.72 103.548C306.143 103.09 305.466 102.861 304.69 102.861C304.014 102.861 303.402 103.06 302.854 103.458C302.307 103.856 302.034 104.328 302.034 104.876L297.751 104.786C297.751 103.115 298.437 101.697 299.81 100.533C301.193 99.3591 302.82 98.7722 304.69 98.7722C306.56 98.7722 308.177 99.3591 309.54 100.533C310.913 101.697 311.599 103.115 311.599 104.786C311.599 106.557 310.803 107.955 309.212 108.979C310.336 109.586 311.216 110.397 311.853 111.412C312.5 112.417 312.823 113.551 312.823 114.814C312.823 116.913 312.092 118.684 310.629 120.127ZM327.97 109.218C329.054 109.845 329.9 110.671 330.507 111.695C331.123 112.71 331.432 113.839 331.432 115.083C331.432 117.142 330.671 118.858 329.149 120.231C327.626 121.604 325.716 122.291 323.418 122.291C321.14 122.291 319.24 121.604 317.718 120.231C316.205 118.858 315.449 117.142 315.449 115.083C315.449 113.839 315.753 112.71 316.36 111.695C316.967 110.671 317.802 109.855 318.867 109.248C317.295 107.945 316.509 106.467 316.509 104.816C316.509 103.105 317.18 101.672 318.524 100.518C319.877 99.3542 321.508 98.7722 323.418 98.7722C325.338 98.7722 326.97 99.3542 328.313 100.518C329.656 101.672 330.328 103.105 330.328 104.816C330.328 106.487 329.542 107.955 327.97 109.218ZM325.657 103.1C325.02 102.533 324.284 102.249 323.448 102.249C322.612 102.249 321.866 102.533 321.21 103.1C320.563 103.657 320.24 104.343 320.24 105.159C320.24 105.965 320.563 106.651 321.21 107.219C321.866 107.776 322.612 108.054 323.448 108.054C324.284 108.054 325.02 107.776 325.657 107.219C326.303 106.651 326.627 105.965 326.627 105.159C326.627 104.343 326.303 103.657 325.657 103.1ZM320.911 117.336C321.588 118.033 322.423 118.381 323.418 118.381C324.413 118.381 325.249 118.033 325.925 117.336C326.602 116.63 326.94 115.769 326.94 114.755C326.94 113.76 326.607 112.929 325.94 112.262C325.274 111.596 324.433 111.263 323.418 111.263C322.423 111.263 321.588 111.596 320.911 112.262C320.245 112.919 319.911 113.75 319.911 114.755C319.911 115.769 320.245 116.63 320.911 117.336ZM341.997 122.112C339.838 122.112 338.058 121.54 336.655 120.395C335.262 119.241 334.466 117.635 334.267 115.575L338.58 115.635C338.58 116.431 338.893 117.058 339.52 117.515C340.157 117.973 341.012 118.202 342.087 118.202C342.395 118.202 342.619 118.192 342.758 118.172C343.793 118.013 344.668 117.54 345.385 116.754C346.101 115.968 346.593 114.914 346.862 113.591C345.519 114.506 344.081 114.964 342.549 114.964C340.201 114.964 338.252 114.247 336.7 112.815C335.158 111.372 334.347 109.522 334.267 107.263C334.168 104.945 334.929 102.936 336.55 101.234C338.182 99.5233 340.182 98.6677 342.549 98.6677C344.688 98.6677 346.539 99.3989 348.101 100.861C349.673 102.314 350.593 104.149 350.861 106.368C351.001 107.572 351.07 108.795 351.07 110.039C351.07 113.809 350.314 116.764 348.802 118.903C347.3 121.042 345.032 122.112 341.997 122.112ZM342.609 111.352C343.813 111.352 344.823 110.934 345.638 110.099C346.454 109.263 346.862 108.233 346.862 107.01C346.862 105.806 346.449 104.796 345.623 103.98C344.798 103.155 343.783 102.742 342.579 102.742C341.375 102.742 340.361 103.164 339.535 104.01C338.709 104.856 338.296 105.88 338.296 107.084C338.296 108.308 338.709 109.328 339.535 110.143C340.361 110.949 341.385 111.352 342.609 111.352ZM368.814 119.187C367.411 121.256 365.182 122.291 362.128 122.291C359.074 122.291 356.836 121.256 355.413 119.187C354 117.107 353.294 114.222 353.294 110.531C353.294 106.95 354.05 104.095 355.562 101.966C357.084 99.8367 359.273 98.7722 362.128 98.7722C365.182 98.7722 367.411 99.8118 368.814 101.891C370.226 103.96 370.933 106.84 370.933 110.531C370.933 114.222 370.226 117.107 368.814 119.187ZM362.128 118.381C365.023 118.381 366.471 115.764 366.471 110.531C366.471 105.279 365.023 102.652 362.128 102.652C361.273 102.652 360.551 102.841 359.964 103.219C359.387 103.587 358.94 104.139 358.621 104.876C358.313 105.612 358.089 106.428 357.95 107.323C357.82 108.218 357.756 109.288 357.756 110.531C357.756 115.764 359.213 118.381 362.128 118.381ZM377.379 97.8768C379.051 99.3393 380.404 101.414 381.438 104.1C382.483 106.776 383.005 109.666 383.005 112.77C383.005 116.331 382.418 119.44 381.244 122.097C380.07 124.753 378.568 126.857 376.738 128.409H374.111C375.803 126.638 377.131 124.305 378.096 121.41C379.061 118.515 379.543 115.635 379.543 112.77C379.543 110.124 379.016 107.368 377.961 104.503C376.917 101.637 375.733 99.4188 374.41 97.847L377.379 97.8768Z" fill="#A5812C"/>
<mask id="mask0_816_2204" style="mask-type:luminance" maskUnits="userSpaceOnUse" x="153" y="138" width="133" height="90">
<path d="M153.711 138.163H285.656V227.315H153.711V138.163Z" fill="white"/>
</mask>
<g mask="url(#mask0_816_2204)">
<path d="M171.516 157.191H169.949V143.35H171.516V157.191ZM184.33 153.439C184.33 155.814 182.346 157.358 179.593 157.358C177.486 157.384 175.45 156.59 173.917 155.144L174.89 153.995C175.51 154.63 176.251 155.135 177.069 155.477C177.888 155.82 178.767 155.995 179.654 155.991C181.515 155.991 182.746 155.001 182.746 153.634C182.746 152.344 182.054 151.612 179.133 150.985C175.945 150.288 174.474 149.22 174.474 146.987C174.474 144.807 176.396 143.208 179.035 143.208C180.815 143.157 182.553 143.764 183.914 144.912L183.028 146.114C181.918 145.149 180.497 144.616 179.026 144.613C177.255 144.613 176.068 145.601 176.068 146.845C176.068 148.143 176.786 148.876 179.841 149.493C182.895 150.111 184.357 151.259 184.357 153.413L184.33 153.439ZM198.288 143.12C197.349 143.113 196.418 143.294 195.549 143.652C194.681 144.01 193.892 144.538 193.231 145.204C192.571 145.87 192.052 146.662 191.704 147.532C191.356 148.402 191.186 149.333 191.204 150.27V150.315C191.207 151.242 191.393 152.161 191.752 153.016C192.11 153.872 192.635 154.649 193.294 155.301C194.628 156.623 196.432 157.362 198.309 157.354C200.187 157.347 201.986 156.598 203.313 155.27C204.634 153.942 205.375 152.143 205.372 150.27C205.395 149.333 205.228 148.402 204.88 147.532C204.533 146.662 204.013 145.871 203.351 145.208C202.689 144.542 201.899 144.018 201.029 143.665C200.159 143.312 199.227 143.139 198.288 143.155V143.12ZM203.725 150.35C203.757 151.082 203.639 151.814 203.38 152.5C203.121 153.185 202.725 153.812 202.217 154.34C201.709 154.87 201.099 155.293 200.424 155.582C199.749 155.872 199.023 156.022 198.288 156.025C197.549 156.018 196.819 155.864 196.141 155.571C195.462 155.278 194.849 154.852 194.338 154.319C193.828 153.786 193.43 153.156 193.169 152.467C192.907 151.777 192.787 151.042 192.815 150.305C192.782 149.572 192.899 148.84 193.157 148.154C193.416 147.468 193.811 146.841 194.319 146.311C194.828 145.781 195.438 145.358 196.114 145.069C196.79 144.78 197.518 144.631 198.253 144.63C198.991 144.636 199.721 144.789 200.399 145.081C201.077 145.373 201.69 145.798 202.202 146.33C202.711 146.863 203.109 147.492 203.37 148.181C203.632 148.87 203.752 149.604 203.725 150.341V150.35ZM186.898 143.385H188.465V157.191H186.916L186.898 143.385ZM160.456 157.289L154.488 143.351H156.259L157.145 145.415L161.227 155.275L161.616 156.219L161.466 154.702L166.107 143.35H167.789L161.847 157.289H160.456ZM218.123 143.352H219.655V157.192H218.406L208.612 144.745L209.497 146.766V157.191H207.912V143.35H209.382L218.769 155.258L218.122 153.563L218.123 143.352ZM262.028 158.655H263.516V160.12H262.046L262.028 158.655ZM264.968 158.655H266.439V160.12H264.967L264.968 158.655ZM234.691 141.882H233.22V140.436H234.691V141.882ZM270.643 152.131C271.231 152.541 271.888 152.84 272.582 153.014C273.344 153.204 274.126 153.299 274.911 153.296H275.301L275.797 152.263V153.711C275.829 154.019 275.785 154.33 275.669 154.618C275.553 154.905 275.369 155.16 275.133 155.36C274.582 155.721 273.931 155.894 273.274 155.855C272.866 155.859 272.459 155.817 272.06 155.731C271.633 155.618 271.215 155.471 270.812 155.291L270.36 156.702C270.849 156.887 271.348 157.041 271.857 157.162C272.287 157.268 272.724 157.321 273.167 157.321C273.729 157.371 274.296 157.307 274.834 157.133C275.371 156.958 275.868 156.677 276.293 156.305C276.967 155.557 277.317 154.573 277.267 153.57V143.366H274.911C274.069 143.359 273.231 143.49 272.431 143.755C271.731 143.982 271.08 144.338 270.511 144.805C269.98 145.242 269.553 145.792 269.262 146.415C268.971 147.038 268.822 147.718 268.828 148.406C268.809 149.177 268.976 149.939 269.315 150.632C269.631 151.235 270.086 151.754 270.643 152.149V152.131ZM270.643 146.958C270.858 146.525 271.159 146.141 271.529 145.827C272.298 145.203 273.256 144.857 274.247 144.847H276.621L275.788 145.263V151.848H274.301C273.773 151.852 273.247 151.774 272.742 151.619C272.281 151.472 271.849 151.244 271.467 150.947C271.093 150.661 270.79 150.293 270.582 149.87C270.364 149.413 270.255 148.911 270.263 148.405C270.257 147.902 270.376 147.405 270.608 146.958H270.643ZM237.597 141.901H236.127V140.436H237.597V141.901ZM280.988 157.339C280.583 157.339 280.181 157.283 279.792 157.172L280.182 155.768C280.312 155.807 280.445 155.837 280.58 155.856H280.935C281.17 155.867 281.405 155.828 281.625 155.742C281.803 155.662 281.949 155.525 282.041 155.353C282.16 155.138 282.234 154.901 282.263 154.656C282.314 154.308 282.337 153.958 282.333 153.606V143.366H283.795V153.624C283.8 154.143 283.756 154.657 283.662 155.167C283.586 155.586 283.426 155.986 283.192 156.342C282.971 156.666 282.665 156.923 282.307 157.084C281.888 157.263 281.435 157.351 280.978 157.339H280.988ZM277.259 141.901H274.036V140.701C274.013 140.449 274.041 140.195 274.119 139.954C274.196 139.713 274.322 139.49 274.487 139.298C274.663 139.143 274.867 139.023 275.09 138.947C275.312 138.872 275.547 138.841 275.781 138.857H276.799V139.925H275.789C275.628 139.905 275.466 139.95 275.338 140.049C275.25 140.175 275.209 140.328 275.222 140.481V140.808H277.242L277.259 141.901ZM233.629 157.137H236.676V156.041C236.676 156.095 236.737 156.147 236.772 156.192C236.994 156.516 237.3 156.772 237.658 156.934C238.079 157.119 238.536 157.206 238.995 157.19H266.447V143.366H264.977V155.724H239.031C238.795 155.734 238.559 155.695 238.34 155.609C238.162 155.527 238.014 155.391 237.916 155.22C237.801 155.004 237.728 154.768 237.703 154.524C237.653 154.176 237.63 153.825 237.632 153.473V143.366H233.665C232.759 143.358 231.861 143.532 231.024 143.876C230.186 144.219 229.426 144.727 228.787 145.369C228.151 146.01 227.649 146.773 227.313 147.611C226.976 148.45 226.811 149.348 226.828 150.251C226.806 151.151 226.967 152.046 227.3 152.882C227.633 153.718 228.132 154.478 228.767 155.116C229.403 155.757 230.161 156.263 230.996 156.604C231.831 156.945 232.727 157.114 233.629 157.101V157.137ZM228.396 150.18C228.365 149.475 228.477 148.771 228.726 148.11C228.975 147.449 229.355 146.846 229.844 146.336C230.333 145.825 230.921 145.418 231.571 145.14C232.222 144.862 232.922 144.718 233.629 144.716H237.064L236.18 145.168V153.438C236.178 153.956 236.226 154.473 236.321 154.982C236.371 155.235 236.448 155.479 236.552 155.715H233.682C232.967 155.715 232.26 155.572 231.602 155.293C230.943 155.015 230.348 154.606 229.851 154.093C229.356 153.58 228.97 152.972 228.715 152.306C228.46 151.64 228.343 150.929 228.369 150.217L228.396 150.18ZM159.933 226.497H158.846L156.755 223.744L155.718 224.803V226.497H154.817V220.636H155.719V223.788L158.713 220.636H159.793L157.365 223.143L159.933 226.497ZM162.041 220.636H161.137V226.497H162.041V220.636ZM168.95 220.636V226.497H168.18L164.725 222.057V226.498H163.839V220.636H164.707L168.063 224.953V220.636H168.95ZM175.919 223.294V225.703C175.234 226.278 174.368 226.591 173.474 226.587C173.07 226.607 172.667 226.542 172.289 226.398C171.911 226.253 171.567 226.032 171.279 225.748C170.993 225.464 170.768 225.124 170.62 224.749C170.472 224.374 170.404 223.972 170.419 223.569C170.414 223.169 170.49 222.772 170.641 222.402C170.792 222.031 171.015 221.695 171.298 221.413C171.582 221.13 171.918 220.906 172.289 220.755C172.659 220.604 173.056 220.528 173.457 220.532C174.264 220.489 175.056 220.758 175.671 221.282L175.103 221.952C174.638 221.546 174.038 221.329 173.421 221.343C172.863 221.379 172.34 221.633 171.965 222.049C171.59 222.464 171.394 223.01 171.42 223.569C171.387 224.006 171.494 224.442 171.725 224.814C171.955 225.187 172.298 225.476 172.704 225.642C172.974 225.754 173.263 225.807 173.554 225.801C174.096 225.808 174.628 225.641 175.068 225.324V224.08H173.51V223.32L175.919 223.294ZM179.717 220.638H177.547V226.498H179.717C180.327 226.545 180.936 226.401 181.461 226.087C181.985 225.773 182.4 225.304 182.647 224.744C182.892 224.185 182.956 223.563 182.831 222.966C182.706 222.368 182.397 221.824 181.948 221.41C181.65 221.135 181.297 220.924 180.913 220.791C180.529 220.658 180.122 220.605 179.717 220.638ZM179.717 225.695H178.45V221.44H179.717C180.282 221.44 180.825 221.664 181.225 222.064C181.423 222.261 181.579 222.496 181.687 222.754C181.794 223.012 181.849 223.289 181.849 223.568C181.849 223.847 181.794 224.124 181.687 224.382C181.579 224.64 181.423 224.875 181.225 225.072C180.825 225.471 180.282 225.695 179.717 225.695ZM187.093 220.53C186.688 220.519 186.286 220.589 185.909 220.737C185.532 220.884 185.189 221.107 184.9 221.39C184.612 221.674 184.385 222.013 184.232 222.387C184.079 222.762 184.004 223.163 184.011 223.567C184.007 224.177 184.184 224.774 184.521 225.281C184.858 225.789 185.339 226.185 185.902 226.418C186.464 226.654 187.084 226.717 187.683 226.6C188.281 226.484 188.832 226.193 189.265 225.763C189.699 225.335 189.996 224.787 190.117 224.189C190.238 223.591 190.178 222.971 189.945 222.408C189.711 221.844 189.316 221.363 188.808 221.025C188.3 220.688 187.703 220.509 187.093 220.513V220.53ZM189.218 223.567C189.237 223.998 189.124 224.425 188.893 224.789C188.662 225.154 188.325 225.439 187.927 225.605C187.663 225.717 187.379 225.775 187.093 225.774C186.661 225.768 186.24 225.633 185.885 225.387C185.53 225.14 185.257 224.793 185.101 224.39C184.997 224.122 184.949 223.836 184.959 223.55C184.937 223.118 185.047 222.689 185.276 222.322C185.505 221.956 185.842 221.668 186.24 221.499C186.504 221.384 186.788 221.326 187.076 221.326C187.509 221.332 187.93 221.467 188.285 221.713C188.641 221.959 188.915 222.306 189.073 222.709C189.177 222.977 189.226 223.262 189.218 223.55V223.567ZM197.428 220.636V226.497H196.523V221.996L194.523 224.98L192.53 222.014V226.497H191.645V220.636H192.654L194.539 223.55L196.417 220.636H197.428ZM204.972 220.53C204.567 220.519 204.164 220.589 203.787 220.737C203.41 220.885 203.066 221.107 202.777 221.39C202.488 221.674 202.26 222.013 202.106 222.387C201.952 222.761 201.875 223.163 201.881 223.567C201.877 224.176 202.054 224.773 202.391 225.28C202.727 225.788 203.207 226.184 203.77 226.417C204.332 226.653 204.951 226.717 205.55 226.601C206.149 226.485 206.699 226.194 207.133 225.766C207.565 225.338 207.861 224.792 207.982 224.196C208.103 223.601 208.045 222.982 207.814 222.42C207.581 221.857 207.187 221.376 206.681 221.037C206.175 220.698 205.58 220.516 204.971 220.514L204.972 220.53ZM207.088 223.567C207.107 223.997 206.994 224.422 206.765 224.786C206.535 225.149 206.2 225.434 205.804 225.602C205.541 225.715 205.258 225.773 204.972 225.774C204.685 225.77 204.401 225.71 204.137 225.595C203.874 225.481 203.635 225.316 203.436 225.108C203.238 224.901 203.083 224.657 202.98 224.389C202.877 224.122 202.829 223.836 202.838 223.55C202.815 223.118 202.926 222.689 203.155 222.322C203.384 221.956 203.72 221.668 204.118 221.499C204.382 221.384 204.667 221.326 204.955 221.326C205.387 221.331 205.808 221.466 206.163 221.713C206.518 221.96 206.791 222.307 206.947 222.71C207.051 222.977 207.098 223.263 207.088 223.55V223.567ZM210.427 221.44V223.24H213.473V224.043H210.427V226.497H209.523V220.636H213.862V221.44H210.427ZM222.47 224.864C222.47 225.906 221.655 226.63 220.389 226.63C219.508 226.635 218.656 226.321 217.989 225.747L218.52 225.111C219.039 225.585 219.714 225.853 220.417 225.862C221.116 225.862 221.567 225.535 221.567 224.979C221.567 224.423 221.239 224.229 220.141 223.982C218.884 223.672 218.193 223.311 218.193 222.216C218.21 221.85 218.341 221.498 218.567 221.21C218.794 220.922 219.105 220.711 219.457 220.608C219.69 220.54 219.935 220.519 220.177 220.549C220.929 220.532 221.665 220.775 222.258 221.237L221.78 221.916C221.317 221.549 220.749 221.342 220.159 221.324C219.53 221.324 219.096 221.652 219.096 222.137C219.096 222.623 219.414 222.879 220.593 223.161C221.947 223.487 222.47 223.964 222.47 224.864ZM226.739 220.593H225.854L223.259 226.497H224.144L224.764 225.041H227.731L228.342 226.497H229.289L226.739 220.593ZM225.127 224.265L226.287 221.617L227.448 224.265H225.127ZM235.178 220.636V223.974C235.251 224.497 235.143 225.03 234.874 225.484C234.604 225.938 234.188 226.288 233.694 226.475C233.366 226.6 233.014 226.65 232.664 226.621C232.149 226.666 231.633 226.537 231.199 226.254C230.766 225.972 230.439 225.552 230.272 225.062C230.161 224.738 230.125 224.393 230.166 224.053V220.663H231.053V224.009C231.053 225.147 231.637 225.774 232.664 225.774C233.692 225.774 234.258 225.13 234.258 224.009V220.619L235.178 220.636ZM239.057 220.638H236.888V226.498H239.057C239.666 226.545 240.276 226.401 240.8 226.087C241.325 225.773 241.739 225.304 241.986 224.744C242.231 224.185 242.296 223.563 242.171 222.966C242.045 222.368 241.737 221.824 241.288 221.41C240.989 221.135 240.637 220.924 240.253 220.791C239.869 220.658 239.462 220.605 239.057 220.638ZM239.057 225.695H237.782V221.44H239.057C239.622 221.44 240.165 221.664 240.566 222.064C240.865 222.361 241.069 222.741 241.151 223.154C241.234 223.568 241.192 223.996 241.03 224.386C240.868 224.775 240.595 225.107 240.243 225.341C239.892 225.574 239.478 225.697 239.057 225.695ZM244.601 220.636H243.697V226.497H244.601V220.636ZM252.535 220.593H251.649L249.055 226.497H249.941L250.56 225.041H253.527L254.138 226.497H255.085L252.535 220.593ZM250.923 224.265L252.084 221.617L253.243 224.265H250.923ZM259.619 224.255H259.725C260.125 224.168 260.483 223.944 260.736 223.622C260.99 223.3 261.124 222.9 261.115 222.491C261.129 222.023 260.958 221.569 260.638 221.228C260.171 220.822 259.563 220.616 258.946 220.654H256.289V226.515H257.175V224.397H258.61L260.071 226.463H261.134L259.619 224.255ZM257.237 223.619V221.44H258.858C259.744 221.44 260.195 221.829 260.195 222.517C260.195 223.205 259.673 223.62 258.867 223.62L257.237 223.619ZM265.756 220.593H264.871L262.276 226.497H263.161L263.782 225.041H266.748L267.359 226.497H268.307L265.756 220.593ZM264.135 224.265L265.296 221.617L266.465 224.265H264.135ZM273.255 223.524L273.07 223.461L273.237 223.374C273.488 223.271 273.701 223.094 273.848 222.867C273.995 222.639 274.069 222.373 274.061 222.102C274.066 221.924 274.035 221.747 273.97 221.581C273.904 221.416 273.806 221.265 273.68 221.139C273.257 220.781 272.711 220.601 272.157 220.638H269.5V226.498H272.219C273.574 226.498 274.38 225.907 274.38 224.927C274.386 224.596 274.275 224.273 274.066 224.016C273.857 223.759 273.563 223.585 273.237 223.524H273.255ZM270.386 221.415H271.998C272.715 221.415 273.141 221.732 273.141 222.297C273.141 222.862 272.698 223.18 271.918 223.18H270.386V221.415ZM272.229 225.722H270.386V223.956H272.157C273.309 223.956 273.476 224.512 273.476 224.84C273.476 225.439 273.025 225.722 272.229 225.722ZM276.807 220.636H275.903V226.497H276.807V220.636ZM281.484 220.593H280.598L278.012 226.497H278.898L279.518 225.041H282.484L283.095 226.497H284.043L281.484 220.593ZM279.872 224.265L281.031 221.617L282.201 224.265H279.872ZM247.965 207.442H247.079V208.324H247.965V207.442ZM237.339 215.015H238.225V207.442H237.339V215.015ZM163.45 209.287H162.564V214.168H159.199V209.287H157.898C157.411 209.281 156.927 209.353 156.463 209.499C156.062 209.628 155.69 209.831 155.365 210.098C155.07 210.34 154.829 210.64 154.657 210.982C154.491 211.338 154.406 211.727 154.409 212.12C154.399 212.565 154.497 213.007 154.692 213.409C154.877 213.755 155.137 214.057 155.453 214.291C155.789 214.532 156.168 214.705 156.569 214.803C157.002 214.92 157.449 214.979 157.898 214.979H163.45V209.287ZM158.394 214.166H157.561C157.261 214.168 156.962 214.123 156.676 214.034C156.41 213.944 156.162 213.81 155.941 213.636C155.721 213.451 155.546 213.218 155.431 212.955C155.316 212.691 155.263 212.405 155.276 212.118C155.273 211.83 155.339 211.545 155.471 211.288C155.596 211.041 155.771 210.822 155.984 210.644C156.202 210.464 156.451 210.326 156.72 210.239C157.004 210.136 157.304 210.086 157.606 210.088H158.437L158.394 214.166ZM161.103 216.876H161.989V215.994H161.103V216.876ZM159.225 207.44H158.341V208.323H159.225V207.44ZM210.915 207.44H210.029V208.323H210.915V207.44ZM162.564 216.876H163.45V215.994H162.564V216.876ZM212.393 207.44H211.508V208.323H212.393V207.44ZM246.487 207.44H245.6V208.323H246.486L246.487 207.44ZM157.747 207.44H156.861V208.323H157.747V207.44ZM215.218 216.876H216.104V215.994H215.218V216.876ZM220.647 209.286H219.761V214.166H216.584V209.286H215.698V214.166H212.331V209.286H211.002C210.513 209.281 210.026 209.352 209.559 209.498C209.158 209.628 208.787 209.832 208.461 210.097C208.167 210.339 207.929 210.639 207.761 210.981C207.595 211.337 207.51 211.726 207.514 212.119C207.498 212.565 207.596 213.008 207.796 213.408C207.978 213.756 208.239 214.058 208.557 214.29C208.891 214.53 209.267 214.704 209.665 214.801C210.101 214.919 210.551 214.978 211.002 214.978H220.646L220.647 209.286ZM211.552 214.166H210.711C210.411 214.166 210.112 214.122 209.825 214.034C209.562 213.943 209.317 213.809 209.099 213.636C208.89 213.463 208.721 213.246 208.603 213.001C208.478 212.724 208.418 212.422 208.427 212.118C208.423 211.83 208.489 211.545 208.621 211.288C208.888 210.788 209.338 210.412 209.878 210.239C210.162 210.136 210.462 210.086 210.764 210.088H211.605L211.552 214.166ZM216.697 216.876H217.583V215.994H216.697V216.876ZM168.879 210.027C168.666 209.791 168.407 209.601 168.116 209.471C167.794 209.338 167.447 209.275 167.098 209.286H166.479V210.168H167.214C167.415 210.168 167.614 210.213 167.798 210.3C167.973 210.38 168.127 210.497 168.249 210.644C168.367 210.785 168.453 210.951 168.497 211.129C168.547 211.338 168.571 211.55 168.568 211.765V214.21H164.629V215.094H169.446V211.687C169.444 211.387 169.399 211.09 169.313 210.803C169.231 210.533 169.092 210.283 168.906 210.07L168.879 210.027ZM234.062 214.21H230.467L231.946 210.679C231.717 210.481 231.477 210.295 231.228 210.123C230.977 209.953 230.714 209.803 230.44 209.673C230.18 209.542 229.909 209.439 229.626 209.365C229.36 209.293 229.086 209.254 228.811 209.25C228.533 209.253 228.256 209.292 227.987 209.365C227.72 209.438 227.459 209.536 227.209 209.656C226.931 209.784 226.668 209.937 226.419 210.115C226.175 210.285 225.942 210.471 225.721 210.671L227.209 214.202H224.021V209.286H223.135V215.19C223.147 215.393 223.147 215.596 223.135 215.799C223.115 215.938 223.069 216.073 223.002 216.196C222.944 216.291 222.862 216.368 222.763 216.418C222.636 216.467 222.5 216.491 222.364 216.488H222.161L221.931 216.435L221.709 217.247C221.936 217.307 222.166 217.336 222.4 217.335C222.661 217.345 222.922 217.297 223.162 217.194C223.369 217.082 223.544 216.918 223.666 216.717C223.798 216.513 223.889 216.286 223.932 216.045C223.987 215.755 224.014 215.461 224.011 215.164V214.987H234.904V207.441H234.018L234.062 214.21ZM228.067 214.21L226.739 210.97C227.035 210.715 227.375 210.512 227.74 210.371C228.083 210.247 228.447 210.184 228.812 210.186C229.201 210.186 229.585 210.26 229.944 210.406C230.292 210.541 230.616 210.732 230.901 210.971L229.573 214.211L228.067 214.21ZM219.788 216.92H220.673V216.037H219.788V216.92ZM282.89 215.058H283.776V207.441H282.89V215.058ZM279.579 214.175H276.674C276.852 213.785 276.942 213.359 276.94 212.931C276.941 212.513 276.86 212.099 276.701 211.712C276.547 211.35 276.325 211.02 276.046 210.742C275.768 210.461 275.437 210.238 275.072 210.088C274.684 209.929 274.269 209.848 273.85 209.85C273.441 209.845 273.036 209.93 272.662 210.097C272.304 210.25 271.979 210.471 271.707 210.75C271.35 211.118 271.09 211.568 270.949 212.061C270.809 212.554 270.792 213.074 270.901 213.575C270.943 213.781 271.004 213.981 271.086 214.176H268.431C268.606 213.784 268.696 213.36 268.697 212.931C268.695 212.513 268.614 212.1 268.458 211.712C268.304 211.35 268.082 211.02 267.803 210.742C267.525 210.461 267.194 210.238 266.829 210.088C266.441 209.929 266.025 209.848 265.606 209.85C265.197 209.846 264.792 209.93 264.419 210.097C264.06 210.249 263.735 210.471 263.463 210.75C263.106 211.118 262.846 211.568 262.705 212.061C262.565 212.554 262.548 213.074 262.657 213.575C262.699 213.781 262.761 213.981 262.843 214.176H260.187V207.441H259.302V214.166H256.645V212.878C256.645 212.563 256.604 212.254 256.52 211.95C256.438 211.664 256.292 211.4 256.095 211.177C255.897 210.954 255.652 210.778 255.378 210.662C255.046 210.529 254.691 210.466 254.334 210.477H250.588L252.182 207.441H251.296L249.666 210.468C249.688 210.634 249.732 210.793 249.799 210.944C249.862 211.083 249.945 211.21 250.047 211.324H254.369C254.605 211.32 254.84 211.363 255.06 211.447C255.237 211.514 255.395 211.623 255.52 211.764C255.645 211.906 255.733 212.076 255.777 212.26C255.818 212.464 255.838 212.669 255.838 212.878V214.166H248.011V209.286H246.672C246.185 209.28 245.701 209.351 245.237 209.498C244.834 209.628 244.459 209.832 244.129 210.097C243.839 210.342 243.601 210.642 243.43 210.981C243.263 211.337 243.179 211.726 243.182 212.119C243.173 212.564 243.269 213.006 243.465 213.408C243.651 213.754 243.91 214.056 244.227 214.29C244.561 214.528 244.936 214.702 245.335 214.801C245.772 214.919 246.218 214.978 246.672 214.978H263.496C263.779 215.281 264.123 215.522 264.504 215.686C264.885 215.85 265.296 215.934 265.711 215.932C266.142 215.936 266.57 215.852 266.968 215.685C267.353 215.524 267.7 215.283 267.987 214.978H271.706C271.989 215.281 272.332 215.522 272.713 215.686C273.094 215.85 273.505 215.934 273.919 215.932C274.354 215.936 274.784 215.852 275.186 215.685C275.568 215.52 275.91 215.281 276.195 214.978H280.499V207.441H279.613L279.579 214.175ZM247.124 214.175H246.291C245.991 214.176 245.693 214.131 245.406 214.043C245.141 213.953 244.892 213.819 244.671 213.646C244.348 213.367 244.124 212.99 244.037 212.572C243.949 212.154 244.001 211.718 244.185 211.333C244.45 210.832 244.901 210.455 245.442 210.282C245.724 210.18 246.025 210.129 246.328 210.133H247.159L247.124 214.175ZM267.704 213.805C267.593 214.067 267.43 214.304 267.226 214.502C267.024 214.702 266.783 214.859 266.518 214.962C266.235 215.07 265.934 215.124 265.632 215.119C265.328 215.126 265.026 215.069 264.746 214.952C264.488 214.842 264.256 214.68 264.065 214.475C263.863 214.27 263.704 214.028 263.597 213.761C263.491 213.494 263.439 213.208 263.444 212.921C263.44 212.62 263.495 212.32 263.604 212.039C263.71 211.78 263.863 211.539 264.055 211.332C264.251 211.132 264.482 210.971 264.737 210.856C265.017 210.737 265.318 210.677 265.623 210.679C265.926 210.677 266.228 210.733 266.508 210.848C266.77 210.957 267.01 211.113 267.217 211.307C267.416 211.511 267.575 211.75 267.686 212.013C267.797 212.294 267.853 212.594 267.855 212.895C267.855 213.198 267.796 213.498 267.678 213.779L267.704 213.805ZM275.887 213.778C275.775 214.039 275.612 214.276 275.409 214.475C275.205 214.673 274.964 214.83 274.699 214.934C274.417 215.044 274.117 215.098 273.815 215.094C273.522 215.104 273.231 215.052 272.961 214.941C272.691 214.83 272.447 214.662 272.247 214.449C272.045 214.245 271.886 214.002 271.78 213.735C271.673 213.468 271.621 213.182 271.627 212.895C271.623 212.593 271.677 212.293 271.786 212.012C271.897 211.752 272.048 211.517 272.238 211.306C272.434 211.106 272.665 210.946 272.919 210.83C273.2 210.71 273.501 210.65 273.805 210.653C274.109 210.65 274.409 210.708 274.691 210.821C274.953 210.93 275.193 211.086 275.399 211.28C275.598 211.484 275.757 211.724 275.868 211.987C276.096 212.552 276.096 213.185 275.868 213.752L275.887 213.778ZM198.277 214.123H196.94C196.54 214.14 196.14 214.067 195.772 213.911C195.49 213.772 195.258 213.55 195.107 213.275C195.157 213.015 195.181 212.753 195.178 212.489V209.815H194.337V212.665C194.358 213.09 194.215 213.508 193.939 213.832C193.786 213.986 193.602 214.106 193.398 214.182C193.195 214.258 192.977 214.289 192.76 214.272C192.316 214.285 191.883 214.131 191.547 213.84C191.405 213.706 191.288 213.547 191.202 213.372C191.115 213.193 191.067 212.998 191.061 212.799V209.815H190.176V212.736C190.183 212.96 190.144 213.183 190.06 213.39C189.989 213.555 189.884 213.702 189.751 213.822C189.618 213.942 189.461 214.032 189.29 214.086C189.114 214.139 188.932 214.166 188.749 214.166H187.155V209.815H186.27V214.166H181.842L183.33 210.636C183.097 210.439 182.855 210.253 182.604 210.08C182.356 209.91 182.095 209.759 181.824 209.63C181.564 209.497 181.293 209.394 181.01 209.321C180.475 209.168 179.908 209.168 179.373 209.321C179.089 209.398 178.814 209.498 178.548 209.62C178.274 209.748 178.014 209.902 177.769 210.08C177.52 210.248 177.283 210.433 177.06 210.636L178.556 214.166H175.645V209.286H174.291C173.803 209.278 173.318 209.353 172.856 209.506C172.456 209.642 172.084 209.848 171.758 210.115C171.456 210.353 171.21 210.654 171.039 210.999C170.869 211.355 170.781 211.748 170.783 212.145C170.772 212.591 170.869 213.033 171.066 213.434C171.248 213.783 171.508 214.086 171.828 214.317C172.164 214.553 172.544 214.725 172.944 214.819C173.383 214.93 173.836 214.986 174.289 214.987H174.795V215.225C174.812 215.403 174.787 215.583 174.721 215.749C174.654 215.915 174.549 216.063 174.414 216.18C174.096 216.385 173.72 216.484 173.342 216.462C173.106 216.464 172.873 216.437 172.642 216.382C172.397 216.321 172.157 216.238 171.925 216.135L171.668 216.948C171.986 217.062 172.282 217.15 172.554 217.212C172.802 217.271 173.054 217.301 173.308 217.3C173.627 217.326 173.948 217.287 174.252 217.187C174.555 217.087 174.836 216.927 175.078 216.717C175.272 216.505 175.423 216.256 175.52 215.985C175.618 215.714 175.66 215.426 175.645 215.138V214.987H188.793C189.16 214.993 189.523 214.908 189.85 214.738C190.176 214.569 190.455 214.321 190.661 214.017C190.863 214.348 191.15 214.62 191.494 214.801C191.885 215.002 192.321 215.098 192.76 215.084C193.205 215.099 193.648 215.012 194.053 214.828C194.406 214.652 194.695 214.367 194.876 214.016C194.951 214.142 195.037 214.26 195.133 214.369C195.246 214.498 195.379 214.601 195.531 214.679C195.716 214.779 195.911 214.853 196.116 214.899C196.318 214.943 196.521 214.967 196.727 214.97H199.172V207.441H198.286L198.277 214.123ZM174.749 214.123H173.864C173.564 214.124 173.265 214.079 172.978 213.99C172.711 213.908 172.461 213.776 172.243 213.601C172.036 213.432 171.868 213.222 171.748 212.984C171.623 212.706 171.562 212.404 171.57 212.1C171.567 211.812 171.633 211.527 171.765 211.271C171.894 211.021 172.072 210.799 172.288 210.618C172.508 210.441 172.757 210.3 173.023 210.203C173.307 210.103 173.607 210.056 173.908 210.062H174.794L174.749 214.123ZM179.416 214.123L178.097 210.883C178.391 210.624 178.73 210.42 179.098 210.282C179.812 210.025 180.596 210.037 181.301 210.318C181.647 210.453 181.967 210.644 182.25 210.883L180.93 214.123H179.416ZM201.555 215.005H202.44V207.441H201.555V215.005ZM267.394 164.64C257.015 164.64 249.479 172.442 249.479 181.967V182.064C249.479 191.589 256.927 199.294 267.296 199.294C277.666 199.294 285.202 191.492 285.202 181.967V181.871C285.202 172.346 277.765 164.64 267.394 164.64ZM277.469 182.064C277.469 187.801 273.343 192.498 267.392 192.498C261.442 192.498 257.208 187.714 257.208 181.966V181.871C257.208 176.124 261.343 171.436 267.295 171.436C273.247 171.436 277.469 176.221 277.469 181.967V182.064ZM166.468 192.357H179.281V198.721H154.408V192.886L165.601 183.741C169.772 180.29 171.41 178.445 171.41 175.7C171.41 172.955 169.532 171.34 166.893 171.34C164.255 171.34 162.519 172.778 160.031 175.841L154.841 171.701C158.152 167.2 161.367 164.763 167.371 164.763C174.332 164.763 178.945 168.833 178.945 175.1V175.197C178.945 180.793 176.067 183.573 170.09 188.164L162.767 193.769L161.341 194.864L166.468 192.357ZM247.574 188.233V188.331C247.574 194.652 242.961 199.294 235.468 199.294C229.42 199.294 225.241 196.903 222.363 193.504L227.455 188.667C229.757 191.253 232.157 192.692 235.566 192.692C238.356 192.692 240.322 191.111 240.322 188.622V188.526C240.322 185.798 237.868 184.262 233.742 184.262H230.669L229.518 179.574L240.304 168.762L235.982 171.534H224.328V165.214H247.042V170.766L238.542 178.851C243.146 179.645 247.574 182.01 247.574 188.233ZM211.543 183.529C211.176 183.318 210.787 183.149 210.382 183.026C209.347 182.698 208.25 182.616 207.178 182.788C206.704 182.864 206.238 182.985 205.788 183.15H205.645C205.398 183.247 205.157 183.353 204.91 183.476C204.663 183.6 204.494 183.698 204.281 183.83C203.812 184.112 203.342 184.439 202.883 184.784C202.524 182.316 202.476 179.813 202.741 177.333C203.847 178.03 203.538 179.981 203.307 180.537C203.763 180.009 204.048 179.355 204.124 178.661C204.2 177.967 204.063 177.267 203.732 176.653C203.916 176.807 204.082 176.978 204.228 177.165C204.595 177.642 204.815 178.216 204.857 178.816C204.88 179.066 204.88 179.316 204.857 179.566C204.861 179.622 204.861 179.678 204.857 179.734C205.088 179.284 205.208 178.787 205.208 178.282C205.208 177.777 205.088 177.279 204.857 176.83C204.696 176.504 204.483 176.206 204.228 175.947L203.981 175.709L204.22 175.78C204.445 175.857 204.654 175.966 204.848 176.106C205.248 176.407 205.554 176.813 205.733 177.28C205.877 177.633 205.953 178.01 205.955 178.392C206.076 178.031 206.119 177.648 206.08 177.269C206.042 176.891 205.924 176.524 205.733 176.195C205.513 175.834 205.209 175.531 204.848 175.311C204.563 175.134 204.248 175.014 203.918 174.958H204.21C204.422 174.956 204.632 174.974 204.839 175.012C205.155 175.064 205.457 175.18 205.724 175.356C205.964 175.517 206.165 175.733 206.31 175.983C206.268 175.528 206.052 175.107 205.706 174.808C205.45 174.59 205.147 174.433 204.822 174.349C204.617 174.289 204.406 174.257 204.193 174.252C203.926 174.247 203.661 174.295 203.414 174.393C203.608 174.123 203.889 173.926 204.21 173.837C204.413 173.773 204.627 173.746 204.839 173.758C205.018 173.769 205.189 173.81 205.353 173.882C205.204 173.712 205.027 173.569 204.83 173.458C204.474 173.252 204.052 173.194 203.654 173.294C203.256 173.395 202.912 173.647 202.696 173.996C202.423 173.512 202.237 172.983 202.147 172.434C202.083 172.83 201.966 173.216 201.801 173.582C201.742 173.723 201.675 173.861 201.598 173.996C201.387 173.664 201.062 173.419 200.683 173.309C200.305 173.199 199.899 173.231 199.543 173.399C199.307 173.51 199.1 173.675 198.942 173.882C199.275 173.744 199.644 173.719 199.993 173.811C200.342 173.904 200.651 174.108 200.872 174.393C200.442 174.241 199.977 174.218 199.534 174.328C199.092 174.438 198.692 174.676 198.383 175.012C198.156 175.288 198.017 175.626 197.985 175.983C198.083 175.806 198.211 175.647 198.366 175.515C198.643 175.289 198.964 175.124 199.309 175.032C199.654 174.939 200.015 174.92 200.367 174.976C199.925 175.054 199.51 175.242 199.16 175.523C198.81 175.804 198.537 176.169 198.366 176.583C198.181 177.157 198.181 177.774 198.366 178.348V178.295C198.355 177.707 198.541 177.133 198.894 176.662C199.247 176.192 199.747 175.854 200.314 175.7C199.727 176.161 199.318 176.811 199.156 177.541C198.995 178.27 199.091 179.032 199.428 179.698C199.354 179.133 199.426 178.559 199.639 178.03C199.851 177.501 200.197 177.036 200.642 176.68C200.309 177.294 200.171 177.994 200.246 178.688C200.322 179.382 200.608 180.037 201.066 180.564C200.836 180.008 200.526 178.057 201.634 177.36C201.907 179.844 201.871 182.352 201.528 184.828C200.683 184.149 199.747 183.593 198.747 183.176L198.401 183.062C197.563 182.779 196.681 182.653 195.798 182.691C194.875 182.735 193.972 182.966 193.141 183.37L192.876 183.512L193.115 183.441C193.978 183.196 194.877 183.106 195.772 183.177C196.674 183.26 197.555 183.497 198.375 183.883C199.518 184.425 200.578 185.122 201.527 185.956C200.546 186.903 199.508 187.788 198.419 188.606C198.39 188.631 198.357 188.652 198.321 188.667C198.223 188.532 198.082 188.435 197.921 188.392C197.76 188.349 197.589 188.363 197.437 188.432C197.285 188.5 197.161 188.618 197.086 188.767C197.011 188.916 196.989 189.086 197.025 189.249C197.05 189.357 197.099 189.455 197.17 189.541C197.328 189.707 197.536 189.815 197.763 189.849C197.989 189.882 198.22 189.839 198.419 189.726C199.305 189.347 200.464 188.137 201.855 186.866L202.209 186.548L202.563 186.866C203.192 187.439 203.777 188.005 204.334 188.482C204.555 188.685 204.759 188.861 204.963 189.029C205.237 189.26 205.532 189.461 205.849 189.629C206.048 189.783 206.292 189.867 206.544 189.867C206.796 189.867 207.04 189.783 207.239 189.629L207.3 189.567C207.364 189.479 207.409 189.379 207.434 189.273C207.458 189.167 207.461 189.057 207.442 188.95C207.408 188.813 207.338 188.688 207.239 188.588C207.163 188.518 207.073 188.465 206.975 188.432C206.877 188.399 206.773 188.388 206.671 188.398C206.568 188.408 206.468 188.439 206.378 188.49C206.289 188.541 206.211 188.611 206.149 188.694L205.786 188.473C205.477 188.255 205.181 188.019 204.901 187.766L204.273 187.211L202.873 185.948C203.316 185.578 203.759 185.225 204.273 184.889L204.901 184.492C205.183 184.323 205.478 184.167 205.786 184.024C206.235 183.809 206.698 183.632 207.177 183.494C208.218 183.195 209.313 183.132 210.382 183.309C210.771 183.366 211.152 183.454 211.525 183.574M202.19 200.397L200.086 202.494L202.19 204.591L204.294 202.494L202.19 200.397ZM185.262 188.378L184.499 190.72L186.848 191.482L187.612 189.14L185.262 188.378ZM192.084 167.851L191.765 169.866L193.785 170.184L194.105 168.17L192.084 167.851ZM217.945 180.28L216.499 181.722L217.945 183.164L219.392 181.722L217.945 180.28ZM216.737 175.511L215.807 177.328L217.631 178.254L218.559 176.437L216.737 175.511ZM193.783 193.272L191.763 193.59L192.083 195.605L194.104 195.287L193.783 193.272ZM212.307 167.853L210.288 168.171L210.607 170.185L212.629 169.867L212.307 167.853ZM197.776 195.292L195.952 196.217L196.88 198.035L198.704 197.109L197.776 195.292ZM202.192 164.578L200.746 166.02L202.192 167.46L203.639 166.02L202.192 164.578ZM199.867 167.057L198.872 168.422L200.24 169.412L201.234 168.048L199.867 167.057ZM204.157 194.04L203.163 195.404L204.531 196.395L205.525 195.032L204.157 194.04ZM190.529 174.468L188.921 174.988L189.443 176.592L191.052 176.071L190.529 174.468ZM214.954 186.866L213.346 187.385L213.868 188.99L215.477 188.469L214.954 186.866ZM188.477 182.681L187.483 184.044L188.85 185.036L189.845 183.672L188.477 182.681Z" fill="#A5812C"/>
<path d="M222.658 186.152L220.007 187.498L221.358 190.141L224.008 188.794L222.658 186.152ZM191.187 196.83L188.249 197.295L188.714 200.224L191.652 199.76L191.187 196.83ZM215.676 163.229L212.738 163.692L213.203 166.621L216.141 166.157L215.676 163.229ZM184.033 182.844L182.581 184.836L184.579 186.284L186.032 184.29L184.033 182.844ZM196.882 165.427L195.954 167.245L197.776 168.169L198.704 166.353L196.882 165.427ZM187.66 175.502L185.837 176.428L186.766 178.244L188.588 177.32L187.66 175.502ZM202.197 195.992L200.751 197.434L202.197 198.876L203.643 197.434L202.197 195.992ZM213.864 174.464L213.342 176.066L214.95 176.588L215.473 174.985L213.864 174.464ZM193.355 190.542H191.663V192.228H193.355V190.542ZM183.024 173.315L180.373 174.662L181.724 177.304L184.374 175.958L183.024 173.315ZM181.722 186.159L180.371 188.801L183.022 190.148L184.373 187.505L181.722 186.159ZM193.174 164.086L192.41 166.428L194.76 167.189L195.524 164.847L193.174 164.086ZM209.632 196.278L208.87 198.622L211.219 199.381L211.982 197.039L209.632 196.278ZM219.136 188.383L216.785 189.144L217.549 191.486L219.899 190.725L219.136 188.383ZM220.368 182.839L218.369 184.287L219.82 186.279L221.819 184.832L220.368 182.839ZM217.549 171.982L216.785 174.324L219.135 175.085L219.899 172.743L217.549 171.982ZM216.244 167.734H213.773V170.196H216.244V167.734ZM194.778 196.142L192.431 196.905L193.197 199.245L195.544 198.48L194.778 196.142ZM204.982 197.968L203.524 199.962L205.525 201.416L206.983 199.42L204.982 197.968ZM186.766 185.209L185.837 187.027L187.66 187.952L188.588 186.135L186.766 185.209ZM193.355 171.229H191.663V172.914H193.355V171.229ZM188.846 178.413L187.478 179.404L188.473 180.768L189.842 179.776L188.846 178.413ZM208.962 168.5L207.354 169.021L207.876 170.623L209.485 170.104L208.962 168.5ZM204.528 167.063L203.159 168.054L204.153 169.418L205.521 168.427L204.528 167.063ZM212.419 187.912L211.038 188.13L211.257 189.508L212.639 189.289L212.419 187.912ZM214.109 180.747L213.119 181.733L214.109 182.719L215.097 181.733L214.109 180.747ZM221.354 173.316L220.003 175.959L222.653 177.305L224.005 174.663L221.354 173.316ZM216.244 193.268H213.773V195.731H216.244V193.268ZM186.843 171.988L184.494 172.749L185.258 175.091L187.607 174.33L186.843 171.988ZM211.211 164.091L208.861 164.852L209.625 167.194L211.974 166.433L211.211 164.091ZM199.258 162.202L197.801 164.197L199.802 165.649L201.26 163.655L199.258 162.202ZM217.628 185.208L215.805 186.133L216.734 187.949L218.556 187.025L217.628 185.208ZM186.438 180.282L184.992 181.724L186.438 183.166L187.885 181.724L186.438 180.282ZM215.912 182.693L214.545 183.682L215.539 185.047L216.907 184.056L215.912 182.693ZM196.512 192.835L194.904 193.355L195.426 194.959L197.035 194.438L196.512 192.835ZM202.193 192.627L201.203 193.613L202.193 194.6L203.182 193.613L202.193 192.627ZM194.612 171.336L194.393 172.714L195.776 172.931L195.994 171.553L194.612 171.336ZM190.557 184.462L189.921 185.705L191.168 186.339L191.804 185.096L190.557 184.462ZM190.618 167.734H188.148V170.196H190.618V167.734ZM205.299 162.172L203.3 163.62L204.751 165.612L206.751 164.165L205.299 162.172ZM206.619 195.308L205.69 197.124L207.513 198.05L208.441 196.232L206.619 195.308ZM188.593 189.799L188.272 191.813L190.293 192.131L190.613 190.117L188.593 189.799ZM214.098 171.328L213.778 173.342L215.799 173.66L216.119 171.646L214.098 171.328ZM212.729 190.542H211.038V192.228H212.731L212.729 190.542ZM215.539 178.416L214.545 179.782L215.912 180.771L216.907 179.408L215.539 178.416ZM200.241 194.054L198.872 195.045L199.866 196.409L201.234 195.419L200.241 194.054ZM198.201 169.509L197.565 170.751L198.813 171.384L199.449 170.143L198.201 169.509ZM205.567 192.091L204.93 193.333L206.178 193.967L206.814 192.724L205.567 192.091ZM208.614 190.543L208.396 191.922L209.778 192.139L209.996 190.76L208.614 190.543ZM191.172 177.124L189.925 177.758L190.561 178.999L191.807 178.366L191.172 177.124ZM213.831 184.465L212.584 185.098L213.221 186.341L214.466 185.707L213.831 184.465ZM191.978 187.912L191.758 189.289L193.14 189.506L193.359 188.128L191.978 187.912ZM209.782 171.325L208.4 171.543L208.618 172.922L210 172.704L209.782 171.325ZM198.821 192.082L197.575 192.715L198.211 193.957L199.456 193.324L198.821 192.082ZM188.707 163.237L188.242 166.167L191.18 166.631L191.645 163.701L188.707 163.237ZM213.199 196.846L212.734 199.776L215.672 200.24L216.138 197.31L213.199 196.846ZM202.187 158.86L200.084 160.957L202.188 163.054L204.291 160.957L202.187 158.86ZM184.572 177.185L182.573 178.632L184.025 180.624L186.025 179.177L184.572 177.185ZM219.813 177.184L218.362 179.177L220.361 180.624L221.812 178.632L219.813 177.184ZM190.618 193.268H188.148V195.731H190.618V193.268ZM199.642 197.855L197.642 199.301L199.094 201.293L201.093 199.847L199.642 197.855ZM210.608 193.271L210.287 195.285L212.308 195.603L212.628 193.589L210.608 193.271ZM190.303 171.343L188.283 171.661L188.603 173.676L190.624 173.358L190.303 171.343ZM215.795 189.798L213.774 190.116L214.095 192.13L216.115 191.812L215.795 189.798ZM207.515 165.414L205.693 166.339L206.621 168.155L208.443 167.23L207.515 165.414ZM195.436 168.509L194.914 170.112L196.523 170.633L197.046 169.031L195.436 168.509ZM207.87 192.845L207.348 194.449L208.957 194.971L209.479 193.366L207.87 192.845ZM189.445 186.875L188.922 188.478L190.531 188.999L191.053 187.397L189.445 186.875ZM212.729 171.229H211.038V172.914H212.731L212.729 171.229ZM202.194 168.867L201.204 169.853L202.194 170.839L203.183 169.853L202.194 168.867ZM193.139 173.951L191.757 174.169L191.975 175.548L193.357 175.329L193.139 173.951ZM190.281 180.745L189.291 181.731L190.281 182.717L191.271 181.731L190.281 180.745ZM213.222 177.124L212.586 178.366L213.832 178.999L214.468 177.757L213.222 177.124ZM211.25 173.954L211.031 175.331L212.412 175.549L212.632 174.171L211.25 173.954ZM195.773 190.535L194.391 190.753L194.609 192.13L195.991 191.912L195.773 190.535ZM206.178 169.492L204.932 170.126L205.567 171.369L206.813 170.735L206.178 169.492Z" fill="#A5812C"/>
</g>
</svg>
