<svg width="320" height="292" viewBox="0 0 320 292" fill="none" xmlns="http://www.w3.org/2000/svg">
<g filter="url(#filter0_d_817_2372)">
<path d="M309.364 111.701L285.971 40.2052C287.745 39.1804 288.943 37.265 288.943 35.0583C288.943 31.7638 286.271 29.0921 282.984 29.0921C280.327 29.0921 278.081 30.8263 277.309 33.2218C274.031 31.8427 269.435 30.2186 263.784 29.2256C257.715 28.1537 253.175 28.2796 245.743 28.5323C241.116 28.6817 240.958 28.8554 223.224 30.3764C214.027 31.1645 210.763 31.4012 206.341 31.5347C204.363 31.5976 199.232 31.7395 193.691 31.5347C187.024 31.2904 177.573 30.4544 166.011 27.8306C165.862 26.1754 165.862 23.7479 166.783 21.0519C167.051 20.2713 167.272 19.8063 167.398 19.5075C168.178 17.6399 168.225 14.369 164.86 8.25256L159.926 0V14.416C160.951 14.8256 161.581 15.8504 161.463 16.8828C161.368 17.7423 160.769 18.491 159.926 18.8142L159.389 18.9166V18.8931C158.546 18.5699 157.947 17.8212 157.853 16.9617C157.734 15.9293 158.365 14.9045 159.389 14.4949V0.0789011L154.456 8.33146C151.09 14.4479 151.138 17.7188 151.917 19.5864C152.043 19.8861 152.264 20.3511 152.532 21.1317C153.454 23.8268 153.454 26.2551 153.304 27.9103C141.741 30.535 132.292 31.3702 125.624 31.6144C120.083 31.8192 114.952 31.6774 112.974 31.6144C108.552 31.4801 105.289 31.2443 96.091 30.4561C78.357 28.9352 78.1992 28.7614 73.5727 28.612C66.1402 28.3602 61.6001 28.2335 55.5315 29.3053C49.8801 30.2983 45.2855 31.9225 42.0061 33.3015C41.2339 30.9051 38.9878 29.1719 36.3312 29.1719C33.0443 29.1719 30.3726 31.8435 30.3726 35.138C30.3726 37.3447 31.5704 39.2601 33.3439 40.285L9.95105 111.781H4C4.14185 113.98 5.11886 125.637 15.1055 134.29C16.7054 135.678 24.7447 142.369 36.7727 142.156C38.5538 142.124 46.396 141.841 54.2784 136.607C66.7235 128.331 69.1358 114.435 69.537 111.78H62.7273L39.3344 40.2841C41.108 39.2517 42.2982 37.3363 42.2982 35.1372C42.2982 34.5303 42.2034 33.947 42.038 33.3955C44.7491 32.6149 48.4381 31.7479 52.8363 31.2283C56.0284 30.8581 61.0335 30.5031 70.342 31.3861C77.1517 32.0248 79.9971 32.7417 89.7706 34.3893C99.2285 35.9891 105.133 36.9821 112.438 37.7862C120.202 38.6298 128.375 39.4884 138.881 38.937C145.416 38.5979 150.996 37.8097 155.299 37.0299L157.703 36.8327C157.743 38.9294 157.861 41.2309 158.073 42.3892C158.483 44.5884 159.208 46.4719 161.258 50.4051C164.253 56.1589 164.797 56.1513 165.782 58.4999C166.696 60.7065 168.225 64.853 167.169 69.6289C166.783 71.3865 166.168 72.6472 165.625 73.688C161.187 82.2554 155.914 87.8749 155.914 87.8749C149.089 95.1496 143.769 100.218 139.103 104.789C130.938 112.789 126.855 116.785 124.529 119.749C122.251 122.657 116.316 130.657 112.115 142.495C109.869 148.84 105.928 160.339 107.646 175.315C108.939 186.633 112.966 195.532 116.434 201.474C118.988 201.167 121.542 200.86 124.095 200.552C120.257 194.988 114.472 184.757 113.683 171.256C113.534 168.655 113.431 163.658 114.606 157.526C116.277 148.84 119.5 143.197 124.481 134.472C128.162 128.009 131.993 121.404 138.897 114.271C143.154 109.881 143.296 110.732 148.379 105.711C152.903 101.25 159.271 94.8659 164.339 85.3602C166.727 80.883 169.746 74.0028 171.354 64.8521C173.955 67.2007 177.888 70.6294 182.924 74.4838C188.087 78.448 190.727 80.0403 194.723 82.9722C202.834 88.9073 208.382 94.369 211.378 97.3092C220.568 106.35 225.99 111.686 230.499 120.671C236.741 133.132 237.025 144.254 237.048 146.886C237.135 156.509 234.739 163.595 232.966 168.711C231.815 172.005 225.991 188.068 210.298 202.942C199.689 212.991 188.686 218.611 180.844 221.755C188.726 219.981 201.21 216.072 213.766 206.725C216.761 204.486 221.775 200.711 226.874 194.54C240.73 177.783 242.448 158.89 242.755 154.138C243.93 136.151 237.822 122.855 234.117 115.044C225.147 96.1123 211.709 84.6366 203.591 78.8039C199.713 75.5405 193.747 70.6227 186.164 64.853C180.213 60.3213 178.148 58.9808 175.216 56.2932C171.425 52.8334 165.538 47.4187 160.872 36.5809C161.458 36.5339 162.043 36.5691 162.62 36.6816C167.086 37.5503 173.167 38.482 180.435 38.8589C190.941 39.4104 199.115 38.5517 206.878 37.7081C214.184 36.904 220.088 35.9111 229.545 34.3113C239.319 32.6636 242.164 31.9468 248.974 31.308C258.283 30.425 263.288 30.7801 266.48 31.1502C270.878 31.6706 274.566 32.5377 277.278 33.3175C277.113 33.8689 277.018 34.4523 277.018 35.0591C277.018 37.2582 278.208 39.1737 279.982 40.2061L256.589 111.702H249.779C250.181 114.358 252.593 128.253 265.038 136.529C272.919 141.762 280.762 142.046 282.543 142.078C294.571 142.29 302.611 135.599 304.211 134.212C314.196 125.559 315.174 113.901 315.316 111.703H309.365L309.364 111.701ZM61.0654 111.78H11.6071L34.8027 40.891C35.2913 41.0253 35.8041 41.0958 36.3321 41.0958C36.8684 41.0958 37.3804 41.0253 37.8773 40.891L61.0654 111.78ZM258.251 111.701L281.439 40.8121C281.936 40.9464 282.448 41.0169 282.983 41.0169C283.511 41.0169 284.024 40.9455 284.512 40.8121L307.708 111.701H258.25H258.251Z" fill="#A5812C"/>
<path d="M61.4985 162.204C56.4607 173.256 62.8868 175.311 62.8868 175.311C62.8868 175.311 65.9194 173.564 65.0457 168.989C64.5462 167.47 64.2541 166.146 63.4458 164.767C62.9355 163.897 62.1818 162.947 61.4985 162.204Z" fill="#A5812C"/>
<path d="M72.0857 170.498C60.8266 175.053 64.0757 180.966 64.0757 180.966C64.0757 180.966 67.4793 181.784 69.9924 177.863C70.6748 176.417 71.374 175.256 71.7357 173.699C71.964 172.715 72.0706 171.508 72.0866 170.499L72.0857 170.498Z" fill="#A5812C"/>
<path d="M53.3398 171.478C65.0942 174.537 62.6382 180.82 62.6382 180.82C62.6382 180.82 59.3698 182.073 56.3699 178.51C55.5062 177.165 54.6627 176.103 54.102 174.606C53.7478 173.661 53.4859 172.477 53.3398 171.478Z" fill="#A5812C"/>
<path d="M72.8547 178.112C62.1789 183.904 66.071 189.413 66.071 189.413C66.071 189.413 69.5451 189.844 71.6015 185.665C72.1177 184.152 72.6809 182.918 72.8656 181.331C72.9822 180.328 72.9529 179.117 72.8547 178.112Z" fill="#A5812C"/>
<path d="M54.3398 181.193C66.3628 182.911 64.6295 189.431 64.6295 189.431C64.6295 189.431 61.5222 191.042 58.1413 187.839C57.1315 186.6 56.1738 185.64 55.4495 184.214C54.992 183.315 54.5984 182.168 54.3407 181.192L54.3398 181.193Z" fill="#A5812C"/>
<path d="M74.9925 185.271C64.8027 191.881 69.1153 197.069 69.1153 197.069C69.1153 197.069 72.6121 197.226 74.3353 192.899C74.7306 191.351 75.1964 190.077 75.256 188.48C75.2938 187.471 75.1696 186.266 74.9933 185.272L74.9925 185.271Z" fill="#A5812C"/>
<path d="M56.7695 189.796C68.8907 190.568 67.6728 197.203 67.6728 197.203C67.6728 197.203 64.7015 199.053 61.0796 196.124C59.9759 194.968 58.946 194.085 58.1117 192.722C57.5846 191.861 57.1028 190.749 56.7695 189.796Z" fill="#A5812C"/>
<path d="M77.1015 191.965C68.4603 200.5 73.734 204.708 73.734 204.708C73.734 204.708 77.1905 204.154 78.0013 199.568C78.0752 197.971 78.2732 196.63 78.0088 195.054C77.8418 194.058 77.4759 192.902 77.1015 191.965Z" fill="#A5812C"/>
<path d="M60.1747 200.084C72.201 198.386 72.3512 205.131 72.3512 205.131C72.3512 205.131 69.8155 207.545 65.6758 205.409C64.3614 204.5 63.1737 203.845 62.0808 202.678C61.3909 201.941 60.6942 200.95 60.1747 200.084Z" fill="#A5812C"/>
<path d="M80.7048 198.83C72.7469 208.005 78.3278 211.795 78.3278 211.795C78.3278 211.795 81.7314 210.976 82.1871 206.341C82.1384 204.744 82.2325 203.391 81.8472 201.84C81.6038 200.86 81.1505 199.736 80.7048 198.83Z" fill="#A5812C"/>
<path d="M64.4551 208.222C76.3152 205.604 76.9842 212.316 76.9842 212.316C76.9842 212.316 74.6415 214.917 70.3499 213.107C68.9691 212.302 67.7353 211.739 66.556 210.661C65.8106 209.979 65.0393 209.045 64.4551 208.222Z" fill="#A5812C"/>
<path d="M84.9863 205.233C78.2144 215.315 84.2183 218.392 84.2183 218.392C84.2183 218.392 87.4951 217.162 87.3793 212.506C87.1342 210.926 87.062 209.572 86.4888 208.08C86.127 207.137 85.5386 206.078 84.9863 205.233Z" fill="#A5812C"/>
<path d="M70.0137 216.553C81.4625 212.499 82.9507 219.079 82.9507 219.079C82.9507 219.079 80.9455 221.948 76.4641 220.678C74.9953 220.048 73.701 219.642 72.3983 218.715C71.5757 218.13 70.6952 217.298 70.0145 216.552L70.0137 216.553Z" fill="#A5812C"/>
<path d="M90.1831 209.962C84.5225 220.708 90.8194 223.128 90.8194 223.128C90.8194 223.128 93.9468 221.556 93.3357 216.939C92.9245 215.394 92.7079 214.056 91.9793 212.633C91.5194 211.734 90.8227 210.744 90.1831 209.962Z" fill="#A5812C"/>
<path d="M76.6797 223.706C87.3185 217.848 89.8551 224.099 89.8551 224.099C89.8551 224.099 88.3417 227.255 83.7135 226.73C82.1615 226.347 80.8194 226.155 79.3833 225.454C78.4768 225.011 77.472 224.332 76.6797 223.706Z" fill="#A5812C"/>
<path d="M95.5372 215.343C90.6605 226.466 97.1152 228.429 97.1152 228.429C97.1152 228.429 100.123 226.638 99.1825 222.076C98.6613 220.565 98.3499 219.245 97.5214 217.878C96.9985 217.015 96.2314 216.076 95.538 215.343L95.5372 215.343Z" fill="#A5812C"/>
<path d="M82.9492 229.482C93.4152 223.318 96.1305 229.494 96.1305 229.494C96.1305 229.494 94.7086 232.693 90.0678 232.301C88.5058 231.963 87.1578 231.811 85.7023 231.151C84.7832 230.733 83.76 230.084 82.9492 229.482Z" fill="#A5812C"/>
<path d="M101.788 218.868C97.2936 230.151 103.811 231.892 103.811 231.892C103.811 231.892 106.756 229.999 105.66 225.472C105.088 223.979 104.732 222.671 103.857 221.333C103.305 220.488 102.507 219.576 101.788 218.867L101.788 218.868Z" fill="#A5812C"/>
<path d="M90.6191 235.115C100.191 227.639 103.689 233.408 103.689 233.408C103.689 233.408 102.697 236.764 98.0441 236.982C96.451 236.851 95.0954 236.875 93.5661 236.411C92.6 236.117 91.5013 235.607 90.6191 235.116V235.115Z" fill="#A5812C"/>
<path d="M106.778 222.263C104.697 234.229 111.433 234.595 111.433 234.595C111.433 234.595 113.926 232.138 111.924 227.932C111.058 226.589 110.44 225.382 109.309 224.253C108.595 223.539 107.626 222.811 106.778 222.264V222.263Z" fill="#A5812C"/>
<path d="M99.0059 239.964C107.037 230.852 111.537 235.878 111.537 235.878C111.537 235.878 111.181 239.359 106.648 240.43C105.058 240.595 103.731 240.869 102.142 240.694C101.139 240.583 99.9636 240.284 99.0067 239.964H99.0059Z" fill="#A5812C"/>
<path d="M113.504 224.438C111.944 236.483 118.69 236.556 118.69 236.556C118.69 236.556 121.074 233.993 118.891 229.878C117.967 228.574 117.298 227.394 116.119 226.315C115.374 225.633 114.376 224.948 113.504 224.438Z" fill="#A5812C"/>
<path d="M107.395 243.283C114.387 233.352 119.407 237.858 119.407 237.858C119.407 237.858 119.432 241.358 115.042 242.915C113.479 243.252 112.189 243.669 110.591 243.667C109.581 243.667 108.382 243.497 107.395 243.282V243.283Z" fill="#A5812C"/>
<path d="M120.01 226.382C120.161 238.527 126.85 237.65 126.85 237.65C126.85 237.65 128.849 234.777 126.109 231.01C125.011 229.849 124.182 228.775 122.864 227.872C122.031 227.302 120.945 226.763 120.01 226.382Z" fill="#A5812C"/>
<path d="M115.781 246.412C120.744 235.327 126.534 238.789 126.534 238.789C126.534 238.789 127.228 242.22 123.217 244.588C121.747 245.218 120.561 245.873 118.992 246.178C118.001 246.37 116.79 246.433 115.781 246.412Z" fill="#A5812C"/>
<path d="M126.882 226.699C128.141 238.779 134.721 237.295 134.721 237.295C134.721 237.295 136.45 234.252 133.377 230.751C132.178 229.695 131.255 228.701 129.859 227.923C128.978 227.431 127.847 226.994 126.881 226.7L126.882 226.699Z" fill="#A5812C"/>
<path d="M124.91 246.836C128.627 235.273 134.762 238.079 134.762 238.079C134.762 238.079 135.828 241.413 132.101 244.207C130.709 244.993 129.602 245.776 128.075 246.251C127.112 246.55 125.916 246.746 124.91 246.836Z" fill="#A5812C"/>
<path d="M251.887 162.125C256.925 173.177 250.499 175.232 250.499 175.232C250.499 175.232 247.466 173.485 248.34 168.91C248.839 167.391 249.131 166.067 249.94 164.688C250.45 163.818 251.203 162.868 251.886 162.125H251.887Z" fill="#A5812C"/>
<path d="M241.302 170.416C252.561 174.971 249.312 180.883 249.312 180.883C249.312 180.883 245.908 181.702 243.395 177.78C242.713 176.335 242.013 175.173 241.652 173.616C241.423 172.633 241.317 171.426 241.301 170.417L241.302 170.416Z" fill="#A5812C"/>
<path d="M260.051 171.399C248.296 174.458 250.752 180.741 250.752 180.741C250.752 180.741 254.021 181.994 257.021 178.431C257.884 177.086 258.728 176.024 259.289 174.527C259.643 173.582 259.905 172.398 260.051 171.399Z" fill="#A5812C"/>
<path d="M240.536 178.033C251.212 183.825 247.32 189.334 247.32 189.334C247.32 189.334 243.846 189.765 241.789 185.586C241.273 184.073 240.71 182.839 240.525 181.252C240.408 180.249 240.438 179.038 240.536 178.033Z" fill="#A5812C"/>
<path d="M259.046 181.114C247.023 182.832 248.757 189.352 248.757 189.352C248.757 189.352 251.864 190.963 255.245 187.76C256.255 186.521 257.212 185.56 257.937 184.135C258.394 183.235 258.788 182.089 259.046 181.113L259.046 181.114Z" fill="#A5812C"/>
<path d="M238.399 185.196C248.589 191.805 244.276 196.994 244.276 196.994C244.276 196.994 240.78 197.151 239.056 192.824C238.661 191.275 238.195 190.002 238.136 188.404C238.098 187.396 238.222 186.19 238.398 185.196L238.399 185.196Z" fill="#A5812C"/>
<path d="M256.615 189.72C244.494 190.492 245.712 197.127 245.712 197.127C245.712 197.127 248.683 198.977 252.305 196.048C253.409 194.892 254.439 194.009 255.273 192.646C255.8 191.785 256.282 190.673 256.615 189.72Z" fill="#A5812C"/>
<path d="M236.281 191.886C244.922 200.421 239.648 204.629 239.648 204.629C239.648 204.629 236.192 204.075 235.381 199.489C235.307 197.892 235.109 196.551 235.374 194.974C235.541 193.979 235.906 192.823 236.281 191.886Z" fill="#A5812C"/>
<path d="M253.206 200.005C241.18 198.307 241.029 205.052 241.029 205.052C241.029 205.052 243.565 207.465 247.705 205.33C249.019 204.421 250.207 203.766 251.3 202.599C251.99 201.862 252.687 200.871 253.207 200.005H253.206Z" fill="#A5812C"/>
<path d="M232.683 198.751C240.641 207.926 235.061 211.715 235.061 211.715C235.061 211.715 231.657 210.897 231.201 206.262C231.25 204.665 231.156 203.312 231.541 201.761C231.785 200.781 232.238 199.657 232.683 198.751Z" fill="#A5812C"/>
<path d="M248.935 208.146C237.075 205.528 236.406 212.24 236.406 212.24C236.406 212.24 238.749 214.842 243.041 213.031C244.421 212.226 245.655 211.664 246.834 210.585C247.58 209.904 248.351 208.969 248.935 208.146Z" fill="#A5812C"/>
<path d="M228.398 205.154C235.17 215.236 229.166 218.312 229.166 218.312C229.166 218.312 225.889 217.083 226.005 212.427C226.25 210.847 226.322 209.493 226.896 208.001C227.257 207.058 227.846 205.999 228.398 205.154Z" fill="#A5812C"/>
<path d="M243.371 216.477C231.922 212.423 230.434 219.003 230.434 219.003C230.434 219.003 232.439 221.872 236.92 220.602C238.389 219.973 239.683 219.566 240.986 218.64C241.809 218.055 242.689 217.222 243.37 216.477L243.371 216.477Z" fill="#A5812C"/>
<path d="M223.201 209.884C228.861 220.629 222.564 223.049 222.564 223.049C222.564 223.049 219.437 221.478 220.048 216.86C220.459 215.316 220.676 213.977 221.404 212.554C221.864 211.655 222.562 210.665 223.201 209.884H223.201Z" fill="#A5812C"/>
<path d="M236.707 223.628C226.068 217.769 223.531 224.02 223.531 224.02C223.531 224.02 225.045 227.176 229.673 226.651C231.225 226.268 232.567 226.077 234.003 225.375C234.91 224.932 235.914 224.253 236.707 223.628Z" fill="#A5812C"/>
<path d="M217.853 215.263C222.729 226.386 216.275 228.35 216.275 228.35C216.275 228.35 213.267 226.559 214.207 221.997C214.729 220.486 215.04 219.166 215.868 217.799C216.391 216.935 217.159 215.997 217.852 215.264L217.853 215.263Z" fill="#A5812C"/>
<path d="M230.441 229.403C219.975 223.239 217.26 229.415 217.26 229.415C217.26 229.415 218.682 232.614 223.322 232.222C224.884 231.884 226.232 231.732 227.688 231.071C228.607 230.654 229.63 230.005 230.441 229.403Z" fill="#A5812C"/>
<path d="M211.597 218.789C216.091 230.073 209.574 231.813 209.574 231.813C209.574 231.813 206.629 229.921 207.725 225.393C208.297 223.901 208.653 222.592 209.528 221.254C210.08 220.409 210.878 219.498 211.597 218.788L211.597 218.789Z" fill="#A5812C"/>
<path d="M222.767 235.036C213.195 227.56 209.697 233.329 209.697 233.329C209.697 233.329 210.689 236.686 215.342 236.903C216.935 236.772 218.291 236.797 219.82 236.332C220.786 236.039 221.885 235.527 222.767 235.036Z" fill="#A5812C"/>
<path d="M206.608 222.181C208.689 234.147 201.953 234.513 201.953 234.513C201.953 234.513 199.46 232.055 201.462 227.85C202.328 226.507 202.946 225.299 204.076 224.17C204.791 223.457 205.759 222.728 206.608 222.181Z" fill="#A5812C"/>
<path d="M214.377 239.881C206.346 230.77 201.846 235.795 201.846 235.795C201.846 235.795 202.202 239.277 206.735 240.348C208.325 240.513 209.653 240.787 211.241 240.612C212.245 240.501 213.42 240.202 214.377 239.881Z" fill="#A5812C"/>
<path d="M199.88 224.363C201.44 236.408 194.694 236.481 194.694 236.481C194.694 236.481 192.31 233.917 194.493 229.803C195.417 228.498 196.086 227.319 197.265 226.24C198.009 225.558 199.008 224.872 199.88 224.363Z" fill="#A5812C"/>
<path d="M205.995 243.207C199.003 233.277 193.982 237.783 193.982 237.783C193.982 237.783 193.958 241.283 198.348 242.84C199.911 243.176 201.201 243.594 202.799 243.592C203.809 243.592 205.008 243.422 205.995 243.207V243.207Z" fill="#A5812C"/>
<path d="M193.376 226.303C193.225 238.448 186.536 237.571 186.536 237.571C186.536 237.571 184.537 234.698 187.276 230.931C188.375 229.77 189.204 228.696 190.522 227.793C191.355 227.223 192.441 226.685 193.376 226.303Z" fill="#A5812C"/>
<path d="M197.603 246.333C192.64 235.248 186.85 238.71 186.85 238.71C186.85 238.71 186.157 242.142 190.168 244.509C191.637 245.139 192.823 245.795 194.393 246.099C195.384 246.291 196.595 246.354 197.603 246.333Z" fill="#A5812C"/>
<path d="M186.506 226.617C185.247 238.697 178.666 237.213 178.666 237.213C178.666 237.213 176.938 234.169 180.01 230.669C181.209 229.613 182.133 228.619 183.528 227.841C184.41 227.349 185.54 226.912 186.507 226.618L186.506 226.617Z" fill="#A5812C"/>
<path d="M188.475 246.757C184.758 235.194 178.624 238 178.624 238C178.624 238 177.558 241.334 181.284 244.128C182.676 244.914 183.783 245.697 185.31 246.172C186.273 246.471 187.47 246.667 188.475 246.757Z" fill="#A5812C"/>
<path d="M131.725 71.3003C135.26 71.3003 138.125 68.4353 138.125 64.9011C138.125 61.3669 135.26 58.5018 131.725 58.5018C128.191 58.5018 125.326 61.3669 125.326 64.9011C125.326 68.4353 128.191 71.3003 131.725 71.3003Z" fill="#A5812C"/>
<path d="M144.935 58.499C144.449 58.6854 141.211 59.8655 138.125 58.0877C137.536 57.7495 135.613 56.6012 134.912 54.2326C134.205 51.8429 135.072 49.319 136.608 47.7561C139.263 45.0542 143.919 45.2179 146.324 47.3708C148.094 48.9555 148.246 51.2638 148.405 53.6937C148.706 58.2657 147.301 61.7792 146.015 64.8991C145.3 66.6324 143.519 70.6168 139.924 75.2056C137.72 78.0166 136.146 79.3831 131.725 83.5329C128.151 86.8878 124.687 90.3585 121.11 93.7109C114.285 100.108 106.126 107.755 98.9814 116.996C93.8487 123.635 87.9707 131.238 84.1004 142.98C82.2513 148.59 79.3429 157.762 81.1702 169.273C82.4275 177.193 85.3451 182.55 86.0275 183.769C87.5778 186.537 91.3457 193.082 98.9814 197.78C101.412 199.276 111.542 205.297 124.118 202.351C132.181 200.463 137.207 195.835 139.615 193.562C142.056 191.259 148.353 185.145 150.179 175.134C151.025 170.495 150.63 166.56 150.179 164.031C149.294 164.846 147.221 166.532 144.088 167.114C142.938 167.328 140.207 167.836 137.688 166.497C135.141 165.144 134.247 162.668 132.985 159.172C131.249 154.365 131.438 150.702 131.673 146.141C131.77 144.281 131.961 142.879 132.907 141.515C133.086 141.257 134.678 139.039 137.457 138.662C140.282 138.278 142.432 140.055 144.01 141.36C146.985 143.819 148.247 146.922 148.791 148.685C149.666 147.844 150.932 146.509 152.183 144.676C153.454 142.816 153.638 142.01 155.191 138.893C157.755 133.743 159.407 131.611 160.434 130.411C161.806 128.809 162.979 127.798 164.598 127.327C165.204 127.151 166.819 126.681 168.222 127.482C169.109 127.988 169.56 128.801 170.072 130.026C171.615 133.71 171.923 136.657 171.923 136.657C172.139 138.719 172.232 141.894 171.383 145.755C171.347 145.538 170.836 142.734 168.839 142.132C168.314 141.973 167.673 141.963 166.758 142.286C164.196 143.19 162.729 145.561 161.823 147.066C159.572 150.807 157.798 153.853 156.349 156.396C156.154 157.236 155.692 158.639 154.498 159.866C154.162 160.212 153.818 160.49 153.496 160.713C155.484 171.32 154.811 179.78 153.958 185.156C153.402 188.665 152.84 192.057 151.028 196.259C149.82 199.062 146.262 207.012 137.535 212.681C130.381 217.329 123.512 218.004 122.191 218.116C109.823 219.177 100.663 212.512 97.1541 209.959C85.8378 201.724 81.7493 190.485 79.306 183.767C78.1787 180.668 74.1078 168.757 75.6976 153.002C77.3158 136.966 83.9006 125.858 86.5689 121.467C92.6308 111.493 99.8291 104.78 108.312 96.8703C116.273 89.4478 122.577 84.2253 122.577 84.2253C129.646 78.3683 133.018 76.1566 137.072 71.2976C141.124 66.4419 143.533 61.728 144.937 58.4982L144.935 58.499Z" fill="#A5812C"/>
<path d="M218.394 117.667C217.315 117.288 215.604 117.375 213.996 117.816C212.231 118.305 210.906 119.235 209.141 120.906C207.376 122.561 204.924 125.193 202.513 129.04C199.51 122.868 196.459 118.368 194.182 115.349C193.898 114.971 194.119 115.27 189.477 109.335C185.465 104.197 183.432 101.579 182.233 99.0018C181.445 97.3231 180.389 94.9981 179.994 91.7582C179.514 87.762 180.302 84.4835 180.917 82.584C179.404 84.491 177.315 87.715 176.369 92.1443C175.195 97.6698 176.425 102.257 176.913 104.014C177.347 105.575 177.544 105.702 178.766 109.256C179.909 112.606 180.721 115.38 181.233 117.201C182.241 119.731 183.527 123.838 183.621 129.039C183.715 134.619 182.391 139.033 181.382 141.642C182.73 140.105 184.425 137.78 185.622 134.628C188.136 128.046 186.883 122.127 186.237 119.747C187.529 121.165 194.206 128.614 197.5 135.471C199.029 138.671 199.478 141.02 199.581 141.564C200.038 144.094 199.833 145.568 199.888 147.885C199.943 150.131 200.243 153.355 201.433 157.335C200.275 158.47 198.738 159.795 196.767 161.032C194.521 162.451 192.417 163.334 190.753 163.885C190.454 159.014 188.05 155.097 184.739 154.096C183.817 153.819 182.122 153.568 180.381 154.253C177.377 155.428 176.393 158.462 176.259 158.912C175.565 161.883 175.612 168.709 178.26 174.068C178.923 175.4 179.576 176.314 180.42 177.111C184.148 180.642 189.461 179.87 190.328 179.735C189.753 183.905 187.861 193.324 180.42 201.978C178.576 204.121 172.893 210.568 163.34 213.887C161.369 214.565 159.58 215.006 158.098 215.29C156.112 215.66 154.693 215.755 154.165 215.778C147.465 216.148 142.176 214.281 139.284 213.004C138.101 213.902 136.746 214.841 135.209 215.739C134.555 216.125 133.9 216.48 133.27 216.803C131.575 217.678 129.983 218.348 128.541 218.868C130.756 221.367 135.335 225.828 142.571 228.428C146.985 230.012 150.933 230.383 153.716 230.407V232.022C153.834 232.299 153.976 232.724 153.905 233.22C153.865 233.527 153.77 233.646 153.755 233.913C153.716 234.465 154.086 234.836 154.292 235.183C154.402 235.364 154.654 235.852 154.292 238.422C154.15 239.438 154.078 239.951 153.866 240.77C153.527 242.126 153.11 244.427 152.787 248.558H163.395C163.08 244.428 162.663 242.127 162.316 240.77C162.111 239.95 162.04 239.438 161.898 238.422C161.528 235.852 161.788 235.364 161.898 235.183C162.103 234.836 162.474 234.466 162.434 233.913C162.418 233.646 162.324 233.527 162.285 233.22C162.214 232.723 162.348 232.298 162.474 232.022V230.407H162.679L162.828 229.863C166.627 229.012 172.215 226.387 177.914 221.752C179.885 220.152 181.531 218.473 182.919 216.802C186.221 212.838 188.057 208.968 189.169 206.564C189.445 205.965 190.619 203.395 191.714 199.699C193.054 195.175 194.591 187.907 193.953 178.418C197.429 176.897 200.037 175.273 201.74 174.107C208.084 169.74 212.025 164.703 216.77 158.525C219.269 155.286 220.411 153.599 221.326 152.204C227.127 143.337 226.969 120.669 218.394 117.666V117.667ZM219.955 134.857C217.567 142.108 203.608 155.215 203.608 155.215C202.111 146.348 208.314 139.271 208.314 139.271C213.8 132.224 219.033 132.934 219.033 132.934C220.948 133.138 219.955 134.857 219.955 134.857Z" fill="#A5812C"/>
<path d="M162.679 230.409L162.475 231.174V230.409H162.679Z" fill="#A5812C"/>
<path d="M136.344 92.9414C136.731 93.4685 137.805 95.0842 137.5 97.1046C137.458 97.3824 137.132 99.5488 135.881 99.8417C134.842 100.085 133.69 98.9109 133.144 98.0295C131.514 95.3973 133.051 91.7562 133.722 90.1648C134.499 88.3249 135.488 86.9861 136.19 86.1552C135.695 87.4444 134.033 91.8989 133.993 94.6755C133.983 95.3067 133.981 96.4776 134.687 96.9115C134.955 97.076 135.328 97.1365 135.612 97.0273C136.396 96.726 136.669 95.0725 136.345 92.9405L136.344 92.9414Z" fill="#A5812C"/>
<path d="M158.184 66.9317C158.571 67.4588 159.645 69.0746 159.34 71.0949C159.298 71.3728 158.972 73.5391 157.721 73.8321C156.682 74.0755 155.53 72.9012 154.984 72.0199C153.354 69.3877 154.891 65.7465 155.562 64.1551C156.339 62.3152 157.327 60.9765 158.03 60.1455C157.535 61.4348 155.873 65.8892 155.833 68.6658C155.823 69.297 155.821 70.4679 156.527 70.9019C156.794 71.0664 157.168 71.1268 157.452 71.0177C158.236 70.7164 158.509 69.0628 158.184 66.9309L158.184 66.9317Z" fill="#A5812C"/>
<path d="M115.628 115.627C115.969 116.254 116.898 118.16 116.273 120.304C116.188 120.6 115.518 122.898 114.121 123.032C112.96 123.144 111.883 121.705 111.421 120.671C110.039 117.582 112.234 113.864 113.194 112.238C114.302 110.359 115.568 109.054 116.45 108.255C115.727 109.579 113.277 114.161 112.828 117.162C112.727 117.844 112.553 119.112 113.254 119.685C113.52 119.902 113.915 120.022 114.239 119.945C115.132 119.733 115.669 117.983 115.628 115.627Z" fill="#A5812C"/>
<path d="M98.4836 175.22C99.056 175.862 100.664 177.841 100.518 180.524C100.498 180.894 100.342 183.77 98.7413 184.31C97.4117 184.758 95.7565 183.366 94.9323 182.281C92.4687 179.04 94.0249 174.082 94.7048 171.916C95.4913 169.41 96.6169 167.535 97.4319 166.359C96.945 168.109 95.3276 174.147 95.6222 177.786C95.6894 178.613 95.8329 180.146 96.8099 180.625C97.1809 180.807 97.677 180.839 98.0354 180.66C99.0233 180.168 99.1744 177.97 98.4827 175.22L98.4836 175.22Z" fill="#A5812C"/>
<path d="M125.514 159.874C125.994 160.413 127.343 162.074 127.221 164.325C127.204 164.634 127.072 167.048 125.73 167.5C124.615 167.876 123.226 166.709 122.535 165.798C120.468 163.078 121.773 158.919 122.344 157.101C123.004 154.999 123.948 153.426 124.632 152.439C124.224 153.907 122.867 158.973 123.114 162.026C123.17 162.72 123.29 164.006 124.111 164.408C124.422 164.561 124.839 164.587 125.139 164.438C125.968 164.025 126.095 162.181 125.514 159.874L125.514 159.874Z" fill="#A5812C"/>
<path d="M167.975 106.757C168.479 107.358 169.889 109.21 169.679 111.653C169.65 111.989 169.425 114.607 167.95 115.054C166.724 115.425 165.255 114.108 164.534 113.094C162.38 110.067 163.941 105.591 164.623 103.633C165.412 101.371 166.493 99.6926 167.27 98.6443C166.776 100.226 165.128 105.686 165.292 109.013C165.33 109.769 165.417 111.172 166.295 111.637C166.628 111.814 167.079 111.857 167.411 111.704C168.326 111.282 168.527 109.283 167.975 106.755V106.757Z" fill="#A5812C"/>
<path d="M188.617 145.177C188.234 144.778 187.153 143.545 187.182 141.819C187.186 141.581 187.217 139.73 188.232 139.344C189.076 139.025 190.172 139.879 190.728 140.557C192.388 142.579 191.507 145.802 191.123 147.209C190.678 148.838 190 150.069 189.505 150.844C189.775 149.708 190.67 145.791 190.393 143.461C190.33 142.931 190.201 141.95 189.562 141.665C189.319 141.557 188.999 141.549 188.774 141.672C188.151 142.012 188.106 143.428 188.617 145.177Z" fill="#A5812C"/>
<path d="M104.263 138.022C104.556 138 105.409 132.728 103.132 131.597C102.284 131.175 101.318 131.486 100.973 131.597C98.9523 132.247 98.2321 134.46 98.0432 135.041C97.3902 137.048 97.9333 138.834 98.2489 139.821C98.8826 141.806 99.6766 142.122 100.459 143.933C100.96 145.092 101.468 146.893 101.232 149.484C100.555 147.814 99.4953 145.471 98.0944 143.367C97.7092 142.789 97.1653 142.029 96.2437 141.825C95.1366 141.58 94.1948 142.294 94.136 142.339C92.9626 143.256 92.7074 145.401 93.6735 147.582C93.7734 146.254 94.3518 145.209 95.2155 144.909C95.9482 144.656 96.6684 145.013 97.0662 145.217C99.7362 146.59 100.572 150.628 100.767 151.694C101.422 151.125 102.954 149.624 103.183 147.376C103.348 145.752 102.76 144.433 102.309 143.418C101.891 142.479 101.727 142.47 99.7388 139.253C98.9095 137.911 98.5032 137.21 98.6081 136.272C98.6333 136.05 98.7626 135.131 99.5331 134.473C100.414 133.722 101.751 133.637 102.617 134.113C104.314 135.046 104.04 138.036 104.262 138.02L104.263 138.022Z" fill="#A5812C"/>
<path d="M134.308 179.171C134.601 179.149 135.454 173.877 133.177 172.746C132.329 172.324 131.362 172.635 131.018 172.746C128.997 173.397 128.277 175.609 128.088 176.19C127.435 178.198 127.978 179.983 128.294 180.97C128.928 182.955 129.722 183.272 130.504 185.082C131.005 186.241 131.513 188.042 131.277 190.634C130.6 188.963 129.54 186.621 128.139 184.516C127.754 183.938 127.21 183.178 126.289 182.974C125.181 182.729 124.24 183.443 124.181 183.488C123.008 184.406 122.752 186.55 123.718 188.732C123.818 187.403 124.397 186.358 125.26 186.058C125.993 185.805 126.713 186.162 127.111 186.366C129.781 187.739 130.617 191.778 130.812 192.843C131.467 192.274 132.999 190.773 133.228 188.525C133.393 186.901 132.805 185.582 132.354 184.567C131.936 183.628 131.772 183.619 129.784 180.403C128.954 179.061 128.548 178.36 128.653 177.421C128.678 177.199 128.807 176.28 129.578 175.623C130.459 174.871 131.796 174.787 132.662 175.262C134.359 176.195 134.085 179.186 134.307 179.169L134.308 179.171Z" fill="#A5812C"/>
<path d="M169.628 192.654C169.931 192.631 170.816 187.169 168.457 185.995C167.577 185.558 166.576 185.88 166.22 185.995C164.125 186.67 163.379 188.963 163.184 189.564C162.507 191.645 163.07 193.495 163.397 194.518C164.054 196.576 164.877 196.903 165.687 198.78C166.206 199.981 166.733 201.848 166.489 204.533C165.788 202.802 164.689 200.374 163.237 198.194C162.838 197.595 162.275 196.807 161.319 196.596C160.172 196.341 159.196 197.081 159.135 197.129C157.919 198.08 157.655 200.301 158.656 202.562C158.76 201.185 159.359 200.102 160.254 199.792C161.013 199.529 161.76 199.899 162.172 200.112C164.939 201.534 165.806 205.72 166.007 206.823C166.685 206.234 168.274 204.678 168.511 202.349C168.682 200.665 168.074 199.299 167.605 198.248C167.172 197.275 167.003 197.266 164.942 193.933C164.083 192.542 163.662 191.816 163.77 190.844C163.796 190.613 163.931 189.66 164.729 188.979C165.641 188.201 167.027 188.113 167.925 188.607C169.684 189.573 169.401 192.672 169.63 192.655L169.628 192.654Z" fill="#A5812C"/>
<path d="M205.453 193.141C205.686 193.123 206.363 188.938 204.555 188.039C203.881 187.704 203.114 187.951 202.841 188.039C201.236 188.556 200.665 190.312 200.515 190.774C199.996 192.368 200.428 193.785 200.678 194.569C201.182 196.146 201.812 196.397 202.433 197.835C202.831 198.755 203.235 200.186 203.047 202.242C202.51 200.916 201.668 199.057 200.556 197.385C200.25 196.926 199.819 196.323 199.087 196.161C198.208 195.966 197.46 196.533 197.413 196.569C196.481 197.297 196.278 199 197.045 200.731C197.125 199.676 197.583 198.847 198.27 198.609C198.852 198.408 199.423 198.692 199.739 198.854C201.858 199.945 202.523 203.151 202.677 203.996C203.197 203.545 204.414 202.353 204.595 200.568C204.726 199.278 204.26 198.232 203.901 197.426C203.57 196.68 203.44 196.673 201.861 194.12C201.202 193.055 200.879 192.499 200.963 191.753C200.982 191.576 201.085 190.847 201.697 190.325C202.396 189.728 203.458 189.661 204.145 190.039C205.493 190.78 205.276 193.154 205.451 193.141H205.453Z" fill="#A5812C"/>
<path d="M142.869 126.611C143.503 124.024 144.137 121.436 144.771 118.849C146.43 119.081 148.621 119.205 151.145 118.849C152.593 118.645 153.869 118.323 154.949 117.975C154.89 119.553 154.538 122.68 152.379 125.531C151.489 126.706 150.325 127.793 148.215 129.04C143.404 131.884 138.179 132.905 134.182 133.242C136.445 132.857 140.183 131.908 144 129.283C146.33 127.682 148.001 125.928 149.14 124.517C148.32 124.263 146.781 123.933 145.13 124.517C144.807 124.632 144.516 124.768 144.256 124.914C144.038 125.845 143.691 126.764 143.691 126.764C143.362 126.877 143.016 126.699 142.868 126.61L142.869 126.611Z" fill="#A5812C"/>
<path d="M221.273 173.765C221.034 173.294 220.515 173.054 220.005 173.194C219.425 173.354 218.675 173.698 218.104 174.44C217.45 175.291 217.395 176.205 217.387 176.544C216.685 175.094 215.724 173.164 214.558 170.995C214.321 170.562 213.927 169.852 213.123 169.451C213.028 169.412 211.768 168.812 210.696 169.451C209.522 170.16 209.396 171.871 209.782 172.998C210.081 173.881 210.696 174.409 211.011 174.646C210.42 173.739 210.696 172.549 211.523 172.021C212.406 171.47 213.699 171.808 214.195 172.849C215.141 174.362 216.173 176.341 216.978 178.76C217.435 180.148 217.742 181.448 217.955 182.615C217.276 183.552 216.055 184.987 214.093 186.059C213.218 186.54 212.382 186.84 211.681 187.036C212.178 187.139 216.536 187.998 219.697 185.129C222.584 182.517 223.329 177.825 221.273 173.767L221.273 173.765ZM219.956 179.532C219.878 179.752 219.026 182.243 218.569 182.149C218.136 182.062 217.86 179.658 218.924 177.727C219.436 176.813 220.13 176.221 220.626 175.883C220.594 176.766 220.461 178.059 219.956 179.533V179.532Z" fill="#A5812C"/>
<path d="M166.546 161.921C169.597 161.921 172.071 159.448 172.071 156.396C172.071 153.345 169.597 150.872 166.546 150.872C163.495 150.872 161.021 153.345 161.021 156.396C161.021 159.448 163.495 161.921 166.546 161.921Z" fill="#A5812C"/>
<path d="M165.263 173.539C168.314 173.539 170.788 171.065 170.788 168.014C170.788 164.963 168.314 162.49 165.263 162.49C162.212 162.49 159.738 164.963 159.738 168.014C159.738 171.065 162.212 173.539 165.263 173.539Z" fill="#A5812C"/>
<path d="M190.477 93.866V89.7792C190.477 89.7792 201.888 96.4101 199.96 109.287C199.96 109.287 198.804 98.4917 190.477 93.866Z" fill="#A5812C"/>
<path d="M210.372 99.6197C210.372 99.6197 210.291 110.055 197.568 117.535C197.568 117.535 206.898 116.61 211.215 103.348C211.215 103.348 211.755 100.88 211.215 99.3771C211.215 99.3771 211.003 99.0875 210.656 99.268C210.343 99.4316 210.372 99.6197 210.372 99.6197Z" fill="#A5812C"/>
<path d="M33.8768 255.968C33.4882 255.968 33.2939 255.769 33.2939 255.371C33.2939 254.992 33.4882 254.802 33.8768 254.802C34.2465 254.802 34.4313 254.992 34.4313 255.371C34.4313 255.769 34.2465 255.968 33.8768 255.968ZM35.4977 255.968C35.109 255.968 34.9147 255.769 34.9147 255.371C34.9147 254.992 35.109 254.802 35.4977 254.802C35.8673 254.802 36.0522 254.992 36.0522 255.371C36.0522 255.769 35.8673 255.968 35.4977 255.968ZM38.256 263.12H38.7394V264.001H38.128C37.1138 264.001 36.4076 263.603 36.0095 262.807C35.5166 263.319 34.91 263.575 34.1896 263.575C33.3744 263.575 32.7299 263.267 32.2559 262.65C31.8578 262.129 31.6588 261.48 31.6588 260.703C31.6588 259.793 31.9242 259.063 32.455 258.513C32.9194 258.03 33.4929 257.788 34.1754 257.788C34.7915 257.788 35.3081 257.968 35.7251 258.328V257.56L36.6778 257.063V261.499C36.6778 262.579 37.2038 263.12 38.256 263.12ZM35.7251 259.409C35.3081 258.906 34.801 258.655 34.2038 258.655C33.7299 258.655 33.3412 258.85 33.0379 259.238C32.7441 259.617 32.5972 260.11 32.5972 260.717C32.5972 261.333 32.7441 261.826 33.0379 262.196C33.3412 262.565 33.7346 262.75 34.218 262.75C34.8341 262.75 35.346 262.48 35.7536 261.94C35.7346 261.769 35.7251 261.632 35.7251 261.527V259.409ZM43.0273 263.12H43.5249V264.001H42.9135C42.0604 264.001 41.4206 263.712 40.9941 263.134C40.5486 263.712 39.904 264.001 39.0604 264.001H38.449V263.12H38.9467C39.9893 263.12 40.5107 262.579 40.5107 261.499V258.414L41.4633 257.916V261.499C41.4633 262.579 41.9846 263.12 43.0273 263.12ZM39.7997 265.494C40.1789 265.494 40.3685 265.688 40.3685 266.077C40.3685 266.466 40.1789 266.66 39.7997 266.66C39.4206 266.66 39.231 266.466 39.231 266.077C39.231 265.688 39.4206 265.494 39.7997 265.494ZM41.4206 265.494C41.7998 265.494 41.9893 265.688 41.9893 266.077C41.9893 266.466 41.7998 266.66 41.4206 266.66C41.0415 266.66 40.8519 266.466 40.8519 266.077C40.8519 265.688 41.0415 265.494 41.4206 265.494ZM45.7133 256.039C45.3246 256.039 45.1303 255.84 45.1303 255.442C45.1303 255.063 45.3246 254.873 45.7133 254.873C46.0829 254.873 46.2678 255.063 46.2678 255.442C46.2678 255.84 46.0829 256.039 45.7133 256.039ZM43.2393 264.001V263.12H43.7369C44.7796 263.12 45.3009 262.579 45.3009 261.499V258.414L46.2535 257.916V261.527C46.2535 262.323 46.0213 262.944 45.5569 263.39C45.1303 263.797 44.5616 264.001 43.8507 264.001H43.2393ZM55.0545 263.12V264.001H53.5473C53.5379 264.627 53.3341 265.177 52.936 265.651C52.5473 266.134 52.0402 266.451 51.4146 266.603C51.1871 266.669 50.9407 266.703 50.6753 266.703C50.1255 266.703 49.59 266.57 49.0686 266.305V265.466C49.5615 265.731 50.0497 265.864 50.5331 265.864C50.9217 265.864 51.263 265.778 51.5568 265.608C51.8506 265.456 52.0971 265.224 52.2961 264.911C52.4952 264.608 52.5947 264.305 52.5947 264.001L51.3862 263.959C50.334 263.911 49.5473 263.579 49.026 262.963C48.5994 262.442 48.3862 261.745 48.3862 260.873C48.3862 259.85 48.6516 259.058 49.1824 258.499C49.6563 257.996 50.2914 257.745 51.0876 257.745C51.9122 257.745 52.5426 257.992 52.9786 258.485C53.3578 258.911 53.5473 259.48 53.5473 260.191V263.12H55.0545ZM52.5947 260.29C52.5947 259.172 52.0923 258.613 51.0876 258.613C50.5284 258.613 50.0923 258.812 49.7795 259.21C49.4762 259.598 49.3246 260.148 49.3246 260.859C49.3246 262.271 50.0212 263.011 51.4146 263.077C51.8317 263.105 52.225 263.12 52.5947 263.12V260.29ZM57.2377 256.039C56.8491 256.039 56.6548 255.84 56.6548 255.442C56.6548 255.063 56.8491 254.873 57.2377 254.873C57.6074 254.873 57.7922 255.063 57.7922 255.442C57.7922 255.84 57.6074 256.039 57.2377 256.039ZM54.7638 264.001V263.12H55.2614C56.3041 263.12 56.8254 262.579 56.8254 261.499V258.414L57.778 257.916V261.527C57.778 262.323 57.5458 262.944 57.0813 263.39C56.6548 263.797 56.086 264.001 55.3751 264.001H54.7638ZM62.74 264.001C61.9343 264.001 61.3135 263.741 60.8774 263.219C60.5172 262.774 60.3371 262.21 60.3371 261.527V255.328L61.2898 254.831V261.499C61.2898 262.579 61.8111 263.12 62.8538 263.12H63.3514V264.001H62.74ZM66.3655 256.082C65.9769 256.082 65.7826 255.883 65.7826 255.485C65.7826 255.105 65.9769 254.916 66.3655 254.916C66.7352 254.916 66.92 255.105 66.92 255.485C66.92 255.883 66.7352 256.082 66.3655 256.082ZM67.9864 256.082C67.5978 256.082 67.4034 255.883 67.4034 255.485C67.4034 255.105 67.5978 254.916 67.9864 254.916C68.3561 254.916 68.5409 255.105 68.5409 255.485C68.5409 255.883 68.3561 256.082 67.9864 256.082ZM68.6546 263.12H71.2565V264.001H68.0433C67.721 264.001 67.4271 263.968 67.1617 263.902C66.8963 263.968 66.6025 264.001 66.2802 264.001H63.0669V263.12H65.683C64.9342 262.428 64.5598 261.608 64.5598 260.66C64.5598 259.741 64.8157 259.011 65.3276 258.47C65.7921 257.987 66.4034 257.745 67.1617 257.745C68.0243 257.745 68.6925 258.058 69.1665 258.684C69.5646 259.205 69.7636 259.864 69.7636 260.66C69.7636 261.617 69.394 262.437 68.6546 263.12ZM67.2186 262.992C67.702 262.821 68.0954 262.518 68.3987 262.082C68.7115 261.636 68.8679 261.158 68.8679 260.646C68.8679 260.02 68.7115 259.527 68.3987 259.167C68.0954 258.797 67.6831 258.613 67.1617 258.613C66.6404 258.613 66.2281 258.797 65.9248 259.167C65.6214 259.527 65.4698 260.015 65.4698 260.632C65.4698 261.153 65.6214 261.636 65.9248 262.082C66.2281 262.518 66.6214 262.821 67.1049 262.992L67.1617 263.006L67.1902 262.992H67.2186ZM70.9674 264.001V263.12H71.3655C72.4461 263.12 72.9864 262.56 72.9864 261.442V255.328L73.939 254.831V261.456C73.939 262.262 73.702 262.897 73.2281 263.361C72.7826 263.788 72.1949 264.001 71.465 264.001H70.9674ZM76.4991 264.001V255.328L77.4518 254.831V264.001H76.4991ZM87.1955 257.39C86.8163 257.39 86.6268 257.191 86.6268 256.793C86.6268 256.413 86.8163 256.224 87.1955 256.224C87.5746 256.224 87.7642 256.413 87.7642 256.793C87.7642 257.191 87.5746 257.39 87.1955 257.39ZM88.8306 257.39C88.442 257.39 88.2476 257.191 88.2476 256.793C88.2476 256.413 88.442 256.224 88.8306 256.224C89.2003 256.224 89.3851 256.413 89.3851 256.793C89.3851 257.191 89.2003 257.39 88.8306 257.39ZM85.731 264.001C85.0296 264.001 84.4704 263.783 84.0533 263.347C83.6362 262.902 83.4277 262.305 83.4277 261.556V259.693L84.3803 259.195V261.442C84.3803 262.56 84.9016 263.12 85.9443 263.12H90.7074C91.75 263.12 92.2714 262.56 92.2714 261.442V258.414L93.224 257.916V261.556C93.224 262.361 92.9775 262.987 92.4846 263.432C92.0581 263.812 91.4988 264.001 90.8069 264.001H85.731ZM95.7852 264.001V255.328L96.7379 254.831V264.001H95.7852ZM102.091 263.319C102.091 265.044 101.456 266.124 100.186 266.56C99.8824 266.665 99.5601 266.717 99.2189 266.717C98.6691 266.717 98.1383 266.584 97.6265 266.319V265.48C98.1099 265.745 98.6028 265.878 99.1052 265.878C99.5033 265.878 99.854 265.788 100.157 265.608C100.821 265.21 101.153 264.466 101.153 263.376V258.414L102.091 257.916V263.319ZM107.047 264.001C106.241 264.001 105.62 263.741 105.184 263.219C104.824 262.774 104.644 262.21 104.644 261.527V255.328L105.596 254.831V261.499C105.596 262.579 106.118 263.12 107.16 263.12H107.658V264.001H107.047ZM114.895 255.03C114.554 255.03 114.383 254.849 114.383 254.489C114.383 254.148 114.554 253.977 114.895 253.977C115.236 253.977 115.407 254.148 115.407 254.489C115.407 254.849 115.236 255.03 114.895 255.03ZM114.099 256.508C113.71 256.508 113.516 256.314 113.516 255.925C113.516 255.537 113.71 255.342 114.099 255.342C114.468 255.342 114.653 255.537 114.653 255.925C114.653 256.314 114.468 256.508 114.099 256.508ZM115.72 256.508C115.34 256.508 115.151 256.314 115.151 255.925C115.151 255.537 115.34 255.342 115.72 255.342C116.099 255.342 116.288 255.537 116.288 255.925C116.288 256.314 116.099 256.508 115.72 256.508ZM107.374 264.001V263.12H108.241C109.293 263.12 109.819 262.579 109.819 261.499V259.451L110.772 258.954V261.499C110.772 262.579 111.293 263.12 112.336 263.12H112.862C113.904 263.12 114.426 262.579 114.426 261.499V258.94L115.378 258.428V261.499C115.378 262.579 115.904 263.12 116.957 263.12H117.468C118.521 263.12 119.047 262.579 119.047 261.499V258.414L119.999 257.916V261.442C119.999 262.56 120.54 263.12 121.62 263.12H122.445V264.001H121.521C120.62 264.001 119.961 263.684 119.544 263.049C119.127 263.684 118.483 264.001 117.611 264.001H116.829C115.947 264.001 115.307 263.688 114.909 263.063C114.502 263.688 113.866 264.001 113.004 264.001H112.222C111.34 264.001 110.696 263.688 110.288 263.063C109.89 263.688 109.25 264.001 108.369 264.001H107.374ZM123.597 256.082C123.218 256.082 123.028 255.887 123.028 255.499C123.028 255.11 123.218 254.916 123.597 254.916C123.976 254.916 124.166 255.11 124.166 255.499C124.166 255.887 123.976 256.082 123.597 256.082ZM125.218 256.082C124.839 256.082 124.649 255.887 124.649 255.499C124.649 255.11 124.839 254.916 125.218 254.916C125.597 254.916 125.787 255.11 125.787 255.499C125.787 255.887 125.597 256.082 125.218 256.082ZM126.739 263.12H127.237V264.001H126.625C125.772 264.001 125.133 263.712 124.706 263.134C124.26 263.712 123.616 264.001 122.772 264.001H122.161V263.12H122.659C123.701 263.12 124.223 262.579 124.223 261.499V258.414L125.175 257.916V261.499C125.175 262.579 125.697 263.12 126.739 263.12ZM126.951 264.001V263.12H127.819C128.871 263.12 129.397 262.579 129.397 261.499V259.451L130.349 258.954V261.499C130.349 262.579 130.871 263.12 131.913 263.12H132.439C133.482 263.12 134.003 262.579 134.003 261.499V258.94L134.956 258.428V261.499C134.956 262.579 135.482 263.12 136.534 263.12H137.046C138.098 263.12 138.624 262.579 138.624 261.499V258.414L139.577 257.916V261.527C139.577 262.314 139.345 262.93 138.88 263.376C138.463 263.783 137.899 263.992 137.188 264.001H136.406C135.525 264.001 134.885 263.688 134.487 263.063C134.079 263.688 133.444 264.001 132.582 264.001H131.8C130.918 264.001 130.274 263.688 129.866 263.063C129.468 263.688 128.828 264.001 127.947 264.001H126.951ZM147.323 255.328L148.261 254.831V261.456C148.261 262.262 148.024 262.897 147.55 263.361C147.114 263.788 146.531 264.001 145.801 264.001H141.138L141.593 263.12H143.768V257.177L144.706 256.679V263.12H145.702C146.782 263.12 147.323 262.56 147.323 261.442V255.328ZM150.825 264.001V255.328L151.778 254.831V264.001H150.825ZM157.978 263.475C157.579 263.703 157.068 263.816 156.442 263.816C155.617 263.816 154.973 263.499 154.508 262.864C154.11 262.323 153.911 261.641 153.911 260.816C153.911 259.821 154.177 259.044 154.707 258.485C155.172 257.992 155.788 257.745 156.556 257.745C157.343 257.745 157.949 257.992 158.376 258.485C158.745 258.911 158.93 259.48 158.93 260.191V263.319C158.93 264.2 158.745 264.925 158.376 265.494C158.006 266.072 157.48 266.442 156.797 266.603C156.57 266.669 156.324 266.703 156.058 266.703C155.508 266.703 154.973 266.57 154.452 266.305V265.466C154.944 265.731 155.433 265.864 155.916 265.864C156.305 265.864 156.646 265.778 156.94 265.608C157.603 265.276 157.949 264.565 157.978 263.475ZM157.978 260.276C157.978 259.167 157.504 258.613 156.556 258.613C156.025 258.613 155.603 258.807 155.29 259.195C154.987 259.584 154.835 260.12 154.835 260.802C154.835 261.466 154.982 261.996 155.276 262.395C155.57 262.783 155.968 262.978 156.47 262.978C157.219 262.978 157.722 262.769 157.978 262.352V260.276ZM166.244 255.968C165.865 255.968 165.675 255.769 165.675 255.371C165.675 254.992 165.865 254.802 166.244 254.802C166.623 254.802 166.813 254.992 166.813 255.371C166.813 255.769 166.623 255.968 166.244 255.968ZM167.865 255.968C167.486 255.968 167.296 255.769 167.296 255.371C167.296 254.992 167.486 254.802 167.865 254.802C168.244 254.802 168.434 254.992 168.434 255.371C168.434 255.769 168.244 255.968 167.865 255.968ZM167.083 264.001C166.239 264.001 165.58 263.722 165.107 263.162C164.708 262.679 164.509 262.053 164.509 261.286C164.509 259.532 165.391 258.352 167.154 257.745C168.917 258.352 169.799 259.532 169.799 261.286C169.799 262.167 169.538 262.854 169.017 263.347C168.562 263.783 167.964 264.001 167.225 264.001H167.083ZM167.04 263.12H167.268C167.761 263.12 168.149 262.959 168.434 262.636C168.718 262.305 168.86 261.854 168.86 261.286C168.86 260.025 168.291 259.134 167.154 258.613C166.016 259.134 165.448 260.025 165.448 261.286C165.448 261.845 165.59 262.29 165.874 262.622C166.159 262.954 166.547 263.12 167.04 263.12ZM174.444 264.001C173.638 264.001 173.017 263.741 172.581 263.219C172.221 262.774 172.041 262.21 172.041 261.527V255.328L172.994 254.831V261.499C172.994 262.579 173.515 263.12 174.558 263.12H175.055V264.001H174.444ZM176.832 260.191C176.832 259.385 177.074 258.759 177.558 258.314C177.975 257.935 178.524 257.745 179.207 257.745C180.088 257.745 180.766 258.068 181.24 258.712C181.648 259.262 181.851 259.982 181.851 260.873C181.851 261.887 181.591 262.679 181.069 263.248C180.614 263.75 180.022 264.001 179.292 264.001C178.401 264.001 177.738 263.717 177.302 263.148C176.875 263.717 176.235 264.001 175.382 264.001H174.771V263.12H175.268C176.311 263.12 176.832 262.579 176.832 261.499V260.191ZM177.785 261.556C177.785 262.598 178.297 263.12 179.321 263.12C179.813 263.12 180.202 262.921 180.486 262.523C180.771 262.124 180.913 261.57 180.913 260.859C180.913 260.158 180.761 259.608 180.458 259.21C180.164 258.812 179.747 258.613 179.207 258.613C178.259 258.613 177.785 259.167 177.785 260.276V261.556ZM186.607 264.001C185.801 264.001 185.18 263.741 184.744 263.219C184.384 262.774 184.204 262.21 184.204 261.527V255.328L185.157 254.831V261.499C185.157 262.579 185.678 263.12 186.721 263.12H187.218V264.001H186.607ZM195.92 263.12H196.417V264.001H195.906C195.119 264.001 194.488 263.911 194.015 263.731C193.55 263.551 193.119 263.233 192.721 262.778C191.507 263.594 190.105 264.001 188.512 264.001H186.934V263.12H188.526C190.593 263.12 192.204 262.418 193.36 261.015C192.517 259.404 191.498 258.598 190.304 258.598C189.488 258.598 188.692 259.011 187.915 259.835V258.897C188.692 258.129 189.503 257.745 190.346 257.745H190.375C191.863 257.745 193.152 258.75 194.242 260.759V261.342C193.948 261.722 193.635 262.049 193.304 262.323C193.607 262.617 193.948 262.826 194.327 262.949C194.716 263.063 195.247 263.12 195.92 263.12ZM205.083 263.12H205.566V264.001H204.955C204.092 264.001 203.448 263.703 203.021 263.105C202.547 263.892 201.827 264.286 200.86 264.286C199.884 264.286 199.163 263.897 198.699 263.12C198.263 263.707 197.614 264.001 196.751 264.001H196.14V263.12H196.637C197.68 263.12 198.201 262.579 198.201 261.499V261.015C198.201 259.925 198.467 259.091 198.997 258.513C199.462 258.001 200.083 257.745 200.86 257.745C201.751 257.745 202.429 258.077 202.893 258.741C203.301 259.309 203.505 260.068 203.505 261.015V261.499C203.505 262.579 204.031 263.12 205.083 263.12ZM200.86 263.404C201.381 263.404 201.794 263.191 202.097 262.764C202.4 262.328 202.552 261.741 202.552 261.001C202.552 259.409 201.988 258.613 200.86 258.613C199.723 258.613 199.154 259.409 199.154 261.001C199.154 262.603 199.723 263.404 200.86 263.404ZM209.811 263.12H210.309V264.001H209.698C208.826 264.001 208.176 263.703 207.75 263.105C207.304 263.703 206.645 264.001 205.773 264.001H205.276V263.12H205.674C206.755 263.12 207.295 262.56 207.295 261.442V255.328L208.247 254.831V261.499C208.247 262.579 208.769 263.12 209.811 263.12ZM210.024 264.001V263.12H210.423C211.503 263.12 212.043 262.56 212.043 261.442V255.328L212.996 254.831V261.456C212.996 262.262 212.759 262.897 212.285 263.361C211.84 263.788 211.252 264.001 210.522 264.001H210.024ZM223.778 256.082C223.389 256.082 223.195 255.883 223.195 255.485C223.195 255.105 223.389 254.916 223.778 254.916C224.147 254.916 224.332 255.105 224.332 255.485C224.332 255.883 224.147 256.082 223.778 256.082ZM225.398 256.082C225.01 256.082 224.816 255.883 224.816 255.485C224.816 255.105 225.01 254.916 225.398 254.916C225.768 254.916 225.953 255.105 225.953 255.485C225.953 255.883 225.768 256.082 225.398 256.082ZM226.962 264.001C226.735 265.802 225.351 266.703 222.811 266.703C221.351 266.703 220.251 266.276 219.512 265.423C218.962 264.788 218.687 264.006 218.687 263.077C218.687 262.262 218.896 261.56 219.313 260.973L220.237 260.788C219.782 261.48 219.555 262.219 219.555 263.006C219.555 263.869 219.853 264.556 220.451 265.068C221.029 265.57 221.815 265.821 222.811 265.821C224.725 265.821 225.782 265.21 225.981 263.987L225.598 263.959C224.261 263.902 223.308 263.603 222.74 263.063C222.228 262.57 221.972 261.84 221.972 260.873C221.972 259.85 222.237 259.058 222.768 258.499C223.233 257.996 223.849 257.745 224.616 257.745C225.403 257.745 226.01 257.992 226.436 258.485C226.806 258.911 226.991 259.48 226.991 260.191V263.12H228.498V264.001H226.962ZM226.038 263.12V260.276C226.038 259.167 225.564 258.613 224.616 258.613C224.076 258.613 223.654 258.812 223.351 259.21C223.057 259.608 222.91 260.158 222.91 260.859C222.91 261.646 223.109 262.21 223.507 262.551C223.915 262.883 224.616 263.068 225.612 263.105L226.038 263.12ZM228.214 264.001V263.12H228.711C229.754 263.12 230.275 262.579 230.275 261.499V258.414L231.228 257.916V261.527C231.228 262.323 230.996 262.944 230.531 263.39C230.105 263.797 229.536 264.001 228.825 264.001H228.214ZM228.683 266.66C228.294 266.66 228.1 266.461 228.1 266.063C228.1 265.684 228.294 265.494 228.683 265.494C229.053 265.494 229.237 265.684 229.237 266.063C229.237 266.461 229.053 266.66 228.683 266.66ZM230.304 266.66C229.915 266.66 229.721 266.461 229.721 266.063C229.721 265.684 229.915 265.494 230.304 265.494C230.673 265.494 230.858 265.684 230.858 266.063C230.858 266.461 230.673 266.66 230.304 266.66ZM240.029 263.12V264.001H238.522C238.512 264.627 238.308 265.177 237.91 265.651C237.522 266.134 237.015 266.451 236.389 266.603C236.161 266.669 235.915 266.703 235.65 266.703C235.1 266.703 234.564 266.57 234.043 266.305V265.466C234.536 265.731 235.024 265.864 235.507 265.864C235.896 265.864 236.237 265.778 236.531 265.608C236.825 265.456 237.071 265.224 237.27 264.911C237.47 264.608 237.569 264.305 237.569 264.001L236.361 263.959C235.308 263.911 234.522 263.579 234 262.963C233.574 262.442 233.36 261.745 233.36 260.873C233.36 259.85 233.626 259.058 234.157 258.499C234.631 257.996 235.266 257.745 236.062 257.745C236.887 257.745 237.517 257.992 237.953 258.485C238.332 258.911 238.522 259.48 238.522 260.191V263.12H240.029ZM237.569 260.29C237.569 259.172 237.067 258.613 236.062 258.613C235.503 258.613 235.067 258.812 234.754 259.21C234.451 259.598 234.299 260.148 234.299 260.859C234.299 262.271 234.996 263.011 236.389 263.077C236.806 263.105 237.199 263.12 237.569 263.12V260.29ZM243.022 260.802C244.131 258.764 245.601 257.745 247.43 257.745C248.492 257.745 249.335 258.11 249.961 258.84C250.492 259.466 250.757 260.238 250.757 261.158V261.655C250.757 263.219 250.075 264.001 248.71 264.001H239.738V263.12H242.141V255.328L243.022 254.831V260.802ZM249.805 261.158C249.805 260.361 249.553 259.722 249.051 259.238C248.624 258.821 248.089 258.613 247.444 258.613C246.335 258.613 245.349 259.148 244.487 260.219C243.833 261.025 243.349 261.992 243.037 263.12H248.61C249.065 263.12 249.378 263.015 249.549 262.807C249.719 262.589 249.805 262.196 249.805 261.627V261.158ZM257.84 255.968C257.451 255.968 257.257 255.769 257.257 255.371C257.257 254.992 257.451 254.802 257.84 254.802C258.21 254.802 258.394 254.992 258.394 255.371C258.394 255.769 258.21 255.968 257.84 255.968ZM259.461 255.968C259.072 255.968 258.878 255.769 258.878 255.371C258.878 254.992 259.072 254.802 259.461 254.802C259.83 254.802 260.015 254.992 260.015 255.371C260.015 255.769 259.83 255.968 259.461 255.968ZM262.219 263.12H262.702V264.001H262.091C261.077 264.001 260.371 263.603 259.973 262.807C259.48 263.319 258.873 263.575 258.153 263.575C257.337 263.575 256.693 263.267 256.219 262.65C255.821 262.129 255.622 261.48 255.622 260.703C255.622 259.793 255.887 259.063 256.418 258.513C256.882 258.03 257.456 257.788 258.138 257.788C258.755 257.788 259.271 257.968 259.688 258.328V257.56L260.641 257.063V261.499C260.641 262.579 261.167 263.12 262.219 263.12ZM259.688 259.409C259.271 258.906 258.764 258.655 258.167 258.655C257.693 258.655 257.304 258.85 257.001 259.238C256.707 259.617 256.56 260.11 256.56 260.717C256.56 261.333 256.707 261.826 257.001 262.196C257.304 262.565 257.698 262.75 258.181 262.75C258.797 262.75 259.309 262.48 259.717 261.94C259.698 261.769 259.688 261.632 259.688 261.527V259.409ZM264.659 258.129C264.753 258.12 264.853 258.115 264.957 258.115C265.81 258.115 266.54 258.323 267.147 258.741C267.981 259.338 268.398 260.191 268.398 261.3V261.57C268.398 262.366 268.151 262.987 267.659 263.432C267.232 263.812 266.678 264.001 265.995 264.001H262.412V263.12H265.896C266.929 263.12 267.445 262.565 267.445 261.456V261.314C267.445 260.546 267.17 259.973 266.621 259.594C266.166 259.252 265.587 259.082 264.886 259.082C264.374 259.082 263.867 259.172 263.365 259.352V258.414L266.592 254.831H267.573L264.659 258.129ZM273.967 263.12H274.465V264.001H273.853C273.266 264.001 272.778 263.859 272.389 263.575C272.313 265.148 271.678 266.143 270.484 266.56C270.18 266.665 269.858 266.717 269.517 266.717C268.967 266.717 268.436 266.584 267.924 266.319V265.48C268.408 265.745 268.901 265.878 269.403 265.878C269.801 265.878 270.152 265.788 270.455 265.608C271.119 265.21 271.451 264.466 271.451 263.376V258.414L272.389 257.916V257.93L272.403 257.916V261.499C272.403 262.579 272.925 263.12 273.967 263.12ZM281.708 255.03C281.367 255.03 281.196 254.849 281.196 254.489C281.196 254.148 281.367 253.977 281.708 253.977C282.049 253.977 282.22 254.148 282.22 254.489C282.22 254.849 282.049 255.03 281.708 255.03ZM280.912 256.508C280.523 256.508 280.329 256.314 280.329 255.925C280.329 255.537 280.523 255.342 280.912 255.342C281.281 255.342 281.466 255.537 281.466 255.925C281.466 256.314 281.281 256.508 280.912 256.508ZM282.532 256.508C282.153 256.508 281.964 256.314 281.964 255.925C281.964 255.537 282.153 255.342 282.532 255.342C282.912 255.342 283.101 255.537 283.101 255.925C283.101 256.314 282.912 256.508 282.532 256.508ZM274.186 264.001V263.12H275.054C276.106 263.12 276.632 262.579 276.632 261.499V259.451L277.585 258.954V261.499C277.585 262.579 278.106 263.12 279.149 263.12H279.675C280.717 263.12 281.239 262.579 281.239 261.499V258.94L282.191 258.428V261.499C282.191 262.579 282.717 263.12 283.769 263.12H284.281C285.333 263.12 285.86 262.579 285.86 261.499V258.414L286.812 257.916V261.527C286.812 262.314 286.58 262.93 286.115 263.376C285.698 263.783 285.134 263.992 284.424 264.001H283.642C282.76 264.001 282.12 263.688 281.722 263.063C281.314 263.688 280.679 264.001 279.817 264.001H279.035C278.153 264.001 277.509 263.688 277.101 263.063C276.703 263.688 276.063 264.001 275.182 264.001H274.186Z" fill="#A5812C"/>
<path d="M34.0571 270.049C34.0199 270.555 34.0014 271.088 34.0014 271.648V274.533C34.0014 275.606 34.0284 276.198 34.0824 276.309C34.1363 276.417 34.3286 276.471 34.6593 276.471H35.0388V276.79C34.4417 276.766 33.9356 276.754 33.5206 276.754C33.1023 276.754 32.5996 276.766 32.0125 276.79V276.471H32.4376C32.6603 276.471 32.8054 276.442 32.8729 276.385C32.9403 276.324 32.9825 276.208 32.9994 276.036C33.0331 275.641 33.05 275.132 33.05 274.507V271.618C33.05 271.048 33.0382 270.525 33.0146 270.049H32.4984C31.665 270.049 31.2062 270.069 31.1219 270.11C31.0375 270.147 30.9819 270.297 30.9549 270.56L30.884 271.238H30.5652L30.5753 270.636C30.5753 270.393 30.5551 270.044 30.5146 269.588C32.3364 269.612 33.4076 269.624 33.7281 269.624L36.5267 269.588C36.4626 270.159 36.4254 270.709 36.4153 271.238H36.1016L36.051 270.575C36.0307 270.346 36.002 270.211 35.9649 270.17C35.9278 270.127 35.8452 270.1 35.717 270.09C35.3458 270.063 34.9241 270.049 34.4518 270.049H34.0571ZM36.8961 269.907V269.588C37.5877 269.612 38.0904 269.624 38.4042 269.624C38.7348 269.624 39.2206 269.612 39.8616 269.588V269.907H39.4922C39.1751 269.907 38.9845 269.968 38.9204 270.09C38.8562 270.211 38.8242 270.761 38.8242 271.739V273.723C38.8242 274.448 38.863 274.953 38.9406 275.236C39.0216 275.52 39.2274 275.759 39.558 275.955C39.8886 276.15 40.3306 276.248 40.8839 276.248C41.4541 276.248 41.9348 276.144 42.3262 275.935C42.5961 275.789 42.7934 275.565 42.9183 275.261C43.0431 274.954 43.1055 274.374 43.1055 273.521V271.613C43.1055 270.729 43.065 270.224 42.9841 270.1C42.9065 269.971 42.6889 269.907 42.3312 269.907H42.0681V269.588C42.7665 269.612 43.2101 269.624 43.399 269.624C43.7061 269.624 44.0873 269.612 44.5427 269.588V269.907H44.1986C43.9321 269.907 43.76 269.98 43.6824 270.125C43.6082 270.267 43.5711 270.769 43.5711 271.633V273.531C43.5711 274.398 43.5272 274.983 43.4395 275.287C43.3552 275.587 43.1983 275.859 42.9689 276.102C42.7428 276.344 42.4392 276.537 42.058 276.678C41.6801 276.82 41.2348 276.891 40.7219 276.891C40.1923 276.891 39.7284 276.829 39.3303 276.704C38.9322 276.576 38.6319 276.419 38.4295 276.233C38.2304 276.048 38.0853 275.822 37.9943 275.555C37.9065 275.285 37.8627 274.828 37.8627 274.184L37.8728 273.222V271.679C37.8728 270.727 37.8441 270.194 37.7868 270.079C37.7328 269.965 37.5557 269.907 37.2554 269.907H36.8961ZM47.7259 275.251L48.9 272.357C49.099 271.861 49.46 270.916 49.983 269.523H50.3018C50.5008 270.147 50.769 270.936 51.1064 271.891L52.326 275.322L53.2521 272.119C53.3399 271.812 53.4917 271.221 53.7076 270.348C53.7278 270.27 53.738 270.206 53.738 270.155C53.738 270.095 53.7127 270.049 53.6621 270.019C53.6115 269.988 53.4866 269.963 53.2876 269.943L52.8271 269.907V269.588C53.3028 269.612 53.6756 269.624 53.9455 269.624C54.2356 269.624 54.5949 269.612 55.0234 269.588V269.907H54.7602C54.6455 269.907 54.5595 269.934 54.5021 269.988C54.3942 270.1 54.1378 270.808 53.7329 272.114C53.1965 273.855 52.7511 275.44 52.3969 276.871H51.8706C51.8099 276.645 51.7593 276.476 51.7188 276.365C51.5703 275.93 51.2262 274.971 50.6864 273.49L49.8564 271.213L48.9101 273.505C48.3433 274.875 47.9233 275.997 47.65 276.871H47.1389L46.8707 275.626C46.7964 275.258 46.7104 274.867 46.6126 274.452L45.732 270.666C45.6477 270.295 45.5717 270.076 45.5043 270.009C45.4368 269.941 45.2968 269.907 45.0842 269.907H44.8717V269.588C45.3541 269.612 45.7708 269.624 46.1217 269.624C46.4624 269.624 46.9229 269.612 47.5032 269.588V269.907H47.1844C46.955 269.907 46.8049 269.928 46.734 269.968C46.6665 270.009 46.6328 270.074 46.6328 270.165C46.6328 270.219 46.6412 270.282 46.6581 270.353L47.0073 272.033L47.7259 275.251ZM60.4383 274.361H57.5132L57.1691 275.175C56.9431 275.715 56.83 276.046 56.83 276.167C56.83 276.245 56.8503 276.301 56.8908 276.334C56.9346 276.368 57.0426 276.395 57.2146 276.415L57.7005 276.471V276.79C57.3766 276.766 57.0122 276.754 56.6074 276.754C56.1215 276.754 55.6948 276.766 55.327 276.79V276.471L55.4788 276.466C55.715 276.459 55.8668 276.436 55.9343 276.395C56.0051 276.351 56.0794 276.247 56.157 276.081C56.3965 275.596 56.6411 275.071 56.8908 274.507L58.2824 271.355C58.6536 270.518 58.9066 269.911 59.0415 269.533H59.3857L61.9464 275.489C62.1184 275.894 62.2331 276.139 62.2905 276.223C62.3478 276.304 62.4136 276.363 62.4879 276.4C62.5621 276.434 62.7291 276.458 62.9889 276.471V276.79C62.5503 276.766 62.1319 276.754 61.7338 276.754C61.3627 276.754 60.8684 276.766 60.251 276.79V276.471L60.752 276.441C60.9309 276.427 61.0371 276.409 61.0709 276.385C61.1215 276.348 61.1468 276.301 61.1468 276.243C61.1468 276.183 61.0962 276.024 60.995 275.768L60.4383 274.361ZM57.7005 273.946H60.251L58.9758 270.899L57.7005 273.946ZM63.505 276.471H63.8239C64.1376 276.471 64.3249 276.395 64.3856 276.243C64.4497 276.091 64.4818 275.364 64.4818 274.062V272.347C64.4818 270.997 64.4548 270.253 64.4008 270.115C64.3468 269.976 64.1849 269.907 63.915 269.907H63.505V269.588C64.0651 269.612 64.6184 269.624 65.1649 269.624C65.6204 269.624 66.0337 269.612 66.4048 269.588V269.907H66.0151C65.7756 269.907 65.6255 269.936 65.5647 269.993C65.504 270.051 65.4686 270.196 65.4585 270.429C65.4416 270.79 65.4332 271.432 65.4332 272.357V274.103C65.4332 275.415 65.4618 276.139 65.5192 276.274C65.5765 276.405 65.7604 276.471 66.0708 276.471H66.4048V276.79C65.9898 276.766 65.5377 276.754 65.0485 276.754C64.4784 276.754 63.9639 276.766 63.505 276.79V276.471ZM70.8683 276.886C71.2563 276.987 71.6595 277.124 72.0778 277.296C72.9516 277.654 73.5825 277.832 73.9705 277.832C74.1021 277.832 74.3011 277.799 74.5677 277.731V277.994C74.1898 278.19 73.9098 278.375 73.7276 278.551C73.4341 278.514 73.1692 278.463 72.9331 278.399C72.6969 278.338 72.3376 278.219 71.8551 278.04C71.0589 277.75 70.5242 277.605 70.2509 277.605C70.1733 277.605 70.0907 277.621 70.0029 277.655C69.9186 277.689 69.7044 277.802 69.3602 277.994V277.66C69.9372 277.272 70.3504 277.014 70.6001 276.886C69.8376 276.886 69.1865 276.736 68.6467 276.436C68.1069 276.132 67.6852 275.7 67.3815 275.14C67.0779 274.58 66.9261 273.924 66.9261 273.171C66.9261 272.072 67.2837 271.183 67.9989 270.504C68.7142 269.826 69.6672 269.487 70.8582 269.487C72.0255 269.487 72.9398 269.803 73.6011 270.434C74.2657 271.061 74.598 271.898 74.598 272.944C74.598 273.747 74.4023 274.452 74.011 275.059C73.623 275.663 73.1136 276.127 72.4827 276.451C72.0306 276.684 71.4925 276.829 70.8683 276.886ZM67.9939 272.762C67.9939 273.521 68.1237 274.182 68.3835 274.745C68.6433 275.309 68.9908 275.732 69.426 276.016C69.8612 276.296 70.3589 276.436 70.9189 276.436C71.4385 276.436 71.8923 276.316 72.2802 276.076C72.6682 275.837 72.9735 275.481 73.1962 275.008C73.4189 274.536 73.5302 273.959 73.5302 273.278C73.5302 272.562 73.4071 271.952 73.1608 271.446C72.9145 270.94 72.5771 270.56 72.1487 270.307C71.7202 270.051 71.2124 269.923 70.6254 269.923C70.089 269.923 69.6268 270.036 69.2388 270.262C68.8508 270.488 68.5455 270.818 68.3228 271.253C68.1035 271.689 67.9939 272.191 67.9939 272.762ZM82.7356 274.361H79.8105L79.4664 275.175C79.2403 275.715 79.1273 276.046 79.1273 276.167C79.1273 276.245 79.1476 276.301 79.188 276.334C79.2319 276.368 79.3399 276.395 79.5119 276.415L79.9977 276.471V276.79C79.6739 276.766 79.3095 276.754 78.9046 276.754C78.4188 276.754 77.992 276.766 77.6243 276.79V276.471L77.7761 276.466C78.0123 276.459 78.1641 276.436 78.2316 276.395C78.3024 276.351 78.3766 276.247 78.4542 276.081C78.6938 275.596 78.9384 275.071 79.188 274.507L80.5797 271.355C80.9508 270.518 81.2039 269.911 81.3388 269.533H81.6829L84.2436 275.489C84.4157 275.894 84.5304 276.139 84.5878 276.223C84.6451 276.304 84.7109 276.363 84.7851 276.4C84.8594 276.434 85.0264 276.458 85.2861 276.471V276.79C84.8475 276.766 84.4292 276.754 84.0311 276.754C83.66 276.754 83.1657 276.766 82.5483 276.79V276.471L83.0493 276.441C83.2281 276.427 83.3344 276.409 83.3681 276.385C83.4188 276.348 83.4441 276.301 83.4441 276.243C83.4441 276.183 83.3935 276.024 83.2922 275.768L82.7356 274.361ZM79.9977 273.946H82.5483L81.273 270.899L79.9977 273.946ZM86.6171 276.284C86.6711 275.761 86.6981 274.847 86.6981 273.541V272.073C86.6981 271.473 86.6778 270.955 86.6373 270.52C86.6137 270.267 86.5817 270.12 86.5412 270.079C86.5041 270.039 86.3657 270.002 86.1262 269.968L85.7214 269.907V269.588C86.278 269.605 86.6525 269.614 86.8448 269.614L88.2061 269.604L89.3144 269.583C89.7598 269.577 90.2169 269.621 90.6859 269.715C91.1548 269.809 91.5799 270 91.9612 270.287C92.3424 270.57 92.6325 270.928 92.8316 271.36C93.0306 271.788 93.1302 272.284 93.1302 272.848C93.1302 273.988 92.7456 274.931 91.9763 275.676C91.2105 276.422 90.2085 276.795 88.9703 276.795L88.3478 276.78C87.7372 276.756 87.3509 276.744 87.1889 276.744C86.9157 276.744 86.5682 276.765 86.1465 276.805V276.562L86.6171 276.284ZM87.7102 276.258C88.1657 276.326 88.5671 276.36 88.9146 276.36C89.8593 276.36 90.5931 276.117 91.116 275.631C91.7469 275.041 92.0624 274.18 92.0624 273.05C92.0624 272.065 91.7992 271.314 91.2729 270.798C90.75 270.282 89.9824 270.024 88.9703 270.024C88.6161 270.024 88.196 270.059 87.7102 270.13C87.6697 270.454 87.6495 270.822 87.6495 271.233V274.543C87.6495 275.154 87.6697 275.725 87.7102 276.258ZM97.0218 276.871C96.87 276.419 96.7148 275.995 96.5562 275.601L94.7445 271.071C94.4847 270.417 94.3329 270.059 94.2891 269.998C94.2452 269.938 94.1001 269.907 93.8538 269.907H93.6463V269.588C94.176 269.612 94.6264 269.624 94.9975 269.624C95.3889 269.624 95.8579 269.612 96.4044 269.588V269.953H95.9034C95.7313 269.953 95.62 269.97 95.5694 270.003C95.5188 270.034 95.4935 270.083 95.4935 270.15C95.4935 270.194 95.5019 270.243 95.5188 270.297L96.1767 272.033L97.5431 275.52L98.874 272.195C99.3227 271.065 99.5471 270.403 99.5471 270.211C99.5471 270.056 99.4543 269.975 99.2687 269.968L99.0613 269.953L98.626 269.907V269.588C99.0748 269.612 99.4442 269.624 99.7343 269.624C100.038 269.624 100.419 269.612 100.878 269.588V269.907H100.676C100.514 269.907 100.396 269.946 100.321 270.024C100.251 270.098 100.121 270.366 99.9317 270.828L98.2262 274.993C97.9057 275.776 97.678 276.402 97.5431 276.871H97.0218ZM101.247 273.187C101.247 272.077 101.605 271.183 102.32 270.504C103.036 269.826 103.989 269.487 105.18 269.487C106.347 269.487 107.261 269.803 107.922 270.434C108.587 271.061 108.919 271.896 108.919 272.939C108.919 274.062 108.535 275.002 107.766 275.757C106.996 276.513 106.026 276.891 104.856 276.891C104.124 276.891 103.493 276.743 102.963 276.446C102.433 276.149 102.015 275.715 101.708 275.145C101.401 274.575 101.247 273.922 101.247 273.187ZM102.275 272.772C102.275 273.534 102.405 274.199 102.664 274.766C102.928 275.329 103.278 275.752 103.717 276.036C104.156 276.316 104.657 276.456 105.22 276.456C105.743 276.456 106.2 276.336 106.592 276.097C106.983 275.857 107.29 275.499 107.513 275.024C107.739 274.548 107.852 273.969 107.852 273.288C107.852 272.573 107.727 271.962 107.477 271.456C107.231 270.946 106.892 270.564 106.46 270.307C106.028 270.051 105.517 269.923 104.927 269.923C104.387 269.923 103.921 270.036 103.53 270.262C103.138 270.488 102.831 270.82 102.609 271.259C102.386 271.694 102.275 272.198 102.275 272.772ZM115.665 271.415L115.625 270.515C115.325 270.316 115.009 270.167 114.678 270.069C114.351 269.971 114.009 269.923 113.651 269.923C112.74 269.923 112.01 270.199 111.46 270.752C110.913 271.306 110.64 272.046 110.64 272.974C110.64 273.625 110.778 274.206 111.055 274.715C111.335 275.224 111.731 275.628 112.244 275.924C112.757 276.221 113.299 276.37 113.869 276.37C114.321 276.37 114.768 276.317 115.21 276.213C115.54 276.135 115.873 275.973 116.207 275.727L116.313 275.828C116.242 275.983 116.176 276.14 116.116 276.299C115.721 276.495 115.323 276.643 114.921 276.744C114.523 276.842 114.122 276.891 113.717 276.891C112.887 276.891 112.157 276.731 111.526 276.41C110.898 276.09 110.416 275.648 110.078 275.084C109.741 274.518 109.572 273.878 109.572 273.166C109.572 272.455 109.743 271.819 110.083 271.259C110.424 270.695 110.905 270.26 111.526 269.953C112.15 269.642 112.916 269.487 113.823 269.487C114.299 269.487 114.856 269.565 115.493 269.72C115.81 269.794 116.068 269.85 116.268 269.887C116.116 270.248 116.028 270.758 116.004 271.415H115.665ZM121.814 274.361H118.889L118.545 275.175C118.319 275.715 118.206 276.046 118.206 276.167C118.206 276.245 118.226 276.301 118.266 276.334C118.31 276.368 118.418 276.395 118.59 276.415L119.076 276.471V276.79C118.752 276.766 118.388 276.754 117.983 276.754C117.497 276.754 117.07 276.766 116.703 276.79V276.471L116.855 276.466C117.091 276.459 117.243 276.436 117.31 276.395C117.381 276.351 117.455 276.247 117.533 276.081C117.772 275.596 118.017 275.071 118.266 274.507L119.658 271.355C120.029 270.518 120.282 269.911 120.417 269.533H120.761L123.322 275.489C123.494 275.894 123.609 276.139 123.666 276.223C123.724 276.304 123.789 276.363 123.864 276.4C123.938 276.434 124.105 276.458 124.365 276.471V276.79C123.926 276.766 123.508 276.754 123.11 276.754C122.738 276.754 122.244 276.766 121.627 276.79V276.471L122.128 276.441C122.307 276.427 122.413 276.409 122.447 276.385C122.497 276.348 122.522 276.301 122.522 276.243C122.522 276.183 122.472 276.024 122.371 275.768L121.814 274.361ZM119.076 273.946H121.627L120.351 270.899L119.076 273.946ZM128.287 270.049C128.249 270.555 128.231 271.088 128.231 271.648V274.533C128.231 275.606 128.258 276.198 128.312 276.309C128.366 276.417 128.558 276.471 128.889 276.471H129.268V276.79C128.671 276.766 128.165 276.754 127.75 276.754C127.332 276.754 126.829 276.766 126.242 276.79V276.471H126.667C126.89 276.471 127.035 276.442 127.102 276.385C127.17 276.324 127.212 276.208 127.229 276.036C127.263 275.641 127.28 275.132 127.28 274.507V271.618C127.28 271.048 127.268 270.525 127.244 270.049H126.728C125.895 270.049 125.436 270.069 125.351 270.11C125.267 270.147 125.211 270.297 125.184 270.56L125.114 271.238H124.795L124.805 270.636C124.805 270.393 124.785 270.044 124.744 269.588C126.566 269.612 127.637 269.624 127.958 269.624L130.756 269.588C130.692 270.159 130.655 270.709 130.645 271.238H130.331L130.28 270.575C130.26 270.346 130.232 270.211 130.194 270.17C130.157 270.127 130.075 270.1 129.946 270.09C129.575 270.063 129.154 270.049 128.681 270.049H128.287ZM133.226 273.354V274.593L133.231 275.307C133.231 275.752 133.236 276.078 133.246 276.284C133.739 276.321 134.267 276.339 134.83 276.339C135.208 276.339 135.525 276.323 135.781 276.289C135.947 276.269 136.122 276.225 136.308 276.157C136.392 275.86 136.478 275.489 136.566 275.044H136.905C136.814 275.783 136.768 276.275 136.768 276.522L136.778 276.749C136.39 276.786 136.009 276.805 135.635 276.805L134.84 276.79C133.963 276.766 133.319 276.754 132.907 276.754C132.512 276.754 131.988 276.766 131.333 276.79V276.471H131.49C131.783 276.471 131.967 276.442 132.042 276.385C132.119 276.328 132.17 276.193 132.193 275.98C132.22 275.768 132.234 275.299 132.234 274.573V271.795C132.234 271.339 132.222 270.967 132.198 270.677C132.178 270.386 132.155 270.214 132.128 270.16C132.104 270.103 132.069 270.059 132.021 270.029C131.974 269.998 131.829 269.971 131.586 269.948L131.196 269.907V269.594H131.743L132.279 269.609C132.58 269.619 132.807 269.624 132.963 269.624L134.906 269.599L135.827 269.594C136.141 269.59 136.458 269.604 136.778 269.634C136.65 270.032 136.579 270.55 136.566 271.188H136.222C136.222 270.817 136.203 270.508 136.166 270.262C135.768 270.113 135.279 270.039 134.698 270.039C134.236 270.039 133.752 270.059 133.246 270.1C133.249 270.417 133.246 270.734 133.236 271.051L133.226 271.83V272.858C133.56 272.878 133.855 272.888 134.111 272.888C134.914 272.888 135.368 272.861 135.473 272.807C135.581 272.75 135.635 272.576 135.635 272.286V271.957H135.979C135.955 272.466 135.943 272.873 135.943 273.177C135.943 273.497 135.955 273.875 135.979 274.31H135.635V274.017C135.635 273.693 135.571 273.495 135.442 273.424C135.318 273.35 134.872 273.313 134.106 273.313C133.823 273.313 133.529 273.327 133.226 273.354ZM142.122 269.928C142.028 270.278 141.977 270.744 141.971 271.324H141.621V270.919C141.621 270.656 141.586 270.477 141.515 270.383C141.444 270.289 141.259 270.189 140.958 270.084C140.662 269.976 140.348 269.923 140.017 269.923C139.477 269.923 139.052 270.059 138.742 270.332C138.435 270.606 138.281 270.957 138.281 271.385C138.281 271.655 138.344 271.888 138.469 272.083C138.597 272.276 138.767 272.416 138.98 272.503C139.196 272.588 139.651 272.662 140.346 272.726C141.041 272.794 141.51 272.883 141.753 272.994C141.999 273.106 142.195 273.284 142.34 273.531C142.488 273.777 142.563 274.069 142.563 274.406C142.563 275.084 142.279 275.668 141.713 276.157C141.146 276.646 140.39 276.891 139.445 276.891C139.121 276.891 138.794 276.857 138.464 276.79C138.136 276.726 137.806 276.63 137.472 276.501C137.532 276.097 137.561 275.577 137.558 274.943H137.902V275.196C137.902 275.523 137.919 275.725 137.952 275.803C137.986 275.881 138.065 275.963 138.19 276.051C138.376 276.183 138.597 276.284 138.853 276.355C139.11 276.422 139.386 276.456 139.683 276.456C140.321 276.456 140.813 276.306 141.161 276.005C141.508 275.705 141.682 275.324 141.682 274.862C141.682 274.592 141.623 274.364 141.505 274.179C141.387 273.99 141.222 273.85 141.009 273.758C140.797 273.667 140.403 273.598 139.83 273.551C139.067 273.49 138.55 273.399 138.276 273.278C138.003 273.156 137.789 272.966 137.634 272.706C137.478 272.443 137.401 272.117 137.401 271.729C137.401 271.071 137.639 270.533 138.114 270.115C138.59 269.696 139.248 269.487 140.088 269.487C140.425 269.487 140.763 269.524 141.1 269.599C141.441 269.669 141.782 269.779 142.122 269.928ZM150.609 274.361H147.684L147.34 275.175C147.114 275.715 147.001 276.046 147.001 276.167C147.001 276.245 147.021 276.301 147.062 276.334C147.105 276.368 147.213 276.395 147.386 276.415L147.871 276.471V276.79C147.547 276.766 147.183 276.754 146.778 276.754C146.292 276.754 145.866 276.766 145.498 276.79V276.471L145.65 276.466C145.886 276.459 146.038 276.436 146.105 276.395C146.176 276.351 146.25 276.247 146.328 276.081C146.567 275.596 146.812 275.071 147.062 274.507L148.453 271.355C148.824 270.518 149.077 269.911 149.212 269.533H149.557L152.117 275.489C152.289 275.894 152.404 276.139 152.461 276.223C152.519 276.304 152.585 276.363 152.659 276.4C152.733 276.434 152.9 276.458 153.16 276.471V276.79C152.721 276.766 152.303 276.754 151.905 276.754C151.534 276.754 151.039 276.766 150.422 276.79V276.471L150.923 276.441C151.102 276.427 151.208 276.409 151.242 276.385C151.292 276.348 151.318 276.301 151.318 276.243C151.318 276.183 151.267 276.024 151.166 275.768L150.609 274.361ZM147.871 273.946H150.422L149.147 270.899L147.871 273.946ZM155.037 270.732V274.229C155.037 275.025 155.052 275.58 155.083 275.894C155.106 276.134 155.145 276.28 155.199 276.334C155.257 276.385 155.418 276.422 155.685 276.446L156.009 276.471V276.79C155.641 276.766 155.309 276.754 155.012 276.754C154.806 276.754 154.334 276.766 153.595 276.79V276.471H153.959C154.179 276.471 154.322 276.441 154.389 276.38C154.457 276.319 154.499 276.199 154.516 276.021C154.553 275.649 154.572 275.145 154.572 274.507V271.992C154.572 271.52 154.567 271.053 154.556 270.591C154.55 270.395 154.523 270.262 154.476 270.191C154.432 270.116 154.366 270.051 154.278 269.993C154.19 269.936 154.067 269.907 153.909 269.907H153.595V269.588C154.023 269.612 154.351 269.624 154.577 269.624C154.82 269.624 155.086 269.612 155.376 269.588C155.71 269.997 156.024 270.395 156.318 270.783C156.614 271.167 156.921 271.555 157.239 271.947L158.969 274.072C159.594 274.835 160.044 275.364 160.321 275.661V272.412C160.321 271.053 160.295 270.31 160.245 270.186C160.197 270.057 160.003 269.976 159.663 269.943L159.283 269.907V269.588C159.826 269.612 160.248 269.624 160.548 269.624C160.862 269.624 161.267 269.612 161.763 269.588V269.907H161.373C161.059 269.907 160.879 270.012 160.832 270.221C160.801 270.359 160.786 271.098 160.786 272.438V274.72C160.786 275.334 160.813 276.068 160.867 276.921C160.408 276.851 160.142 276.798 160.068 276.765C159.993 276.734 159.922 276.682 159.855 276.608C159.481 276.193 159.087 275.732 158.676 275.226L155.037 270.732ZM163.104 276.284C163.158 275.761 163.185 274.847 163.185 273.541V272.073C163.185 271.473 163.165 270.955 163.124 270.52C163.101 270.267 163.069 270.12 163.028 270.079C162.991 270.039 162.853 270.002 162.613 269.968L162.208 269.907V269.588C162.765 269.605 163.139 269.614 163.332 269.614L164.693 269.604L165.801 269.583C166.247 269.577 166.704 269.621 167.173 269.715C167.642 269.809 168.067 270 168.448 270.287C168.829 270.57 169.119 270.928 169.318 271.36C169.517 271.788 169.617 272.284 169.617 272.848C169.617 273.988 169.232 274.931 168.463 275.676C167.697 276.422 166.695 276.795 165.457 276.795L164.835 276.78C164.224 276.756 163.838 276.744 163.676 276.744C163.403 276.744 163.055 276.765 162.633 276.805V276.562L163.104 276.284ZM164.197 276.258C164.652 276.326 165.054 276.36 165.401 276.36C166.346 276.36 167.08 276.117 167.603 275.631C168.234 275.041 168.549 274.18 168.549 273.05C168.549 272.065 168.286 271.314 167.76 270.798C167.237 270.282 166.469 270.024 165.457 270.024C165.103 270.024 164.683 270.059 164.197 270.13C164.157 270.454 164.136 270.822 164.136 271.233V274.543C164.136 275.154 164.157 275.725 164.197 276.258ZM174.845 276.294C175.175 276.311 175.497 276.319 175.811 276.319C176.446 276.319 176.941 276.302 177.299 276.269C177.549 276.242 177.807 276.193 178.073 276.122L178.377 274.933H178.706C178.622 275.57 178.556 276.166 178.509 276.719C178.205 276.77 177.79 276.795 177.264 276.795L174.855 276.754C174.531 276.754 174.027 276.773 173.342 276.81V276.542C173.612 276.424 173.77 276.297 173.817 276.162C173.868 276.027 173.893 275.493 173.893 274.558V271.775C173.893 270.763 173.868 270.199 173.817 270.084C173.77 269.966 173.633 269.907 173.407 269.907H172.856V269.588C173.659 269.612 174.192 269.624 174.455 269.624C174.806 269.624 175.282 269.612 175.882 269.588V269.907H175.255C175.076 269.907 174.963 269.96 174.916 270.064C174.868 270.165 174.845 270.592 174.845 271.345V274.568L174.86 275.995L174.845 276.294ZM181.231 273.354V274.593L181.236 275.307C181.236 275.752 181.241 276.078 181.251 276.284C181.744 276.321 182.272 276.339 182.835 276.339C183.213 276.339 183.53 276.323 183.787 276.289C183.952 276.269 184.128 276.225 184.313 276.157C184.398 275.86 184.484 275.489 184.571 275.044H184.91C184.819 275.783 184.774 276.275 184.774 276.522L184.784 276.749C184.396 276.786 184.015 276.805 183.64 276.805L182.846 276.79C181.968 276.766 181.324 276.754 180.912 276.754C180.518 276.754 179.993 276.766 179.339 276.79V276.471H179.495C179.789 276.471 179.973 276.442 180.047 276.385C180.125 276.328 180.175 276.193 180.199 275.98C180.226 275.768 180.239 275.299 180.239 274.573V271.795C180.239 271.339 180.228 270.967 180.204 270.677C180.184 270.386 180.16 270.214 180.133 270.16C180.109 270.103 180.074 270.059 180.027 270.029C179.98 269.998 179.834 269.971 179.592 269.948L179.202 269.907V269.594H179.748L180.285 269.609C180.585 269.619 180.813 269.624 180.968 269.624L182.911 269.599L183.832 269.594C184.146 269.59 184.463 269.604 184.784 269.634C184.656 270.032 184.585 270.55 184.571 271.188H184.227C184.227 270.817 184.209 270.508 184.171 270.262C183.773 270.113 183.284 270.039 182.704 270.039C182.242 270.039 181.758 270.059 181.251 270.1C181.255 270.417 181.251 270.734 181.241 271.051L181.231 271.83V272.858C181.565 272.878 181.86 272.888 182.117 272.888C182.92 272.888 183.374 272.861 183.478 272.807C183.586 272.75 183.64 272.576 183.64 272.286V271.957H183.984C183.961 272.466 183.949 272.873 183.949 273.177C183.949 273.497 183.961 273.875 183.984 274.31H183.64V274.017C183.64 273.693 183.576 273.495 183.448 273.424C183.323 273.35 182.878 273.313 182.112 273.313C181.828 273.313 181.535 273.327 181.231 273.354ZM192.511 274.396C192.461 274.68 192.436 274.968 192.436 275.261C192.436 275.572 192.461 275.921 192.511 276.309C192.063 276.484 191.555 276.626 190.988 276.734C190.425 276.839 189.885 276.891 189.369 276.891C188.573 276.891 187.873 276.736 187.269 276.425C186.668 276.112 186.206 275.678 185.882 275.125C185.558 274.568 185.396 273.937 185.396 273.232C185.396 272.503 185.57 271.856 185.917 271.289C186.265 270.719 186.749 270.277 187.37 269.963C187.991 269.646 188.777 269.487 189.728 269.487C190.116 269.487 190.474 269.513 190.801 269.563C191.128 269.614 191.555 269.715 192.081 269.867L192.511 269.983C192.42 270.341 192.348 270.84 192.294 271.481H191.98V271.147C191.98 270.817 191.953 270.623 191.899 270.565C191.798 270.457 191.53 270.324 191.094 270.165C190.659 270.003 190.162 269.923 189.602 269.923C188.61 269.923 187.851 270.189 187.324 270.722C186.751 271.302 186.464 272.07 186.464 273.025C186.464 273.942 186.722 274.715 187.238 275.342C187.846 276.085 188.674 276.456 189.723 276.456C190.27 276.456 190.862 276.336 191.499 276.097C191.52 275.813 191.53 275.511 191.53 275.191C191.53 274.776 191.523 274.538 191.509 274.477C191.496 274.413 191.471 274.373 191.434 274.356C191.4 274.335 191.224 274.312 190.907 274.285L190.31 274.234V273.91C191.083 273.944 191.656 273.961 192.031 273.961C192.355 273.961 192.633 273.944 192.866 273.91V274.163L192.511 274.396ZM198.493 274.361H195.568L195.224 275.175C194.998 275.715 194.885 276.046 194.885 276.167C194.885 276.245 194.905 276.301 194.946 276.334C194.989 276.368 195.097 276.395 195.27 276.415L195.755 276.471V276.79C195.431 276.766 195.067 276.754 194.662 276.754C194.176 276.754 193.75 276.766 193.382 276.79V276.471L193.534 276.466C193.77 276.459 193.922 276.436 193.989 276.395C194.06 276.351 194.134 276.247 194.212 276.081C194.451 275.596 194.696 275.071 194.946 274.507L196.337 271.355C196.708 270.518 196.961 269.911 197.096 269.533H197.441L200.001 275.489C200.173 275.894 200.288 276.139 200.345 276.223C200.403 276.304 200.468 276.363 200.543 276.4C200.617 276.434 200.784 276.458 201.044 276.471V276.79C200.605 276.766 200.187 276.754 199.789 276.754C199.418 276.754 198.923 276.766 198.306 276.79V276.471L198.807 276.441C198.986 276.427 199.092 276.409 199.126 276.385C199.176 276.348 199.202 276.301 199.202 276.243C199.202 276.183 199.151 276.024 199.05 275.768L198.493 274.361ZM195.755 273.946H198.306L197.031 270.899L195.755 273.946ZM203.498 276.294C203.829 276.311 204.151 276.319 204.465 276.319C205.099 276.319 205.595 276.302 205.953 276.269C206.202 276.242 206.46 276.193 206.727 276.122L207.03 274.933H207.359C207.275 275.57 207.209 276.166 207.162 276.719C206.858 276.77 206.443 276.795 205.917 276.795L203.508 276.754C203.184 276.754 202.68 276.773 201.995 276.81V276.542C202.265 276.424 202.424 276.297 202.471 276.162C202.521 276.027 202.547 275.493 202.547 274.558V271.775C202.547 270.763 202.521 270.199 202.471 270.084C202.424 269.966 202.287 269.907 202.061 269.907H201.509V269.588C202.312 269.612 202.845 269.624 203.108 269.624C203.459 269.624 203.935 269.612 204.536 269.588V269.907H203.908C203.729 269.907 203.616 269.96 203.569 270.064C203.522 270.165 203.498 270.592 203.498 271.345V274.568L203.513 275.995L203.498 276.294ZM216.686 271.415L216.646 270.515C216.345 270.316 216.03 270.167 215.699 270.069C215.372 269.971 215.03 269.923 214.672 269.923C213.761 269.923 213.031 270.199 212.481 270.752C211.934 271.306 211.661 272.046 211.661 272.974C211.661 273.625 211.799 274.206 212.076 274.715C212.356 275.224 212.752 275.628 213.265 275.924C213.778 276.221 214.32 276.37 214.89 276.37C215.342 276.37 215.789 276.317 216.231 276.213C216.561 276.135 216.894 275.973 217.228 275.727L217.334 275.828C217.263 275.983 217.197 276.14 217.137 276.299C216.742 276.495 216.344 276.643 215.942 276.744C215.544 276.842 215.143 276.891 214.738 276.891C213.908 276.891 213.178 276.731 212.547 276.41C211.919 276.09 211.437 275.648 211.099 275.084C210.762 274.518 210.593 273.878 210.593 273.166C210.593 272.455 210.764 271.819 211.104 271.259C211.445 270.695 211.926 270.26 212.547 269.953C213.171 269.642 213.937 269.487 214.844 269.487C215.32 269.487 215.877 269.565 216.514 269.72C216.831 269.794 217.089 269.85 217.288 269.887C217.137 270.248 217.049 270.758 217.025 271.415H216.686ZM217.764 273.187C217.764 272.077 218.122 271.183 218.837 270.504C219.552 269.826 220.505 269.487 221.696 269.487C222.864 269.487 223.778 269.803 224.439 270.434C225.104 271.061 225.436 271.896 225.436 272.939C225.436 274.062 225.051 275.002 224.282 275.757C223.513 276.513 222.543 276.891 221.372 276.891C220.64 276.891 220.009 276.743 219.48 276.446C218.95 276.149 218.532 275.715 218.225 275.145C217.918 274.575 217.764 273.922 217.764 273.187ZM218.791 272.772C218.791 273.534 218.921 274.199 219.181 274.766C219.444 275.329 219.795 275.752 220.234 276.036C220.672 276.316 221.173 276.456 221.737 276.456C222.26 276.456 222.717 276.336 223.108 276.097C223.5 275.857 223.807 275.499 224.029 275.024C224.255 274.548 224.368 273.969 224.368 273.288C224.368 272.573 224.243 271.962 223.994 271.456C223.748 270.946 223.408 270.564 222.977 270.307C222.545 270.051 222.034 269.923 221.443 269.923C220.903 269.923 220.438 270.036 220.047 270.262C219.655 270.488 219.348 270.82 219.125 271.259C218.903 271.694 218.791 272.198 218.791 272.772ZM227.344 270.732V274.229C227.344 275.025 227.359 275.58 227.39 275.894C227.413 276.134 227.452 276.28 227.506 276.334C227.563 276.385 227.725 276.422 227.992 276.446L228.316 276.471V276.79C227.948 276.766 227.616 276.754 227.319 276.754C227.113 276.754 226.641 276.766 225.902 276.79V276.471H226.266C226.485 276.471 226.629 276.441 226.696 276.38C226.764 276.319 226.806 276.199 226.823 276.021C226.86 275.649 226.878 275.145 226.878 274.507V271.992C226.878 271.52 226.873 271.053 226.863 270.591C226.856 270.395 226.829 270.262 226.782 270.191C226.738 270.116 226.673 270.051 226.585 269.993C226.497 269.936 226.374 269.907 226.215 269.907H225.902V269.588C226.33 269.612 226.657 269.624 226.883 269.624C227.126 269.624 227.393 269.612 227.683 269.588C228.017 269.997 228.331 270.395 228.624 270.783C228.921 271.167 229.228 271.555 229.545 271.947L231.276 274.072C231.9 274.835 232.351 275.364 232.627 275.661V272.412C232.627 271.053 232.602 270.31 232.551 270.186C232.504 270.057 232.31 269.976 231.969 269.943L231.59 269.907V269.588C232.133 269.612 232.555 269.624 232.855 269.624C233.169 269.624 233.574 269.612 234.07 269.588V269.907H233.68C233.366 269.907 233.186 270.012 233.138 270.221C233.108 270.359 233.093 271.098 233.093 272.438V274.72C233.093 275.334 233.12 276.068 233.174 276.921C232.715 276.851 232.449 276.798 232.374 276.765C232.3 276.734 232.229 276.682 232.162 276.608C231.787 276.193 231.394 275.732 230.983 275.226L227.344 270.732ZM239.145 269.928C239.051 270.278 239 270.744 238.994 271.324H238.644V270.919C238.644 270.656 238.609 270.477 238.538 270.383C238.467 270.289 238.282 270.189 237.981 270.084C237.685 269.976 237.371 269.923 237.04 269.923C236.5 269.923 236.075 270.059 235.765 270.332C235.458 270.606 235.304 270.957 235.304 271.385C235.304 271.655 235.367 271.888 235.492 272.083C235.62 272.276 235.79 272.416 236.003 272.503C236.219 272.588 236.674 272.662 237.369 272.726C238.064 272.794 238.533 272.883 238.776 272.994C239.022 273.106 239.218 273.284 239.363 273.531C239.512 273.777 239.586 274.069 239.586 274.406C239.586 275.084 239.302 275.668 238.736 276.157C238.169 276.646 237.413 276.891 236.468 276.891C236.144 276.891 235.817 276.857 235.487 276.79C235.159 276.726 234.829 276.63 234.495 276.501C234.555 276.097 234.584 275.577 234.581 274.943H234.925V275.196C234.925 275.523 234.942 275.725 234.975 275.803C235.009 275.881 235.088 275.963 235.213 276.051C235.399 276.183 235.62 276.284 235.876 276.355C236.133 276.422 236.409 276.456 236.706 276.456C237.344 276.456 237.836 276.306 238.184 276.005C238.531 275.705 238.705 275.324 238.705 274.862C238.705 274.592 238.646 274.364 238.528 274.179C238.41 273.99 238.245 273.85 238.032 273.758C237.82 273.667 237.427 273.598 236.853 273.551C236.09 273.49 235.573 273.399 235.299 273.278C235.026 273.156 234.812 272.966 234.657 272.706C234.501 272.443 234.424 272.117 234.424 271.729C234.424 271.071 234.662 270.533 235.137 270.115C235.613 269.696 236.271 269.487 237.111 269.487C237.448 269.487 237.786 269.524 238.123 269.599C238.464 269.669 238.805 269.779 239.145 269.928ZM239.93 269.907V269.588C240.621 269.612 241.124 269.624 241.438 269.624C241.769 269.624 242.254 269.612 242.895 269.588V269.907H242.526C242.209 269.907 242.018 269.968 241.954 270.09C241.89 270.211 241.858 270.761 241.858 271.739V273.723C241.858 274.448 241.897 274.953 241.974 275.236C242.055 275.52 242.261 275.759 242.592 275.955C242.922 276.15 243.364 276.248 243.918 276.248C244.488 276.248 244.969 276.144 245.36 275.935C245.63 275.789 245.827 275.565 245.952 275.261C246.077 274.954 246.139 274.374 246.139 273.521V271.613C246.139 270.729 246.099 270.224 246.018 270.1C245.94 269.971 245.723 269.907 245.365 269.907H245.102V269.588C245.8 269.612 246.244 269.624 246.433 269.624C246.74 269.624 247.121 269.612 247.577 269.588V269.907H247.232C246.966 269.907 246.794 269.98 246.716 270.125C246.642 270.267 246.605 270.769 246.605 271.633V273.531C246.605 274.398 246.561 274.983 246.473 275.287C246.389 275.587 246.232 275.859 246.003 276.102C245.777 276.344 245.473 276.537 245.092 276.678C244.714 276.82 244.269 276.891 243.756 276.891C243.226 276.891 242.762 276.829 242.364 276.704C241.966 276.576 241.666 276.419 241.463 276.233C241.264 276.048 241.119 275.822 241.028 275.555C240.94 275.285 240.896 274.828 240.896 274.184L240.907 273.222V271.679C240.907 270.727 240.878 270.194 240.821 270.079C240.767 269.965 240.589 269.907 240.289 269.907H239.93ZM250.046 276.294C250.377 276.311 250.699 276.319 251.013 276.319C251.647 276.319 252.143 276.302 252.501 276.269C252.75 276.242 253.008 276.193 253.275 276.122L253.578 274.933H253.907C253.823 275.57 253.757 276.166 253.71 276.719C253.406 276.77 252.991 276.795 252.465 276.795L250.056 276.754C249.732 276.754 249.228 276.773 248.543 276.81V276.542C248.813 276.424 248.972 276.297 249.019 276.162C249.069 276.027 249.095 275.493 249.095 274.558V271.775C249.095 270.763 249.069 270.199 249.019 270.084C248.972 269.966 248.835 269.907 248.609 269.907H248.057V269.588C248.86 269.612 249.393 269.624 249.656 269.624C250.007 269.624 250.483 269.612 251.084 269.588V269.907H250.456C250.277 269.907 250.164 269.96 250.117 270.064C250.07 270.165 250.046 270.592 250.046 271.345V274.568L250.061 275.995L250.046 276.294ZM257.85 270.049C257.813 270.555 257.794 271.088 257.794 271.648V274.533C257.794 275.606 257.821 276.198 257.875 276.309C257.929 276.417 258.121 276.471 258.452 276.471H258.831V276.79C258.234 276.766 257.728 276.754 257.313 276.754C256.895 276.754 256.392 276.766 255.805 276.79V276.471H256.23C256.453 276.471 256.598 276.442 256.665 276.385C256.733 276.324 256.775 276.208 256.792 276.036C256.826 275.641 256.843 275.132 256.843 274.507V271.618C256.843 271.048 256.831 270.525 256.807 270.049H256.291C255.458 270.049 254.999 270.069 254.914 270.11C254.83 270.147 254.774 270.297 254.747 270.56L254.677 271.238H254.358L254.368 270.636C254.368 270.393 254.348 270.044 254.307 269.588C256.129 269.612 257.2 269.624 257.521 269.624L260.319 269.588C260.255 270.159 260.218 270.709 260.208 271.238H259.894L259.844 270.575C259.823 270.346 259.795 270.211 259.758 270.17C259.72 270.127 259.638 270.1 259.51 270.09C259.138 270.063 258.717 270.049 258.244 270.049H257.85ZM265.8 274.361H262.875L262.531 275.175C262.305 275.715 262.192 276.046 262.192 276.167C262.192 276.245 262.212 276.301 262.252 276.334C262.296 276.368 262.404 276.395 262.576 276.415L263.062 276.471V276.79C262.738 276.766 262.374 276.754 261.969 276.754C261.483 276.754 261.056 276.766 260.689 276.79V276.471L260.841 276.466C261.077 276.459 261.228 276.436 261.296 276.395C261.367 276.351 261.441 276.247 261.519 276.081C261.758 275.596 262.003 275.071 262.252 274.507L263.644 271.355C264.015 270.518 264.268 269.911 264.403 269.533H264.747L267.308 275.489C267.48 275.894 267.595 276.139 267.652 276.223C267.71 276.304 267.775 276.363 267.85 276.4C267.924 276.434 268.091 276.458 268.351 276.471V276.79C267.912 276.766 267.494 276.754 267.095 276.754C266.724 276.754 266.23 276.766 265.613 276.79V276.471L266.114 276.441C266.293 276.427 266.399 276.409 266.433 276.385C266.483 276.348 266.508 276.301 266.508 276.243C266.508 276.183 266.458 276.024 266.357 275.768L265.8 274.361ZM263.062 273.946H265.613L264.337 270.899L263.062 273.946ZM270.228 270.732V274.229C270.228 275.025 270.243 275.58 270.274 275.894C270.297 276.134 270.336 276.28 270.39 276.334C270.447 276.385 270.609 276.422 270.876 276.446L271.2 276.471V276.79C270.832 276.766 270.5 276.754 270.203 276.754C269.997 276.754 269.525 276.766 268.786 276.79V276.471H269.15C269.369 276.471 269.513 276.441 269.58 276.38C269.648 276.319 269.69 276.199 269.707 276.021C269.744 275.649 269.762 275.145 269.762 274.507V271.992C269.762 271.52 269.757 271.053 269.747 270.591C269.741 270.395 269.714 270.262 269.666 270.191C269.622 270.116 269.557 270.051 269.469 269.993C269.381 269.936 269.258 269.907 269.1 269.907H268.786V269.588C269.214 269.612 269.541 269.624 269.768 269.624C270.01 269.624 270.277 269.612 270.567 269.588C270.901 269.997 271.215 270.395 271.508 270.783C271.805 271.167 272.112 271.555 272.429 271.947L274.16 274.072C274.784 274.835 275.235 275.364 275.511 275.661V272.412C275.511 271.053 275.486 270.31 275.435 270.186C275.388 270.057 275.194 269.976 274.853 269.943L274.474 269.907V269.588C275.017 269.612 275.439 269.624 275.739 269.624C276.053 269.624 276.458 269.612 276.954 269.588V269.907H276.564C276.25 269.907 276.07 270.012 276.022 270.221C275.992 270.359 275.977 271.098 275.977 272.438V274.72C275.977 275.334 276.004 276.068 276.058 276.921C275.599 276.851 275.333 276.798 275.258 276.765C275.184 276.734 275.113 276.682 275.046 276.608C274.671 276.193 274.278 275.732 273.867 275.226L270.228 270.732ZM280.886 270.049C280.849 270.555 280.83 271.088 280.83 271.648V274.533C280.83 275.606 280.857 276.198 280.911 276.309C280.965 276.417 281.157 276.471 281.488 276.471H281.868V276.79C281.27 276.766 280.764 276.754 280.349 276.754C279.931 276.754 279.428 276.766 278.841 276.79V276.471H279.266C279.489 276.471 279.634 276.442 279.702 276.385C279.769 276.324 279.811 276.208 279.828 276.036C279.862 275.641 279.879 275.132 279.879 274.507V271.618C279.879 271.048 279.867 270.525 279.843 270.049H279.327C278.494 270.049 278.035 270.069 277.951 270.11C277.866 270.147 277.811 270.297 277.784 270.56L277.713 271.238H277.394L277.404 270.636C277.404 270.393 277.384 270.044 277.343 269.588C279.165 269.612 280.236 269.624 280.557 269.624L283.355 269.588C283.291 270.159 283.254 270.709 283.244 271.238H282.93L282.88 270.575C282.859 270.346 282.831 270.211 282.794 270.17C282.757 270.127 282.674 270.1 282.546 270.09C282.175 270.063 281.753 270.049 281.281 270.049H280.886ZM288.386 269.928C288.291 270.278 288.241 270.744 288.234 271.324H287.885V270.919C287.885 270.656 287.849 270.477 287.778 270.383C287.708 270.289 287.522 270.189 287.222 270.084C286.925 269.976 286.611 269.923 286.28 269.923C285.741 269.923 285.316 270.059 285.005 270.332C284.698 270.606 284.545 270.957 284.545 271.385C284.545 271.655 284.607 271.888 284.732 272.083C284.86 272.276 285.03 272.416 285.243 272.503C285.459 272.588 285.914 272.662 286.609 272.726C287.304 272.794 287.773 272.883 288.016 272.994C288.263 273.106 288.458 273.284 288.603 273.531C288.752 273.777 288.826 274.069 288.826 274.406C288.826 275.084 288.543 275.668 287.976 276.157C287.409 276.646 286.653 276.891 285.709 276.891C285.385 276.891 285.057 276.857 284.727 276.79C284.4 276.726 284.069 276.63 283.735 276.501C283.796 276.097 283.824 275.577 283.821 274.943H284.165V275.196C284.165 275.523 284.182 275.725 284.216 275.803C284.249 275.881 284.329 275.963 284.454 276.051C284.639 276.183 284.86 276.284 285.116 276.355C285.373 276.422 285.65 276.456 285.946 276.456C286.584 276.456 287.077 276.306 287.424 276.005C287.772 275.705 287.945 275.324 287.945 274.862C287.945 274.592 287.886 274.364 287.768 274.179C287.65 273.99 287.485 273.85 287.272 273.758C287.06 273.667 286.667 273.598 286.093 273.551C285.331 273.49 284.813 273.399 284.54 273.278C284.266 273.156 284.052 272.966 283.897 272.706C283.742 272.443 283.664 272.117 283.664 271.729C283.664 271.071 283.902 270.533 284.378 270.115C284.853 269.696 285.511 269.487 286.351 269.487C286.689 269.487 287.026 269.524 287.363 269.599C287.704 269.669 288.045 269.779 288.386 269.928Z" fill="#A5812C"/>
<rect x="31.7246" y="248.252" width="255.865" height="2.37646" fill="#A5812C"/>
<rect x="31.7246" y="281.521" width="255.865" height="2.37646" fill="#A5812C"/>
</g>
<defs>
<filter id="filter0_d_817_2372" x="0" y="0" width="319.316" height="291.897" filterUnits="userSpaceOnUse" color-interpolation-filters="sRGB">
<feFlood flood-opacity="0" result="BackgroundImageFix"/>
<feColorMatrix in="SourceAlpha" type="matrix" values="0 0 0 0 0 0 0 0 0 0 0 0 0 0 0 0 0 0 127 0" result="hardAlpha"/>
<feOffset dy="4"/>
<feGaussianBlur stdDeviation="2"/>
<feComposite in2="hardAlpha" operator="out"/>
<feColorMatrix type="matrix" values="0 0 0 0 0 0 0 0 0 0 0 0 0 0 0 0 0 0 0.25 0"/>
<feBlend mode="normal" in2="BackgroundImageFix" result="effect1_dropShadow_817_2372"/>
<feBlend mode="normal" in="SourceGraphic" in2="effect1_dropShadow_817_2372" result="shape"/>
</filter>
</defs>
</svg>
