<svg width="514" height="56" viewBox="0 0 514 56" fill="none" xmlns="http://www.w3.org/2000/svg">
<path d="M26.5963 37.4814C26.2548 40.0997 24.7749 42.1488 22.1566 43.6287C19.7944 44.9379 16.8489 45.5924 13.3199 45.5924C8.59556 45.5924 5.0381 44.2406 2.64749 41.5369C0.882994 39.5163 0.000744756 37.0403 0.000744756 34.109C0.000744756 31.8607 0.527248 29.8969 1.58026 28.2178L6.70299 27.1506C5.56461 29.0858 4.99541 31.1207 4.99541 33.2552C4.99541 35.6458 5.7069 37.4814 7.12989 38.7621C8.55287 40.0713 10.6162 40.7258 13.3199 40.7258C17.5319 40.7258 20.0933 39.6444 21.004 37.4814H16.9058L19.5952 32.316H26.7244V37.4814H26.5963ZM10.4597 55.0268C9.60588 55.0268 8.92285 54.7565 8.41057 54.2157C7.8983 53.7034 7.64216 53.0204 7.64216 52.1666C7.64216 51.3413 7.8983 50.6725 8.41057 50.1602C8.92285 49.6479 9.60588 49.3918 10.4597 49.3918C11.3135 49.3918 11.9823 49.6337 12.4661 50.1175C12.9783 50.6298 13.2345 51.3128 13.2345 52.1666C13.2345 54.0734 12.3095 55.0268 10.4597 55.0268ZM17.0338 55.0268C16.1801 55.0268 15.497 54.7707 14.9848 54.2584C14.4725 53.7461 14.2163 53.0489 14.2163 52.1666C14.2163 50.3167 15.1555 49.3918 17.0338 49.3918C17.8876 49.3918 18.5564 49.6337 19.0403 50.1175C19.5525 50.6298 19.8087 51.3128 19.8087 52.1666C19.8087 54.0734 18.8837 55.0268 17.0338 55.0268ZM24.5389 37.4814V32.316H28.3809C29.4624 32.316 30.2308 32.0883 30.6861 31.633C31.1415 31.1492 31.3692 30.3523 31.3692 29.2424V21.3448L36.748 18.5273V29.4985C36.748 32.0883 35.9512 34.109 34.3574 35.5604C32.9629 36.8411 31.1415 37.4814 28.8932 37.4814H24.5389ZM33.589 47.0012C32.7352 47.0012 32.0522 46.7451 31.5399 46.2328C31.0277 45.7205 30.7715 45.0233 30.7715 44.141C30.7715 43.3157 31.0277 42.6469 31.5399 42.1346C32.0522 41.6223 32.7352 41.3662 33.589 41.3662C34.4428 41.3662 35.1116 41.6081 35.5954 42.0919C36.1077 42.6042 36.3638 43.2872 36.3638 44.141C36.3638 46.0478 35.4389 47.0012 33.589 47.0012ZM52.2743 37.4814C49.6845 37.4814 47.6781 36.6561 46.2551 35.0055C45.0314 33.5825 44.4195 31.7468 44.4195 29.4985V12.7642L49.7983 9.94673V29.2424C49.7983 30.3523 50.026 31.1492 50.4814 31.633C50.9367 32.0883 51.7051 32.316 52.7866 32.316H56.6287V37.4814H52.2743ZM54.0546 37.4814V32.316H57.8967C58.9781 32.316 59.7465 32.0883 60.2019 31.633C60.6573 31.1492 60.8849 30.3523 60.8849 29.2424V21.3448L66.2638 18.5273V29.4985C66.2638 32.0883 65.4669 34.109 63.8732 35.5604C62.4787 36.8411 60.6573 37.4814 58.4089 37.4814H54.0546ZM56.3599 47.0012C55.5061 47.0012 54.823 46.7451 54.3108 46.2328C53.7985 45.7205 53.5423 45.0233 53.5423 44.141C53.5423 42.2911 54.4815 41.3662 56.3599 41.3662C57.2136 41.3662 57.8824 41.6081 58.3663 42.0919C58.8785 42.6042 59.1347 43.2872 59.1347 44.141C59.1347 46.0478 58.2097 47.0012 56.3599 47.0012ZM62.934 47.0012C62.0802 47.0012 61.3972 46.7451 60.8849 46.2328C60.3727 45.7205 60.1165 45.0233 60.1165 44.141C60.1165 42.2911 61.0557 41.3662 62.934 41.3662C63.7878 41.3662 64.4566 41.6081 64.9404 42.0919C65.4527 42.6042 65.7088 43.2872 65.7088 44.141C65.7088 46.0478 64.7839 47.0012 62.934 47.0012ZM80.3387 14.2157C79.4849 14.2157 78.8018 13.9595 78.2896 13.4473C77.7773 12.935 77.5212 12.2377 77.5212 11.3555C77.5212 10.5302 77.7773 9.86136 78.2896 9.34908C78.8018 8.83681 79.4849 8.58067 80.3387 8.58067C81.1925 8.58067 81.8613 8.83681 82.3451 9.34908C82.8573 9.8329 83.1135 10.5017 83.1135 11.3555C83.1135 13.2623 82.1885 14.2157 80.3387 14.2157ZM70.5201 37.4814L73.2095 32.316H79.9545C81.4059 32.316 82.1316 31.4765 82.1316 29.7973C82.1316 26.6668 80.6233 24.2619 77.6065 22.5828L80.2533 18.015C84.693 20.6049 87.0836 24.1196 87.4251 28.5593C87.539 29.9823 87.852 30.9642 88.3643 31.5049C88.905 32.0457 89.8157 32.316 91.0964 32.316H94.3408V37.4814H90.7976C88.6916 37.4814 86.9128 36.898 85.4614 35.7312C84.4084 36.898 82.9 37.4814 80.9363 37.4814H70.5201ZM91.7831 37.4814V32.316H94.4725C95.7817 32.316 96.7066 32.0314 97.2474 31.4622C97.8166 30.893 98.1012 29.9254 98.1012 28.5593V12.8069L103.437 9.94673V28.602C103.437 31.3626 102.598 33.5682 100.919 35.2189C99.3818 36.7273 97.3327 37.4814 94.7714 37.4814H91.7831ZM111.122 37.4814V12.8069L116.501 9.94673V37.4814H111.122ZM156.795 32.316H160.595V37.4814H156.24C154.305 37.4814 152.654 36.9834 151.288 35.9873C149.837 36.9834 147.987 37.4814 145.739 37.4814H139.805C138.723 37.4814 137.955 37.7091 137.5 38.1645C137.044 38.6483 136.816 39.4452 136.816 40.5551V48.1111L131.438 50.9286V40.299C131.438 38.0506 132.05 36.215 133.273 34.792C134.525 33.369 136.205 32.5579 138.311 32.3587C137.741 30.9642 137.457 29.3847 137.457 27.6202C137.457 24.4896 138.311 22.0136 140.018 20.1922C141.527 18.5985 143.519 17.8016 145.995 17.8016C148.528 17.8016 150.506 18.6127 151.929 20.2349C153.152 21.6294 153.764 23.4508 153.764 25.6992V29.2424C153.764 30.3523 153.992 31.1492 154.447 31.633C154.931 32.0883 155.714 32.316 156.795 32.316ZM148.385 29.9254V25.6138C148.385 23.7354 147.588 22.7963 145.995 22.7963C144.97 22.7963 144.159 23.2089 143.561 24.0343C142.992 24.8596 142.708 25.998 142.708 27.4494C142.708 30.6938 143.775 32.316 145.909 32.316C147.56 32.316 148.385 31.5191 148.385 29.9254ZM161.1 14.2157C160.247 14.2157 159.564 13.9595 159.051 13.4473C158.539 12.935 158.283 12.2377 158.283 11.3555C158.283 9.50561 159.222 8.58067 161.1 8.58067C161.954 8.58067 162.623 8.83681 163.107 9.34908C163.619 9.8329 163.875 10.5017 163.875 11.3555C163.875 13.2623 162.95 14.2157 161.1 14.2157ZM167.675 14.2157C166.821 14.2157 166.138 13.9595 165.626 13.4473C165.113 12.935 164.857 12.2377 164.857 11.3555C164.857 9.50561 165.796 8.58067 167.675 8.58067C168.528 8.58067 169.197 8.83681 169.681 9.34908C170.193 9.8329 170.449 10.5017 170.449 11.3555C170.449 13.2623 169.525 14.2157 167.675 14.2157ZM158.027 37.4814V32.316H161.869C162.95 32.316 163.719 32.0883 164.174 31.633C164.629 31.1492 164.857 30.3523 164.857 29.2424V21.3448L170.236 18.5273V29.4985C170.236 32.0883 169.439 34.109 167.845 35.5604C166.451 36.8411 164.629 37.4814 162.381 37.4814H158.027ZM185.762 37.4814C183.172 37.4814 181.166 36.6561 179.743 35.0055C178.519 33.5825 177.907 31.7468 177.907 29.4985V12.7642L183.286 9.94673V29.2424C183.286 30.3523 183.514 31.1492 183.969 31.633C184.425 32.0883 185.193 32.316 186.275 32.316H190.117V37.4814H185.762ZM187.543 37.4814V32.316H193.903C198.912 32.316 202.897 30.8219 205.856 27.8336C203.921 24.4469 201.573 22.7536 198.813 22.7536C196.536 22.7536 194.046 23.9916 191.342 26.4676V21.729C193.733 19.1107 196.436 17.8016 199.453 17.8016C201.673 17.8016 203.836 18.6127 205.942 20.2349C208.048 21.8571 209.912 24.1623 211.534 27.1506V29.2851C209.485 31.9034 206.924 33.924 203.85 35.347C200.805 36.77 197.475 37.4814 193.861 37.4814H187.543ZM234.128 34.5359C234.128 34.5643 234.128 34.5928 234.128 34.6213C234.128 35.532 233.844 36.2719 233.274 36.8411C232.705 37.4103 231.951 37.6949 231.012 37.6949C230.044 37.6949 229.262 37.4103 228.664 36.8411C228.095 36.2435 227.81 35.4608 227.81 34.4932V34.4078C227.867 33.5256 228.18 32.8141 228.749 32.2733C229.347 31.7326 230.101 31.4622 231.012 31.4622C231.951 31.4622 232.705 31.7468 233.274 32.316C233.844 32.8852 234.128 33.6252 234.128 34.5359ZM240.153 7.55612L241.519 5.08013H242.799C242.486 4.51094 242.33 3.92752 242.33 3.32987C242.33 2.41916 242.657 1.63652 243.312 0.981946C243.995 0.327374 244.806 8.78266e-05 245.745 8.78266e-05C246.599 8.78266e-05 247.396 0.298914 248.136 0.896565V3.37256C247.453 2.7749 246.77 2.47608 246.087 2.47608C245.147 2.47608 244.678 2.90297 244.678 3.75676C244.678 4.18366 244.863 4.62478 245.233 5.08013H249.459L248.093 7.55612H240.153ZM241.775 37.4814V12.8069L247.154 9.94673V37.4814H241.775ZM271.44 24.2904C271.44 24.3189 271.44 24.3473 271.44 24.3758C271.44 25.2865 271.155 26.0264 270.586 26.5956C270.017 27.1648 269.263 27.4494 268.323 27.4494C267.356 27.4494 266.573 27.1648 265.976 26.5956C265.406 25.998 265.122 25.2153 265.122 24.2477V24.1623C265.179 23.2801 265.492 22.5686 266.061 22.0279C266.659 21.4871 267.413 21.2168 268.323 21.2168C269.263 21.2168 270.017 21.5014 270.586 22.0705C271.155 22.6397 271.44 23.3797 271.44 24.2904ZM271.44 34.5359C271.44 34.5643 271.44 34.5928 271.44 34.6213C271.44 35.532 271.155 36.2719 270.586 36.8411C270.017 37.4103 269.263 37.6949 268.323 37.6949C267.356 37.6949 266.573 37.4103 265.976 36.8411C265.406 36.2435 265.122 35.4608 265.122 34.4932V34.4078C265.179 33.5256 265.492 32.8141 266.061 32.2733C266.659 31.7326 267.413 31.4622 268.323 31.4622C269.263 31.4622 270.017 31.7468 270.586 32.316C271.155 32.8852 271.44 33.6252 271.44 34.5359ZM281.86 13.3619C281.006 13.3619 280.323 13.1058 279.811 12.5935C279.298 12.0812 279.042 11.3839 279.042 10.5017C279.042 8.65182 279.981 7.72688 281.86 7.72688C282.713 7.72688 283.382 7.98302 283.866 8.49529C284.378 8.97911 284.634 9.64791 284.634 10.5017C284.634 12.4085 283.71 13.3619 281.86 13.3619ZM288.391 13.3619C287.537 13.3619 286.854 13.1058 286.342 12.5935C285.83 12.0527 285.574 11.3555 285.574 10.5017C285.574 9.67637 285.83 9.00757 286.342 8.49529C286.854 7.98302 287.537 7.72688 288.391 7.72688C289.245 7.72688 289.914 7.98302 290.398 8.49529C290.91 8.97911 291.166 9.64791 291.166 10.5017C291.166 12.4085 290.241 13.3619 288.391 13.3619ZM285.147 37.4814C282.443 37.4814 280.323 36.5707 278.786 34.7493C277.477 33.184 276.822 31.1776 276.822 28.7301C276.822 26.1687 277.562 23.9347 279.042 22.0279C280.522 20.1211 282.628 18.7123 285.36 17.8016C288.263 18.7692 290.454 20.2918 291.934 22.3694C293.272 24.1908 293.941 26.311 293.941 28.7301C293.941 31.5476 293.087 33.7532 291.379 35.347C289.9 36.77 287.964 37.4814 285.574 37.4814H285.147ZM285.104 32.316H285.659C287.651 32.316 288.647 31.1349 288.647 28.7728C288.647 26.0691 287.552 24.0912 285.36 22.839C283.197 24.0912 282.116 26.0407 282.116 28.6874C282.116 31.1065 283.112 32.316 285.104 32.316ZM308.157 34.8347C308.157 38.136 307.246 40.8112 305.425 42.8603C303.746 44.7671 301.526 45.7205 298.765 45.7205C296.972 45.7205 295.222 45.2652 293.515 44.3545V39.6586C294.994 40.4839 296.446 40.8966 297.869 40.8966C299.434 40.8966 300.644 40.3843 301.497 39.3598C302.38 38.3637 302.821 36.9692 302.821 35.1762V21.3875L308.157 18.5273V34.8347ZM315.856 37.4814V12.8069L321.235 9.94673V37.4814H315.856ZM325.49 37.4814L328.179 32.316H334.924C336.375 32.316 337.101 31.4765 337.101 29.7973C337.101 26.6383 335.593 24.2192 332.576 22.5401L335.223 18.015C340.061 20.861 342.48 24.8169 342.48 29.8827C342.48 34.9485 340.289 37.4814 335.906 37.4814H325.49ZM365.684 12.8069L371.063 9.94673V28.602C371.063 31.3626 370.224 33.5682 368.545 35.2189C366.979 36.7273 364.916 37.4814 362.355 37.4814H346.261L348.95 32.316H354.585V18.3566L359.964 15.4964V32.316H362.056C363.365 32.316 364.29 32.0314 364.831 31.4622C365.4 30.893 365.684 29.9254 365.684 28.5593V12.8069ZM360.391 43.1591C359.708 42.5615 359.025 42.2627 358.342 42.2627C357.403 42.2627 356.933 42.6896 356.933 43.5434C356.933 43.9702 357.118 44.4114 357.488 44.8667H361.714L360.348 47.3427H352.408L353.774 44.8667H355.055C354.742 44.2975 354.585 43.7141 354.585 43.1165C354.585 42.2057 354.912 41.4231 355.567 40.7685C356.25 40.114 357.061 39.7867 358 39.7867C358.854 39.7867 359.651 40.0855 360.391 40.6832V43.1591ZM378.723 37.4814V12.8069L384.102 9.94673V37.4814H378.723ZM398.612 37.4814L401.301 32.316H408.046C409.498 32.316 410.224 31.4765 410.224 29.7973C410.224 26.6383 408.715 24.2192 405.698 22.5401L408.345 18.015C413.183 20.861 415.602 24.8169 415.602 29.8827C415.602 34.9485 413.411 37.4814 409.028 37.4814H398.612ZM430.226 37.4814C427.636 37.4814 425.63 36.6561 424.207 35.0055C422.983 33.5825 422.371 31.7468 422.371 29.4985V12.7642L427.75 9.94673V29.2424C427.75 30.3523 427.978 31.1492 428.433 31.633C428.889 32.0883 429.657 32.316 430.739 32.316H434.581V37.4814H430.226ZM459.157 32.316H462.956V37.4814H458.602C456.553 37.4814 454.874 36.9549 453.565 35.9019C452.028 37.5241 450.007 38.3352 447.503 38.3352C444.941 38.3352 442.921 37.5241 441.441 35.9019C440.075 36.9549 438.382 37.4814 436.361 37.4814H432.007V32.316H435.849C436.93 32.316 437.698 32.0883 438.154 31.633C438.609 31.1492 438.837 30.3523 438.837 29.2424V28.0044C438.837 24.6746 439.705 22.0848 441.441 20.2349C442.949 18.6127 444.97 17.8016 447.503 17.8016C450.377 17.8016 452.597 18.8546 454.162 20.9606C455.472 22.7536 456.126 25.1015 456.126 28.0044V29.2424C456.126 30.3523 456.354 31.1492 456.809 31.633C457.293 32.0883 458.076 32.316 459.157 32.316ZM447.503 33.1698C449.666 33.1698 450.747 31.4053 450.747 27.8763C450.747 24.4896 449.666 22.7963 447.503 22.7963C445.311 22.7963 444.216 24.4896 444.216 27.8763C444.216 31.4053 445.311 33.1698 447.503 33.1698ZM464.452 14.7706C463.598 14.7706 462.915 14.5145 462.403 14.0022C461.891 13.49 461.635 12.7927 461.635 11.9104C461.635 11.0851 461.891 10.4163 462.403 9.90405C462.915 9.39177 463.598 9.13563 464.452 9.13563C465.306 9.13563 465.975 9.39177 466.459 9.90405C466.971 10.3879 467.227 11.0567 467.227 11.9104C467.227 13.8172 466.302 14.7706 464.452 14.7706ZM470.984 14.7706C470.13 14.7706 469.447 14.5145 468.935 14.0022C468.422 13.4615 468.166 12.7642 468.166 11.9104C468.166 11.0851 468.422 10.4163 468.935 9.90405C469.475 9.39177 470.158 9.13563 470.984 9.13563C471.837 9.13563 472.506 9.39177 472.99 9.90405C473.502 10.3879 473.759 11.0567 473.759 11.9104C473.759 13.8172 472.834 14.7706 470.984 14.7706ZM475.594 32.316H479.436V37.4814H475.082C473.004 37.4814 471.283 36.9265 469.916 35.8166C468.55 36.9265 466.829 37.4814 464.751 37.4814H460.397V32.316H464.239C465.32 32.316 466.089 32.0883 466.544 31.633C466.999 31.1492 467.227 30.3523 467.227 29.2424V21.3448L472.606 18.5273V29.2424C472.606 30.3523 472.834 31.1492 473.289 31.633C473.744 32.0883 474.513 32.316 475.594 32.316ZM500.514 32.316V37.4814H476.864V32.316H483.182C482.385 30.7507 481.987 29.0147 481.987 27.1079C481.987 24.0912 483.04 21.7006 485.146 19.9361C486.853 18.5131 488.831 17.8016 491.079 17.8016C494.125 17.8016 496.586 19.1107 498.465 21.729V26.4676C496.387 24.02 494.125 22.7963 491.677 22.7963C490.368 22.7963 489.315 23.2089 488.518 24.0343C487.75 24.8311 487.365 25.9126 487.365 27.2787C487.365 28.8439 487.849 30.0819 488.817 30.9926C489.813 31.8749 491.165 32.316 492.872 32.316H500.514ZM506.5 37.4814V12.8069L511.879 9.94673V37.4814H506.5ZM504.579 49.093L505.945 46.617H507.225C506.912 46.0478 506.756 45.4644 506.756 44.8667C506.756 43.956 507.083 43.1734 507.738 42.5188C508.421 41.8642 509.232 41.5369 510.171 41.5369C511.025 41.5369 511.822 41.8358 512.562 42.4334V44.9094C511.879 44.3118 511.196 44.0129 510.512 44.0129C509.573 44.0129 509.104 44.4398 509.104 45.2936C509.104 45.7205 509.289 46.1616 509.659 46.617H513.885L512.519 49.093H504.579Z" fill="#A5812C"/>
</svg>
