<svg width="382" height="265" viewBox="0 0 382 265" fill="none" xmlns="http://www.w3.org/2000/svg">
<g filter="url(#filter0_d_817_4816)">
<path d="M31.4153 17.5307C30.1021 17.5307 29.0516 17.1368 28.2637 16.3489C27.4758 15.561 27.0819 14.4886 27.0819 13.1316C27.0819 10.2864 28.5263 8.86385 31.4153 8.86385C32.7285 8.86385 33.7571 9.2578 34.5012 10.0457C35.2891 10.7898 35.6831 11.8185 35.6831 13.1316C35.6831 16.0644 34.2605 17.5307 31.4153 17.5307ZM41.5267 17.5307C40.2135 17.5307 39.163 17.1368 38.3751 16.3489C37.5872 15.561 37.1932 14.4886 37.1932 13.1316C37.1932 10.2864 38.6377 8.86385 41.5267 8.86385C42.8398 8.86385 43.8685 9.2578 44.6126 10.0457C45.4005 10.7898 45.7944 11.8185 45.7944 13.1316C45.7944 16.0644 44.3718 17.5307 41.5267 17.5307ZM48.8147 52.4608C47.9393 56.7067 45.6193 59.9021 41.8549 62.0469C38.3969 63.9729 33.9322 64.9359 28.4607 64.9359C21.1945 64.9359 15.723 62.8567 12.0462 58.6983C9.3323 55.5905 7.97537 51.7823 7.97537 47.2738C7.97537 43.8158 8.78515 40.7956 10.4047 38.213L18.2837 36.5716C16.5328 39.5481 15.6574 42.6778 15.6574 45.9607C15.6574 49.4187 16.7517 52.1106 18.9403 54.0366C21.1289 56.0064 24.3023 56.9912 28.4607 56.9912C34.8076 56.9912 38.6377 55.3717 39.9509 52.1325L38.769 52.0012C33.779 51.4759 30.0146 49.7469 27.4758 46.8142C25.2872 44.3192 24.1929 41.1457 24.1929 37.2938C24.1929 32.4789 25.5061 28.6707 28.1324 25.8693C30.4523 23.4181 33.5164 22.1924 37.3245 22.1924C41.2202 22.1924 44.2624 23.4399 46.451 25.9349C48.3332 28.0798 49.2743 30.8812 49.2743 34.3392V44.5162H57.2846V52.4608H48.8147ZM41.0014 44.3849V34.2079C41.0014 31.3189 39.7758 29.8744 37.3245 29.8744C35.7487 29.8744 34.5012 30.5091 33.582 31.7785C32.7066 33.0479 32.2689 34.7988 32.2689 37.0312C32.2689 41.3646 34.5888 43.7283 39.2286 44.1222L41.0014 44.3849ZM53.3461 52.4608V44.5162H59.2554C60.9187 44.5162 62.1005 44.166 62.8009 43.4657C63.5012 42.7215 63.8514 41.4959 63.8514 39.7888V27.6421L72.1243 23.3086V40.1828C72.1243 44.166 70.8987 47.2738 68.4475 49.5062C66.3027 51.4759 63.5012 52.4608 60.0433 52.4608H53.3461ZM56.8917 67.1026C55.5785 67.1026 54.528 66.7086 53.7401 65.9207C52.9522 65.1328 52.5582 64.0604 52.5582 62.7035C52.5582 59.8583 54.0027 58.4357 56.8917 58.4357C58.2048 58.4357 59.2335 58.8078 59.9776 59.5519C60.7655 60.3398 61.1594 61.3903 61.1594 62.7035C61.1594 65.6362 59.7368 67.1026 56.8917 67.1026ZM67.003 67.1026C65.6898 67.1026 64.6393 66.7086 63.8514 65.9207C63.0635 65.1328 62.6696 64.0604 62.6696 62.7035C62.6696 59.8583 64.1141 58.4357 67.003 58.4357C68.3162 58.4357 69.3448 58.8078 70.0889 59.5519C70.8768 60.3398 71.2708 61.3903 71.2708 62.7035C71.2708 65.6362 69.8482 67.1026 67.003 67.1026ZM130.884 44.5162V52.4608H122.808C122.502 56.4003 120.751 59.5519 117.556 61.9156C114.929 63.8416 111.865 64.8045 108.364 64.8045C105.606 64.8045 102.914 64.0604 100.288 62.5722V55.4154C102.651 56.7724 105.015 57.4508 107.379 57.4508C109.217 57.4508 110.837 56.9475 112.237 55.9407C113.682 54.9339 114.47 53.7302 114.601 52.3295C114.251 52.2857 113.704 52.242 112.96 52.1982C112.215 52.1106 111.646 52.045 111.252 52.0012C106.744 51.5197 103.264 49.7469 100.813 46.6829C98.7555 44.1004 97.7269 40.9707 97.7269 37.2938C97.7269 32.4789 99.0401 28.6707 101.666 25.8693C103.986 23.4181 107.05 22.1924 110.859 22.1924C114.754 22.1924 117.796 23.4399 119.985 25.9349C121.867 28.0798 122.808 30.8812 122.808 34.3392V44.5162H130.884ZM114.601 34.2079C114.601 31.3189 113.354 29.8744 110.859 29.8744C107.532 29.8744 105.868 32.26 105.868 37.0312C105.868 41.2771 107.794 43.6407 111.646 44.1222C112.259 44.2536 113.244 44.363 114.601 44.4505V34.2079ZM147.703 29.0865C152.211 24.4905 157.355 22.1924 163.133 22.1924C168.341 22.1924 172.478 23.9871 175.542 27.5764C178.168 30.5967 179.481 34.3392 179.481 38.8039V40.3797C179.481 44.4943 178.3 47.624 175.936 49.7688C173.966 51.5635 171.34 52.4608 168.057 52.4608H126.955V44.5162H138.708C138.883 43.9034 139.124 43.2249 139.43 42.4808V14.5104L147.703 10.1114V29.0865ZM171.274 40.0514V38.8039C171.274 36.1776 170.508 34.0328 168.976 32.3694C167.488 30.7061 165.562 29.8744 163.198 29.8744C160.134 29.8744 157.223 31.0125 154.466 33.2887C151.752 35.521 149.498 38.6288 147.703 42.6121V44.5162H167.729C169.173 44.5162 170.114 44.2317 170.552 43.6626C171.033 43.0936 171.274 41.8899 171.274 40.0514ZM210.025 15.364C208.712 15.364 207.662 14.9701 206.874 14.1822C206.086 13.3943 205.692 12.3218 205.692 10.9649C205.692 8.11972 207.136 6.69713 210.025 6.69713C211.338 6.69713 212.367 7.09108 213.111 7.87898C213.899 8.6231 214.293 9.65174 214.293 10.9649C214.293 13.8976 212.87 15.364 210.025 15.364ZM220.137 15.364C218.823 15.364 217.773 14.9701 216.985 14.1822C216.197 13.3943 215.803 12.3218 215.803 10.9649C215.803 8.11972 217.248 6.69713 220.137 6.69713C221.45 6.69713 222.478 7.09108 223.223 7.87898C224.01 8.6231 224.404 9.65174 224.404 10.9649C224.404 13.8976 222.982 15.364 220.137 15.364ZM231.233 44.5162H237.142V52.4608H230.445C226.374 52.4608 223.223 51.1039 220.99 48.39C219.108 49.8345 216.81 50.5567 214.096 50.5567C210.069 50.5567 206.852 49.0466 204.444 46.0263C202.475 43.5313 201.49 40.5329 201.49 37.0312C201.49 32.6977 202.89 29.1741 205.692 26.4602C208.056 24.1841 210.791 23.046 213.899 23.046C215.519 23.046 217.007 23.3524 218.364 23.9652V22.2581L226.571 17.9247V39.7888C226.571 41.4959 226.921 42.7215 227.622 43.4657C228.366 44.166 229.57 44.5162 231.233 44.5162ZM218.364 32.2381C217.226 31.2751 215.935 30.7936 214.49 30.7936C213.046 30.7936 211.864 31.3846 210.945 32.5664C210.069 33.7483 209.631 35.3022 209.631 37.2281C209.631 39.1541 210.069 40.6861 210.945 41.8242C211.82 42.9623 213.024 43.5313 214.556 43.5313C216.219 43.5313 217.51 42.9623 218.43 41.8242C218.386 41.474 218.364 40.9269 218.364 40.1828V32.2381ZM248.63 23.5056C251.913 23.7682 254.802 24.7531 257.297 26.4602C261.762 29.4805 263.994 33.8358 263.994 39.5262V40.3797C263.994 44.3192 262.769 47.4051 260.317 49.6375C258.173 51.5197 255.393 52.4608 251.979 52.4608H233.201V44.5162H251.125C254.189 44.5162 255.721 43.0061 255.721 39.9858V39.5918C255.721 37.2281 254.802 35.3022 252.964 33.8139C251.169 32.3257 248.805 31.5815 245.873 31.5815C243.684 31.5815 241.364 32.0193 238.913 32.8947V24.9501L252.241 10.1114H260.58L248.63 23.5056ZM306.098 44.5162H312.007V52.4608H305.31C303.822 52.4608 302.443 52.2638 301.174 51.8699C300.605 56.072 298.919 59.3987 296.118 61.8499C293.579 64.0385 290.537 65.1328 286.991 65.1328C284.234 65.1328 281.542 64.4325 278.915 63.0318V55.8094C281.192 57.0788 283.424 57.7135 285.613 57.7135C288.02 57.7135 289.88 56.9256 291.194 55.3498C292.55 53.8177 293.229 51.6729 293.229 48.9153V27.6421L298.613 24.8188L301.436 23.3086V23.3743L301.502 23.3086V39.7888C301.502 41.4959 301.852 42.7215 302.552 43.4657C303.253 44.166 304.435 44.5162 306.098 44.5162ZM345.386 7.87898C342.759 7.87898 341.446 6.54393 341.446 3.87383C341.446 1.29128 342.759 7.03897e-06 345.386 7.03897e-06C347.968 7.03897e-06 349.259 1.29128 349.259 3.87383C349.259 6.54393 347.968 7.87898 345.386 7.87898ZM340.396 17.5307C339.082 17.5307 338.032 17.1368 337.244 16.3489C336.456 15.561 336.062 14.4886 336.062 13.1316C336.062 11.8622 336.456 10.8336 337.244 10.0457C338.032 9.2578 339.082 8.86385 340.396 8.86385C341.709 8.86385 342.737 9.2578 343.481 10.0457C344.269 10.7898 344.663 11.8185 344.663 13.1316C344.663 16.0644 343.241 17.5307 340.396 17.5307ZM350.507 17.5307C349.194 17.5307 348.143 17.1368 347.355 16.3489C346.567 15.561 346.173 14.4886 346.173 13.1316C346.173 11.8622 346.567 10.8336 347.355 10.0457C348.143 9.2578 349.194 8.86385 350.507 8.86385C351.82 8.86385 352.849 9.2578 353.593 10.0457C354.381 10.7898 354.775 11.8185 354.775 13.1316C354.775 16.0644 353.352 17.5307 350.507 17.5307ZM308.092 52.4608V44.5162H315.052C316.715 44.5162 317.897 44.166 318.597 43.4657C319.341 42.7215 319.713 41.4959 319.713 39.7888V31.1219L327.986 26.7885V39.7888C327.986 41.4959 328.336 42.7215 329.037 43.4657C329.737 44.166 330.919 44.5162 332.582 44.5162H337.047C338.71 44.5162 339.892 44.166 340.593 43.4657C341.293 42.7215 341.643 41.4959 341.643 39.7888V29.4148L349.916 25.0157V39.7888C349.916 41.4959 350.266 42.7215 350.967 43.4657C351.711 44.166 352.914 44.5162 354.578 44.5162H359.042C360.706 44.5162 361.888 44.166 362.588 43.4657C363.288 42.7215 363.639 41.4959 363.639 39.7888V27.6421L371.911 23.3086V40.1828C371.911 44.0785 370.73 47.1425 368.366 49.3749C366.309 51.3446 363.595 52.3733 360.224 52.4608H353.724C350.485 52.4608 347.837 51.4978 345.78 49.5719C343.897 51.4541 341.402 52.417 338.294 52.4608H331.794C328.555 52.4608 325.907 51.4978 323.85 49.5719C321.792 51.4978 319.144 52.4608 315.905 52.4608H308.092Z" fill="#A5812C"/>
<path d="M7.48263 74.6833C6.94678 74.6833 6.5181 74.5226 6.19659 74.2011C5.87508 73.8796 5.71432 73.442 5.71432 72.8882C5.71432 71.7272 6.30376 71.1467 7.48263 71.1467C8.01848 71.1467 8.43823 71.3075 8.74188 71.629C9.0634 71.9326 9.22415 72.3524 9.22415 72.8882C9.22415 74.085 8.64364 74.6833 7.48263 74.6833ZM11.6087 74.6833C11.0728 74.6833 10.6442 74.5226 10.3226 74.2011C10.0011 73.8796 9.84038 73.442 9.84038 72.8882C9.84038 71.7272 10.4298 71.1467 11.6087 71.1467C12.1445 71.1467 12.5643 71.3075 12.8679 71.629C13.1895 71.9326 13.3502 72.3524 13.3502 72.8882C13.3502 74.085 12.7697 74.6833 11.6087 74.6833ZM16.1366 86.5793H18.548V89.8212H15.8151C14.154 89.8212 12.8679 89.2675 11.957 88.16C11.1889 88.7495 10.2512 89.0442 9.14377 89.0442C7.50049 89.0442 6.18766 88.428 5.20526 87.1955C4.40148 86.1774 3.99959 84.9538 3.99959 83.5249C3.99959 81.7566 4.57117 80.3187 5.71432 79.2113C6.67885 78.2825 7.79521 77.8181 9.0634 77.8181C9.72428 77.8181 10.3316 77.9431 10.8853 78.1932V77.4966L14.2344 75.7283V84.6502C14.2344 85.3468 14.3773 85.8469 14.663 86.1506C14.9667 86.4364 15.4579 86.5793 16.1366 86.5793ZM10.8853 81.569C10.4209 81.1761 9.89397 80.9796 9.30453 80.9796C8.71509 80.9796 8.23282 81.2207 7.85773 81.703C7.50049 82.1853 7.32188 82.8194 7.32188 83.6053C7.32188 84.3912 7.50049 85.0164 7.85773 85.4808C8.21496 85.9452 8.70616 86.1774 9.33132 86.1774C10.0101 86.1774 10.537 85.9452 10.9121 85.4808C10.8942 85.3379 10.8853 85.1146 10.8853 84.811V81.569ZM26.4777 86.5793H28.8891V89.8212H26.1562C24.8523 89.8212 23.7717 89.4729 22.9143 88.7763C22.057 89.4729 20.9763 89.8212 19.6724 89.8212H16.9396V86.5793H19.3509C20.0297 86.5793 20.5119 86.4364 20.7977 86.1506C21.0835 85.8469 21.2264 85.3468 21.2264 84.6502V79.6936L24.6023 77.9253V84.6502C24.6023 85.3468 24.7452 85.8469 25.0309 86.1506C25.3167 86.4364 25.799 86.5793 26.4777 86.5793ZM19.5385 92.2593C20.0743 92.2593 20.4941 92.4111 20.7977 92.7148C21.1192 93.0363 21.28 93.465 21.28 94.0008C21.28 95.1975 20.6995 95.7959 19.5385 95.7959C19.0026 95.7959 18.5739 95.6352 18.2524 95.3136C17.9309 94.9921 17.7702 94.5545 17.7702 94.0008C17.7702 92.8398 18.3596 92.2593 19.5385 92.2593ZM23.6645 92.2593C24.2004 92.2593 24.6201 92.4111 24.9238 92.7148C25.2453 93.0363 25.406 93.465 25.406 94.0008C25.406 95.1975 24.8255 95.7959 23.6645 95.7959C23.1287 95.7959 22.7 95.6352 22.3785 95.3136C22.057 94.9921 21.8962 94.5545 21.8962 94.0008C21.8962 92.8398 22.4856 92.2593 23.6645 92.2593ZM33.3297 75.2192C32.7939 75.2192 32.3652 75.0584 32.0437 74.7369C31.7222 74.4154 31.5614 73.9778 31.5614 73.4241C31.5614 72.9061 31.7222 72.4864 32.0437 72.1648C32.3652 71.8433 32.7939 71.6826 33.3297 71.6826C33.8656 71.6826 34.2853 71.8433 34.589 72.1648C34.9105 72.4685 35.0713 72.8882 35.0713 73.4241C35.0713 74.6208 34.4908 75.2192 33.3297 75.2192ZM27.2746 89.8212V86.5793H29.6859C30.3647 86.5793 30.847 86.4364 31.1328 86.1506C31.4185 85.8469 31.5614 85.3468 31.5614 84.6502V79.6936L34.9373 77.9253V84.811C34.9373 86.4364 34.4372 87.7046 33.4369 88.6155C32.5617 89.4193 31.4185 89.8212 30.0075 89.8212H27.2746ZM52.4785 86.5793V89.8212H49.183C49.058 91.4287 48.3435 92.7148 47.0396 93.6793C45.9679 94.4652 44.7176 94.8582 43.2886 94.8582C42.1633 94.8582 41.0649 94.5545 39.9931 93.9472V91.0268C40.9577 91.5805 41.9222 91.8574 42.8867 91.8574C43.6369 91.8574 44.2978 91.652 44.8694 91.2412C45.4588 90.8304 45.7803 90.3392 45.8339 89.7676C45.691 89.7497 45.4678 89.7319 45.1641 89.714C44.8605 89.6783 44.6283 89.6515 44.4675 89.6336C42.6278 89.4371 41.2077 88.7137 40.2075 87.4634C39.368 86.4096 38.9482 85.1325 38.9482 83.6321C38.9482 81.6673 39.4841 80.1133 40.5558 78.9702C41.5025 77.9699 42.7528 77.4698 44.3068 77.4698C45.8964 77.4698 47.1378 77.9788 48.0309 78.997C48.799 79.8722 49.183 81.0153 49.183 82.4264V86.5793H52.4785ZM45.8339 82.3728C45.8339 81.194 45.3249 80.6045 44.3068 80.6045C42.9493 80.6045 42.2705 81.578 42.2705 83.5249C42.2705 85.2575 43.0564 86.222 44.6283 86.4185C44.8783 86.4721 45.2802 86.5167 45.8339 86.5525V82.3728ZM56.9303 75.2192C56.3944 75.2192 55.9657 75.0584 55.6442 74.7369C55.3227 74.4154 55.1619 73.9778 55.1619 73.4241C55.1619 72.9061 55.3227 72.4864 55.6442 72.1648C55.9657 71.8433 56.3944 71.6826 56.9303 71.6826C57.4661 71.6826 57.8859 71.8433 58.1895 72.1648C58.511 72.4685 58.6718 72.8882 58.6718 73.4241C58.6718 74.6208 58.0913 75.2192 56.9303 75.2192ZM50.8751 89.8212V86.5793H53.2865C53.9652 86.5793 54.4475 86.4364 54.7333 86.1506C55.019 85.8469 55.1619 85.3468 55.1619 84.6502V79.6936L58.5378 77.9253V84.811C58.5378 86.4364 58.0377 87.7046 57.0374 88.6155C56.1622 89.4193 55.019 89.8212 53.608 89.8212H50.8751ZM68.2824 89.8212C66.6569 89.8212 65.3977 89.3032 64.5046 88.2672C63.7365 87.3741 63.3525 86.222 63.3525 84.811V74.3083L66.7284 72.5399V84.6502C66.7284 85.3468 66.8713 85.8469 67.1571 86.1506C67.4429 86.4364 67.9251 86.5793 68.6039 86.5793H71.0152V89.8212H68.2824ZM75.8567 75.5675C75.3209 75.5675 74.8922 75.4067 74.5707 75.0852C74.2492 74.7637 74.0884 74.3261 74.0884 73.7724C74.0884 72.6114 74.6778 72.0309 75.8567 72.0309C76.3926 72.0309 76.8123 72.1916 77.116 72.5131C77.4375 72.8168 77.5982 73.2365 77.5982 73.7724C77.5982 74.9691 77.0177 75.5675 75.8567 75.5675ZM79.9828 75.5675C79.4469 75.5675 79.0182 75.4067 78.6967 75.0852C78.3752 74.7637 78.2145 74.3261 78.2145 73.7724C78.2145 72.6114 78.8039 72.0309 79.9828 72.0309C80.5186 72.0309 80.9384 72.1916 81.242 72.5131C81.5635 72.8168 81.7243 73.2365 81.7243 73.7724C81.7243 74.9691 81.1438 75.5675 79.9828 75.5675ZM82.1798 86.5793H86.413V89.8212H80.0632C79.1522 89.8212 78.4377 89.7587 77.9197 89.6336C77.366 89.7587 76.6516 89.8212 75.7763 89.8212H69.3997V86.5793H73.6329C72.9542 85.4897 72.6148 84.3823 72.6148 83.257C72.6148 81.4708 73.1417 80.0329 74.1956 78.9434C75.1422 77.961 76.3836 77.4698 77.9197 77.4698C79.6702 77.4698 81.0277 78.1039 81.9922 79.3721C82.796 80.408 83.1979 81.703 83.1979 83.257C83.1979 84.3823 82.8585 85.4897 82.1798 86.5793ZM77.893 86.2845C78.5003 85.9988 78.9914 85.5611 79.3665 84.9717C79.7595 84.3644 79.956 83.7303 79.956 83.0694C79.956 82.3014 79.7684 81.703 79.3933 81.2743C79.0361 80.8278 78.5449 80.6045 77.9197 80.6045C76.5623 80.6045 75.8835 81.4172 75.8835 83.0426C75.8835 83.7392 76.0711 84.3912 76.4462 84.9985C76.8212 85.5879 77.3035 86.0166 77.893 86.2845ZM84.8107 89.8212V86.5793H86.4986C87.3202 86.5793 87.9008 86.4006 88.2401 86.0434C88.5974 85.6862 88.776 85.0789 88.776 84.2215V74.335L92.125 72.5399V84.2483C92.125 85.9809 91.5981 87.3652 90.5443 88.4012C89.5798 89.3478 88.2937 89.8212 86.6862 89.8212H84.8107ZM96.9479 89.8212V74.335L100.324 72.5399V89.8212H96.9479ZM118.862 77.3626C118.326 77.3626 117.897 77.2019 117.576 76.8803C117.254 76.541 117.093 76.1034 117.093 75.5675C117.093 75.0495 117.254 74.6298 117.576 74.3083C117.897 73.9867 118.326 73.826 118.862 73.826C119.397 73.826 119.817 73.9867 120.121 74.3083C120.442 74.6119 120.603 75.0317 120.603 75.5675C120.603 76.7642 120.023 77.3626 118.862 77.3626ZM122.988 77.3626C122.452 77.3626 122.023 77.2019 121.702 76.8803C121.38 76.5588 121.219 76.1212 121.219 75.5675C121.219 74.4065 121.809 73.826 122.988 73.826C123.523 73.826 123.943 73.9867 124.247 74.3083C124.568 74.6119 124.729 75.0317 124.729 75.5675C124.729 76.7642 124.149 77.3626 122.988 77.3626ZM116.289 89.8212C114.771 89.8212 113.583 89.3121 112.726 88.294C111.958 87.4009 111.574 86.2488 111.574 84.8377V82.1049L114.923 80.3366V84.6234C114.923 85.3379 115.066 85.8469 115.352 86.1506C115.655 86.4364 116.147 86.5793 116.825 86.5793H125.56C126.238 86.5793 126.721 86.4274 127.006 86.1238C127.292 85.8201 127.435 85.32 127.435 84.6234V79.6936L130.811 77.9253V84.8377C130.811 86.4632 130.302 87.7313 129.284 88.6423C128.391 89.4282 127.248 89.8212 125.854 89.8212H116.289ZM135.645 89.8212V74.335L139.021 72.5399V89.8212H135.645ZM150.411 88.16C150.411 90.232 149.839 91.911 148.696 93.197C147.642 94.3938 146.249 94.9921 144.516 94.9921C143.391 94.9921 142.293 94.7064 141.221 94.1348V91.1876C142.15 91.7056 143.061 91.9646 143.954 91.9646C144.936 91.9646 145.695 91.6431 146.231 91C146.785 90.3749 147.062 89.4997 147.062 88.3744V79.7204L150.411 77.9253V88.16ZM160.173 89.8212C158.547 89.8212 157.288 89.3032 156.395 88.2672C155.627 87.3741 155.243 86.222 155.243 84.811V74.3083L158.619 72.5399V84.6502C158.619 85.3468 158.762 85.8469 159.047 86.1506C159.333 86.4364 159.815 86.5793 160.494 86.5793H162.905V89.8212H160.173ZM176.508 71.629C175.436 71.629 174.901 71.0842 174.901 69.9946C174.901 68.9408 175.436 68.4139 176.508 68.4139C177.562 68.4139 178.089 68.9408 178.089 69.9946C178.089 71.0842 177.562 71.629 176.508 71.629ZM174.472 75.5675C173.936 75.5675 173.507 75.4067 173.186 75.0852C172.864 74.7637 172.704 74.3261 172.704 73.7724C172.704 73.2544 172.864 72.8347 173.186 72.5131C173.507 72.1916 173.936 72.0309 174.472 72.0309C175.008 72.0309 175.427 72.1916 175.731 72.5131C176.053 72.8168 176.213 73.2365 176.213 73.7724C176.213 74.9691 175.633 75.5675 174.472 75.5675ZM178.598 75.5675C178.062 75.5675 177.633 75.4067 177.312 75.0852C176.99 74.7637 176.83 74.3261 176.83 73.7724C176.83 73.2544 176.99 72.8347 177.312 72.5131C177.633 72.1916 178.062 72.0309 178.598 72.0309C179.134 72.0309 179.554 72.1916 179.857 72.5131C180.179 72.8168 180.339 73.2365 180.339 73.7724C180.339 74.9691 179.759 75.5675 178.598 75.5675ZM161.29 89.8212V86.5793H164.13C164.809 86.5793 165.291 86.4364 165.577 86.1506C165.88 85.8469 166.032 85.3468 166.032 84.6502V81.1136L169.408 79.3453V84.6502C169.408 85.3468 169.551 85.8469 169.837 86.1506C170.123 86.4364 170.605 86.5793 171.284 86.5793H173.105C173.784 86.5793 174.266 86.4364 174.552 86.1506C174.838 85.8469 174.981 85.3468 174.981 84.6502V80.417L178.357 78.6219V84.6502C178.357 85.3468 178.5 85.8469 178.785 86.1506C179.089 86.4364 179.58 86.5793 180.259 86.5793H182.081C182.76 86.5793 183.242 86.4364 183.528 86.1506C183.814 85.8469 183.956 85.3468 183.956 84.6502V79.6936L187.332 77.9253V84.2215C187.332 85.0789 187.502 85.6862 187.841 86.0434C188.199 86.4006 188.788 86.5793 189.61 86.5793H192.075V89.8212H189.422C187.922 89.8212 186.716 89.3925 185.805 88.5351C185.001 89.3746 183.921 89.8033 182.563 89.8212H179.911C178.589 89.8212 177.508 89.4282 176.669 88.6423C175.901 89.4103 174.883 89.8033 173.615 89.8212H170.962C169.64 89.8212 168.56 89.4282 167.72 88.6423C166.881 89.4282 165.8 89.8212 164.478 89.8212H161.29ZM193.009 75.5675C192.473 75.5675 192.044 75.4067 191.723 75.0852C191.401 74.7637 191.24 74.3261 191.24 73.7724C191.24 73.2544 191.401 72.8347 191.723 72.5131C192.044 72.1916 192.473 72.0309 193.009 72.0309C193.545 72.0309 193.964 72.1916 194.268 72.5131C194.59 72.8168 194.75 73.2365 194.75 73.7724C194.75 74.9691 194.17 75.5675 193.009 75.5675ZM197.108 75.5675C196.572 75.5675 196.144 75.4067 195.822 75.0852C195.501 74.7459 195.34 74.3083 195.34 73.7724C195.34 73.2544 195.501 72.8347 195.822 72.5131C196.161 72.1916 196.59 72.0309 197.108 72.0309C197.644 72.0309 198.064 72.1916 198.367 72.5131C198.689 72.8168 198.85 73.2365 198.85 73.7724C198.85 74.9691 198.269 75.5675 197.108 75.5675ZM200.002 86.5793H202.413V89.8212H199.68C198.376 89.8212 197.296 89.4729 196.438 88.7763C195.581 89.4729 194.5 89.8212 193.196 89.8212H190.464V86.5793H192.875C193.554 86.5793 194.036 86.4364 194.322 86.1506C194.607 85.8469 194.75 85.3468 194.75 84.6502V79.6936L198.126 77.9253V84.6502C198.126 85.3468 198.269 85.8469 198.555 86.1506C198.841 86.4364 199.323 86.5793 200.002 86.5793ZM200.799 89.8212V86.5793H203.639C204.317 86.5793 204.8 86.4364 205.085 86.1506C205.389 85.8469 205.541 85.3468 205.541 84.6502V81.1136L208.917 79.3453V84.6502C208.917 85.3468 209.06 85.8469 209.345 86.1506C209.631 86.4364 210.113 86.5793 210.792 86.5793H212.614C213.293 86.5793 213.775 86.4364 214.061 86.1506C214.347 85.8469 214.49 85.3468 214.49 84.6502V80.417L217.865 78.6219V84.6502C217.865 85.3468 218.008 85.8469 218.294 86.1506C218.598 86.4364 219.089 86.5793 219.768 86.5793H221.59C222.268 86.5793 222.751 86.4364 223.036 86.1506C223.322 85.8469 223.465 85.3468 223.465 84.6502V79.6936L226.841 77.9253V84.811C226.841 86.4006 226.359 87.651 225.394 88.5619C224.555 89.3657 223.447 89.7854 222.072 89.8212H219.419C218.098 89.8212 217.017 89.4282 216.177 88.6423C215.409 89.4103 214.391 89.8033 213.123 89.8212H210.471C209.149 89.8212 208.068 89.4282 207.229 88.6423C206.389 89.4282 205.309 89.8212 203.987 89.8212H200.799ZM241.985 74.335L245.361 72.5399V84.2483C245.361 85.9809 244.834 87.3652 243.78 88.4012C242.798 89.3478 241.503 89.8212 239.895 89.8212H229.794L231.482 86.5793H235.019V77.8181L238.395 76.023V86.5793H239.707C240.529 86.5793 241.11 86.4006 241.449 86.0434C241.806 85.6862 241.985 85.0789 241.985 84.2215V74.335ZM250.168 89.8212V74.335L253.544 72.5399V89.8212H250.168ZM264.413 89.0442C263.859 89.1514 263.287 89.2049 262.698 89.2049C261.055 89.2049 259.742 88.5887 258.76 87.3562C257.956 86.3203 257.554 85.0699 257.554 83.6053C257.554 81.6405 258.09 80.0955 259.161 78.9702C260.108 77.9699 261.358 77.4698 262.912 77.4698C264.502 77.4698 265.743 77.9788 266.637 78.997C267.405 79.8722 267.789 81.0153 267.789 82.4264V88.16C267.789 90.2677 267.235 91.9289 266.127 93.1434C265.091 94.2866 263.68 94.8582 261.894 94.8582C260.769 94.8582 259.67 94.5545 258.599 93.9472V91.0268C259.563 91.5805 260.528 91.8574 261.492 91.8574C263.225 91.8574 264.198 90.9197 264.413 89.0442ZM264.44 82.3728C264.44 81.194 263.93 80.6045 262.912 80.6045C262.269 80.6045 261.76 80.8635 261.385 81.3815C261.028 81.8995 260.849 82.605 260.849 83.4981C260.849 85.3915 261.528 86.3381 262.886 86.3381C263.6 86.3381 264.118 86.1595 264.44 85.8023V82.3728ZM281.605 74.6833C281.07 74.6833 280.641 74.5226 280.319 74.2011C279.998 73.8796 279.837 73.442 279.837 72.8882C279.837 71.7272 280.427 71.1467 281.605 71.1467C282.141 71.1467 282.561 71.3075 282.865 71.629C283.186 71.9326 283.347 72.3524 283.347 72.8882C283.347 74.085 282.766 74.6833 281.605 74.6833ZM285.705 74.6833C285.169 74.6833 284.74 74.5226 284.419 74.2011C284.097 73.8617 283.936 73.4241 283.936 72.8882C283.936 72.3703 284.097 71.9505 284.419 71.629C284.74 71.3075 285.169 71.1467 285.705 71.1467C286.241 71.1467 286.66 71.3075 286.964 71.629C287.285 71.9326 287.446 72.3524 287.446 72.8882C287.446 74.085 286.866 74.6833 285.705 74.6833ZM283.668 89.8212C281.972 89.8212 280.641 89.2496 279.676 88.1064C278.855 87.124 278.444 85.8648 278.444 84.3287C278.444 82.7211 278.908 81.319 279.837 80.1222C280.766 78.9255 282.088 78.0414 283.802 77.4698C285.624 78.0771 287 79.0327 287.928 80.3366C288.768 81.4797 289.188 82.8104 289.188 84.3287C289.188 86.097 288.652 87.4813 287.58 88.4815C286.651 89.3746 285.437 89.8212 283.936 89.8212H283.668ZM283.642 86.5793H283.99C285.24 86.5793 285.865 85.838 285.865 84.3555C285.865 82.6586 285.178 81.4172 283.802 80.6313C282.445 81.4172 281.766 82.6408 281.766 84.3019C281.766 85.8201 282.391 86.5793 283.642 86.5793ZM298.217 89.8212C296.592 89.8212 295.333 89.3032 294.44 88.2672C293.671 87.3741 293.287 86.222 293.287 84.811V74.3083L296.663 72.5399V84.6502C296.663 85.3468 296.806 85.8469 297.092 86.1506C297.378 86.4364 297.86 86.5793 298.539 86.5793H300.95V89.8212H298.217ZM303.621 82.4264C303.621 80.8189 304.122 79.5596 305.122 78.6487C305.997 77.8627 307.122 77.4698 308.498 77.4698C310.266 77.4698 311.641 78.1217 312.624 79.4256C313.463 80.5152 313.883 81.9174 313.883 83.6321C313.883 85.6147 313.356 87.1776 312.302 88.3208C311.356 89.321 310.15 89.8212 308.685 89.8212C307.256 89.8212 306.086 89.5086 305.175 88.8834C304.318 89.5086 303.282 89.8212 302.067 89.8212H299.335V86.5793H301.746C302.425 86.5793 302.907 86.4364 303.193 86.1506C303.479 85.8469 303.621 85.3468 303.621 84.6502V82.4264ZM306.997 85.0789C306.997 86.0791 307.524 86.5793 308.578 86.5793C309.9 86.5793 310.561 85.5611 310.561 83.5249C310.561 81.578 309.873 80.6045 308.498 80.6045C307.497 80.6045 306.997 81.194 306.997 82.3728V85.0789ZM323.231 89.8212C321.605 89.8212 320.346 89.3032 319.453 88.2672C318.685 87.3741 318.301 86.222 318.301 84.811V74.3083L321.677 72.5399V84.6502C321.677 85.3468 321.82 85.8469 322.105 86.1506C322.391 86.4364 322.873 86.5793 323.552 86.5793H325.963V89.8212H323.231ZM341.817 86.5793H344.067V89.8212H341.79C340.379 89.8212 339.245 89.6693 338.387 89.3657C337.548 89.0442 336.762 88.4905 336.03 87.7046C333.797 89.1156 331.225 89.8212 328.313 89.8212H324.348V86.5793H328.34C331.484 86.5793 333.984 85.6415 335.842 83.766C334.627 81.6405 333.154 80.5777 331.421 80.5777C329.992 80.5777 328.429 81.3547 326.733 82.9087V79.9347C328.233 78.2914 329.93 77.4698 331.823 77.4698C333.216 77.4698 334.574 77.9788 335.896 78.997C337.217 80.0151 338.387 81.4619 339.405 83.3374V84.677C339.12 85.0521 338.745 85.4718 338.28 85.9362C338.995 86.3649 340.174 86.5793 341.817 86.5793ZM359.494 86.5793H361.879V89.8212H359.146C357.86 89.8212 356.806 89.4907 355.984 88.8298C355.02 89.848 353.751 90.357 352.18 90.357C350.572 90.357 349.304 89.848 348.375 88.8298C347.518 89.4907 346.455 89.8212 345.187 89.8212H342.454V86.5793H344.865C345.544 86.5793 346.026 86.4364 346.312 86.1506C346.598 85.8469 346.741 85.3468 346.741 84.6502V83.8732C346.741 81.7834 347.286 80.158 348.375 78.997C349.322 77.9788 350.59 77.4698 352.18 77.4698C353.984 77.4698 355.377 78.1307 356.359 79.4524C357.181 80.5777 357.592 82.0513 357.592 83.8732V84.6502C357.592 85.3468 357.735 85.8469 358.02 86.1506C358.324 86.4364 358.815 86.5793 359.494 86.5793ZM352.18 87.1151C353.537 87.1151 354.216 86.0077 354.216 83.7928C354.216 81.6673 353.537 80.6045 352.18 80.6045C350.804 80.6045 350.117 81.6673 350.117 83.7928C350.117 86.0077 350.804 87.1151 352.18 87.1151ZM369.489 86.5793H371.9V89.8212H369.167C367.774 89.8212 366.64 89.4282 365.765 88.6423C364.782 89.4282 363.576 89.8212 362.148 89.8212H360.272V86.5793H361.96C362.782 86.5793 363.362 86.4006 363.701 86.0434C364.059 85.6862 364.237 85.0789 364.237 84.2215V74.335L367.586 72.5399V77.952L367.613 77.9253V84.6502C367.613 85.3468 367.756 85.8469 368.042 86.1506C368.328 86.4364 368.81 86.5793 369.489 86.5793ZM370.293 89.8212V86.5793H371.981C372.803 86.5793 373.383 86.4006 373.723 86.0434C374.08 85.6862 374.258 85.0789 374.258 84.2215V74.335L377.608 72.5399V84.2483C377.608 85.9809 377.081 87.3652 376.027 88.4012C375.062 89.3478 373.776 89.8212 372.169 89.8212H370.293Z" fill="#A5812C"/>
<path d="M68.3449 111.741C67.0079 113.423 65.9189 115.417 65.0779 117.725C64.2585 120.01 63.8488 122.167 63.8488 124.194C63.8488 127.515 64.6035 130.738 66.113 133.865C66.5012 134.663 66.9217 135.407 67.3745 136.097C67.8489 136.787 68.1616 137.132 68.3125 137.132H64.7545C64.582 137.132 64.183 136.69 63.5577 135.806C62.9539 134.943 62.4579 134.124 62.0697 133.348C60.6896 130.566 59.9996 127.515 59.9996 124.194C59.9996 121.973 60.4417 119.708 61.3258 117.401C62.2099 115.094 63.3528 113.207 64.7545 111.741H68.3449ZM76.0933 132.604C74.0878 132.604 72.5352 131.978 71.4354 130.728C70.5513 129.714 70.1093 128.507 70.1093 127.105C70.1093 125.531 70.7562 124.183 72.05 123.062C70.9934 122.156 70.4651 121.035 70.4651 119.698V119.665C70.4651 119.644 70.4651 119.622 70.4651 119.601C70.4651 118.113 71.0473 116.851 72.2118 115.816C73.3331 114.824 74.7132 114.328 76.352 114.328H79.9425V117.983H76.8049C76.1364 117.983 75.5865 118.167 75.1552 118.533C74.724 118.9 74.5083 119.363 74.5083 119.924C74.5083 120.506 74.724 120.981 75.1552 121.347C75.5865 121.714 76.1364 121.897 76.8049 121.897H79.1338V124.711H76.6108C75.8776 124.711 75.2846 124.916 74.8318 125.326C74.3789 125.714 74.1525 126.221 74.1525 126.846C74.1741 127.45 74.4113 127.946 74.8641 128.334C75.317 128.722 75.8992 128.916 76.6108 128.916H79.8778L82.239 132.604H76.0933ZM98.2642 114.328H101.952V118.307C101.952 119.665 101.488 120.776 100.561 121.638C99.6551 122.479 98.4691 122.9 97.0027 122.9C95.752 122.9 94.6954 122.598 93.8328 121.994C92.9918 122.598 91.9567 122.9 90.7276 122.9C90.2101 122.9 89.768 122.857 89.4014 122.771V130.922L85.3258 133.089V114.328H89.4014V118.307C89.4014 119.062 89.8327 119.439 90.6952 119.439C91.5578 119.439 91.9891 119.062 91.9891 118.307V115.299H95.6765V118.307C95.6765 119.062 96.1186 119.439 97.0027 119.439C97.8437 119.439 98.2642 119.062 98.2642 118.307V114.328ZM103.577 132.604L109.011 114.328H114.187L119.718 132.604H115.578L111.631 119.504H111.567L107.685 132.604H103.577ZM128.939 133.089V125.811C128.27 126.091 127.58 126.232 126.869 126.232C126.265 126.232 125.693 126.124 125.154 125.908C122.717 125.089 121.499 123.202 121.499 120.248C121.499 118.156 122.135 116.539 123.407 115.396C124.464 114.447 125.801 113.972 127.418 113.972C129.122 113.972 130.502 114.522 131.559 115.622C132.529 116.657 133.014 118.016 133.014 119.698V130.889L128.939 133.089ZM128.939 119.568C128.939 118.296 128.389 117.66 127.289 117.66C126.707 117.66 126.232 117.886 125.866 118.339C125.521 118.792 125.348 119.385 125.348 120.118C125.348 121.671 125.952 122.501 127.16 122.609C127.224 122.609 127.267 122.609 127.289 122.609C127.871 122.609 128.421 122.426 128.939 122.059V119.568ZM140.65 129.725L136.412 125.455L140.65 121.315L144.822 125.455L140.65 129.725ZM147.276 137.132C147.47 137.132 147.847 136.679 148.408 135.774C148.968 134.868 149.464 133.919 149.896 132.927C151.125 130.059 151.739 127.148 151.739 124.194C151.739 122.167 151.319 120.01 150.478 117.725C149.658 115.417 148.58 113.423 147.243 111.741H150.834C152.235 113.207 153.378 115.094 154.262 117.401C155.146 119.708 155.589 121.973 155.589 124.194C155.589 127.881 154.748 131.224 153.066 134.221C152.699 134.846 152.268 135.483 151.772 136.129C151.276 136.798 150.963 137.132 150.834 137.132H147.276ZM183.787 128.69H186.666V132.604H183.367C181.9 132.604 180.65 132.226 179.615 131.472C178.515 132.226 177.113 132.604 175.41 132.604H170.913C170.094 132.604 169.512 132.776 169.167 133.121C168.822 133.488 168.649 134.092 168.649 134.933V140.658L164.574 142.793V134.739C164.574 133.035 165.037 131.644 165.965 130.566C166.913 129.488 168.186 128.873 169.781 128.722C169.35 127.666 169.134 126.469 169.134 125.132C169.134 122.76 169.781 120.884 171.075 119.504C172.218 118.296 173.728 117.692 175.604 117.692C177.523 117.692 179.022 118.307 180.1 119.536C181.027 120.593 181.491 121.973 181.491 123.676V126.361C181.491 127.202 181.663 127.806 182.008 128.172C182.375 128.517 182.968 128.69 183.787 128.69ZM177.415 126.879V123.612C177.415 122.188 176.811 121.477 175.604 121.477C174.827 121.477 174.213 121.789 173.76 122.415C173.329 123.04 173.113 123.903 173.113 125.002C173.113 127.461 173.922 128.69 175.539 128.69C176.79 128.69 177.415 128.086 177.415 126.879ZM192.969 115.396C192.322 115.396 191.804 115.202 191.416 114.813C191.028 114.425 190.834 113.897 190.834 113.228C190.834 111.827 191.545 111.126 192.969 111.126C193.616 111.126 194.122 111.32 194.489 111.708C194.877 112.075 195.071 112.582 195.071 113.228C195.071 114.673 194.37 115.396 192.969 115.396ZM197.95 115.396C197.303 115.396 196.786 115.202 196.397 114.813C196.009 114.425 195.815 113.897 195.815 113.228C195.815 111.827 196.527 111.126 197.95 111.126C198.597 111.126 199.104 111.32 199.47 111.708C199.858 112.075 200.052 112.582 200.052 113.228C200.052 114.673 199.352 115.396 197.95 115.396ZM184.72 132.604V128.69H189.896C189.249 127.741 188.925 126.555 188.925 125.132C188.925 122.76 189.572 120.884 190.866 119.504C192.031 118.296 193.551 117.692 195.427 117.692C197.346 117.692 198.834 118.307 199.891 119.536C200.84 120.593 201.314 121.973 201.314 123.676V126.587C201.292 128.442 200.743 129.908 199.664 130.986C198.608 132.065 197.174 132.604 195.362 132.604H184.72ZM197.238 123.612C197.238 122.188 196.635 121.477 195.427 121.477C193.767 121.477 192.936 122.652 192.936 125.002C192.936 127.461 193.734 128.69 195.33 128.69C196.602 128.69 197.238 128 197.238 126.62V123.612ZM212.651 130.598C212.651 133.1 211.96 135.127 210.58 136.679C209.308 138.124 207.626 138.847 205.534 138.847C204.176 138.847 202.85 138.502 201.556 137.811V134.253C202.677 134.879 203.777 135.191 204.855 135.191C206.041 135.191 206.958 134.803 207.605 134.027C208.273 133.272 208.607 132.216 208.607 130.857V120.409L212.651 118.242V130.598ZM267.108 128.69H270.019V132.604H266.72C265.146 132.604 263.841 132.183 262.806 131.342C261.771 132.183 260.466 132.604 258.892 132.604H244.918C244.185 132.604 243.506 132.507 242.881 132.313C242.471 134.383 241.425 136.011 239.743 137.197C238.234 138.232 236.401 138.75 234.244 138.75C231.333 138.75 229.08 137.725 227.484 135.677C226.233 134.081 225.608 132.205 225.608 130.048C225.608 128.345 226.007 126.857 226.805 125.585L230.686 124.776C229.824 126.242 229.392 127.784 229.392 129.401C229.392 131.04 229.856 132.367 230.783 133.38C231.667 134.35 232.821 134.836 234.244 134.836C235.732 134.836 236.886 134.458 237.705 133.704C238.546 132.949 238.967 131.892 238.967 130.534V122.091L243.042 119.956V126.361C243.042 127.741 243.592 128.507 244.692 128.658C245.706 125.531 247.215 122.975 249.221 120.992C251.42 118.792 253.943 117.692 256.789 117.692C259.334 117.692 261.372 118.576 262.903 120.345C264.197 121.833 264.844 123.676 264.844 125.876V126.555C264.844 127.978 265.598 128.69 267.108 128.69ZM258.73 128.69C259.507 128.69 260.035 128.528 260.315 128.205C260.617 127.86 260.768 127.234 260.768 126.329V125.876C260.768 124.582 260.401 123.525 259.668 122.706C258.935 121.886 257.986 121.477 256.822 121.477C255.14 121.477 253.566 122.124 252.099 123.417C250.655 124.711 249.512 126.469 248.671 128.69H258.73ZM279.596 128.69H282.507V132.604H279.208C277.634 132.604 276.329 132.183 275.294 131.342C274.259 132.183 272.954 132.604 271.38 132.604H268.081V128.69H270.992C271.812 128.69 272.394 128.517 272.739 128.172C273.084 127.806 273.256 127.202 273.256 126.361V120.377L277.332 118.242V126.361C277.332 127.202 277.505 127.806 277.85 128.172C278.195 128.517 278.777 128.69 279.596 128.69ZM271.219 135.547C271.866 135.547 272.372 135.731 272.739 136.097C273.127 136.485 273.321 137.003 273.321 137.65C273.321 139.095 272.62 139.817 271.219 139.817C270.572 139.817 270.054 139.623 269.666 139.235C269.278 138.847 269.084 138.318 269.084 137.65C269.084 136.248 269.795 135.547 271.219 135.547ZM276.2 135.547C276.847 135.547 277.354 135.731 277.72 136.097C278.108 136.485 278.302 137.003 278.302 137.65C278.302 139.095 277.602 139.817 276.2 139.817C275.553 139.817 275.035 139.623 274.647 139.235C274.259 138.847 274.065 138.318 274.065 137.65C274.065 136.248 274.777 135.547 276.2 135.547ZM290.586 114.975C289.939 114.975 289.421 114.781 289.033 114.393C288.645 114.005 288.451 113.476 288.451 112.808C288.451 112.183 288.645 111.676 289.033 111.288C289.421 110.9 289.939 110.705 290.586 110.705C291.232 110.705 291.739 110.9 292.106 111.288C292.494 111.654 292.688 112.161 292.688 112.808C292.688 114.253 291.987 114.975 290.586 114.975ZM280.558 132.604V128.69H285.378C289.173 128.69 292.192 127.558 294.435 125.294C292.968 122.727 291.189 121.444 289.098 121.444C287.373 121.444 285.486 122.382 283.437 124.258V120.668C285.248 118.684 287.297 117.692 289.583 117.692C291.265 117.692 292.904 118.307 294.499 119.536C296.095 120.765 297.508 122.512 298.737 124.776V126.393C297.184 128.377 295.243 129.908 292.914 130.986C290.607 132.065 288.084 132.604 285.345 132.604H280.558ZM312.364 128.69H315.275V132.604H311.976C311.243 132.604 310.564 132.507 309.938 132.313C309.658 134.383 308.828 136.022 307.448 137.229C306.197 138.307 304.698 138.847 302.952 138.847C301.593 138.847 300.267 138.502 298.973 137.811V134.253C300.094 134.879 301.194 135.191 302.272 135.191C303.458 135.191 304.375 134.803 305.022 134.027C305.69 133.272 306.024 132.216 306.024 130.857V120.377L308.677 118.986L310.068 118.242V118.274L310.1 118.242V126.361C310.1 127.202 310.273 127.806 310.618 128.172C310.963 128.517 311.545 128.69 312.364 128.69ZM315.675 114.975C315.029 114.975 314.511 114.781 314.123 114.393C313.735 114.005 313.541 113.476 313.541 112.808C313.541 111.406 314.252 110.705 315.675 110.705C316.322 110.705 316.829 110.9 317.196 111.288C317.584 111.654 317.778 112.161 317.778 112.808C317.778 114.253 317.077 114.975 315.675 114.975ZM320.657 114.975C320.01 114.975 319.492 114.781 319.104 114.393C318.716 114.005 318.522 113.476 318.522 112.808C318.522 111.406 319.234 110.705 320.657 110.705C321.304 110.705 321.81 110.9 322.177 111.288C322.565 111.654 322.759 112.161 322.759 112.808C322.759 114.253 322.058 114.975 320.657 114.975ZM313.347 132.604V128.69H316.258C317.077 128.69 317.659 128.517 318.004 128.172C318.349 127.806 318.522 127.202 318.522 126.361V120.377L322.598 118.242V126.555C322.598 128.517 321.994 130.048 320.786 131.148C319.73 132.119 318.349 132.604 316.646 132.604H313.347Z" fill="#A5812C"/>
<path d="M38.1019 170.881H31.3659V190.516H26.643V170.881H19.8915V166.731H38.1019V170.881ZM57.4426 188.519C55.5638 190.057 53.2617 190.826 50.5363 190.826C47.811 190.826 45.5037 190.057 43.6145 188.519C41.7357 186.97 40.7963 185.076 40.7963 182.836V166.731H45.5811V181.984C45.5811 183.274 46.0612 184.374 47.0212 185.282C47.9916 186.191 49.1633 186.645 50.5363 186.645C51.9093 186.645 53.0759 186.191 54.0359 185.282C54.996 184.374 55.476 183.274 55.476 181.984V166.731H60.2609V182.836C60.2609 185.076 59.3215 186.97 57.4426 188.519ZM98.4314 166.731L91.8657 190.516H86.6628L80.794 174.66L75.56 190.516H70.3881L63.1566 166.731H68.3286L73.1599 185.282L78.4557 166.731H83.1787L89.0784 185.313L93.2903 166.731H98.4314ZM112.569 185.7H102.241L100.429 190.516H95.2569L104.796 166.731H110.169L119.708 190.516H114.536L112.569 185.7ZM111.206 181.566L107.506 171.578L103.634 181.566H111.206ZM121.69 166.731H126.475V190.516H121.69V166.731ZM153.449 186.908V190.516H152.427C150.755 190.516 149.361 189.923 148.247 188.735L148.092 188.612C146.099 190.088 143.802 190.826 141.201 190.826C137.794 190.826 135.007 189.654 132.839 187.311C130.681 184.967 129.603 182.072 129.603 178.624C129.603 175.176 130.687 172.28 132.854 169.937C135.022 167.593 137.805 166.422 141.201 166.422C144.587 166.422 147.369 167.598 149.547 169.952C151.726 172.306 152.815 175.196 152.815 178.624C152.815 181.308 152.118 183.698 150.724 185.793L151.096 186.165C151.581 186.65 152.267 186.898 153.155 186.908H153.449ZM141.201 186.196C142.636 186.196 143.875 185.881 144.917 185.251L141.619 181.767L144.251 179.073L147.426 182.371C147.932 181.246 148.185 179.997 148.185 178.624C148.185 176.404 147.56 174.582 146.311 173.158C145.062 171.723 143.358 171.005 141.201 171.005C139.023 171.005 137.304 171.723 136.044 173.158C134.795 174.582 134.171 176.404 134.171 178.624C134.171 180.823 134.8 182.634 136.06 184.059C137.33 185.484 139.043 186.196 141.201 186.196ZM178.969 185.7H168.64L166.829 190.516H161.657L171.195 166.731H176.569L186.107 190.516H180.935L178.969 185.7ZM177.606 181.566L173.905 171.578L170.034 181.566H177.606ZM188.089 166.731H196.327C199.755 166.731 202.594 167.779 204.844 169.875C207.095 171.97 208.22 174.887 208.22 178.624C208.22 182.392 207.1 185.318 204.86 187.404C202.619 189.479 199.775 190.516 196.327 190.516H188.089V166.731ZM196.296 186.335C198.454 186.335 200.188 185.706 201.499 184.446C202.81 183.187 203.466 181.246 203.466 178.624C203.466 175.94 202.816 173.978 201.515 172.739C200.214 171.501 198.475 170.881 196.296 170.881H192.843V186.335H196.296ZM232.315 166.731L222.776 190.516H217.402L207.864 166.731H213.222L220.112 184.973L226.957 166.731H232.315ZM243.619 190.826C240.212 190.826 237.425 189.654 235.257 187.311C233.099 184.967 232.02 182.072 232.02 178.624C232.02 175.176 233.104 172.28 235.272 169.937C237.44 167.593 240.222 166.422 243.619 166.422C247.005 166.422 249.787 167.598 251.965 169.952C254.143 172.306 255.232 175.196 255.232 178.624C255.232 182.051 254.143 184.942 251.965 187.295C249.787 189.649 247.005 190.826 243.619 190.826ZM238.478 184.059C239.747 185.484 241.461 186.196 243.619 186.196C245.776 186.196 247.479 185.484 248.729 184.059C249.978 182.634 250.602 180.823 250.602 178.624C250.602 176.404 249.978 174.582 248.729 173.158C247.479 171.723 245.776 171.005 243.619 171.005C241.44 171.005 239.721 171.723 238.462 173.158C237.213 174.582 236.588 176.404 236.588 178.624C236.588 180.823 237.218 182.634 238.478 184.059ZM269.2 190.826C265.814 190.826 263.032 189.649 260.853 187.295C258.685 184.942 257.601 182.051 257.601 178.624C257.601 175.176 258.685 172.28 260.853 169.937C263.021 167.593 265.803 166.422 269.2 166.422C272.245 166.422 274.774 167.315 276.787 169.101C278.811 170.886 279.91 173.214 280.086 176.084H275.58C275.414 174.753 274.795 173.571 273.721 172.538C272.658 171.496 271.151 170.974 269.2 170.974C267.022 170.974 265.298 171.702 264.028 173.158C262.768 174.603 262.139 176.425 262.139 178.624C262.139 180.843 262.768 182.681 264.028 184.136C265.298 185.582 267.022 186.304 269.2 186.304C271.058 186.304 272.544 185.788 273.659 184.756C274.774 183.713 275.414 182.567 275.58 181.318H280.086C279.879 183.858 278.713 186.077 276.586 187.977C274.47 189.876 272.008 190.826 269.2 190.826ZM299.597 185.7H289.268L287.457 190.516H282.285L291.823 166.731H297.197L306.735 190.516H301.563L299.597 185.7ZM298.234 181.566L294.533 171.578L290.662 181.566H298.234ZM323.211 170.881H316.475V190.516H311.752V170.881H305.001V166.731H323.211V170.881ZM330.629 170.881V176.533H340.183V180.714H330.629V186.335H341.515V190.516H325.844V166.731H341.515V170.881H330.629ZM360.158 189.03C358.517 190.227 356.406 190.826 353.825 190.826C351.244 190.826 349.164 190.103 347.585 188.658C346.016 187.213 345.112 185.272 344.875 182.836L349.04 182.867C349.608 185.21 351.255 186.387 353.98 186.397C355.126 186.397 356.039 186.186 356.721 185.762C357.412 185.339 357.769 184.694 357.789 183.827C357.789 183.403 357.676 183.001 357.449 182.619C357.232 182.237 356.989 181.927 356.721 181.69C356.463 181.442 356.034 181.168 355.436 180.869C354.847 180.559 354.377 180.337 354.026 180.203C353.675 180.059 353.123 179.837 352.37 179.537C351.544 179.217 350.888 178.949 350.403 178.732C349.918 178.515 349.334 178.206 348.653 177.803C347.982 177.4 347.461 176.993 347.089 176.58C346.718 176.167 346.392 175.651 346.114 175.031C345.845 174.402 345.711 173.715 345.711 172.972C345.711 171.031 346.511 169.457 348.111 168.249C349.722 167.031 351.699 166.422 354.042 166.422C358.987 166.422 361.929 168.997 362.868 174.149H358.424C358.321 173.137 357.908 172.265 357.185 171.532C356.463 170.788 355.456 170.417 354.166 170.417C353.175 170.417 352.333 170.634 351.642 171.067C350.96 171.501 350.62 172.074 350.62 172.786C350.62 173.168 350.723 173.519 350.929 173.839C351.146 174.149 351.502 174.453 351.998 174.753C352.493 175.052 352.937 175.289 353.33 175.465C353.722 175.63 354.31 175.873 355.095 176.193C355.879 176.502 356.468 176.745 356.86 176.92C357.263 177.086 357.82 177.349 358.533 177.71C359.245 178.061 359.792 178.412 360.174 178.763C360.566 179.114 360.979 179.537 361.413 180.033C361.846 180.528 362.156 181.091 362.342 181.721C362.538 182.34 362.636 183.022 362.636 183.765C362.636 186.067 361.81 187.822 360.158 189.03Z" fill="#A5812C"/>
<path d="M44.5451 217.277H36.8071L35.4498 220.885H31.575L38.7213 203.065H42.7469L49.8932 220.885H46.0184L44.5451 217.277ZM43.5242 214.179L40.7515 206.696L37.8512 214.179H43.5242ZM67.7242 203.065V220.885H64.0699L54.9629 208.483V220.885H51.3782V203.065H55.0325L64.1627 215.444V203.065H67.7242ZM70.5665 203.065H76.7383C79.3061 203.065 81.4329 203.85 83.119 205.42C84.805 206.99 85.648 209.175 85.648 211.975C85.648 214.798 84.8089 216.991 83.1306 218.553C81.4523 220.107 79.3215 220.885 76.7383 220.885H70.5665V203.065ZM76.7151 217.752C78.3316 217.752 79.6309 217.281 80.6131 216.337C81.5954 215.393 82.0865 213.939 82.0865 211.975C82.0865 209.964 81.5992 208.495 80.6247 207.567C79.6502 206.638 78.347 206.174 76.7151 206.174H74.1281V217.752H76.7151ZM93.792 203.065H97.3768V217.752H103.386V220.885H93.792V203.065ZM109.164 206.174V210.409H116.322V213.541H109.164V217.752H117.319V220.885H105.579V203.065H117.319V206.174H109.164ZM136.044 211.36V214.968V220.885H133.642L133.213 218.727C132.022 220.25 130.216 221.008 127.795 221.001C125.243 221.001 123.193 220.189 121.646 218.564C120.107 216.94 119.338 214.775 119.338 212.068C119.338 209.361 120.103 207.176 121.635 205.513C123.166 203.85 125.165 203.019 127.633 203.019C129.04 203.019 130.305 203.239 131.426 203.68C132.555 204.113 133.503 204.813 134.269 205.78C135.042 206.739 135.506 207.918 135.661 209.318H132.215C132.06 208.398 131.593 207.655 130.811 207.091C130.038 206.526 129.098 206.244 127.992 206.244C126.268 206.244 124.949 206.754 124.036 207.775C123.124 208.788 122.667 210.219 122.667 212.068C122.667 213.792 123.166 215.177 124.164 216.221C125.162 217.257 126.364 217.776 127.772 217.776C129.056 217.776 130.146 217.47 131.043 216.859C131.941 216.248 132.389 215.413 132.389 214.353H128.132V211.36H136.044ZM150.209 217.277H142.471L141.113 220.885H137.238L144.385 203.065H148.41L155.557 220.885H151.682L150.209 217.277ZM149.188 214.179L146.415 206.696L143.515 214.179H149.188ZM157.042 203.065H160.626V217.752H166.636V220.885H157.042V203.065ZM182.819 221.117C180.283 221.117 178.198 220.235 176.566 218.472C174.942 216.708 174.13 214.543 174.13 211.975C174.13 209.392 174.942 207.222 176.566 205.467C178.191 203.711 180.275 202.833 182.819 202.833C185.101 202.833 186.996 203.502 188.504 204.84C190.02 206.178 190.844 207.922 190.975 210.072H187.599C187.475 209.075 187.011 208.189 186.207 207.416C185.41 206.635 184.281 206.244 182.819 206.244C181.188 206.244 179.896 206.789 178.945 207.88C178.001 208.963 177.529 210.328 177.529 211.975C177.529 213.638 178.001 215.014 178.945 216.105C179.896 217.188 181.188 217.729 182.819 217.729C184.212 217.729 185.325 217.342 186.161 216.569C186.996 215.788 187.475 214.929 187.599 213.994H190.975C190.82 215.896 189.946 217.559 188.353 218.982C186.768 220.405 184.923 221.117 182.819 221.117ZM202.193 221.117C199.641 221.117 197.553 220.239 195.929 218.483C194.312 216.728 193.504 214.558 193.504 211.975C193.504 209.392 194.316 207.222 195.94 205.467C197.565 203.711 199.649 202.833 202.193 202.833C204.73 202.833 206.815 203.715 208.446 205.478C210.078 207.242 210.894 209.407 210.894 211.975C210.894 214.543 210.078 216.708 208.446 218.472C206.815 220.235 204.73 221.117 202.193 221.117ZM198.342 216.047C199.293 217.114 200.577 217.648 202.193 217.648C203.81 217.648 205.086 217.114 206.022 216.047C206.958 214.98 207.426 213.622 207.426 211.975C207.426 210.312 206.958 208.947 206.022 207.88C205.086 206.805 203.81 206.267 202.193 206.267C200.561 206.267 199.274 206.805 198.33 207.88C197.394 208.947 196.926 210.312 196.926 211.975C196.926 213.622 197.398 214.98 198.342 216.047ZM229.537 203.065V220.885H225.883L216.776 208.483V220.885H213.191V203.065H216.846L225.976 215.444V203.065H229.537ZM243.586 219.771C242.357 220.668 240.775 221.117 238.841 221.117C236.908 221.117 235.35 220.575 234.166 219.493C232.991 218.41 232.314 216.956 232.136 215.13L235.257 215.154C235.682 216.909 236.916 217.791 238.957 217.799C239.816 217.799 240.5 217.64 241.011 217.323C241.529 217.006 241.796 216.523 241.811 215.873C241.811 215.556 241.726 215.254 241.556 214.968C241.394 214.682 241.212 214.45 241.011 214.272C240.818 214.086 240.497 213.881 240.048 213.657C239.607 213.425 239.255 213.259 238.992 213.158C238.729 213.05 238.316 212.884 237.751 212.659C237.132 212.42 236.641 212.219 236.278 212.056C235.914 211.894 235.477 211.662 234.967 211.36C234.464 211.058 234.073 210.753 233.795 210.444C233.517 210.134 233.273 209.748 233.064 209.283C232.863 208.812 232.762 208.297 232.762 207.741C232.762 206.287 233.362 205.107 234.561 204.202C235.767 203.29 237.248 202.833 239.004 202.833C242.709 202.833 244.913 204.763 245.617 208.622H242.287C242.21 207.864 241.9 207.211 241.359 206.662C240.818 206.105 240.063 205.826 239.097 205.826C238.354 205.826 237.724 205.989 237.206 206.314C236.695 206.638 236.44 207.068 236.44 207.601C236.44 207.887 236.517 208.15 236.672 208.39C236.834 208.622 237.101 208.85 237.473 209.075C237.844 209.299 238.176 209.477 238.47 209.608C238.764 209.732 239.205 209.914 239.793 210.154C240.381 210.386 240.821 210.567 241.115 210.699C241.417 210.823 241.835 211.02 242.368 211.29C242.902 211.553 243.312 211.816 243.598 212.079C243.892 212.342 244.201 212.659 244.526 213.031C244.851 213.402 245.083 213.823 245.222 214.295C245.369 214.759 245.443 215.27 245.443 215.827C245.443 217.551 244.824 218.866 243.586 219.771ZM260.28 219.388C258.873 220.54 257.148 221.117 255.106 221.117C253.065 221.117 251.336 220.54 249.921 219.388C248.513 218.228 247.809 216.809 247.809 215.13V203.065H251.394V214.492C251.394 215.459 251.754 216.283 252.473 216.963C253.2 217.644 254.078 217.984 255.106 217.984C256.135 217.984 257.009 217.644 257.728 216.963C258.447 216.283 258.807 215.459 258.807 214.492V203.065H262.392V215.13C262.392 216.809 261.688 218.228 260.28 219.388ZM265.304 203.065H268.889V217.752H274.898V220.885H265.304V203.065ZM287.949 206.174H282.903V220.885H279.364V206.174H274.306V203.065H287.949V206.174ZM299.098 217.277H291.36L290.003 220.885H286.128L293.274 203.065H297.3L304.446 220.885H300.571L299.098 217.277ZM298.077 214.179L295.304 206.696L292.404 214.179H298.077ZM322.277 203.065V220.885H318.623L309.516 208.483V220.885H305.931V203.065H309.585L318.716 215.444V203.065H322.277ZM337.881 206.174H332.834V220.885H329.296V206.174H324.238V203.065H337.881V206.174ZM350.433 219.771C349.203 220.668 347.622 221.117 345.688 221.117C343.755 221.117 342.196 220.575 341.013 219.493C339.837 218.41 339.161 216.956 338.983 215.13L342.103 215.154C342.529 216.909 343.762 217.791 345.804 217.799C346.663 217.799 347.347 217.64 347.858 217.323C348.376 217.006 348.643 216.523 348.658 215.873C348.658 215.556 348.573 215.254 348.403 214.968C348.24 214.682 348.059 214.45 347.858 214.272C347.664 214.086 347.343 213.881 346.895 213.657C346.454 213.425 346.102 213.259 345.839 213.158C345.576 213.05 345.162 212.884 344.598 212.659C343.979 212.42 343.488 212.219 343.124 212.056C342.761 211.894 342.324 211.662 341.813 211.36C341.311 211.058 340.92 210.753 340.642 210.444C340.363 210.134 340.12 209.748 339.911 209.283C339.71 208.812 339.609 208.297 339.609 207.741C339.609 206.287 340.209 205.107 341.407 204.202C342.614 203.29 344.095 202.833 345.851 202.833C349.555 202.833 351.76 204.763 352.463 208.622H349.134C349.056 207.864 348.747 207.211 348.206 206.662C347.664 206.105 346.91 205.826 345.943 205.826C345.201 205.826 344.571 205.989 344.052 206.314C343.542 206.638 343.287 207.068 343.287 207.601C343.287 207.887 343.364 208.15 343.519 208.39C343.681 208.622 343.948 208.85 344.319 209.075C344.691 209.299 345.023 209.477 345.317 209.608C345.611 209.732 346.052 209.914 346.64 210.154C347.227 210.386 347.668 210.567 347.962 210.699C348.264 210.823 348.681 211.02 349.215 211.29C349.749 211.553 350.159 211.816 350.445 212.079C350.739 212.342 351.048 212.659 351.373 213.031C351.698 213.402 351.93 213.823 352.069 214.295C352.216 214.759 352.289 215.27 352.289 215.827C352.289 217.551 351.671 218.866 350.433 219.771Z" fill="#A5812C"/>
<path d="M85.1064 234.544H88.4823V248.376H94.1416V251.325H85.1064V234.544ZM97.8343 238.106C97.3536 238.106 96.9384 237.935 96.5888 237.592C96.2465 237.243 96.0753 236.824 96.0753 236.336C96.0753 235.841 96.2501 235.418 96.5997 235.069C96.9493 234.719 97.3609 234.544 97.8343 234.544C98.3296 234.544 98.752 234.719 99.1016 235.069C99.4512 235.418 99.626 235.841 99.626 236.336C99.626 236.824 99.4512 237.243 99.1016 237.592C98.752 237.935 98.3296 238.106 97.8343 238.106ZM96.1409 239.024H99.626V251.325H96.1409V239.024ZM107.492 251.435C105.7 251.435 104.258 250.856 103.166 249.697C102.081 248.532 101.538 247.017 101.538 245.153C101.538 243.288 102.077 241.78 103.155 240.63C104.24 239.479 105.686 238.903 107.492 238.903C108.403 238.903 109.215 239.02 109.928 239.253C110.642 239.486 111.214 239.774 111.644 240.116C112.081 240.458 112.449 240.87 112.747 241.351C113.046 241.824 113.253 242.268 113.37 242.683C113.494 243.091 113.577 243.51 113.621 243.94H110.507C110.435 243.357 110.143 242.855 109.633 242.432C109.131 242.01 108.519 241.799 107.798 241.799C106.902 241.799 106.218 242.104 105.744 242.716C105.278 243.321 105.045 244.133 105.045 245.153C105.045 246.15 105.278 246.959 105.744 247.578C106.218 248.197 106.902 248.507 107.798 248.507C108.497 248.507 109.102 248.281 109.612 247.829C110.121 247.37 110.42 246.857 110.507 246.289H113.621C113.577 246.748 113.494 247.192 113.37 247.622C113.253 248.044 113.046 248.496 112.747 248.976C112.449 249.45 112.081 249.865 111.644 250.222C111.214 250.571 110.642 250.863 109.928 251.096C109.215 251.322 108.403 251.435 107.492 251.435ZM126.24 245.153C126.24 245.48 126.218 245.83 126.174 246.201H117.893C117.995 247.01 118.29 247.644 118.778 248.102C119.266 248.554 119.874 248.78 120.602 248.78C121.884 248.78 122.773 248.299 123.268 247.338H126.087C125.876 248.532 125.289 249.515 124.328 250.287C123.366 251.052 122.095 251.435 120.515 251.435C118.723 251.435 117.267 250.852 116.145 249.687C115.031 248.514 114.473 247.01 114.473 245.174C114.473 243.324 115.005 241.817 116.068 240.651C117.139 239.486 118.629 238.903 120.537 238.903C122.299 238.903 123.691 239.464 124.71 240.586C125.73 241.708 126.24 243.23 126.24 245.153ZM120.493 241.591C119.124 241.591 118.279 242.33 117.958 243.809H122.864C122.624 242.33 121.833 241.591 120.493 241.591ZM135.177 238.86C136.611 238.86 137.726 239.253 138.52 240.04C139.321 240.819 139.721 241.926 139.721 243.361V251.325H136.16V243.787C136.16 242.563 135.482 241.952 134.128 241.952C133.399 241.952 132.762 242.137 132.216 242.509C131.67 242.88 131.396 243.372 131.396 243.984V251.325H127.835V239.024H131.036L131.243 240.52C131.688 240.01 132.267 239.606 132.981 239.308C133.702 239.009 134.434 238.86 135.177 238.86ZM146.877 251.478C145.239 251.478 143.935 251.063 142.966 250.233C141.998 249.395 141.455 248.423 141.338 247.316H144.332C144.463 247.855 144.762 248.27 145.228 248.561C145.701 248.853 146.215 248.984 146.768 248.955C147.751 248.896 148.243 248.499 148.243 247.764C148.243 247.567 148.185 247.396 148.068 247.25C147.952 247.105 147.751 246.97 147.467 246.846C147.183 246.715 146.936 246.617 146.724 246.551C146.513 246.485 146.178 246.383 145.719 246.245C145.108 246.078 144.616 245.925 144.244 245.786C143.873 245.648 143.454 245.444 142.988 245.174C142.529 244.905 142.183 244.57 141.95 244.169C141.717 243.761 141.601 243.284 141.601 242.738C141.601 241.558 142.067 240.611 142.999 239.898C143.931 239.177 145.166 238.816 146.703 238.816C147.897 238.816 148.986 239.151 149.969 239.821C150.953 240.491 151.506 241.464 151.63 242.738H148.604C148.378 241.93 147.773 241.496 146.79 241.438C146.309 241.409 145.927 241.474 145.643 241.635C145.366 241.788 145.228 242.021 145.228 242.334C145.228 242.45 145.25 242.56 145.293 242.662C145.337 242.756 145.41 242.844 145.512 242.924C145.621 243.004 145.723 243.073 145.818 243.131C145.912 243.182 146.058 243.244 146.255 243.317C146.451 243.39 146.612 243.445 146.735 243.481C146.866 243.517 147.056 243.576 147.304 243.656C147.558 243.729 147.755 243.787 147.893 243.831C148.462 244.013 148.931 244.188 149.303 244.355C149.674 244.515 150.068 244.737 150.483 245.021C150.905 245.298 151.222 245.655 151.433 246.092C151.652 246.522 151.761 247.021 151.761 247.589C151.761 248.798 151.32 249.748 150.439 250.44C149.558 251.132 148.371 251.478 146.877 251.478ZM164.675 245.153C164.675 245.48 164.653 245.83 164.609 246.201H156.328C156.43 247.01 156.725 247.644 157.213 248.102C157.701 248.554 158.309 248.78 159.037 248.78C160.319 248.78 161.208 248.299 161.703 247.338H164.522C164.31 248.532 163.724 249.515 162.763 250.287C161.801 251.052 160.53 251.435 158.95 251.435C157.158 251.435 155.701 250.852 154.58 249.687C153.465 248.514 152.908 247.01 152.908 245.174C152.908 243.324 153.44 241.817 154.503 240.651C155.574 239.486 157.063 238.903 158.972 238.903C160.734 238.903 162.125 239.464 163.145 240.586C164.165 241.708 164.675 243.23 164.675 245.153ZM158.928 241.591C157.559 241.591 156.714 242.33 156.393 243.809H161.299C161.058 242.33 160.268 241.591 158.928 241.591ZM187.421 234.544V251.325H183.979L175.403 239.646V251.325H172.027V234.544H175.469L184.067 246.201V234.544H187.421ZM200.312 249.665C199.111 250.874 197.592 251.478 195.757 251.478C193.921 251.478 192.403 250.874 191.201 249.665C189.999 248.448 189.398 246.944 189.398 245.153C189.398 243.361 189.999 241.857 191.201 240.64C192.403 239.424 193.921 238.816 195.757 238.816C197.592 238.816 199.111 239.424 200.312 240.64C201.514 241.857 202.115 243.361 202.115 245.153C202.115 246.944 201.514 248.448 200.312 249.665ZM195.757 248.376C196.594 248.376 197.279 248.066 197.811 247.447C198.35 246.828 198.619 246.063 198.619 245.153C198.619 244.242 198.35 243.474 197.811 242.847C197.279 242.221 196.594 241.908 195.757 241.908C194.905 241.908 194.213 242.217 193.681 242.836C193.156 243.456 192.894 244.228 192.894 245.153C192.894 246.078 193.156 246.846 193.681 247.458C194.213 248.07 194.905 248.376 195.757 248.376ZM205.196 251.544C204.701 251.544 204.271 251.362 203.907 250.998C203.543 250.633 203.361 250.207 203.361 249.719C203.361 249.209 203.543 248.772 203.907 248.408C204.278 248.044 204.708 247.862 205.196 247.862C205.706 247.862 206.143 248.044 206.507 248.408C206.871 248.772 207.053 249.209 207.053 249.719C207.053 250.215 206.871 250.644 206.507 251.008C206.143 251.365 205.706 251.544 205.196 251.544ZM218.973 256.001C217.749 254.931 216.759 253.412 216.001 251.445C215.244 249.486 214.865 247.374 214.865 245.109C214.865 242.501 215.291 240.225 216.143 238.281C217.003 236.329 218.102 234.785 219.442 233.648H221.376C220.138 234.945 219.166 236.653 218.459 238.772C217.76 240.892 217.41 243.004 217.41 245.109C217.41 247.046 217.789 249.067 218.547 251.172C219.311 253.27 220.178 254.887 221.147 256.023L218.973 256.001ZM235.295 247.786H233.82V251.325H230.575V247.786H222.611V245.732L229.723 234.544H233.82V244.923H235.295V247.786ZM230.575 244.923V237.745L226.325 244.923H230.575ZM246.69 249.96C245.626 251.016 244.319 251.544 242.768 251.544C241.216 251.544 239.869 251.067 238.725 250.113C237.589 249.158 237.021 248.011 237.021 246.671L240.211 246.627C240.299 247.21 240.579 247.669 241.052 248.004C241.526 248.339 242.098 248.507 242.768 248.507C243.438 248.507 243.991 248.274 244.428 247.807C244.873 247.334 245.095 246.748 245.095 246.048C245.095 245.342 244.873 244.763 244.428 244.311C243.991 243.852 243.438 243.623 242.768 243.623H241.446L241.424 241.056H242.571C243.125 241.056 243.58 240.866 243.937 240.488C244.294 240.109 244.472 239.635 244.472 239.067C244.472 238.572 244.257 238.157 243.827 237.822C243.405 237.487 242.91 237.319 242.342 237.319C241.846 237.319 241.398 237.465 240.998 237.756C240.597 238.048 240.397 238.394 240.397 238.794L237.261 238.729C237.261 237.505 237.764 236.467 238.769 235.615C239.782 234.755 240.972 234.326 242.342 234.326C243.711 234.326 244.895 234.755 245.892 235.615C246.897 236.467 247.4 237.505 247.4 238.729C247.4 240.025 246.817 241.048 245.652 241.799C246.475 242.243 247.12 242.836 247.586 243.579C248.059 244.315 248.296 245.145 248.296 246.07C248.296 247.607 247.761 248.904 246.69 249.96ZM259.385 241.973C260.179 242.432 260.798 243.037 261.242 243.787C261.694 244.53 261.92 245.357 261.92 246.267C261.92 247.775 261.362 249.031 260.248 250.036C259.134 251.041 257.735 251.544 256.053 251.544C254.385 251.544 252.994 251.041 251.879 250.036C250.772 249.031 250.219 247.775 250.219 246.267C250.219 245.357 250.441 244.53 250.885 243.787C251.329 243.037 251.941 242.44 252.721 241.995C251.57 241.041 250.994 239.959 250.994 238.75C250.994 237.498 251.486 236.449 252.469 235.604C253.46 234.752 254.654 234.326 256.053 234.326C257.458 234.326 258.653 234.752 259.636 235.604C260.619 236.449 261.111 237.498 261.111 238.75C261.111 239.974 260.536 241.048 259.385 241.973ZM257.692 237.494C257.225 237.079 256.686 236.871 256.075 236.871C255.463 236.871 254.917 237.079 254.436 237.494C253.962 237.902 253.726 238.404 253.726 239.002C253.726 239.592 253.962 240.094 254.436 240.509C254.917 240.917 255.463 241.121 256.075 241.121C256.686 241.121 257.225 240.917 257.692 240.509C258.165 240.094 258.402 239.592 258.402 239.002C258.402 238.404 258.165 237.902 257.692 237.494ZM254.217 247.917C254.713 248.427 255.324 248.681 256.053 248.681C256.781 248.681 257.393 248.427 257.888 247.917C258.383 247.4 258.631 246.77 258.631 246.027C258.631 245.298 258.387 244.69 257.899 244.202C257.411 243.714 256.796 243.47 256.053 243.47C255.324 243.47 254.713 243.714 254.217 244.202C253.729 244.683 253.485 245.291 253.485 246.027C253.485 246.77 253.729 247.4 254.217 247.917ZM269.655 251.413C268.074 251.413 266.77 250.994 265.743 250.156C264.724 249.311 264.141 248.135 263.995 246.627L267.153 246.671C267.153 247.254 267.382 247.713 267.841 248.048C268.307 248.383 268.934 248.55 269.72 248.55C269.946 248.55 270.11 248.543 270.212 248.528C270.969 248.412 271.61 248.066 272.135 247.491C272.659 246.915 273.02 246.143 273.216 245.174C272.233 245.845 271.18 246.18 270.059 246.18C268.34 246.18 266.912 245.655 265.776 244.606C264.647 243.55 264.054 242.196 263.995 240.542C263.923 238.845 264.48 237.374 265.667 236.128C266.861 234.876 268.325 234.249 270.059 234.249C271.625 234.249 272.98 234.785 274.123 235.855C275.274 236.919 275.948 238.262 276.144 239.887C276.246 240.768 276.297 241.664 276.297 242.574C276.297 245.335 275.744 247.498 274.636 249.064C273.537 250.63 271.876 251.413 269.655 251.413ZM270.103 243.536C270.984 243.536 271.723 243.23 272.32 242.618C272.918 242.006 273.216 241.252 273.216 240.356C273.216 239.475 272.914 238.736 272.309 238.139C271.705 237.534 270.962 237.232 270.081 237.232C269.199 237.232 268.456 237.541 267.852 238.16C267.247 238.78 266.945 239.53 266.945 240.411C266.945 241.307 267.247 242.053 267.852 242.651C268.456 243.241 269.207 243.536 270.103 243.536ZM289.287 249.271C288.26 250.786 286.629 251.544 284.393 251.544C282.157 251.544 280.518 250.786 279.476 249.271C278.442 247.749 277.925 245.637 277.925 242.935C277.925 240.313 278.479 238.222 279.586 236.664C280.7 235.105 282.302 234.326 284.393 234.326C286.629 234.326 288.26 235.087 289.287 236.609C290.321 238.124 290.839 240.233 290.839 242.935C290.839 245.637 290.321 247.749 289.287 249.271ZM284.393 248.681C286.512 248.681 287.572 246.766 287.572 242.935C287.572 239.089 286.512 237.166 284.393 237.166C283.766 237.166 283.238 237.305 282.809 237.581C282.386 237.851 282.058 238.255 281.825 238.794C281.599 239.333 281.436 239.93 281.334 240.586C281.239 241.241 281.192 242.024 281.192 242.935C281.192 246.766 282.259 248.681 284.393 248.681ZM295.558 233.67C296.782 234.741 297.772 236.259 298.53 238.226C299.295 240.185 299.677 242.301 299.677 244.574C299.677 247.181 299.247 249.457 298.388 251.402C297.528 253.346 296.429 254.887 295.088 256.023H293.166C294.404 254.727 295.376 253.019 296.083 250.899C296.789 248.78 297.142 246.671 297.142 244.574C297.142 242.636 296.756 240.619 295.984 238.521C295.22 236.423 294.353 234.799 293.384 233.648L295.558 233.67Z" fill="#A5812C"/>
</g>
<defs>
<filter id="filter0_d_817_4816" x="0" y="0" width="381.607" height="264.023" filterUnits="userSpaceOnUse" color-interpolation-filters="sRGB">
<feFlood flood-opacity="0" result="BackgroundImageFix"/>
<feColorMatrix in="SourceAlpha" type="matrix" values="0 0 0 0 0 0 0 0 0 0 0 0 0 0 0 0 0 0 127 0" result="hardAlpha"/>
<feOffset dy="4"/>
<feGaussianBlur stdDeviation="2"/>
<feComposite in2="hardAlpha" operator="out"/>
<feColorMatrix type="matrix" values="0 0 0 0 0 0 0 0 0 0 0 0 0 0 0 0 0 0 0.25 0"/>
<feBlend mode="normal" in2="BackgroundImageFix" result="effect1_dropShadow_817_4816"/>
<feBlend mode="normal" in="SourceGraphic" in2="effect1_dropShadow_817_4816" result="shape"/>
</filter>
</defs>
</svg>
