<svg width="280" height="43" viewBox="0 0 280 43" fill="none" xmlns="http://www.w3.org/2000/svg">
<path d="M0.000967991 0.0423155H3.84695V32.5007H0.000967991V0.0423155ZM21.8512 8.43163C24.4434 8.43163 26.5214 9.22055 28.0851 10.7984C29.6489 12.3762 30.4307 14.4894 30.4307 17.1379V32.5007H26.4368V17.5183C26.4368 15.8418 25.9226 14.5035 24.8942 13.5033C23.8799 12.4889 22.5204 11.9818 20.8158 11.9818C18.9703 11.9818 17.3642 12.5242 15.9977 13.6089C14.6453 14.6937 13.9691 16.0602 13.9691 17.7085V32.5007H9.9963V8.70635H13.4619L13.8423 12.2565C14.6735 11.1013 15.8146 10.1785 17.2656 9.48822C18.7308 8.78383 20.2593 8.43163 21.8512 8.43163ZM56.1481 8.8754L46.6599 32.5007H42.7717L33.3469 8.8754H37.6578L44.7158 27.7883L51.8161 8.8754H56.1481ZM77.5123 29.2887C75.3428 31.6273 72.5675 32.7966 69.1864 32.7966C65.8053 32.7966 63.023 31.6273 60.8394 29.2887C58.6698 26.936 57.5851 24.0269 57.5851 20.5613C57.5851 17.0957 58.6628 14.1865 60.8182 11.8338C62.9878 9.48118 65.7772 8.30484 69.1864 8.30484C72.5957 8.30484 75.378 9.48118 77.5335 11.8338C79.703 14.1865 80.7878 17.0957 80.7878 20.5613C80.7878 24.0269 79.696 26.936 77.5123 29.2887ZM63.6499 26.7318C65.0587 28.38 66.9042 29.2042 69.1864 29.2042C71.4687 29.2042 73.3071 28.38 74.7018 26.7318C76.0965 25.0694 76.7939 23.0126 76.7939 20.5613C76.7939 18.0818 76.0965 16.0109 74.7018 14.3485C73.3071 12.6862 71.4687 11.855 69.1864 11.855C66.9042 11.855 65.0587 12.6862 63.6499 14.3485C62.2552 16.0109 61.5578 18.0818 61.5578 20.5613C61.5578 23.0126 62.2552 25.0694 63.6499 26.7318ZM86.5356 4.92376C85.8735 4.92376 85.3029 4.69131 84.8239 4.22641C84.359 3.74742 84.1266 3.16278 84.1266 2.47247C84.1266 1.81034 84.359 1.23274 84.8239 0.739664C85.3029 0.246589 85.8735 5.19194e-05 86.5356 5.19194e-05C87.2259 5.19194e-05 87.8106 0.246589 88.2896 0.739664C88.7685 1.23274 89.008 1.81034 89.008 2.47247C89.008 3.16278 88.7685 3.74742 88.2896 4.22641C87.8106 4.69131 87.2259 4.92376 86.5356 4.92376ZM84.5915 8.70635H88.5854V32.5007H84.5915V8.70635ZM103.8 32.7543C100.518 32.7543 97.8411 31.5991 95.7702 29.2887C93.6993 26.9642 92.6638 24.041 92.6638 20.519C92.6638 16.997 93.6852 14.109 95.7279 11.855C97.7848 9.60092 100.476 8.4739 103.8 8.4739C106.829 8.4739 109.28 9.26986 111.154 10.8618C113.028 12.4537 114.106 14.3838 114.387 16.6519H110.753C110.527 15.2713 109.788 14.1231 108.534 13.2074C107.28 12.2776 105.801 11.8127 104.096 11.8127C101.786 11.8127 99.9543 12.6016 98.6019 14.1795C97.2494 15.7432 96.5732 17.8564 96.5732 20.519C96.5732 23.1957 97.2565 25.3371 98.623 26.9431C99.9895 28.535 101.828 29.331 104.138 29.331C105.787 29.331 107.203 28.8661 108.386 27.9363C109.569 26.9924 110.358 25.802 110.753 24.365H114.303C113.838 26.7036 112.711 28.69 110.922 30.3242C109.147 31.9443 106.773 32.7543 103.8 32.7543ZM138.478 20.4767C138.478 20.7303 138.449 21.2023 138.393 21.8926H120.579C120.663 24.2593 121.41 26.1189 122.819 27.4714C124.228 28.8097 125.841 29.493 127.658 29.5212C129.391 29.5493 130.828 29.1901 131.969 28.4434C133.11 27.6827 133.885 26.6684 134.293 25.4005H137.717C137.604 26.2035 137.336 27.0065 136.914 27.8095C136.491 28.5984 135.906 29.3873 135.16 30.1762C134.413 30.9511 133.399 31.5709 132.117 32.0358C130.849 32.4866 129.426 32.7121 127.848 32.7121C124.524 32.6839 121.84 31.5287 119.797 29.2464C117.768 26.9501 116.754 24.0832 116.754 20.6458C116.754 17.1238 117.74 14.2217 119.713 11.9395C121.699 9.65728 124.397 8.51616 127.806 8.51616C131.06 8.51616 133.652 9.61501 135.582 11.8127C137.513 14.0104 138.478 16.8984 138.478 20.4767ZM127.806 11.8127C125.763 11.8127 124.122 12.4537 122.882 13.7357C121.657 15.0177 120.917 16.7435 120.663 18.913H134.758C134.533 16.7435 133.821 15.0177 132.624 13.7357C131.427 12.4537 129.821 11.8127 127.806 11.8127ZM154.686 19.9485H169.837V22.5477H154.686V19.9485ZM193.477 32.5007C192.063 32.5007 190.794 32.2555 189.669 31.765C188.543 31.2745 187.649 30.5244 186.985 29.5146C186.351 28.5047 186.033 27.2208 186.033 25.6628C186.033 24.4222 186.509 22.8786 187.462 21.0321C188.414 19.1567 190.073 17.1804 192.438 15.103L193.261 17.44L190.318 14.8001L192.568 12.1168C194.069 13.2998 195.453 14.5693 196.723 15.9253C197.992 17.2813 199.017 18.7239 199.796 20.2531C200.575 21.7822 200.964 23.3979 200.964 25.1002C200.964 25.7638 200.849 26.514 200.618 27.3507C200.387 28.1874 199.998 29.0096 199.449 29.8175C198.901 30.5965 198.137 31.2457 197.156 31.765C196.175 32.2555 194.949 32.5007 193.477 32.5007ZM193.477 28.9519C194.458 28.9519 195.266 28.7933 195.901 28.4759C196.564 28.1297 197.055 27.6536 197.372 27.0477C197.718 26.4418 197.891 25.735 197.891 24.9271C197.891 24.2058 197.762 23.4557 197.502 22.6767C197.271 21.8688 196.781 21.0032 196.031 20.08C195.309 19.1279 194.198 18.0603 192.698 16.8774L194.602 16.7909C193.535 17.7141 192.612 18.6951 191.833 19.7338C191.054 20.7436 190.462 21.739 190.058 22.7199C189.654 23.672 189.452 24.5376 189.452 25.3166C189.452 26.5284 189.827 27.4372 190.578 28.0431C191.357 28.649 192.323 28.9519 193.477 28.9519ZM196.766 8.26511C196.16 8.26511 195.641 8.06315 195.208 7.65922C194.804 7.22644 194.602 6.72153 194.602 6.1445C194.602 5.56746 194.804 5.06255 195.208 4.62977C195.641 4.19699 196.16 3.9806 196.766 3.9806C197.343 3.9806 197.834 4.19699 198.238 4.62977C198.67 5.06255 198.887 5.56746 198.887 6.1445C198.887 6.72153 198.67 7.22644 198.238 7.65922C197.834 8.06315 197.343 8.26511 196.766 8.26511ZM190.837 8.26511C190.231 8.26511 189.712 8.06315 189.279 7.65922C188.875 7.22644 188.673 6.72153 188.673 6.1445C188.673 5.56746 188.875 5.06255 189.279 4.62977C189.712 4.19699 190.231 3.9806 190.837 3.9806C191.414 3.9806 191.905 4.19699 192.309 4.62977C192.741 5.06255 192.958 5.56746 192.958 6.1445C192.958 6.72153 192.741 7.22644 192.309 7.65922C191.905 8.06315 191.414 8.26511 190.837 8.26511ZM200.715 42.4546L199.46 39.1655C202.374 38.2423 204.61 37.1315 206.168 35.8331C207.755 34.5636 208.837 33.2365 209.414 31.8516C210.019 30.4667 210.322 29.1395 210.322 27.87C210.322 27.0621 210.236 26.2831 210.063 25.533C209.89 24.7828 209.587 23.9317 209.154 22.9796C208.721 22.0275 208.115 20.8446 207.336 19.4308L210.495 17.8295C211.592 19.7049 212.371 21.4793 212.833 23.1527C213.323 24.8261 213.568 26.2976 213.568 27.5671C213.568 29.3847 213.265 31.0293 212.659 32.5007C212.082 33.9722 211.303 35.2705 210.322 36.3957C209.37 37.5498 208.317 38.5308 207.163 39.3386C206.038 40.1465 204.898 40.8101 203.744 41.3294C202.619 41.8488 201.609 42.2238 200.715 42.4546ZM218.943 42.4546L218.164 38.9059C219.895 38.675 221.482 38.3432 222.924 37.9105C224.396 37.5065 225.651 36.9151 226.69 36.1361C227.757 35.3571 228.579 34.3328 229.156 33.0633C229.733 31.7939 230.022 30.207 230.022 28.3028C230.022 26.3408 229.661 24.7107 228.94 23.4124C228.219 22.114 227.281 21.4649 226.127 21.4649C225.521 21.4649 224.958 21.6957 224.439 22.1573C223.92 22.6189 223.487 23.2393 223.141 24.0183C222.823 24.7973 222.665 25.6484 222.665 26.5717C222.665 27.091 222.78 27.5238 223.011 27.87C223.242 28.1874 223.574 28.447 224.006 28.649C224.468 28.8221 225.045 28.9519 225.737 29.0385C226.43 29.1251 227.238 29.1683 228.161 29.1683H237.293C237.899 29.1683 238.331 29.3414 238.591 29.6877C238.879 30.005 239.024 30.3945 239.024 30.8562C239.024 31.3178 238.822 31.7506 238.418 32.1545C238.014 32.5296 237.495 32.7171 236.86 32.7171H226.516C225.218 32.7171 224.006 32.5296 222.881 32.1545C221.785 31.7794 220.89 31.2024 220.198 30.4234C219.534 29.6155 219.202 28.5624 219.202 27.2641C219.202 26.0523 219.39 24.8982 219.765 23.8019C220.14 22.6767 220.645 21.6813 221.28 20.8157C221.943 19.9213 222.708 19.2144 223.574 18.6951C224.468 18.1758 225.434 17.9161 226.473 17.9161C227.8 17.9161 228.983 18.3056 230.022 19.0846C231.061 19.8636 231.883 21.0465 232.489 22.6334C233.095 24.1914 233.398 26.1677 233.398 28.5624C233.398 31.2457 232.849 33.5538 231.753 35.4869C230.686 37.4488 229.07 39.0068 226.906 40.1609C224.771 41.315 222.117 42.0796 218.943 42.4546ZM236.846 32.7171L237.279 29.1683C238.981 29.1683 240.308 29.1106 241.26 28.9952C242.212 28.851 242.89 28.5192 243.294 27.9998C243.698 27.4516 243.9 26.6005 243.9 25.4464C243.9 24.7251 243.785 23.874 243.554 22.893C243.323 21.8832 243.02 20.8157 242.645 19.6905C242.27 18.5653 241.866 17.4545 241.433 16.3581L244.939 15.0597C245.314 15.983 245.66 17.0361 245.978 18.219C246.324 19.402 246.612 20.5705 246.843 21.7245C247.074 22.8786 247.189 23.8884 247.189 24.754C247.189 26.1966 246.987 27.4228 246.584 28.4326C246.208 29.4424 245.603 30.2647 244.766 30.8995C243.929 31.5342 242.847 31.9958 241.52 32.2843C240.222 32.5729 238.664 32.7171 236.846 32.7171ZM246.281 10.5588C245.675 10.5588 245.155 10.3569 244.723 9.95295C244.319 9.52017 244.117 9.01526 244.117 8.43822C244.117 7.86119 244.319 7.35628 244.723 6.9235C245.155 6.49072 245.675 6.27433 246.281 6.27433C246.858 6.27433 247.348 6.49072 247.752 6.9235C248.185 7.35628 248.401 7.86119 248.401 8.43822C248.401 9.01526 248.185 9.52017 247.752 9.95295C247.348 10.3569 246.858 10.5588 246.281 10.5588ZM240.351 10.5588C239.746 10.5588 239.226 10.3569 238.793 9.95295C238.39 9.52017 238.188 9.01526 238.188 8.43822C238.188 7.86119 238.39 7.35628 238.793 6.9235C239.226 6.49072 239.746 6.27433 240.351 6.27433C240.929 6.27433 241.419 6.49072 241.823 6.9235C242.256 7.35628 242.472 7.86119 242.472 8.43822C242.472 9.01526 242.256 9.52017 241.823 9.95295C241.419 10.3569 240.929 10.5588 240.351 10.5588ZM262.372 32.7171C260.064 32.7171 258.29 32.4575 257.049 31.9381C255.838 31.4188 255.001 30.6109 254.539 29.5146C254.078 28.4182 253.818 27.0044 253.76 25.2733L252.895 1.60032H256.443L257.309 23.8884C257.367 25.3022 257.497 26.3985 257.698 27.1776C257.929 27.9277 258.42 28.447 259.17 28.7356C259.949 29.0241 261.161 29.1683 262.805 29.1683C263.411 29.1683 263.844 29.3414 264.104 29.6877C264.392 30.005 264.536 30.3945 264.536 30.8562C264.536 31.3178 264.334 31.7506 263.93 32.1545C263.527 32.5296 263.007 32.7171 262.372 32.7171ZM262.373 32.7171L262.806 29.1683C263.527 29.1683 264.321 29.1683 265.186 29.1683C266.081 29.1395 266.975 29.1106 267.869 29.0818C268.793 29.0529 269.644 28.9952 270.423 28.9087C271.202 28.7933 271.851 28.649 272.37 28.4759C273.409 28.1008 274.217 27.6392 274.794 27.091C275.371 26.514 275.775 25.7638 276.006 24.8405C276.265 23.8884 276.395 22.6767 276.395 21.2052C276.395 19.9934 276.237 18.8682 275.919 17.8295C275.602 16.7909 275.155 15.9542 274.578 15.3194C274 14.6847 273.308 14.3673 272.5 14.3673C271.837 14.3673 271.231 14.627 270.683 15.1463C270.163 15.6368 269.745 16.2715 269.427 17.0505C269.139 17.8295 268.995 18.6085 268.995 19.3875C268.995 19.9934 269.11 20.5128 269.341 20.9455C269.601 21.3783 270.019 21.7245 270.596 21.9842C271.173 22.215 271.923 22.3304 272.846 22.3304C273.683 22.3304 274.52 22.2439 275.357 22.0708C276.222 21.8976 276.958 21.6668 277.564 21.3783L277.737 24.4078C277.275 24.7251 276.756 24.9848 276.179 25.1868C275.602 25.3887 274.996 25.533 274.361 25.6195C273.726 25.7061 273.092 25.7494 272.457 25.7494C270.985 25.7494 269.73 25.5186 268.692 25.0569C267.682 24.5665 266.903 23.9173 266.355 23.1094C265.835 22.2727 265.576 21.3206 265.576 20.2531C265.576 19.1567 265.749 18.0603 266.095 16.964C266.441 15.8387 266.932 14.8145 267.567 13.8912C268.201 12.968 268.966 12.2323 269.86 11.6841C270.755 11.107 271.75 10.8185 272.846 10.8185C274.404 10.8185 275.688 11.3234 276.698 12.3332C277.737 13.3431 278.501 14.6702 278.992 16.3148C279.511 17.9305 279.771 19.6472 279.771 21.4649C279.771 23.6288 279.396 25.4897 278.646 27.0477C277.924 28.5769 276.713 29.8464 275.01 30.8562C274.347 31.2312 273.539 31.5486 272.587 31.8083C271.663 32.0391 270.639 32.2266 269.514 32.3709C268.418 32.5152 267.264 32.6017 266.052 32.6306C264.84 32.6883 263.614 32.7171 262.373 32.7171ZM272.024 6.36089C271.418 6.36089 270.899 6.15892 270.466 5.755C270.062 5.32222 269.86 4.81731 269.86 4.24027C269.86 3.66323 270.062 3.15832 270.466 2.72554C270.899 2.29277 271.418 2.07638 272.024 2.07638C272.601 2.07638 273.092 2.29277 273.496 2.72554C273.928 3.15832 274.145 3.66323 274.145 4.24027C274.145 4.81731 273.928 5.32222 273.496 5.755C273.092 6.15892 272.601 6.36089 272.024 6.36089Z" fill="#A5812C"/>
</svg>
