<svg width="1329" height="1212" viewBox="0 0 1329 1212" fill="none" xmlns="http://www.w3.org/2000/svg">
<g opacity="0.1">
<path d="M1302.84 476.573L1203.03 171.536C1210.6 167.163 1215.71 158.991 1215.71 149.577C1215.71 135.521 1204.31 124.122 1190.29 124.122C1178.95 124.122 1169.37 131.52 1166.08 141.741C1152.09 135.857 1132.48 128.928 1108.37 124.691C1082.48 120.118 1063.11 120.655 1031.4 121.733C1011.66 122.371 1010.98 123.112 935.322 129.601C896.08 132.964 882.157 133.974 863.292 134.543C854.851 134.812 832.959 135.417 809.32 134.543C780.872 133.501 740.552 129.934 691.222 118.739C690.585 111.677 690.585 101.321 694.517 89.8182C695.659 86.4878 696.601 84.5039 697.138 83.229C700.469 75.261 700.669 61.3053 686.309 35.2096L665.259 0V61.5059C669.631 63.2535 672.321 67.626 671.816 72.0308C671.411 75.6979 668.858 78.8922 665.259 80.271L662.971 80.7079V80.6076C659.372 79.2289 656.818 76.0345 656.414 72.3674C655.909 67.9626 658.598 63.5901 662.971 61.8425V0.336632L641.921 35.5463C627.56 61.6419 627.764 75.5976 631.091 83.5656C631.629 84.8441 632.57 86.828 633.713 90.1585C637.648 101.657 637.648 112.018 637.007 119.08C587.674 130.278 547.357 133.841 518.909 134.883C495.27 135.757 473.379 135.152 464.938 134.883C446.072 134.31 432.153 133.304 392.907 129.941C317.245 123.452 316.572 122.711 296.832 122.073C265.122 120.999 245.751 120.458 219.86 125.031C195.748 129.268 176.145 136.197 162.153 142.081C158.859 131.857 149.276 124.462 137.941 124.462C123.918 124.462 112.519 135.861 112.519 149.917C112.519 159.332 117.629 167.504 125.196 171.876L25.3902 476.913H0C0.605211 486.296 4.77364 536.03 47.3819 572.952C54.2075 578.871 88.5076 607.42 139.825 606.51C147.424 606.374 180.883 605.164 214.513 582.836C267.611 547.526 277.903 488.24 279.614 476.909H250.561L150.755 171.873C158.322 167.468 163.4 159.296 163.4 149.913C163.4 147.324 162.995 144.835 162.29 142.482C173.857 139.152 189.596 135.453 208.361 133.236C221.98 131.657 243.334 130.142 283.049 133.909C312.102 136.634 324.242 139.693 365.941 146.722C406.293 153.548 431.483 157.784 462.653 161.215C495.775 164.814 530.648 168.478 575.473 166.125C603.352 164.678 627.159 161.315 645.52 157.989L655.776 157.147C655.944 166.093 656.449 175.912 657.355 180.854C659.103 190.237 662.197 198.273 670.942 215.054C683.72 239.602 686.04 239.57 690.244 249.59C694.144 259.005 700.669 276.696 696.164 297.072C694.517 304.571 691.892 309.95 689.575 314.391C670.641 350.943 648.145 374.919 648.145 374.919C619.023 405.957 596.326 427.579 576.418 447.082C541.581 481.214 524.162 498.264 514.239 510.909C504.52 523.317 479.198 557.449 461.274 607.957C451.691 635.027 434.878 684.088 442.208 747.983C447.723 796.271 464.906 834.238 479.703 859.592C490.597 858.282 501.494 856.971 512.388 855.657C496.011 831.917 471.33 788.267 467.964 730.665C467.326 719.567 466.889 698.248 471.899 672.084C479.03 635.027 492.781 610.951 514.035 573.725C529.738 546.151 546.083 517.971 575.541 487.538C593.701 468.809 594.306 472.44 615.993 451.018C635.296 431.984 662.466 404.746 684.088 364.19C694.277 345.088 707.158 315.734 714.016 276.692C725.114 286.712 741.895 301.341 763.382 317.786C785.409 334.699 796.672 341.493 813.722 354.002C848.326 379.324 871.997 402.626 884.778 415.171C923.988 453.743 947.122 476.508 966.36 514.844C992.993 568.01 994.203 615.46 994.304 626.69C994.672 667.748 984.452 697.98 976.885 719.807C971.975 733.862 947.126 802.394 880.173 865.852C834.911 908.729 787.966 932.705 754.508 946.119C788.135 938.552 841.4 921.875 894.97 881.992C907.748 872.441 929.138 856.333 950.893 830.005C1010.01 758.511 1017.34 677.907 1018.65 657.631C1023.66 580.891 997.602 524.162 981.795 490.836C943.527 410.064 886.193 361.103 851.556 336.218C835.011 322.294 809.557 301.312 777.205 276.696C751.815 257.361 743.005 251.642 730.496 240.175C714.32 225.414 689.202 202.312 669.295 156.073C671.794 155.872 674.294 156.023 676.754 156.502C695.809 160.209 721.755 164.184 752.76 165.792C797.585 168.145 832.458 164.481 865.58 160.882C896.754 157.451 921.94 153.215 962.292 146.389C1003.99 139.36 1016.13 136.301 1045.18 133.576C1084.9 129.809 1106.25 131.324 1119.87 132.903C1138.64 135.123 1154.37 138.822 1165.94 142.149C1165.24 144.502 1164.83 146.991 1164.83 149.58C1164.83 158.963 1169.91 167.135 1177.48 171.54L1077.67 476.576H1048.62C1050.33 487.911 1060.62 547.193 1113.72 582.503C1147.35 604.831 1180.81 606.041 1188.41 606.177C1239.72 607.083 1274.03 578.535 1280.85 572.619C1323.46 535.697 1327.63 485.959 1328.23 476.58H1302.84L1302.84 476.573ZM243.47 476.909H32.4558L131.42 174.462C133.504 175.035 135.693 175.336 137.945 175.336C140.233 175.336 142.418 175.035 144.538 174.462L243.47 476.909ZM1084.76 476.573L1183.7 174.125C1185.82 174.698 1188 174.999 1190.28 174.999C1192.54 174.999 1194.72 174.695 1196.81 174.125L1295.77 476.573H1084.76H1084.76Z" fill="#A5812C"/>
<path d="M245.313 692.043C223.819 739.195 251.236 747.966 251.236 747.966C251.236 747.966 264.175 740.51 260.447 720.989C258.316 714.511 257.07 708.86 253.621 702.979C251.444 699.266 248.228 695.212 245.313 692.043Z" fill="#A5812C"/>
<path d="M290.48 727.424C242.443 746.859 256.306 772.085 256.306 772.085C256.306 772.085 270.827 775.576 281.549 758.845C284.46 752.678 287.444 747.722 288.987 741.079C289.961 736.882 290.416 731.732 290.484 727.428L290.48 727.424Z" fill="#A5812C"/>
<path d="M210.5 731.619C260.65 744.669 250.172 771.477 250.172 771.477C250.172 771.477 236.227 776.82 223.428 761.618C219.743 755.882 216.144 751.351 213.752 744.963C212.24 740.93 211.123 735.881 210.5 731.619Z" fill="#A5812C"/>
<path d="M293.768 759.918C248.22 784.628 264.826 808.135 264.826 808.135C264.826 808.135 279.648 809.972 288.422 792.141C290.624 785.688 293.027 780.424 293.815 773.652C294.313 769.373 294.187 764.205 293.768 759.918Z" fill="#A5812C"/>
<path d="M214.764 773.075C266.06 780.405 258.665 808.223 258.665 808.223C258.665 808.223 245.407 815.099 230.983 801.43C226.674 796.144 222.588 792.047 219.498 785.967C217.546 782.128 215.867 777.236 214.767 773.071L214.764 773.075Z" fill="#A5812C"/>
<path d="M302.87 790.474C259.395 818.675 277.794 840.81 277.794 840.81C277.794 840.81 292.713 841.48 300.066 823.019C301.752 816.412 303.74 810.98 303.994 804.165C304.155 799.86 303.625 794.718 302.873 790.478L302.87 790.474Z" fill="#A5812C"/>
<path d="M225.137 809.775C276.852 813.066 271.656 841.375 271.656 841.375C271.656 841.375 258.978 849.268 243.526 836.774C238.817 831.839 234.423 828.075 230.863 822.259C228.614 818.585 226.558 813.84 225.137 809.775Z" fill="#A5812C"/>
<path d="M311.892 819.021C275.024 855.437 297.525 873.389 297.525 873.389C297.525 873.389 312.272 871.026 315.731 851.458C316.046 844.647 316.891 838.924 315.763 832.199C315.051 827.952 313.489 823.021 311.892 819.021Z" fill="#A5812C"/>
<path d="M239.677 853.661C290.988 846.416 291.629 875.194 291.629 875.194C291.629 875.194 280.81 885.49 263.148 876.379C257.54 872.501 252.473 869.704 247.81 864.726C244.866 861.582 241.894 857.353 239.677 853.661Z" fill="#A5812C"/>
<path d="M327.259 848.303C293.306 887.448 317.117 903.617 317.117 903.617C317.117 903.617 331.638 900.125 333.583 880.35C333.375 873.535 333.776 867.763 332.132 861.145C331.094 856.965 329.16 852.17 327.259 848.303Z" fill="#A5812C"/>
<path d="M257.926 888.392C308.527 877.222 311.381 905.861 311.381 905.861C311.381 905.861 301.386 916.958 283.076 909.234C277.185 905.8 271.921 903.4 266.889 898.799C263.709 895.891 260.418 891.905 257.926 888.392Z" fill="#A5812C"/>
<path d="M345.533 875.627C316.64 918.644 342.256 931.769 342.256 931.769C342.256 931.769 356.237 926.522 355.742 906.658C354.697 899.918 354.389 894.142 351.943 887.775C350.399 883.753 347.889 879.234 345.533 875.627Z" fill="#A5812C"/>
<path d="M281.643 923.931C330.489 906.634 336.839 934.706 336.839 934.706C336.839 934.706 328.283 946.947 309.164 941.528C302.897 938.842 297.374 937.109 291.817 933.156C288.307 930.66 284.55 927.107 281.646 923.927L281.643 923.931Z" fill="#A5812C"/>
<path d="M367.696 895.8C343.545 941.645 370.41 951.97 370.41 951.97C370.41 951.97 383.753 945.266 381.146 925.566C379.392 918.977 378.468 913.265 375.359 907.195C373.397 903.36 370.424 899.134 367.696 895.8Z" fill="#A5812C"/>
<path d="M310.082 954.457C355.473 929.461 366.295 956.133 366.295 956.133C366.295 956.133 359.838 969.598 340.092 967.357C333.47 965.724 327.744 964.907 321.617 961.913C317.749 960.022 313.463 957.125 310.082 954.457Z" fill="#A5812C"/>
<path d="M390.533 918.755C369.727 966.212 397.265 974.588 397.265 974.588C397.265 974.588 410.097 966.946 406.086 947.483C403.862 941.037 402.533 935.404 398.999 929.573C396.768 925.888 393.495 921.885 390.537 918.758L390.533 918.755Z" fill="#A5812C"/>
<path d="M336.824 979.094C381.477 952.798 393.062 979.148 393.062 979.148C393.062 979.148 386.996 992.796 367.196 991.123C360.531 989.68 354.78 989.032 348.57 986.214C344.649 984.434 340.284 981.662 336.824 979.094Z" fill="#A5812C"/>
<path d="M417.212 933.796C398.038 981.937 425.846 989.364 425.846 989.364C425.846 989.364 438.409 981.289 433.735 961.972C431.293 955.605 429.774 950.022 426.043 944.314C423.686 940.708 420.281 936.819 417.215 933.792L417.212 933.796Z" fill="#A5812C"/>
<path d="M369.562 1003.13C410.402 971.229 425.324 995.842 425.324 995.842C425.324 995.842 421.091 1010.16 401.241 1011.09C394.444 1010.53 388.661 1010.64 382.136 1008.66C378.014 1007.4 373.326 1005.22 369.562 1003.13V1003.13Z" fill="#A5812C"/>
<path d="M438.487 948.282C429.61 999.334 458.348 1000.9 458.348 1000.9C458.348 1000.9 468.984 990.41 460.443 972.469C456.747 966.739 454.112 961.586 449.288 956.769C446.24 953.725 442.108 950.617 438.487 948.285V948.282Z" fill="#A5812C"/>
<path d="M405.342 1023.8C439.606 984.924 458.808 1006.36 458.808 1006.36C458.808 1006.36 457.286 1021.22 437.948 1025.79C431.165 1026.49 425.5 1027.66 418.721 1026.91C414.441 1026.44 409.428 1025.17 405.345 1023.8H405.342Z" fill="#A5812C"/>
<path d="M467.192 957.572C460.538 1008.96 489.32 1009.27 489.32 1009.27C489.32 1009.27 499.49 998.336 490.179 980.782C486.236 975.217 483.382 970.185 478.351 965.58C475.174 962.672 470.913 959.746 467.192 957.572Z" fill="#A5812C"/>
<path d="M441.127 1037.98C470.961 995.613 492.38 1014.84 492.38 1014.84C492.38 1014.84 492.484 1029.77 473.755 1036.41C467.087 1037.85 461.582 1039.63 454.764 1039.62C450.456 1039.62 445.338 1038.89 441.127 1037.98V1037.98Z" fill="#A5812C"/>
<path d="M494.959 965.867C495.604 1017.68 524.142 1013.94 524.142 1013.94C524.142 1013.94 532.672 1001.68 520.983 985.609C516.295 980.657 512.761 976.076 507.135 972.223C503.582 969.792 498.948 967.493 494.959 965.867Z" fill="#A5812C"/>
<path d="M476.908 1051.31C498.083 1004.01 522.786 1018.79 522.786 1018.79C522.786 1018.79 525.744 1033.43 508.633 1043.53C502.363 1046.21 497.303 1049.01 490.606 1050.31C486.377 1051.13 481.213 1051.4 476.908 1051.31Z" fill="#A5812C"/>
<path d="M524.275 967.207C529.647 1018.75 557.723 1012.42 557.723 1012.42C557.723 1012.42 565.096 999.43 551.989 984.493C546.872 979.988 542.933 975.748 536.977 972.428C533.217 970.33 528.393 968.464 524.271 967.211L524.275 967.207Z" fill="#A5812C"/>
<path d="M515.857 1053.12C531.715 1003.79 557.889 1015.76 557.889 1015.76C557.889 1015.76 562.437 1029.99 546.537 1041.91C540.599 1045.26 535.876 1048.6 529.362 1050.63C525.251 1051.91 520.148 1052.74 515.857 1053.12Z" fill="#A5812C"/>
<path d="M1057.61 691.713C1079.11 738.866 1051.69 747.636 1051.69 747.636C1051.69 747.636 1038.75 740.18 1042.48 720.659C1044.61 714.181 1045.85 708.53 1049.3 702.65C1051.48 698.936 1054.69 694.882 1057.61 691.713H1057.61Z" fill="#A5812C"/>
<path d="M1012.44 727.094C1060.48 746.529 1046.62 771.754 1046.62 771.754C1046.62 771.754 1032.09 775.246 1021.37 758.515C1018.46 752.348 1015.48 747.392 1013.93 740.749C1012.96 736.552 1012.51 731.402 1012.44 727.098L1012.44 727.094Z" fill="#A5812C"/>
<path d="M1092.42 731.292C1042.27 744.342 1052.75 771.15 1052.75 771.15C1052.75 771.15 1066.7 776.493 1079.5 761.292C1083.18 755.555 1086.78 751.024 1089.17 744.636C1090.68 740.603 1091.8 735.554 1092.42 731.292Z" fill="#A5812C"/>
<path d="M1009.16 759.591C1054.71 784.301 1038.1 807.807 1038.1 807.807C1038.1 807.807 1023.28 809.644 1014.51 791.814C1012.31 785.361 1009.9 780.096 1009.11 773.324C1008.62 769.045 1008.74 763.877 1009.16 759.591Z" fill="#A5812C"/>
<path d="M1088.16 772.744C1036.86 780.074 1044.26 807.893 1044.26 807.893C1044.26 807.893 1057.52 814.768 1071.94 801.099C1076.25 795.813 1080.34 791.717 1083.43 785.636C1085.38 781.797 1087.06 776.905 1088.16 772.74L1088.16 772.744Z" fill="#A5812C"/>
<path d="M1000.05 790.144C1043.52 818.345 1025.12 840.48 1025.12 840.48C1025.12 840.48 1010.21 841.15 1002.85 822.689C1001.17 816.082 999.18 810.65 998.925 803.835C998.764 799.53 999.294 794.388 1000.05 790.148L1000.05 790.144Z" fill="#A5812C"/>
<path d="M1077.78 809.446C1026.07 812.737 1031.26 841.045 1031.26 841.045C1031.26 841.045 1043.94 848.938 1059.39 836.444C1064.1 831.509 1068.5 827.745 1072.06 821.929C1074.31 818.255 1076.36 813.51 1077.78 809.446Z" fill="#A5812C"/>
<path d="M991.035 818.69C1027.9 855.107 1005.4 873.059 1005.4 873.059C1005.4 873.059 990.656 870.695 987.197 851.128C986.881 844.317 986.036 838.594 987.164 831.869C987.877 827.622 989.438 822.691 991.035 818.69Z" fill="#A5812C"/>
<path d="M1063.25 853.331C1011.94 846.086 1011.3 874.864 1011.3 874.864C1011.3 874.864 1022.12 885.16 1039.78 876.049C1045.39 872.171 1050.45 869.374 1055.12 864.396C1058.06 861.252 1061.04 857.023 1063.25 853.331H1063.25Z" fill="#A5812C"/>
<path d="M975.664 847.975C1009.62 887.12 985.806 903.289 985.806 903.289C985.806 903.289 971.284 899.798 969.34 880.023C969.548 873.208 969.147 867.435 970.79 860.817C971.829 856.638 973.763 851.843 975.664 847.975Z" fill="#A5812C"/>
<path d="M1045 888.061C994.397 876.891 991.543 905.53 991.543 905.53C991.543 905.53 1001.54 916.628 1019.85 908.903C1025.74 905.469 1031 903.069 1036.03 898.468C1039.21 895.56 1042.51 891.574 1045 888.061Z" fill="#A5812C"/>
<path d="M957.396 875.301C986.289 918.317 960.673 931.442 960.673 931.442C960.673 931.442 946.692 926.196 947.187 906.331C948.232 899.592 948.54 893.815 950.986 887.448C952.53 883.426 955.04 878.907 957.396 875.301Z" fill="#A5812C"/>
<path d="M1021.28 923.601C972.435 906.304 966.086 934.376 966.086 934.376C966.086 934.376 974.641 946.617 993.761 941.198C1000.03 938.513 1005.55 936.779 1011.11 932.826C1014.62 930.33 1018.37 926.777 1021.28 923.597L1021.28 923.601Z" fill="#A5812C"/>
<path d="M935.224 895.474C959.375 941.319 932.51 951.644 932.51 951.644C932.51 951.644 919.166 944.94 921.773 925.24C923.528 918.651 924.452 912.939 927.56 906.869C929.523 903.033 932.499 898.808 935.228 895.474H935.224Z" fill="#A5812C"/>
<path d="M992.834 954.131C947.443 929.135 936.621 955.807 936.621 955.807C936.621 955.807 943.078 969.272 962.824 967.03C969.446 965.397 975.172 964.581 981.299 961.587C985.167 959.696 989.453 956.799 992.834 954.131Z" fill="#A5812C"/>
<path d="M912.394 918.425C933.2 965.882 905.661 974.259 905.661 974.259C905.661 974.259 892.83 966.617 896.841 947.153C899.065 940.707 900.394 935.074 903.928 929.244C906.159 925.559 909.432 921.555 912.39 918.429L912.394 918.425Z" fill="#A5812C"/>
<path d="M966.101 978.768C921.448 952.472 909.863 978.822 909.863 978.822C909.863 978.822 915.93 992.469 935.73 990.797C942.394 989.354 948.145 988.705 954.355 985.887C958.276 984.107 962.642 981.335 966.101 978.768Z" fill="#A5812C"/>
<path d="M885.712 933.469C904.885 981.611 877.078 989.038 877.078 989.038C877.078 989.038 864.515 980.962 869.188 961.646C871.631 955.279 873.149 949.696 876.881 943.987C879.237 940.381 882.643 936.492 885.708 933.466L885.712 933.469Z" fill="#A5812C"/>
<path d="M933.363 1002.8C892.524 970.899 877.602 995.512 877.602 995.512C877.602 995.512 881.834 1009.83 901.685 1010.76C908.482 1010.2 914.265 1010.31 920.79 1008.33C924.912 1007.07 929.599 1004.89 933.363 1002.8Z" fill="#A5812C"/>
<path d="M864.438 947.955C873.315 999.008 844.577 1000.57 844.577 1000.57C844.577 1000.57 833.941 990.083 842.482 972.142C846.178 966.412 848.813 961.259 853.637 956.442C856.685 953.398 860.817 950.286 864.438 947.955Z" fill="#A5812C"/>
<path d="M897.583 1023.47C863.319 984.594 844.117 1006.03 844.117 1006.03C844.117 1006.03 845.639 1020.89 864.977 1025.46C871.76 1026.16 877.425 1027.33 884.204 1026.58C888.484 1026.11 893.501 1024.84 897.583 1023.47Z" fill="#A5812C"/>
<path d="M835.726 957.246C842.38 1008.64 813.599 1008.95 813.599 1008.95C813.599 1008.95 803.428 998.01 812.739 980.455C816.682 974.89 819.536 969.859 824.568 965.253C827.744 962.346 832.006 959.42 835.726 957.246Z" fill="#A5812C"/>
<path d="M861.796 1037.65C831.962 995.284 810.543 1014.51 810.543 1014.51C810.543 1014.51 810.439 1029.44 829.168 1036.08C835.836 1037.52 841.341 1039.3 848.159 1039.29C852.467 1039.29 857.585 1038.57 861.796 1037.65V1037.65Z" fill="#A5812C"/>
<path d="M807.964 965.537C807.319 1017.35 778.781 1013.61 778.781 1013.61C778.781 1013.61 770.251 1001.35 781.94 985.279C786.628 980.327 790.162 975.747 795.788 971.893C799.341 969.462 803.975 967.162 807.964 965.537Z" fill="#A5812C"/>
<path d="M826.013 1050.98C804.837 1003.68 780.135 1018.46 780.135 1018.46C780.135 1018.46 777.177 1033.1 794.287 1043.2C800.558 1045.88 805.618 1048.68 812.315 1049.98C816.544 1050.8 821.708 1051.07 826.013 1050.98Z" fill="#A5812C"/>
<path d="M778.647 966.877C773.276 1018.42 745.2 1012.09 745.2 1012.09C745.2 1012.09 737.826 999.1 750.933 984.163C756.05 979.658 759.99 975.418 765.945 972.098C769.705 970 774.529 968.134 778.651 966.88L778.647 966.877Z" fill="#A5812C"/>
<path d="M787.068 1052.8C771.21 1003.47 745.036 1015.44 745.036 1015.44C745.036 1015.44 740.488 1029.66 756.388 1041.58C762.326 1044.94 767.049 1048.28 773.563 1050.3C777.674 1051.58 782.777 1052.42 787.068 1052.8Z" fill="#A5812C"/>
<path d="M544.941 304.2C560.02 304.2 572.244 291.976 572.244 276.897C572.244 261.819 560.02 249.595 544.941 249.595C529.862 249.595 517.639 261.819 517.639 276.897C517.639 291.976 529.862 304.2 544.941 304.2Z" fill="#A5812C"/>
<path d="M601.308 249.591C599.231 250.386 585.419 255.421 572.251 247.836C569.741 246.393 561.533 241.494 558.543 231.388C555.527 221.193 559.227 210.424 565.78 203.756C577.107 192.229 596.972 192.927 607.232 202.112C614.784 208.874 615.432 218.722 616.113 229.089C617.395 248.596 611.404 263.586 605.914 276.897C602.866 284.292 595.267 301.292 579.925 320.87C570.525 332.863 563.807 338.693 544.945 356.398C529.697 370.712 514.917 385.52 499.658 399.823C470.54 427.115 435.728 459.742 405.245 499.171C383.347 527.494 358.268 559.932 341.755 610.031C333.866 633.964 321.458 673.099 329.254 722.21C334.618 756.002 347.066 778.857 349.978 784.056C356.592 795.867 372.668 823.789 405.245 843.836C415.616 850.218 458.833 875.905 512.489 863.339C546.893 855.281 568.337 835.535 578.611 825.837C589.022 816.011 615.891 789.926 623.68 747.214C627.289 727.424 625.603 710.636 623.68 699.843C619.905 703.323 611.06 710.514 597.691 713C592.785 713.913 581.136 716.079 570.389 710.367C559.52 704.595 555.706 694.03 550.32 679.115C542.914 658.602 543.72 642.978 544.727 623.518C545.138 615.582 545.951 609.598 549.991 603.779C550.754 602.679 557.543 593.215 569.401 591.607C581.455 589.97 590.626 597.551 597.362 603.12C610.053 613.609 615.439 626.848 617.757 634.372C621.492 630.781 626.892 625.087 632.231 617.265C637.653 609.33 638.438 605.892 645.063 592.591C656.003 570.621 663.051 561.525 667.434 556.404C673.285 549.568 678.292 545.256 685.2 543.247C687.785 542.495 694.676 540.49 700.66 543.906C704.445 546.065 706.368 549.535 708.556 554.76C715.138 570.482 716.452 583.051 716.452 583.051C717.373 591.85 717.77 605.398 714.15 621.871C713.992 620.943 711.815 608.982 703.295 606.411C701.053 605.734 698.317 605.691 694.414 607.07C683.484 610.927 677.225 621.04 673.361 627.464C663.756 643.426 656.189 656.421 650.004 667.269C649.174 670.853 647.2 676.841 642.108 682.073C640.672 683.548 639.207 684.737 637.832 685.69C646.316 730.941 643.444 767.039 639.805 789.972C637.431 804.945 635.035 819.416 627.304 837.344C622.147 849.304 606.97 883.221 569.734 907.412C539.212 927.241 509.904 930.12 504.271 930.6C451.503 935.126 412.422 906.688 397.449 895.795C349.168 860.664 331.725 812.709 321.3 784.049C316.491 770.828 299.122 720.008 305.905 652.79C312.809 584.373 340.903 536.98 352.288 518.244C378.15 475.689 408.862 447.051 445.057 413.302C479.02 381.634 505.914 359.353 505.914 359.353C536.078 334.363 550.463 324.927 567.76 304.196C585.046 283.479 595.324 263.368 601.316 249.587L601.308 249.591Z" fill="#A5812C"/>
<path d="M914.709 502.027C910.104 500.412 902.806 500.784 895.944 502.664C888.413 504.749 882.762 508.717 875.231 515.847C867.7 522.909 857.239 534.139 846.951 550.551C834.137 524.219 821.124 505.021 811.408 492.14C810.198 490.524 811.14 491.803 791.332 466.481C774.215 444.557 765.541 433.391 760.427 422.394C757.064 415.231 752.559 405.312 750.876 391.488C748.824 374.439 752.187 360.451 754.812 352.347C748.355 360.483 739.445 374.238 735.409 393.136C730.399 416.71 735.646 436.281 737.73 443.78C739.581 450.437 740.419 450.978 745.634 466.144C750.511 480.436 753.974 492.272 756.158 500.04C760.463 510.833 765.946 528.355 766.347 550.548C766.751 574.355 761.1 593.188 756.796 604.318C762.547 597.761 769.777 587.842 774.888 574.391C785.613 546.311 780.267 521.057 777.509 510.901C783.024 516.953 811.508 548.732 825.564 577.99C832.089 591.641 834.005 601.665 834.442 603.985C836.394 614.779 835.516 621.067 835.753 630.955C835.989 640.538 837.267 654.293 842.345 671.275C837.404 676.116 830.846 681.767 822.438 687.046C812.855 693.098 803.877 696.865 796.779 699.218C795.501 678.437 785.244 661.724 771.12 657.452C767.185 656.273 759.954 655.199 752.524 658.125C739.71 663.135 735.51 676.081 734.937 678C731.979 690.677 732.179 719.799 743.478 742.664C746.303 748.348 749.093 752.248 752.692 755.646C768.599 770.712 791.264 767.417 794.964 766.844C792.51 784.632 784.439 824.819 752.692 861.741C744.824 870.887 720.576 898.393 679.82 912.553C671.411 915.447 663.78 917.327 657.455 918.537C648.982 920.117 642.927 920.521 640.674 920.621C612.09 922.201 589.525 914.233 577.184 908.786C572.139 912.618 566.355 916.621 559.798 920.453C557.008 922.1 554.215 923.615 551.526 924.994C544.295 928.726 537.502 931.583 531.35 933.804C540.8 944.465 560.335 963.498 591.208 974.593C610.041 981.35 626.887 982.933 638.758 983.033V989.927C639.263 991.105 639.869 992.921 639.564 995.037C639.396 996.348 638.991 996.853 638.927 997.995C638.758 1000.35 640.338 1001.93 641.215 1003.41C641.684 1004.18 642.762 1006.27 641.215 1017.23C640.61 1021.57 640.305 1023.75 639.399 1027.25C637.953 1033.03 636.173 1042.85 634.794 1060.48H680.056C678.709 1042.86 676.93 1033.04 675.451 1027.25C674.577 1023.75 674.272 1021.57 673.667 1017.23C672.088 1006.27 673.198 1004.18 673.667 1003.41C674.541 1001.93 676.124 1000.35 675.956 997.995C675.887 996.853 675.486 996.348 675.318 995.037C675.017 992.917 675.587 991.102 676.124 989.927V983.033H676.998L677.635 980.713C693.843 977.081 717.686 965.883 741.999 946.108C750.407 939.283 757.433 932.12 763.353 924.99C777.441 908.077 785.277 891.564 790.018 881.308C791.196 878.751 796.206 867.789 800.88 852.018C806.595 832.716 813.152 801.71 810.43 761.222C825.26 754.733 836.39 747.803 843.653 742.829C870.722 724.2 887.536 702.71 907.78 676.349C918.441 662.53 923.315 655.332 927.218 649.38C951.967 611.549 951.294 514.837 914.709 502.023V502.027ZM921.367 575.369C911.178 606.306 851.624 662.229 851.624 662.229C845.235 624.398 871.7 594.202 871.7 594.202C895.106 564.138 917.434 567.164 917.434 567.164C925.607 568.038 921.367 575.369 921.367 575.369Z" fill="#A5812C"/>
<path d="M676.993 983.039L676.119 986.301V983.039H676.993Z" fill="#A5812C"/>
<path d="M564.63 396.535C566.281 398.784 570.864 405.678 569.565 414.298C569.385 415.483 567.992 424.726 562.657 425.976C558.223 427.014 553.306 422.004 550.978 418.244C544.024 407.014 550.581 391.479 553.446 384.689C556.758 376.839 560.977 371.127 563.974 367.582C561.861 373.082 554.771 392.087 554.599 403.934C554.56 406.627 554.549 411.622 557.561 413.474C558.703 414.176 560.297 414.434 561.507 413.968C564.852 412.682 566.019 405.628 564.633 396.532L564.63 396.535Z" fill="#A5812C"/>
<path d="M657.827 285.562C659.478 287.811 664.062 294.705 662.762 303.324C662.583 304.51 661.19 313.753 655.854 315.003C651.42 316.041 646.503 311.031 644.176 307.271C637.221 296.04 643.778 280.505 646.643 273.716C649.956 265.866 654.174 260.154 657.172 256.609C655.059 262.109 647.968 281.114 647.796 292.961C647.757 295.654 647.746 300.649 650.758 302.501C651.9 303.203 653.494 303.461 654.704 302.995C658.049 301.709 659.216 294.655 657.831 285.558L657.827 285.562Z" fill="#A5812C"/>
<path d="M476.252 493.321C477.71 495.999 481.674 504.128 479.006 513.278C478.641 514.539 475.783 524.344 469.824 524.917C464.871 525.393 460.277 519.255 458.304 514.843C452.409 501.665 461.774 485.8 465.867 478.864C470.598 470.845 475.998 465.277 479.762 461.871C476.675 467.519 466.222 487.068 464.309 499.87C463.876 502.782 463.135 508.189 466.125 510.635C467.26 511.563 468.947 512.075 470.329 511.745C474.136 510.839 476.428 503.373 476.252 493.321Z" fill="#A5812C"/>
<path d="M403.119 747.565C405.561 750.305 412.423 758.749 411.8 770.198C411.714 771.774 411.048 784.046 404.218 786.349C398.546 788.261 391.484 782.324 387.967 777.693C377.457 763.863 384.096 742.713 386.997 733.47C390.352 722.78 395.154 714.78 398.632 709.763C396.555 717.226 389.654 742.988 390.911 758.513C391.197 762.044 391.81 768.583 395.978 770.628C397.561 771.405 399.677 771.541 401.207 770.778C405.422 768.676 406.066 759.3 403.115 747.569L403.119 747.565Z" fill="#A5812C"/>
<path d="M518.429 682.105C520.477 684.404 526.236 691.487 525.713 701.092C525.641 702.414 525.079 712.709 519.353 714.639C514.593 716.244 508.67 711.262 505.719 707.377C496.903 695.774 502.471 678.03 504.907 670.273C507.721 661.306 511.75 654.591 514.669 650.383C512.928 656.643 507.138 678.259 508.19 691.283C508.43 694.245 508.942 699.731 512.445 701.447C513.773 702.098 515.55 702.213 516.832 701.576C520.366 699.814 520.911 691.946 518.432 682.101L518.429 682.105Z" fill="#A5812C"/>
<path d="M699.594 455.48C701.743 458.048 707.759 465.948 706.864 476.369C706.742 477.805 705.779 488.975 699.487 490.88C694.258 492.463 687.988 486.844 684.911 482.518C675.722 469.604 682.383 450.506 685.295 442.155C688.661 432.504 693.27 425.341 696.586 420.869C694.48 427.615 687.447 450.914 688.149 465.106C688.31 468.333 688.679 474.317 692.425 476.301C693.846 477.057 695.773 477.243 697.188 476.587C701.091 474.79 701.951 466.259 699.594 455.473V455.48Z" fill="#A5812C"/>
<path d="M787.664 619.399C786.031 617.698 781.418 612.437 781.544 605.071C781.561 604.057 781.694 596.157 786.023 594.514C789.623 593.149 794.299 596.795 796.67 599.685C803.754 608.315 799.997 622.063 798.357 628.069C796.459 635.016 793.565 640.27 791.452 643.575C792.606 638.73 796.423 622.017 795.241 612.075C794.973 609.816 794.425 605.629 791.696 604.415C790.661 603.953 789.297 603.918 788.333 604.444C785.676 605.894 785.486 611.936 787.664 619.399Z" fill="#A5812C"/>
<path d="M427.778 588.87C429.028 588.777 432.67 566.284 422.954 561.456C419.334 559.655 415.212 560.984 413.744 561.456C405.12 564.232 402.048 573.672 401.242 576.15C398.456 584.716 400.773 592.333 402.119 596.544C404.823 605.014 408.211 606.364 411.548 614.088C413.686 619.034 415.853 626.719 414.847 637.774C411.96 630.647 407.437 620.652 401.46 611.675C399.817 609.207 397.496 605.966 393.564 605.096C388.84 604.05 384.822 607.094 384.572 607.288C379.565 611.202 378.477 620.352 382.598 629.659C383.025 623.99 385.492 619.532 389.177 618.253C392.303 617.172 395.376 618.697 397.073 619.567C408.465 625.426 412.032 642.655 412.863 647.199C415.656 644.771 422.195 638.368 423.169 628.778C423.874 621.849 421.368 616.223 419.441 611.889C417.658 607.886 416.959 607.846 408.476 594.123C404.938 588.397 403.204 585.407 403.652 581.403C403.759 580.454 404.311 576.533 407.598 573.729C411.355 570.524 417.06 570.162 420.755 572.193C427.996 576.171 426.829 588.931 427.774 588.859L427.778 588.87Z" fill="#A5812C"/>
<path d="M555.954 764.431C557.204 764.338 560.846 741.845 551.13 737.017C547.509 735.216 543.388 736.544 541.919 737.017C533.296 739.793 530.223 749.232 529.418 751.711C526.631 760.277 528.948 767.894 530.295 772.105C532.999 780.574 536.386 781.924 539.724 789.649C541.862 794.594 544.029 802.28 543.022 813.335C540.136 806.208 535.613 796.213 529.636 787.235C527.992 784.768 525.672 781.527 521.74 780.657C517.016 779.611 512.998 782.655 512.747 782.848C507.741 786.763 506.652 795.912 510.774 805.22C511.2 799.551 513.668 795.092 517.353 793.814C520.479 792.732 523.552 794.258 525.249 795.128C536.641 800.987 540.207 818.216 541.038 822.76C543.832 820.332 550.371 813.929 551.345 804.339C552.05 797.409 549.543 791.783 547.617 787.45C545.833 783.446 545.135 783.407 536.651 769.684C533.113 763.958 531.38 760.968 531.828 756.964C531.935 756.015 532.487 752.094 535.774 749.29C539.531 746.085 545.235 745.723 548.931 747.753C556.172 751.732 555.005 764.492 555.95 764.42L555.954 764.431Z" fill="#A5812C"/>
<path d="M706.652 821.964C707.945 821.867 711.719 798.562 701.653 793.555C697.9 791.689 693.627 793.064 692.109 793.555C683.174 796.434 679.99 806.214 679.156 808.782C676.27 817.66 678.673 825.552 680.066 829.918C682.87 838.695 686.379 840.092 689.839 848.099C692.052 853.224 694.301 861.188 693.258 872.644C690.268 865.26 685.581 854.903 679.385 845.6C677.681 843.043 675.278 839.684 671.202 838.781C666.307 837.696 662.142 840.851 661.884 841.055C656.695 845.113 655.567 854.592 659.839 864.236C660.283 858.363 662.837 853.739 666.658 852.418C669.895 851.297 673.082 852.876 674.841 853.782C686.644 859.852 690.343 877.708 691.203 882.417C694.096 879.903 700.876 873.264 701.885 863.326C702.616 856.142 700.02 850.316 698.021 845.829C696.173 841.678 695.45 841.639 686.658 827.422C682.991 821.488 681.197 818.39 681.659 814.24C681.77 813.255 682.343 809.19 685.749 806.286C689.642 802.966 695.554 802.59 699.386 804.696C706.892 808.818 705.681 822.039 706.659 821.968L706.652 821.964Z" fill="#A5812C"/>
<path d="M859.491 824.037C860.483 823.962 863.373 806.106 855.66 802.271C852.784 800.842 849.511 801.895 848.347 802.271C841.5 804.477 839.061 811.968 838.424 813.938C836.211 820.738 838.051 826.787 839.118 830.132C841.267 836.857 843.957 837.928 846.607 844.062C848.304 847.991 850.026 854.093 849.224 862.867C846.932 857.209 843.344 849.277 838.596 842.146C837.292 840.188 835.451 837.613 832.329 836.922C828.579 836.091 825.388 838.508 825.188 838.662C821.213 841.77 820.346 849.033 823.619 856.421C823.959 851.919 825.915 848.381 828.844 847.368C831.326 846.508 833.765 847.719 835.111 848.413C844.153 853.065 846.99 866.745 847.649 870.351C849.865 868.425 855.058 863.34 855.832 855.726C856.39 850.222 854.403 845.756 852.87 842.318C851.455 839.138 850.9 839.106 844.164 828.216C841.353 823.671 839.978 821.297 840.332 818.117C840.415 817.361 840.855 814.249 843.466 812.022C846.449 809.476 850.979 809.189 853.912 810.804C859.663 813.963 858.736 824.094 859.484 824.037H859.491Z" fill="#A5812C"/>
<path d="M592.479 540.178C595.182 529.141 597.89 518.1 600.594 507.063C607.67 508.052 617.02 508.582 627.789 507.063C633.966 506.193 639.409 504.818 644.018 503.335C643.768 510.068 642.264 523.408 633.053 535.573C629.257 540.586 624.29 545.22 615.287 550.542C594.763 562.675 572.467 567.033 555.414 568.469C565.072 566.829 581.019 562.779 597.302 551.58C607.244 544.748 614.374 537.267 619.233 531.247C615.735 530.162 609.17 528.754 602.126 531.247C600.748 531.734 599.505 532.317 598.398 532.937C597.467 536.912 595.985 540.833 595.985 540.833C594.581 541.313 593.105 540.554 592.475 540.174L592.479 540.178Z" fill="#A5812C"/>
<path d="M926.982 741.37C925.965 739.361 923.748 738.334 921.575 738.932C919.1 739.616 915.899 741.084 913.463 744.25C910.674 747.881 910.437 751.781 910.405 753.227C907.411 747.039 903.311 738.803 898.333 729.553C897.323 727.705 895.644 724.675 892.213 722.963C891.808 722.795 886.429 720.238 881.856 722.963C876.846 725.989 876.309 733.288 877.957 738.097C879.235 741.865 881.856 744.117 883.203 745.127C880.682 741.259 881.856 736.181 885.387 733.929C889.155 731.576 894.67 733.019 896.786 737.46C900.822 743.917 905.227 752.357 908.658 762.682C910.609 768.601 911.92 774.148 912.826 779.126C909.932 783.126 904.722 789.246 896.349 793.823C892.618 795.875 889.051 797.154 886.061 797.992C888.181 798.428 906.774 802.096 920.26 789.855C932.579 778.711 935.756 758.692 926.986 741.378L926.982 741.37ZM921.367 765.973C921.03 766.915 917.399 777.54 915.447 777.139C913.599 776.77 912.421 766.513 916.962 758.273C919.147 754.373 922.108 751.849 924.225 750.406C924.089 754.173 923.519 759.688 921.367 765.976V765.973Z" fill="#A5812C"/>
<path d="M693.508 690.842C706.526 690.842 717.079 680.289 717.079 667.271C717.079 654.253 706.526 643.7 693.508 643.7C680.491 643.7 669.938 654.253 669.938 667.271C669.938 680.289 680.491 690.842 693.508 690.842Z" fill="#A5812C"/>
<path d="M688.024 740.406C701.042 740.406 711.595 729.853 711.595 716.835C711.595 703.817 701.042 693.264 688.024 693.264C675.006 693.264 664.453 703.817 664.453 716.835C664.453 729.853 675.006 740.406 688.024 740.406Z" fill="#A5812C"/>
<path d="M795.592 400.478V383.042C795.592 383.042 844.277 411.332 836.055 466.27C836.055 466.27 831.12 420.214 795.592 400.478Z" fill="#A5812C"/>
<path d="M880.484 425.034C880.484 425.034 880.137 469.559 825.857 501.47C825.857 501.47 865.662 497.524 884.083 440.942C884.083 440.942 886.386 430.413 884.083 423.999C884.083 423.999 883.177 422.764 881.698 423.534C880.362 424.232 880.484 425.034 880.484 425.034Z" fill="#A5812C"/>
<path d="M127.461 1091.17C125.803 1091.17 124.974 1090.32 124.974 1088.62C124.974 1087 125.803 1086.2 127.461 1086.2C129.038 1086.2 129.827 1087 129.827 1088.62C129.827 1090.32 129.038 1091.17 127.461 1091.17ZM134.376 1091.17C132.718 1091.17 131.889 1090.32 131.889 1088.62C131.889 1087 132.718 1086.2 134.376 1086.2C135.954 1086.2 136.742 1087 136.742 1088.62C136.742 1090.32 135.954 1091.17 134.376 1091.17ZM146.145 1121.68H148.207V1125.44H145.599C141.272 1125.44 138.259 1123.75 136.56 1120.35C134.457 1122.53 131.869 1123.62 128.795 1123.62C125.318 1123.62 122.568 1122.31 120.546 1119.68C118.847 1117.46 117.998 1114.69 117.998 1111.37C117.998 1107.49 119.13 1104.37 121.395 1102.03C123.376 1099.97 125.823 1098.93 128.735 1098.93C131.364 1098.93 133.568 1099.7 135.347 1101.24V1097.96L139.411 1095.84V1114.77C139.411 1119.38 141.656 1121.68 146.145 1121.68ZM135.347 1105.85C133.568 1103.71 131.404 1102.64 128.856 1102.64C126.834 1102.64 125.176 1103.46 123.882 1105.12C122.628 1106.74 122.001 1108.84 122.001 1111.43C122.001 1114.06 122.628 1116.16 123.882 1117.74C125.176 1119.32 126.854 1120.11 128.917 1120.11C131.545 1120.11 133.729 1118.95 135.468 1116.65C135.387 1115.92 135.347 1115.33 135.347 1114.89V1105.85ZM166.501 1121.68H168.625V1125.44H166.016C162.376 1125.44 159.647 1124.21 157.827 1121.74C155.926 1124.21 153.176 1125.44 149.577 1125.44H146.968V1121.68H149.092C153.54 1121.68 155.764 1119.38 155.764 1114.77V1101.6L159.829 1099.48V1114.77C159.829 1119.38 162.053 1121.68 166.501 1121.68ZM152.731 1131.81C154.349 1131.81 155.158 1132.64 155.158 1134.3C155.158 1135.96 154.349 1136.79 152.731 1136.79C151.114 1136.79 150.305 1135.96 150.305 1134.3C150.305 1132.64 151.114 1131.81 152.731 1131.81ZM159.647 1131.81C161.264 1131.81 162.073 1132.64 162.073 1134.3C162.073 1135.96 161.264 1136.79 159.647 1136.79C158.029 1136.79 157.22 1135.96 157.22 1134.3C157.22 1132.64 158.029 1131.81 159.647 1131.81ZM177.961 1091.47C176.303 1091.47 175.474 1090.62 175.474 1088.93C175.474 1087.31 176.303 1086.5 177.961 1086.5C179.539 1086.5 180.327 1087.31 180.327 1088.93C180.327 1090.62 179.539 1091.47 177.961 1091.47ZM167.406 1125.44V1121.68H169.529C173.978 1121.68 176.202 1119.38 176.202 1114.77V1101.6L180.266 1099.48V1114.89C180.266 1118.29 179.276 1120.93 177.294 1122.84C175.474 1124.57 173.048 1125.44 170.015 1125.44H167.406ZM217.816 1121.68V1125.44H211.385C211.345 1128.11 210.476 1130.46 208.777 1132.48C207.119 1134.54 204.955 1135.9 202.286 1136.55C201.316 1136.83 200.264 1136.97 199.132 1136.97C196.786 1136.97 194.501 1136.4 192.277 1135.27V1131.69C194.38 1132.82 196.463 1133.39 198.525 1133.39C200.183 1133.39 201.639 1133.03 202.893 1132.3C204.147 1131.65 205.198 1130.66 206.047 1129.33C206.897 1128.03 207.321 1126.74 207.321 1125.44L202.165 1125.26C197.676 1125.06 194.319 1123.64 192.095 1121.02C190.275 1118.79 189.365 1115.82 189.365 1112.1C189.365 1107.73 190.498 1104.35 192.762 1101.97C194.784 1099.82 197.494 1098.75 200.891 1098.75C204.409 1098.75 207.099 1099.8 208.959 1101.91C210.577 1103.73 211.385 1106.15 211.385 1109.19V1121.68H217.816ZM207.321 1109.61C207.321 1104.84 205.178 1102.45 200.891 1102.45C198.505 1102.45 196.645 1103.3 195.31 1105C194.016 1106.66 193.369 1109 193.369 1112.04C193.369 1118.06 196.341 1121.22 202.286 1121.5C204.066 1121.62 205.744 1121.68 207.321 1121.68V1109.61ZM227.131 1091.47C225.472 1091.47 224.643 1090.62 224.643 1088.93C224.643 1087.31 225.472 1086.5 227.131 1086.5C228.708 1086.5 229.496 1087.31 229.496 1088.93C229.496 1090.62 228.708 1091.47 227.131 1091.47ZM216.575 1125.44V1121.68H218.699C223.147 1121.68 225.371 1119.38 225.371 1114.77V1101.6L229.436 1099.48V1114.89C229.436 1118.29 228.445 1120.93 226.463 1122.84C224.643 1124.57 222.217 1125.44 219.184 1125.44H216.575ZM250.606 1125.44C247.169 1125.44 244.52 1124.33 242.659 1122.11C241.123 1120.21 240.354 1117.8 240.354 1114.89V1088.44L244.419 1086.32V1114.77C244.419 1119.38 246.643 1121.68 251.091 1121.68H253.215V1125.44H250.606ZM266.074 1091.66C264.416 1091.66 263.587 1090.81 263.587 1089.11C263.587 1087.49 264.416 1086.68 266.074 1086.68C267.652 1086.68 268.44 1087.49 268.44 1089.11C268.44 1090.81 267.652 1091.66 266.074 1091.66ZM272.99 1091.66C271.332 1091.66 270.503 1090.81 270.503 1089.11C270.503 1087.49 271.332 1086.68 272.99 1086.68C274.567 1086.68 275.356 1087.49 275.356 1089.11C275.356 1090.81 274.567 1091.66 272.99 1091.66ZM275.841 1121.68H286.942V1125.44H273.232C271.857 1125.44 270.604 1125.3 269.471 1125.02C268.339 1125.3 267.085 1125.44 265.71 1125.44H252.001V1121.68H263.163C259.968 1118.73 258.37 1115.23 258.37 1111.19C258.37 1107.27 259.462 1104.15 261.646 1101.85C263.628 1099.78 266.236 1098.75 269.471 1098.75C273.152 1098.75 276.003 1100.09 278.025 1102.76C279.723 1104.98 280.573 1107.79 280.573 1111.19C280.573 1115.27 278.995 1118.77 275.841 1121.68ZM269.714 1121.14C271.777 1120.41 273.455 1119.12 274.749 1117.25C276.084 1115.35 276.751 1113.31 276.751 1111.13C276.751 1108.46 276.084 1106.36 274.749 1104.82C273.455 1103.24 271.696 1102.45 269.471 1102.45C267.247 1102.45 265.488 1103.24 264.194 1104.82C262.9 1106.36 262.253 1108.44 262.253 1111.07C262.253 1113.29 262.9 1115.35 264.194 1117.25C265.488 1119.12 267.166 1120.41 269.229 1121.14L269.471 1121.2L269.593 1121.14H269.714ZM285.708 1125.44V1121.68H287.407C292.017 1121.68 294.322 1119.3 294.322 1114.52V1088.44L298.387 1086.32V1114.59C298.387 1118.02 297.376 1120.73 295.354 1122.71C293.453 1124.53 290.946 1125.44 287.832 1125.44H285.708ZM309.31 1125.44V1088.44L313.374 1086.32V1125.44H309.31ZM354.946 1097.24C353.328 1097.24 352.519 1096.39 352.519 1094.69C352.519 1093.07 353.328 1092.26 354.946 1092.26C356.563 1092.26 357.372 1093.07 357.372 1094.69C357.372 1096.39 356.563 1097.24 354.946 1097.24ZM361.922 1097.24C360.264 1097.24 359.435 1096.39 359.435 1094.69C359.435 1093.07 360.264 1092.26 361.922 1092.26C363.499 1092.26 364.288 1093.07 364.288 1094.69C364.288 1096.39 363.499 1097.24 361.922 1097.24ZM348.698 1125.44C345.705 1125.44 343.319 1124.51 341.539 1122.65C339.76 1120.75 338.87 1118.21 338.87 1115.01V1107.06L342.935 1104.94V1114.52C342.935 1119.3 345.159 1121.68 349.607 1121.68H369.929C374.378 1121.68 376.602 1119.3 376.602 1114.52V1101.6L380.666 1099.48V1115.01C380.666 1118.45 379.615 1121.12 377.512 1123.02C375.692 1124.64 373.306 1125.44 370.354 1125.44H348.698ZM391.594 1125.44V1088.44L395.658 1086.32V1125.44H391.594ZM418.497 1122.53C418.497 1129.89 415.788 1134.5 410.369 1136.36C409.075 1136.81 407.7 1137.03 406.244 1137.03C403.898 1137.03 401.633 1136.46 399.45 1135.33V1131.75C401.512 1132.89 403.615 1133.45 405.758 1133.45C407.457 1133.45 408.953 1133.07 410.247 1132.3C413.078 1130.6 414.494 1127.43 414.494 1122.77V1101.6L418.497 1099.48V1122.53ZM439.641 1125.44C436.203 1125.44 433.554 1124.33 431.694 1122.11C430.157 1120.21 429.389 1117.8 429.389 1114.89V1088.44L433.453 1086.32V1114.77C433.453 1119.38 435.678 1121.68 440.126 1121.68H442.249V1125.44H439.641ZM473.126 1087.17C471.67 1087.17 470.942 1086.4 470.942 1084.86C470.942 1083.41 471.67 1082.68 473.126 1082.68C474.581 1082.68 475.309 1083.41 475.309 1084.86C475.309 1086.4 474.581 1087.17 473.126 1087.17ZM469.729 1093.48C468.07 1093.48 467.241 1092.65 467.241 1090.99C467.241 1089.33 468.07 1088.5 469.729 1088.5C471.306 1088.5 472.094 1089.33 472.094 1090.99C472.094 1092.65 471.306 1093.48 469.729 1093.48ZM476.644 1093.48C475.026 1093.48 474.218 1092.65 474.218 1090.99C474.218 1089.33 475.026 1088.5 476.644 1088.5C478.262 1088.5 479.07 1089.33 479.07 1090.99C479.07 1092.65 478.262 1093.48 476.644 1093.48ZM441.036 1125.44V1121.68H444.736C449.225 1121.68 451.469 1119.38 451.469 1114.77V1106.03L455.534 1103.91V1114.77C455.534 1119.38 457.758 1121.68 462.207 1121.68H464.451C468.9 1121.68 471.124 1119.38 471.124 1114.77V1103.85L475.188 1101.66V1114.77C475.188 1119.38 477.433 1121.68 481.922 1121.68H484.105C488.594 1121.68 490.839 1119.38 490.839 1114.77V1101.6L494.903 1099.48V1114.52C494.903 1119.3 497.208 1121.68 501.819 1121.68H505.337V1125.44H501.394C497.552 1125.44 494.741 1124.09 492.962 1121.38C491.183 1124.09 488.433 1125.44 484.712 1125.44H481.376C477.615 1125.44 474.885 1124.11 473.186 1121.44C471.447 1124.11 468.738 1125.44 465.058 1125.44H461.721C457.96 1125.44 455.21 1124.11 453.471 1121.44C451.773 1124.11 449.043 1125.44 445.282 1125.44H441.036ZM510.253 1091.66C508.635 1091.66 507.826 1090.83 507.826 1089.17C507.826 1087.51 508.635 1086.68 510.253 1086.68C511.871 1086.68 512.679 1087.51 512.679 1089.17C512.679 1090.83 511.871 1091.66 510.253 1091.66ZM517.168 1091.66C515.551 1091.66 514.742 1090.83 514.742 1089.17C514.742 1087.51 515.551 1086.68 517.168 1086.68C518.786 1086.68 519.595 1087.51 519.595 1089.17C519.595 1090.83 518.786 1091.66 517.168 1091.66ZM523.659 1121.68H525.782V1125.44H523.174C519.534 1125.44 516.804 1124.21 514.985 1121.74C513.084 1124.21 510.334 1125.44 506.735 1125.44H504.126V1121.68H506.249C510.698 1121.68 512.922 1119.38 512.922 1114.77V1101.6L516.986 1099.48V1114.77C516.986 1119.38 519.211 1121.68 523.659 1121.68ZM524.564 1125.44V1121.68H528.264C532.753 1121.68 534.998 1119.38 534.998 1114.77V1106.03L539.062 1103.91V1114.77C539.062 1119.38 541.286 1121.68 545.735 1121.68H547.979C552.428 1121.68 554.652 1119.38 554.652 1114.77V1103.85L558.716 1101.66V1114.77C558.716 1119.38 560.961 1121.68 565.45 1121.68H567.634C572.123 1121.68 574.367 1119.38 574.367 1114.77V1101.6L578.432 1099.48V1114.89C578.432 1118.25 577.441 1120.87 575.459 1122.77C573.68 1124.51 571.273 1125.4 568.24 1125.44H564.904C561.143 1125.44 558.413 1124.11 556.715 1121.44C554.976 1124.11 552.266 1125.44 548.586 1125.44H545.25C541.489 1125.44 538.739 1124.11 537 1121.44C535.301 1124.11 532.571 1125.44 528.81 1125.44H524.564ZM611.478 1088.44L615.482 1086.32V1114.59C615.482 1118.02 614.471 1120.73 612.449 1122.71C610.589 1124.53 608.102 1125.44 604.988 1125.44H585.091L587.032 1121.68H596.313V1096.33L600.317 1094.2V1121.68H604.563C609.173 1121.68 611.478 1119.3 611.478 1114.52V1088.44ZM626.421 1125.44V1088.44L630.485 1086.32V1125.44H626.421ZM656.938 1123.2C655.24 1124.17 653.056 1124.66 650.387 1124.66C646.868 1124.66 644.118 1123.3 642.137 1120.59C640.438 1118.29 639.589 1115.37 639.589 1111.86C639.589 1107.61 640.721 1104.29 642.986 1101.91C644.968 1099.8 647.596 1098.75 650.872 1098.75C654.229 1098.75 656.817 1099.8 658.637 1101.91C660.214 1103.73 661.003 1106.15 661.003 1109.19V1122.53C661.003 1126.29 660.214 1129.39 658.637 1131.81C657.059 1134.28 654.815 1135.86 651.903 1136.55C650.933 1136.83 649.881 1136.97 648.749 1136.97C646.403 1136.97 644.118 1136.4 641.894 1135.27V1131.69C643.997 1132.82 646.08 1133.39 648.142 1133.39C649.8 1133.39 651.256 1133.03 652.51 1132.3C655.341 1130.88 656.817 1127.85 656.938 1123.2ZM656.938 1109.55C656.938 1104.82 654.916 1102.45 650.872 1102.45C648.607 1102.45 646.808 1103.28 645.473 1104.94C644.179 1106.6 643.532 1108.88 643.532 1111.8C643.532 1114.63 644.159 1116.89 645.412 1118.59C646.666 1120.25 648.365 1121.08 650.508 1121.08C653.703 1121.08 655.846 1120.19 656.938 1118.41V1109.55ZM692.207 1091.17C690.589 1091.17 689.78 1090.32 689.78 1088.62C689.78 1087 690.589 1086.2 692.207 1086.2C693.824 1086.2 694.633 1087 694.633 1088.62C694.633 1090.32 693.824 1091.17 692.207 1091.17ZM699.122 1091.17C697.505 1091.17 696.696 1090.32 696.696 1088.62C696.696 1087 697.505 1086.2 699.122 1086.2C700.74 1086.2 701.549 1087 701.549 1088.62C701.549 1090.32 700.74 1091.17 699.122 1091.17ZM695.786 1125.44C692.187 1125.44 689.376 1124.25 687.354 1121.87C685.655 1119.8 684.806 1117.13 684.806 1113.86C684.806 1106.38 688.567 1101.34 696.089 1098.75C703.611 1101.34 707.372 1106.38 707.372 1113.86C707.372 1117.62 706.26 1120.55 704.036 1122.65C702.095 1124.51 699.547 1125.44 696.393 1125.44H695.786ZM695.604 1121.68H696.574C698.677 1121.68 700.336 1121 701.549 1119.62C702.762 1118.21 703.369 1116.28 703.369 1113.86C703.369 1108.48 700.942 1104.68 696.089 1102.45C691.236 1104.68 688.81 1108.48 688.81 1113.86C688.81 1116.24 689.416 1118.14 690.63 1119.56C691.843 1120.98 693.501 1121.68 695.604 1121.68ZM727.192 1125.44C723.754 1125.44 721.105 1124.33 719.245 1122.11C717.708 1120.21 716.94 1117.8 716.94 1114.89V1088.44L721.004 1086.32V1114.77C721.004 1119.38 723.228 1121.68 727.677 1121.68H729.8V1125.44H727.192ZM737.382 1109.19C737.382 1105.75 738.414 1103.08 740.476 1101.18C742.255 1099.56 744.601 1098.75 747.513 1098.75C751.274 1098.75 754.165 1100.13 756.187 1102.88C757.926 1105.22 758.796 1108.3 758.796 1112.1C758.796 1116.43 757.684 1119.8 755.459 1122.23C753.518 1124.37 750.991 1125.44 747.877 1125.44C744.075 1125.44 741.244 1124.23 739.384 1121.8C737.564 1124.23 734.834 1125.44 731.195 1125.44H728.586V1121.68H730.709C735.158 1121.68 737.382 1119.38 737.382 1114.77V1109.19ZM741.447 1115.01C741.447 1119.46 743.63 1121.68 747.998 1121.68C750.101 1121.68 751.759 1120.83 752.972 1119.14C754.186 1117.44 754.792 1115.07 754.792 1112.04C754.792 1109.05 754.145 1106.7 752.851 1105C751.597 1103.3 749.818 1102.45 747.513 1102.45C743.469 1102.45 741.447 1104.82 741.447 1109.55V1115.01ZM779.086 1125.44C775.648 1125.44 772.999 1124.33 771.139 1122.11C769.602 1120.21 768.834 1117.8 768.834 1114.89V1088.44L772.898 1086.32V1114.77C772.898 1119.38 775.123 1121.68 779.571 1121.68H781.694V1125.44H779.086ZM818.819 1121.68H820.942V1125.44H818.758C815.401 1125.44 812.712 1125.06 810.69 1124.29C808.708 1123.52 806.868 1122.17 805.17 1120.23C799.993 1123.71 794.008 1125.44 787.214 1125.44H780.481V1121.68H787.275C796.091 1121.68 802.966 1118.69 807.9 1112.71C804.3 1105.83 799.953 1102.39 794.857 1102.39C791.379 1102.39 787.982 1104.15 784.666 1107.67V1103.67C787.982 1100.39 791.44 1098.75 795.039 1098.75H795.161C801.51 1098.75 807.01 1103.04 811.661 1111.61V1114.1C810.407 1115.72 809.072 1117.11 807.657 1118.29C808.951 1119.54 810.407 1120.43 812.025 1120.96C813.683 1121.44 815.947 1121.68 818.819 1121.68ZM857.913 1121.68H859.975V1125.44H857.367C853.687 1125.44 850.937 1124.17 849.117 1121.62C847.095 1124.98 844.021 1126.66 839.896 1126.66C835.731 1126.66 832.657 1125 830.676 1121.68C828.815 1124.19 826.045 1125.44 822.365 1125.44H819.757V1121.68H821.88C826.328 1121.68 828.553 1119.38 828.553 1114.77V1112.71C828.553 1108.05 829.685 1104.5 831.95 1102.03C833.931 1099.84 836.58 1098.75 839.896 1098.75C843.698 1098.75 846.589 1100.17 848.571 1103C850.31 1105.43 851.179 1108.66 851.179 1112.71V1114.77C851.179 1119.38 853.424 1121.68 857.913 1121.68ZM839.896 1122.9C842.121 1122.9 843.88 1121.99 845.174 1120.17C846.468 1118.31 847.115 1115.8 847.115 1112.64C847.115 1105.85 844.709 1102.45 839.896 1102.45C835.043 1102.45 832.617 1105.85 832.617 1112.64C832.617 1119.48 835.043 1122.9 839.896 1122.9ZM878.088 1121.68H880.211V1125.44H877.602C873.882 1125.44 871.112 1124.17 869.292 1121.62C867.391 1124.17 864.58 1125.44 860.86 1125.44H858.737V1121.68H860.435C865.045 1121.68 867.35 1119.3 867.35 1114.52V1088.44L871.415 1086.32V1114.77C871.415 1119.38 873.639 1121.68 878.088 1121.68ZM878.997 1125.44V1121.68H880.695C885.305 1121.68 887.611 1119.3 887.611 1114.52V1088.44L891.675 1086.32V1114.59C891.675 1118.02 890.664 1120.73 888.642 1122.71C886.741 1124.53 884.234 1125.44 881.12 1125.44H878.997ZM937.674 1091.66C936.016 1091.66 935.187 1090.81 935.187 1089.11C935.187 1087.49 936.016 1086.68 937.674 1086.68C939.252 1086.68 940.04 1087.49 940.04 1089.11C940.04 1090.81 939.252 1091.66 937.674 1091.66ZM944.59 1091.66C942.932 1091.66 942.103 1090.81 942.103 1089.11C942.103 1087.49 942.932 1086.68 944.59 1086.68C946.167 1086.68 946.956 1087.49 946.956 1089.11C946.956 1090.81 946.167 1091.66 944.59 1091.66ZM951.263 1125.44C950.292 1133.13 944.388 1136.97 933.549 1136.97C927.322 1136.97 922.63 1135.15 919.476 1131.51C917.13 1128.8 915.958 1125.46 915.958 1121.5C915.958 1118.02 916.847 1115.03 918.627 1112.52L922.57 1111.73C920.629 1114.69 919.658 1117.84 919.658 1121.2C919.658 1124.88 920.932 1127.81 923.48 1129.99C925.947 1132.14 929.303 1133.21 933.549 1133.21C941.719 1133.21 946.228 1130.6 947.077 1125.38L945.439 1125.26C939.737 1125.02 935.673 1123.75 933.246 1121.44C931.062 1119.34 929.97 1116.22 929.97 1112.1C929.97 1107.73 931.103 1104.35 933.367 1101.97C935.349 1099.82 937.978 1098.75 941.253 1098.75C944.61 1098.75 947.198 1099.8 949.018 1101.91C950.595 1103.73 951.384 1106.15 951.384 1109.19V1121.68H957.814V1125.44H951.263ZM947.32 1121.68V1109.55C947.32 1104.82 945.298 1102.45 941.253 1102.45C938.948 1102.45 937.149 1103.3 935.855 1105C934.601 1106.7 933.974 1109.05 933.974 1112.04C933.974 1115.39 934.823 1117.8 936.522 1119.26C938.261 1120.67 941.254 1121.46 945.5 1121.62L947.32 1121.68ZM956.601 1125.44V1121.68H958.724C963.173 1121.68 965.397 1119.38 965.397 1114.77V1101.6L969.461 1099.48V1114.89C969.461 1118.29 968.47 1120.93 966.489 1122.84C964.669 1124.57 962.242 1125.44 959.209 1125.44H956.601ZM958.603 1136.79C956.945 1136.79 956.116 1135.94 956.116 1134.24C956.116 1132.62 956.945 1131.81 958.603 1131.81C960.18 1131.81 960.969 1132.62 960.969 1134.24C960.969 1135.94 960.18 1136.79 958.603 1136.79ZM965.518 1136.79C963.86 1136.79 963.031 1135.94 963.031 1134.24C963.031 1132.62 963.86 1131.81 965.518 1131.81C967.095 1131.81 967.884 1132.62 967.884 1134.24C967.884 1135.94 967.095 1136.79 965.518 1136.79ZM1007.01 1121.68V1125.44H1000.58C1000.54 1128.11 999.67 1130.46 997.972 1132.48C996.314 1134.54 994.15 1135.9 991.481 1136.55C990.51 1136.83 989.459 1136.97 988.327 1136.97C985.981 1136.97 983.696 1136.4 981.472 1135.27V1131.69C983.575 1132.82 985.657 1133.39 987.72 1133.39C989.378 1133.39 990.834 1133.03 992.088 1132.3C993.341 1131.65 994.393 1130.66 995.242 1129.33C996.091 1128.03 996.516 1126.74 996.516 1125.44L991.36 1125.26C986.871 1125.06 983.514 1123.64 981.29 1121.02C979.47 1118.79 978.56 1115.82 978.56 1112.1C978.56 1107.73 979.692 1104.35 981.957 1101.97C983.979 1099.82 986.689 1098.75 990.086 1098.75C993.604 1098.75 996.293 1099.8 998.154 1101.91C999.771 1103.73 1000.58 1106.15 1000.58 1109.19V1121.68H1007.01ZM996.516 1109.61C996.516 1104.84 994.372 1102.45 990.086 1102.45C987.7 1102.45 985.839 1103.3 984.505 1105C983.211 1106.66 982.564 1109 982.564 1112.04C982.564 1118.06 985.536 1121.22 991.481 1121.5C993.26 1121.62 994.939 1121.68 996.516 1121.68V1109.61ZM1019.78 1111.8C1024.51 1103.1 1030.78 1098.75 1038.59 1098.75C1043.12 1098.75 1046.72 1100.31 1049.39 1103.42C1051.65 1106.09 1052.78 1109.39 1052.78 1113.31V1115.43C1052.78 1122.11 1049.87 1125.44 1044.05 1125.44H1005.77V1121.68H1016.02V1088.44L1019.78 1086.32V1111.8ZM1048.72 1113.31C1048.72 1109.91 1047.65 1107.18 1045.5 1105.12C1043.68 1103.34 1041.4 1102.45 1038.65 1102.45C1033.92 1102.45 1029.71 1104.74 1026.03 1109.31C1023.24 1112.75 1021.18 1116.87 1019.84 1121.68H1043.62C1045.56 1121.68 1046.9 1121.24 1047.63 1120.35C1048.35 1119.42 1048.72 1117.74 1048.72 1115.31V1113.31ZM1083 1091.17C1081.34 1091.17 1080.51 1090.32 1080.51 1088.62C1080.51 1087 1081.34 1086.2 1083 1086.2C1084.58 1086.2 1085.37 1087 1085.37 1088.62C1085.37 1090.32 1084.58 1091.17 1083 1091.17ZM1089.92 1091.17C1088.26 1091.17 1087.43 1090.32 1087.43 1088.62C1087.43 1087 1088.26 1086.2 1089.92 1086.2C1091.49 1086.2 1092.28 1087 1092.28 1088.62C1092.28 1090.32 1091.49 1091.17 1089.92 1091.17ZM1101.69 1121.68H1103.75V1125.44H1101.14C1096.81 1125.44 1093.8 1123.75 1092.1 1120.35C1090 1122.53 1087.41 1123.62 1084.34 1123.62C1080.86 1123.62 1078.11 1122.31 1076.09 1119.68C1074.39 1117.46 1073.54 1114.69 1073.54 1111.37C1073.54 1107.49 1074.67 1104.37 1076.94 1102.03C1078.92 1099.97 1081.36 1098.93 1084.28 1098.93C1086.9 1098.93 1089.11 1099.7 1090.89 1101.24V1097.96L1094.95 1095.84V1114.77C1094.95 1119.38 1097.2 1121.68 1101.69 1121.68ZM1090.89 1105.85C1089.11 1103.71 1086.94 1102.64 1084.4 1102.64C1082.37 1102.64 1080.72 1103.46 1079.42 1105.12C1078.17 1106.74 1077.54 1108.84 1077.54 1111.43C1077.54 1114.06 1078.17 1116.16 1079.42 1117.74C1080.72 1119.32 1082.39 1120.11 1084.46 1120.11C1087.09 1120.11 1089.27 1118.95 1091.01 1116.65C1090.93 1115.92 1090.89 1115.33 1090.89 1114.89V1105.85ZM1112.09 1100.39C1112.5 1100.35 1112.92 1100.33 1113.37 1100.33C1117.01 1100.33 1120.12 1101.22 1122.71 1103C1126.27 1105.55 1128.05 1109.19 1128.05 1113.92V1115.07C1128.05 1118.47 1127 1121.12 1124.89 1123.02C1123.07 1124.64 1120.71 1125.44 1117.8 1125.44H1102.51V1121.68H1117.37C1121.78 1121.68 1123.98 1119.32 1123.98 1114.59V1113.98C1123.98 1110.7 1122.81 1108.26 1120.46 1106.64C1118.52 1105.18 1116.06 1104.46 1113.06 1104.46C1110.88 1104.46 1108.72 1104.84 1106.57 1105.61V1101.6L1120.34 1086.32H1124.53L1112.09 1100.39ZM1151.81 1121.68H1153.93V1125.44H1151.32C1148.82 1125.44 1146.73 1124.84 1145.08 1123.62C1144.75 1130.34 1142.04 1134.58 1136.95 1136.36C1135.65 1136.81 1134.28 1137.03 1132.82 1137.03C1130.48 1137.03 1128.21 1136.46 1126.03 1135.33V1131.75C1128.09 1132.89 1130.19 1133.45 1132.34 1133.45C1134.03 1133.45 1135.53 1133.07 1136.83 1132.3C1139.66 1130.6 1141.07 1127.43 1141.07 1122.77V1101.6L1145.08 1099.48V1099.54L1145.14 1099.48V1114.77C1145.14 1119.38 1147.36 1121.68 1151.81 1121.68ZM1184.83 1087.17C1183.38 1087.17 1182.65 1086.4 1182.65 1084.86C1182.65 1083.41 1183.38 1082.68 1184.83 1082.68C1186.29 1082.68 1187.02 1083.41 1187.02 1084.86C1187.02 1086.4 1186.29 1087.17 1184.83 1087.17ZM1181.44 1093.48C1179.78 1093.48 1178.95 1092.65 1178.95 1090.99C1178.95 1089.33 1179.78 1088.5 1181.44 1088.5C1183.01 1088.5 1183.8 1089.33 1183.8 1090.99C1183.8 1092.65 1183.01 1093.48 1181.44 1093.48ZM1188.35 1093.48C1186.74 1093.48 1185.93 1092.65 1185.93 1090.99C1185.93 1089.33 1186.74 1088.5 1188.35 1088.5C1189.97 1088.5 1190.78 1089.33 1190.78 1090.99C1190.78 1092.65 1189.97 1093.48 1188.35 1093.48ZM1152.74 1125.44V1121.68H1156.44C1160.93 1121.68 1163.18 1119.38 1163.18 1114.77V1106.03L1167.24 1103.91V1114.77C1167.24 1119.38 1169.47 1121.68 1173.92 1121.68H1176.16C1180.61 1121.68 1182.83 1119.38 1182.83 1114.77V1103.85L1186.9 1101.66V1114.77C1186.9 1119.38 1189.14 1121.68 1193.63 1121.68H1195.81C1200.3 1121.68 1202.55 1119.38 1202.55 1114.77V1101.6L1206.61 1099.48V1114.89C1206.61 1118.25 1205.62 1120.87 1203.64 1122.77C1201.86 1124.51 1199.45 1125.4 1196.42 1125.44H1193.08C1189.32 1125.44 1186.59 1124.11 1184.9 1121.44C1183.16 1124.11 1180.45 1125.44 1176.77 1125.44H1173.43C1169.67 1125.44 1166.92 1124.11 1165.18 1121.44C1163.48 1124.11 1160.75 1125.44 1156.99 1125.44H1152.74Z" fill="#A5812C"/>
<path d="M128.241 1151.5C128.082 1153.66 128.003 1155.93 128.003 1158.32V1170.63C128.003 1175.21 128.118 1177.73 128.349 1178.21C128.579 1178.67 129.399 1178.9 130.81 1178.9H132.429V1180.26C129.882 1180.16 127.722 1180.11 125.952 1180.11C124.167 1180.11 122.022 1180.16 119.518 1180.26V1178.9H121.331C122.281 1178.9 122.9 1178.78 123.188 1178.53C123.476 1178.27 123.656 1177.78 123.728 1177.04C123.872 1175.36 123.944 1173.18 123.944 1170.52V1158.19C123.944 1155.76 123.894 1153.53 123.793 1151.5H121.59C118.035 1151.5 116.078 1151.59 115.718 1151.76C115.358 1151.92 115.12 1152.56 115.005 1153.68L114.703 1156.57H113.343L113.386 1154C113.386 1152.97 113.299 1151.48 113.127 1149.53C120.9 1149.63 125.47 1149.69 126.837 1149.69L138.777 1149.53C138.504 1151.97 138.345 1154.31 138.302 1156.57H136.964L136.748 1153.74C136.661 1152.77 136.539 1152.19 136.381 1152.02C136.222 1151.83 135.87 1151.71 135.323 1151.67C133.739 1151.56 131.94 1151.5 129.925 1151.5H128.241ZM140.353 1150.89V1149.53C143.304 1149.63 145.449 1149.69 146.788 1149.69C148.198 1149.69 150.271 1149.63 153.006 1149.53V1150.89H151.43C150.077 1150.89 149.263 1151.15 148.99 1151.67C148.716 1152.19 148.58 1154.54 148.58 1158.71V1167.17C148.58 1170.27 148.745 1172.42 149.076 1173.63C149.422 1174.84 150.3 1175.86 151.71 1176.7C153.121 1177.53 155.007 1177.95 157.367 1177.95C159.8 1177.95 161.851 1177.5 163.521 1176.61C164.672 1175.99 165.515 1175.03 166.047 1173.74C166.58 1172.43 166.846 1169.95 166.846 1166.31V1158.17C166.846 1154.4 166.673 1152.25 166.328 1151.71C165.997 1151.17 165.068 1150.89 163.543 1150.89H162.42V1149.53C165.399 1149.63 167.292 1149.69 168.098 1149.69C169.408 1149.69 171.035 1149.63 172.978 1149.53V1150.89H171.51C170.373 1150.89 169.638 1151.2 169.307 1151.82C168.991 1152.43 168.832 1154.57 168.832 1158.26V1166.35C168.832 1170.05 168.645 1172.55 168.271 1173.85C167.911 1175.13 167.242 1176.29 166.263 1177.32C165.299 1178.36 164.003 1179.18 162.377 1179.78C160.764 1180.39 158.864 1180.69 156.676 1180.69C154.417 1180.69 152.437 1180.42 150.739 1179.89C149.04 1179.34 147.759 1178.68 146.896 1177.88C146.046 1177.09 145.427 1176.13 145.039 1174.99C144.664 1173.84 144.477 1171.89 144.477 1169.14L144.521 1165.04V1158.45C144.521 1154.39 144.398 1152.12 144.153 1151.63C143.923 1151.14 143.167 1150.89 141.886 1150.89H140.353ZM186.559 1173.69L191.568 1161.34C192.417 1159.23 193.958 1155.2 196.189 1149.25H197.549C198.398 1151.92 199.543 1155.28 200.982 1159.36L206.185 1174L210.137 1160.33C210.511 1159.02 211.159 1156.5 212.08 1152.77C212.166 1152.44 212.209 1152.17 212.209 1151.95C212.209 1151.69 212.101 1151.5 211.886 1151.37C211.67 1151.24 211.137 1151.13 210.288 1151.05L208.323 1150.89V1149.53C210.353 1149.63 211.943 1149.69 213.095 1149.69C214.333 1149.69 215.866 1149.63 217.694 1149.53V1150.89H216.571C216.082 1150.89 215.714 1151.01 215.47 1151.24C215.009 1151.71 213.915 1154.74 212.188 1160.31C209.899 1167.74 207.999 1174.5 206.488 1180.6H204.242C203.983 1179.64 203.767 1178.92 203.594 1178.44C202.961 1176.59 201.493 1172.5 199.19 1166.18L195.649 1156.46L191.611 1166.25C189.193 1172.09 187.401 1176.88 186.235 1180.6H184.054L182.91 1175.29C182.593 1173.72 182.226 1172.05 181.809 1170.28L178.052 1154.13C177.692 1152.55 177.368 1151.61 177.08 1151.33C176.792 1151.04 176.195 1150.89 175.288 1150.89H174.381V1149.53C176.44 1149.63 178.217 1149.69 179.714 1149.69C181.168 1149.69 183.133 1149.63 185.609 1149.53V1150.89H184.249C183.27 1150.89 182.629 1150.98 182.327 1151.15C182.039 1151.33 181.895 1151.61 181.895 1152C181.895 1152.23 181.931 1152.49 182.003 1152.79L183.493 1159.96L186.559 1173.69ZM240.796 1169.89H228.317L226.848 1173.37C225.884 1175.67 225.402 1177.08 225.402 1177.6C225.402 1177.93 225.488 1178.17 225.661 1178.32C225.848 1178.46 226.309 1178.57 227.043 1178.66L229.115 1178.9V1180.26C227.734 1180.16 226.179 1180.11 224.452 1180.11C222.379 1180.11 220.558 1180.16 218.989 1180.26V1178.9L219.637 1178.88C220.644 1178.85 221.292 1178.75 221.58 1178.57C221.882 1178.39 222.199 1177.94 222.53 1177.24C223.552 1175.16 224.596 1172.92 225.661 1170.52L231.598 1157.07C233.182 1153.5 234.261 1150.91 234.837 1149.3H236.305L247.231 1174.71C247.965 1176.44 248.454 1177.48 248.699 1177.84C248.944 1178.19 249.224 1178.44 249.541 1178.6C249.858 1178.74 250.57 1178.84 251.678 1178.9V1180.26C249.807 1180.16 248.022 1180.11 246.324 1180.11C244.74 1180.11 242.632 1180.16 239.998 1180.26V1178.9L242.135 1178.77C242.898 1178.71 243.351 1178.63 243.495 1178.53C243.711 1178.37 243.819 1178.17 243.819 1177.93C243.819 1177.67 243.603 1176.99 243.171 1175.9L240.796 1169.89ZM229.115 1168.12H239.998L234.557 1155.13L229.115 1168.12ZM253.881 1178.9H255.241C256.58 1178.9 257.379 1178.57 257.638 1177.93C257.911 1177.28 258.048 1174.18 258.048 1168.62V1161.3C258.048 1155.54 257.933 1152.37 257.702 1151.78C257.472 1151.19 256.781 1150.89 255.63 1150.89H253.881V1149.53C256.27 1149.63 258.631 1149.69 260.963 1149.69C262.906 1149.69 264.669 1149.63 266.253 1149.53V1150.89H264.59C263.568 1150.89 262.928 1151.02 262.668 1151.26C262.409 1151.51 262.258 1152.13 262.215 1153.12C262.143 1154.66 262.107 1157.4 262.107 1161.34V1168.79C262.107 1174.39 262.229 1177.48 262.474 1178.06C262.719 1178.62 263.503 1178.9 264.828 1178.9H266.253V1180.26C264.482 1180.16 262.553 1180.11 260.466 1180.11C258.034 1180.11 255.838 1180.16 253.881 1180.26V1178.9ZM285.296 1180.67C286.952 1181.1 288.672 1181.68 290.457 1182.42C294.185 1183.94 296.876 1184.71 298.532 1184.71C299.093 1184.71 299.942 1184.56 301.079 1184.27V1185.4C299.467 1186.23 298.273 1187.02 297.495 1187.77C296.243 1187.61 295.113 1187.4 294.105 1187.12C293.098 1186.87 291.565 1186.35 289.507 1185.59C286.109 1184.35 283.828 1183.73 282.662 1183.73C282.331 1183.73 281.978 1183.81 281.604 1183.95C281.244 1184.09 280.33 1184.58 278.862 1185.4V1183.97C281.323 1182.32 283.087 1181.22 284.152 1180.67C280.899 1180.67 278.121 1180.03 275.818 1178.75C273.515 1177.45 271.715 1175.61 270.42 1173.22C269.124 1170.83 268.477 1168.03 268.477 1164.82C268.477 1160.13 270.002 1156.34 273.054 1153.44C276.105 1150.55 280.172 1149.1 285.253 1149.1C290.233 1149.1 294.134 1150.45 296.956 1153.14C299.791 1155.82 301.209 1159.39 301.209 1163.85C301.209 1167.27 300.374 1170.28 298.704 1172.87C297.049 1175.45 294.876 1177.43 292.184 1178.81C290.255 1179.81 287.959 1180.42 285.296 1180.67ZM273.032 1163.07C273.032 1166.31 273.586 1169.13 274.695 1171.54C275.803 1173.94 277.286 1175.75 279.143 1176.96C281 1178.15 283.123 1178.75 285.512 1178.75C287.729 1178.75 289.665 1178.24 291.32 1177.21C292.976 1176.19 294.278 1174.67 295.228 1172.66C296.178 1170.64 296.653 1168.18 296.653 1165.27C296.653 1162.22 296.128 1159.62 295.077 1157.46C294.026 1155.3 292.587 1153.68 290.759 1152.6C288.931 1151.51 286.764 1150.96 284.26 1150.96C281.971 1150.96 279.999 1151.44 278.344 1152.41C276.688 1153.37 275.386 1154.78 274.436 1156.64C273.5 1158.49 273.032 1160.64 273.032 1163.07ZM335.928 1169.89H323.448L321.98 1173.37C321.016 1175.67 320.533 1177.08 320.533 1177.6C320.533 1177.93 320.62 1178.17 320.792 1178.32C320.98 1178.46 321.44 1178.57 322.174 1178.66L324.247 1178.9V1180.26C322.865 1180.16 321.311 1180.11 319.583 1180.11C317.511 1180.11 315.69 1180.16 314.121 1180.26V1178.9L314.768 1178.88C315.776 1178.85 316.424 1178.75 316.712 1178.57C317.014 1178.39 317.331 1177.94 317.662 1177.24C318.684 1175.16 319.727 1172.92 320.792 1170.52L326.73 1157.07C328.313 1153.5 329.393 1150.91 329.969 1149.3H331.437L342.362 1174.71C343.096 1176.44 343.586 1177.48 343.83 1177.84C344.075 1178.19 344.356 1178.44 344.672 1178.6C344.989 1178.74 345.702 1178.84 346.81 1178.9V1180.26C344.939 1180.16 343.154 1180.11 341.455 1180.11C339.872 1180.11 337.763 1180.16 335.129 1180.26V1178.9L337.267 1178.77C338.03 1178.71 338.483 1178.63 338.627 1178.53C338.843 1178.37 338.951 1178.17 338.951 1177.93C338.951 1177.67 338.735 1176.99 338.303 1175.9L335.928 1169.89ZM324.247 1168.12H335.129L329.688 1155.13L324.247 1168.12ZM352.489 1178.1C352.719 1175.87 352.834 1171.97 352.834 1166.4V1160.14C352.834 1157.57 352.748 1155.36 352.575 1153.51C352.474 1152.43 352.337 1151.8 352.165 1151.63C352.006 1151.46 351.416 1151.3 350.394 1151.15L348.667 1150.89V1149.53C351.042 1149.61 352.64 1149.64 353.46 1149.64L359.268 1149.6L363.997 1149.51C365.897 1149.48 367.847 1149.67 369.848 1150.07C371.849 1150.48 373.662 1151.29 375.289 1152.51C376.916 1153.72 378.153 1155.25 379.003 1157.09C379.852 1158.92 380.277 1161.04 380.277 1163.44C380.277 1168.3 378.636 1172.33 375.354 1175.51C372.086 1178.69 367.811 1180.28 362.529 1180.28L359.873 1180.22C357.267 1180.11 355.619 1180.06 354.928 1180.06C353.762 1180.06 352.28 1180.15 350.481 1180.32V1179.29L352.489 1178.1ZM357.152 1177.99C359.096 1178.28 360.808 1178.42 362.291 1178.42C366.321 1178.42 369.452 1177.39 371.683 1175.31C374.375 1172.8 375.721 1169.12 375.721 1164.3C375.721 1160.1 374.598 1156.9 372.353 1154.69C370.121 1152.49 366.847 1151.39 362.529 1151.39C361.017 1151.39 359.225 1151.54 357.152 1151.84C356.98 1153.23 356.893 1154.8 356.893 1156.55V1170.67C356.893 1173.28 356.98 1175.72 357.152 1177.99ZM396.88 1180.6C396.233 1178.68 395.571 1176.87 394.894 1175.18L387.164 1155.86C386.056 1153.07 385.408 1151.54 385.221 1151.28C385.034 1151.02 384.415 1150.89 383.364 1150.89H382.479V1149.53C384.739 1149.63 386.66 1149.69 388.244 1149.69C389.914 1149.69 391.914 1149.63 394.246 1149.53V1151.09H392.109C391.375 1151.09 390.9 1151.16 390.684 1151.3C390.468 1151.43 390.36 1151.64 390.36 1151.93C390.36 1152.12 390.396 1152.33 390.468 1152.56L393.275 1159.96L399.104 1174.84L404.783 1160.65C406.697 1155.83 407.654 1153.01 407.654 1152.19C407.654 1151.53 407.259 1151.18 406.467 1151.15L405.582 1151.09L403.725 1150.89V1149.53C405.639 1149.63 407.215 1149.69 408.453 1149.69C409.749 1149.69 411.375 1149.63 413.333 1149.53V1150.89H412.469C411.778 1150.89 411.275 1151.06 410.958 1151.39C410.656 1151.71 410.102 1152.85 409.295 1154.82L402.019 1172.59C400.652 1175.93 399.68 1178.6 399.104 1180.6H396.88ZM414.909 1164.89C414.909 1160.15 416.435 1156.34 419.487 1153.44C422.538 1150.55 426.604 1149.1 431.686 1149.1C436.666 1149.1 440.567 1150.45 443.388 1153.14C446.224 1155.82 447.642 1159.38 447.642 1163.83C447.642 1168.62 446.001 1172.63 442.719 1175.85C439.437 1179.08 435.299 1180.69 430.304 1180.69C427.18 1180.69 424.489 1180.06 422.229 1178.79C419.969 1177.52 418.184 1175.67 416.874 1173.24C415.564 1170.81 414.909 1168.02 414.909 1164.89ZM419.292 1163.12C419.292 1166.37 419.846 1169.2 420.955 1171.62C422.078 1174.03 423.575 1175.83 425.446 1177.04C427.317 1178.24 429.455 1178.83 431.858 1178.83C434.09 1178.83 436.04 1178.32 437.71 1177.3C439.379 1176.28 440.689 1174.75 441.639 1172.72C442.604 1170.69 443.086 1168.22 443.086 1165.32C443.086 1162.27 442.553 1159.66 441.488 1157.5C440.437 1155.33 438.991 1153.69 437.148 1152.6C435.306 1151.51 433.125 1150.96 430.606 1150.96C428.303 1150.96 426.317 1151.44 424.647 1152.41C422.977 1153.37 421.667 1154.79 420.717 1156.66C419.767 1158.52 419.292 1160.67 419.292 1163.12ZM476.423 1157.33L476.25 1153.49C474.969 1152.64 473.623 1152 472.213 1151.59C470.816 1151.17 469.355 1150.96 467.83 1150.96C463.943 1150.96 460.827 1152.14 458.481 1154.5C456.149 1156.86 454.983 1160.02 454.983 1163.98C454.983 1166.76 455.573 1169.23 456.753 1171.41C457.948 1173.58 459.639 1175.3 461.827 1176.57C464.015 1177.83 466.325 1178.47 468.758 1178.47C470.687 1178.47 472.594 1178.24 474.48 1177.8C475.89 1177.47 477.308 1176.78 478.733 1175.72L479.187 1176.16C478.884 1176.82 478.604 1177.49 478.345 1178.16C476.66 1179 474.962 1179.63 473.249 1180.06C471.551 1180.48 469.838 1180.69 468.11 1180.69C464.569 1180.69 461.453 1180.01 458.761 1178.64C456.084 1177.27 454.026 1175.39 452.586 1172.98C451.147 1170.56 450.427 1167.84 450.427 1164.8C450.427 1161.76 451.154 1159.05 452.608 1156.66C454.062 1154.26 456.113 1152.4 458.761 1151.09C461.424 1149.76 464.692 1149.1 468.564 1149.1C470.593 1149.1 472.968 1149.43 475.689 1150.1C477.042 1150.41 478.143 1150.65 478.992 1150.81C478.345 1152.35 477.97 1154.52 477.87 1157.33H476.423ZM502.656 1169.89H490.177L488.708 1173.37C487.744 1175.67 487.262 1177.08 487.262 1177.6C487.262 1177.93 487.348 1178.17 487.521 1178.32C487.708 1178.46 488.169 1178.57 488.903 1178.66L490.976 1178.9V1180.26C489.594 1180.16 488.039 1180.11 486.312 1180.11C484.239 1180.11 482.418 1180.16 480.849 1180.26V1178.9L481.497 1178.88C482.505 1178.85 483.152 1178.75 483.44 1178.57C483.742 1178.39 484.059 1177.94 484.39 1177.24C485.412 1175.16 486.456 1172.92 487.521 1170.52L493.459 1157.07C495.042 1153.5 496.121 1150.91 496.697 1149.3H498.165L509.091 1174.71C509.825 1176.44 510.314 1177.48 510.559 1177.84C510.804 1178.19 511.084 1178.44 511.401 1178.6C511.718 1178.74 512.43 1178.84 513.539 1178.9V1180.26C511.667 1180.16 509.882 1180.11 508.184 1180.11C506.601 1180.11 504.492 1180.16 501.858 1180.26V1178.9L503.995 1178.77C504.758 1178.71 505.211 1178.63 505.355 1178.53C505.571 1178.37 505.679 1178.17 505.679 1177.93C505.679 1177.67 505.463 1176.99 505.032 1175.9L502.656 1169.89ZM490.976 1168.12H501.858L496.417 1155.13L490.976 1168.12ZM530.272 1151.5C530.113 1153.66 530.034 1155.93 530.034 1158.32V1170.63C530.034 1175.21 530.149 1177.73 530.38 1178.21C530.61 1178.67 531.431 1178.9 532.841 1178.9H534.461V1180.26C531.913 1180.16 529.754 1180.11 527.983 1180.11C526.198 1180.11 524.054 1180.16 521.549 1180.26V1178.9H523.363C524.313 1178.9 524.932 1178.78 525.219 1178.53C525.507 1178.27 525.687 1177.78 525.759 1177.04C525.903 1175.36 525.975 1173.18 525.975 1170.52V1158.19C525.975 1155.76 525.925 1153.53 525.824 1151.5H523.622C520.066 1151.5 518.109 1151.59 517.749 1151.76C517.389 1151.92 517.151 1152.56 517.036 1153.68L516.734 1156.57H515.374L515.417 1154C515.417 1152.97 515.331 1151.48 515.158 1149.53C522.931 1149.63 527.501 1149.69 528.868 1149.69L540.808 1149.53C540.535 1151.97 540.377 1154.31 540.333 1156.57H538.995L538.779 1153.74C538.692 1152.77 538.57 1152.19 538.412 1152.02C538.253 1151.83 537.901 1151.71 537.354 1151.67C535.77 1151.56 533.971 1151.5 531.956 1151.5H530.272ZM551.345 1165.6V1170.89L551.367 1173.93C551.367 1175.83 551.388 1177.22 551.431 1178.1C553.533 1178.26 555.786 1178.34 558.189 1178.34C559.802 1178.34 561.155 1178.26 562.249 1178.12C562.954 1178.03 563.702 1177.85 564.494 1177.56C564.854 1176.29 565.221 1174.71 565.595 1172.81H567.042C566.653 1175.96 566.459 1178.06 566.459 1179.11L566.502 1180.09C564.847 1180.24 563.22 1180.32 561.622 1180.32L558.233 1180.26C554.49 1180.16 551.741 1180.11 549.985 1180.11C548.301 1180.11 546.062 1180.16 543.27 1180.26V1178.9H543.939C545.191 1178.9 545.976 1178.78 546.293 1178.53C546.624 1178.29 546.84 1177.71 546.94 1176.8C547.056 1175.9 547.113 1173.9 547.113 1170.8V1158.95C547.113 1157 547.063 1155.41 546.962 1154.18C546.876 1152.94 546.775 1152.2 546.66 1151.97C546.559 1151.73 546.408 1151.54 546.206 1151.41C546.005 1151.28 545.386 1151.17 544.349 1151.07L542.687 1150.89V1149.56H545.019L547.307 1149.62C548.588 1149.66 549.56 1149.69 550.222 1149.69L558.513 1149.58L562.443 1149.56C563.782 1149.54 565.135 1149.6 566.502 1149.73C565.955 1151.43 565.653 1153.64 565.595 1156.36H564.127C564.127 1154.77 564.048 1153.46 563.89 1152.41C562.191 1151.77 560.104 1151.46 557.628 1151.46C555.656 1151.46 553.59 1151.54 551.431 1151.71C551.446 1153.07 551.431 1154.42 551.388 1155.77L551.345 1159.1V1163.48C552.77 1163.57 554.03 1163.61 555.123 1163.61C558.549 1163.61 560.485 1163.5 560.932 1163.27C561.392 1163.02 561.622 1162.28 561.622 1161.04V1159.64H563.091C562.99 1161.81 562.94 1163.55 562.94 1164.84C562.94 1166.21 562.99 1167.82 563.091 1169.68H561.622V1168.43C561.622 1167.04 561.349 1166.2 560.802 1165.9C560.269 1165.58 558.369 1165.43 555.102 1165.43C553.893 1165.43 552.64 1165.48 551.345 1165.6ZM589.303 1150.98C588.9 1152.48 588.684 1154.46 588.655 1156.94H587.165V1155.21C587.165 1154.09 587.014 1153.33 586.712 1152.92C586.409 1152.52 585.618 1152.1 584.337 1151.65C583.07 1151.19 581.731 1150.96 580.321 1150.96C578.018 1150.96 576.204 1151.54 574.88 1152.71C573.57 1153.87 572.915 1155.37 572.915 1157.2C572.915 1158.35 573.181 1159.34 573.714 1160.18C574.261 1161 574.988 1161.6 575.894 1161.97C576.816 1162.33 578.759 1162.65 581.724 1162.92C584.689 1163.21 586.69 1163.59 587.726 1164.07C588.777 1164.54 589.612 1165.3 590.231 1166.35C590.864 1167.4 591.181 1168.65 591.181 1170.09C591.181 1172.98 589.972 1175.47 587.554 1177.56C585.135 1179.65 581.911 1180.69 577.881 1180.69C576.499 1180.69 575.103 1180.55 573.692 1180.26C572.296 1179.99 570.885 1179.57 569.46 1179.03C569.719 1177.3 569.842 1175.08 569.827 1172.38H571.295V1173.46C571.295 1174.85 571.367 1175.72 571.511 1176.05C571.655 1176.38 571.994 1176.73 572.526 1177.11C573.318 1177.67 574.261 1178.1 575.355 1178.4C576.449 1178.69 577.629 1178.83 578.896 1178.83C581.616 1178.83 583.718 1178.19 585.2 1176.91C586.683 1175.63 587.424 1174 587.424 1172.03C587.424 1170.88 587.172 1169.91 586.668 1169.12C586.165 1168.31 585.459 1167.71 584.553 1167.33C583.646 1166.94 581.969 1166.64 579.522 1166.44C576.269 1166.18 574.059 1165.79 572.893 1165.27C571.727 1164.76 570.813 1163.94 570.151 1162.83C569.489 1161.71 569.158 1160.32 569.158 1158.67C569.158 1155.86 570.173 1153.56 572.202 1151.78C574.232 1149.99 577.039 1149.1 580.623 1149.1C582.062 1149.1 583.502 1149.26 584.941 1149.58C586.395 1149.88 587.849 1150.35 589.303 1150.98ZM625.511 1169.89H613.032L611.563 1173.37C610.599 1175.67 610.117 1177.08 610.117 1177.6C610.117 1177.93 610.203 1178.17 610.376 1178.32C610.563 1178.46 611.024 1178.57 611.758 1178.66L613.83 1178.9V1180.26C612.449 1180.16 610.894 1180.11 609.167 1180.11C607.094 1180.11 605.273 1180.16 603.704 1180.26V1178.9L604.352 1178.88C605.359 1178.85 606.007 1178.75 606.295 1178.57C606.597 1178.39 606.914 1177.94 607.245 1177.24C608.267 1175.16 609.311 1172.92 610.376 1170.52L616.313 1157.07C617.897 1153.5 618.976 1150.91 619.552 1149.3H621.02L631.946 1174.71C632.68 1176.44 633.169 1177.48 633.414 1177.84C633.658 1178.19 633.939 1178.44 634.256 1178.6C634.573 1178.74 635.285 1178.84 636.393 1178.9V1180.26C634.522 1180.16 632.737 1180.11 631.039 1180.11C629.455 1180.11 627.347 1180.16 624.712 1180.26V1178.9L626.85 1178.77C627.613 1178.71 628.066 1178.63 628.21 1178.53C628.426 1178.37 628.534 1178.17 628.534 1177.93C628.534 1177.67 628.318 1176.99 627.886 1175.9L625.511 1169.89ZM613.83 1168.12H624.712L619.271 1155.13L613.83 1168.12ZM644.404 1154.41V1169.33C644.404 1172.73 644.469 1175.1 644.598 1176.44C644.699 1177.46 644.864 1178.09 645.095 1178.32C645.339 1178.53 646.03 1178.69 647.167 1178.79L648.549 1178.9V1180.26C646.98 1180.16 645.563 1180.11 644.296 1180.11C643.418 1180.11 641.403 1180.16 638.25 1180.26V1178.9H639.805C640.74 1178.9 641.352 1178.77 641.64 1178.51C641.928 1178.25 642.108 1177.74 642.18 1176.98C642.338 1175.39 642.417 1173.24 642.417 1170.52V1159.79C642.417 1157.77 642.396 1155.78 642.353 1153.81C642.324 1152.97 642.209 1152.41 642.007 1152.1C641.82 1151.79 641.539 1151.51 641.165 1151.26C640.791 1151.02 640.265 1150.89 639.589 1150.89H638.25V1149.53C640.078 1149.63 641.475 1149.69 642.439 1149.69C643.475 1149.69 644.612 1149.63 645.85 1149.53C647.275 1151.28 648.614 1152.97 649.866 1154.63C651.133 1156.27 652.443 1157.93 653.796 1159.6L661.18 1168.66C663.843 1171.92 665.765 1174.18 666.945 1175.44V1161.58C666.945 1155.78 666.837 1152.61 666.621 1152.08C666.42 1151.53 665.592 1151.19 664.138 1151.05L662.519 1150.89V1149.53C664.836 1149.63 666.636 1149.69 667.917 1149.69C669.255 1149.69 670.983 1149.63 673.099 1149.53V1150.89H671.436C670.097 1150.89 669.327 1151.34 669.126 1152.23C668.996 1152.82 668.932 1155.98 668.932 1161.69V1171.43C668.932 1174.05 669.047 1177.18 669.277 1180.82C667.319 1180.52 666.182 1180.29 665.866 1180.15C665.549 1180.02 665.247 1179.8 664.959 1179.48C663.361 1177.71 661.684 1175.75 659.928 1173.59L644.404 1154.41ZM678.82 1178.1C679.051 1175.87 679.166 1171.97 679.166 1166.4V1160.14C679.166 1157.57 679.08 1155.36 678.907 1153.51C678.806 1152.43 678.669 1151.8 678.497 1151.63C678.338 1151.46 677.748 1151.3 676.726 1151.15L674.999 1150.89V1149.53C677.374 1149.61 678.972 1149.64 679.792 1149.64L685.6 1149.6L690.329 1149.51C692.229 1149.48 694.179 1149.67 696.18 1150.07C698.181 1150.48 699.994 1151.29 701.621 1152.51C703.247 1153.72 704.485 1155.25 705.335 1157.09C706.184 1158.92 706.609 1161.04 706.609 1163.44C706.609 1168.3 704.968 1172.33 701.686 1175.51C698.418 1178.69 694.143 1180.28 688.86 1180.28L686.205 1180.22C683.599 1180.11 681.951 1180.06 681.26 1180.06C680.094 1180.06 678.612 1180.15 676.812 1180.32V1179.29L678.82 1178.1ZM683.484 1177.99C685.427 1178.28 687.14 1178.42 688.623 1178.42C692.653 1178.42 695.784 1177.39 698.015 1175.31C700.707 1172.8 702.053 1169.12 702.053 1164.3C702.053 1160.1 700.93 1156.9 698.684 1154.69C696.453 1152.49 693.179 1151.39 688.86 1151.39C687.349 1151.39 685.557 1151.54 683.484 1151.84C683.311 1153.23 683.225 1154.8 683.225 1156.55V1170.67C683.225 1173.28 683.311 1175.72 683.484 1177.99ZM728.912 1178.14C730.323 1178.21 731.698 1178.25 733.036 1178.25C735.742 1178.25 737.858 1178.18 739.384 1178.03C740.449 1177.92 741.551 1177.71 742.688 1177.41L743.983 1172.33H745.387C745.027 1175.06 744.746 1177.6 744.545 1179.96C743.249 1180.17 741.479 1180.28 739.233 1180.28L728.956 1180.11C727.574 1180.11 725.422 1180.19 722.5 1180.34V1179.2C723.651 1178.7 724.328 1178.16 724.529 1177.58C724.745 1177.01 724.853 1174.72 724.853 1170.74V1158.86C724.853 1154.54 724.745 1152.14 724.529 1151.65C724.328 1151.15 723.745 1150.89 722.78 1150.89H720.427V1149.53C723.853 1149.63 726.127 1149.69 727.25 1149.69C728.747 1149.69 730.776 1149.63 733.339 1149.53V1150.89H730.661C729.898 1150.89 729.416 1151.12 729.215 1151.56C729.013 1152 728.912 1153.82 728.912 1157.03V1170.78L728.977 1176.87L728.912 1178.14ZM756.161 1165.6V1170.89L756.182 1173.93C756.182 1175.83 756.204 1177.22 756.247 1178.1C758.349 1178.26 760.601 1178.34 763.005 1178.34C764.617 1178.34 765.97 1178.26 767.064 1178.12C767.77 1178.03 768.518 1177.85 769.31 1177.56C769.67 1176.29 770.037 1174.71 770.411 1172.81H771.858C771.469 1175.96 771.275 1178.06 771.275 1179.11L771.318 1180.09C769.662 1180.24 768.036 1180.32 766.438 1180.32L763.048 1180.26C759.306 1180.16 756.557 1180.11 754.8 1180.11C753.116 1180.11 750.878 1180.16 748.086 1180.26V1178.9H748.755C750.007 1178.9 750.792 1178.78 751.108 1178.53C751.439 1178.29 751.655 1177.71 751.756 1176.8C751.871 1175.9 751.929 1173.9 751.929 1170.8V1158.95C751.929 1157 751.878 1155.41 751.778 1154.18C751.691 1152.94 751.591 1152.2 751.475 1151.97C751.375 1151.73 751.223 1151.54 751.022 1151.41C750.82 1151.28 750.201 1151.17 749.165 1151.07L747.503 1150.89V1149.56H749.834L752.123 1149.62C753.404 1149.66 754.376 1149.69 755.038 1149.69L763.329 1149.58L767.259 1149.56C768.597 1149.54 769.95 1149.6 771.318 1149.73C770.771 1151.43 770.469 1153.64 770.411 1156.36H768.943C768.943 1154.77 768.864 1153.46 768.705 1152.41C767.007 1151.77 764.92 1151.46 762.444 1151.46C760.472 1151.46 758.406 1151.54 756.247 1151.71C756.261 1153.07 756.247 1154.42 756.204 1155.77L756.161 1159.1V1163.48C757.586 1163.57 758.845 1163.61 759.939 1163.61C763.365 1163.61 765.301 1163.5 765.747 1163.27C766.208 1163.02 766.438 1162.28 766.438 1161.04V1159.64H767.906C767.806 1161.81 767.755 1163.55 767.755 1164.84C767.755 1166.21 767.806 1167.82 767.906 1169.68H766.438V1168.43C766.438 1167.04 766.165 1166.2 765.618 1165.9C765.085 1165.58 763.185 1165.43 759.918 1165.43C758.708 1165.43 757.456 1165.48 756.161 1165.6ZM804.288 1170.05C804.072 1171.25 803.964 1172.49 803.964 1173.74C803.964 1175.06 804.072 1176.55 804.288 1178.21C802.373 1178.96 800.207 1179.56 797.789 1180.02C795.385 1180.47 793.082 1180.69 790.88 1180.69C787.483 1180.69 784.496 1180.03 781.919 1178.7C779.357 1177.37 777.385 1175.52 776.003 1173.16C774.621 1170.78 773.93 1168.09 773.93 1165.08C773.93 1161.97 774.672 1159.21 776.154 1156.79C777.637 1154.36 779.702 1152.47 782.351 1151.13C785 1149.78 788.353 1149.1 792.413 1149.1C794.068 1149.1 795.594 1149.21 796.99 1149.43C798.386 1149.64 800.207 1150.07 802.453 1150.72L804.288 1151.22C803.899 1152.74 803.59 1154.87 803.359 1157.61H802.021V1156.18C802.021 1154.77 801.906 1153.95 801.675 1153.7C801.243 1153.24 800.099 1152.67 798.242 1152C796.385 1151.3 794.262 1150.96 791.873 1150.96C787.641 1150.96 784.402 1152.1 782.157 1154.37C779.71 1156.85 778.486 1160.12 778.486 1164.19C778.486 1168.11 779.587 1171.41 781.79 1174.08C784.381 1177.25 787.914 1178.83 792.391 1178.83C794.723 1178.83 797.249 1178.32 799.97 1177.3C800.056 1176.09 800.099 1174.8 800.099 1173.44C800.099 1171.67 800.07 1170.65 800.013 1170.39C799.955 1170.12 799.847 1169.95 799.689 1169.87C799.545 1169.79 798.796 1169.69 797.443 1169.57L794.896 1169.35V1167.97C798.192 1168.12 800.639 1168.19 802.237 1168.19C803.618 1168.19 804.806 1168.12 805.799 1167.97V1169.05L804.288 1170.05ZM829.809 1169.89H817.329L815.861 1173.37C814.896 1175.67 814.414 1177.08 814.414 1177.6C814.414 1177.93 814.501 1178.17 814.673 1178.32C814.86 1178.46 815.321 1178.57 816.055 1178.66L818.128 1178.9V1180.26C816.746 1180.16 815.191 1180.11 813.464 1180.11C811.391 1180.11 809.571 1180.16 808.002 1180.26V1178.9L808.649 1178.88C809.657 1178.85 810.305 1178.75 810.593 1178.57C810.895 1178.39 811.211 1177.94 811.543 1177.24C812.565 1175.16 813.608 1172.92 814.673 1170.52L820.611 1157.07C822.194 1153.5 823.274 1150.91 823.85 1149.3H825.318L836.243 1174.71C836.977 1176.44 837.467 1177.48 837.711 1177.84C837.956 1178.19 838.237 1178.44 838.553 1178.6C838.87 1178.74 839.583 1178.84 840.691 1178.9V1180.26C838.82 1180.16 837.035 1180.11 835.336 1180.11C833.753 1180.11 831.644 1180.16 829.01 1180.26V1178.9L831.147 1178.77C831.91 1178.71 832.364 1178.63 832.508 1178.53C832.724 1178.37 832.832 1178.17 832.832 1177.93C832.832 1177.67 832.616 1176.99 832.184 1175.9L829.809 1169.89ZM818.128 1168.12H829.01L823.569 1155.13L818.128 1168.12ZM851.163 1178.14C852.573 1178.21 853.948 1178.25 855.287 1178.25C857.993 1178.25 860.109 1178.18 861.634 1178.03C862.7 1177.92 863.801 1177.71 864.938 1177.41L866.233 1172.33H867.637C867.277 1175.06 866.996 1177.6 866.795 1179.96C865.499 1180.17 863.729 1180.28 861.483 1180.28L851.206 1180.11C849.824 1180.11 847.672 1180.19 844.75 1180.34V1179.2C845.902 1178.7 846.578 1178.16 846.78 1177.58C846.996 1177.01 847.103 1174.72 847.103 1170.74V1158.86C847.103 1154.54 846.996 1152.14 846.78 1151.65C846.578 1151.15 845.995 1150.89 845.031 1150.89H842.677V1149.53C846.103 1149.63 848.377 1149.69 849.5 1149.69C850.997 1149.69 853.027 1149.63 855.589 1149.53V1150.89H852.912C852.149 1150.89 851.666 1151.12 851.465 1151.56C851.263 1152 851.163 1153.82 851.163 1157.03V1170.78L851.227 1176.87L851.163 1178.14ZM907.43 1157.33L907.257 1153.49C905.976 1152.64 904.63 1152 903.219 1151.59C901.823 1151.17 900.362 1150.96 898.836 1150.96C894.95 1150.96 891.834 1152.14 889.487 1154.5C887.155 1156.86 885.99 1160.02 885.99 1163.98C885.99 1166.76 886.58 1169.23 887.76 1171.41C888.955 1173.58 890.646 1175.3 892.834 1176.57C895.022 1177.83 897.332 1178.47 899.765 1178.47C901.694 1178.47 903.601 1178.24 905.487 1177.8C906.897 1177.47 908.315 1176.78 909.74 1175.72L910.193 1176.16C909.891 1176.82 909.61 1177.49 909.351 1178.16C907.667 1179 905.969 1179.63 904.256 1180.06C902.557 1180.48 900.844 1180.69 899.117 1180.69C895.576 1180.69 892.46 1180.01 889.768 1178.64C887.091 1177.27 885.032 1175.39 883.593 1172.98C882.153 1170.56 881.434 1167.84 881.434 1164.8C881.434 1161.76 882.161 1159.05 883.614 1156.66C885.068 1154.26 887.119 1152.4 889.768 1151.09C892.431 1149.76 895.698 1149.1 899.571 1149.1C901.6 1149.1 903.975 1149.43 906.696 1150.1C908.049 1150.41 909.15 1150.65 909.999 1150.81C909.351 1152.35 908.977 1154.52 908.876 1157.33H907.43ZM912.029 1164.89C912.029 1160.15 913.554 1156.34 916.606 1153.44C919.658 1150.55 923.724 1149.1 928.805 1149.1C933.786 1149.1 937.686 1150.45 940.508 1153.14C943.343 1155.82 944.761 1159.38 944.761 1163.83C944.761 1168.62 943.12 1172.63 939.838 1175.85C936.556 1179.08 932.418 1180.69 927.423 1180.69C924.3 1180.69 921.608 1180.06 919.348 1178.79C917.088 1177.52 915.303 1175.67 913.994 1173.24C912.684 1170.81 912.029 1168.02 912.029 1164.89ZM916.412 1163.12C916.412 1166.37 916.966 1169.2 918.074 1171.62C919.197 1174.03 920.694 1175.83 922.565 1177.04C924.437 1178.24 926.574 1178.83 928.978 1178.83C931.209 1178.83 933.159 1178.32 934.829 1177.3C936.499 1176.28 937.809 1174.75 938.759 1172.72C939.723 1170.69 940.205 1168.22 940.205 1165.32C940.205 1162.27 939.673 1159.66 938.608 1157.5C937.557 1155.33 936.11 1153.69 934.268 1152.6C932.425 1151.51 930.245 1150.96 927.726 1150.96C925.423 1150.96 923.436 1151.44 921.766 1152.41C920.097 1153.37 918.787 1154.79 917.837 1156.66C916.887 1158.52 916.412 1160.67 916.412 1163.12ZM952.901 1154.41V1169.33C952.901 1172.73 952.966 1175.1 953.096 1176.44C953.196 1177.46 953.362 1178.09 953.592 1178.32C953.837 1178.53 954.528 1178.69 955.665 1178.79L957.047 1178.9V1180.26C955.478 1180.16 954.06 1180.11 952.793 1180.11C951.915 1180.11 949.9 1180.16 946.748 1180.26V1178.9H948.302C949.238 1178.9 949.85 1178.77 950.138 1178.51C950.425 1178.25 950.605 1177.74 950.677 1176.98C950.836 1175.39 950.915 1173.24 950.915 1170.52V1159.79C950.915 1157.77 950.893 1155.78 950.85 1153.81C950.821 1152.97 950.706 1152.41 950.505 1152.1C950.317 1151.79 950.037 1151.51 949.663 1151.26C949.288 1151.02 948.763 1150.89 948.086 1150.89H946.748V1149.53C948.576 1149.63 949.972 1149.69 950.936 1149.69C951.973 1149.69 953.11 1149.63 954.348 1149.53C955.773 1151.28 957.112 1152.97 958.364 1154.63C959.631 1156.27 960.94 1157.93 962.293 1159.6L969.678 1168.66C972.341 1171.92 974.262 1174.18 975.443 1175.44V1161.58C975.443 1155.78 975.335 1152.61 975.119 1152.08C974.917 1151.53 974.09 1151.19 972.636 1151.05L971.016 1150.89V1149.53C973.334 1149.63 975.133 1149.69 976.414 1149.69C977.753 1149.69 979.48 1149.63 981.596 1149.53V1150.89H979.934C978.595 1150.89 977.825 1151.34 977.623 1152.23C977.494 1152.82 977.429 1155.98 977.429 1161.69V1171.43C977.429 1174.05 977.544 1177.18 977.774 1180.82C975.817 1180.52 974.68 1180.29 974.363 1180.15C974.046 1180.02 973.744 1179.8 973.456 1179.48C971.858 1177.71 970.181 1175.75 968.425 1173.59L952.901 1154.41ZM1003.25 1150.98C1002.85 1152.48 1002.63 1154.46 1002.6 1156.94H1001.11V1155.21C1001.11 1154.09 1000.96 1153.33 1000.66 1152.92C1000.36 1152.52 999.567 1152.1 998.286 1151.65C997.02 1151.19 995.681 1150.96 994.27 1150.96C991.967 1150.96 990.153 1151.54 988.829 1152.71C987.519 1153.87 986.864 1155.37 986.864 1157.2C986.864 1158.35 987.131 1159.34 987.663 1160.18C988.21 1161 988.937 1161.6 989.844 1161.97C990.765 1162.33 992.708 1162.65 995.674 1162.92C998.639 1163.21 1000.64 1163.59 1001.68 1164.07C1002.73 1164.54 1003.56 1165.3 1004.18 1166.35C1004.81 1167.4 1005.13 1168.65 1005.13 1170.09C1005.13 1172.98 1003.92 1175.47 1001.5 1177.56C999.085 1179.65 995.861 1180.69 991.83 1180.69C990.449 1180.69 989.052 1180.55 987.642 1180.26C986.245 1179.99 984.835 1179.57 983.41 1179.03C983.669 1177.3 983.791 1175.08 983.777 1172.38H985.245V1173.46C985.245 1174.85 985.317 1175.72 985.461 1176.05C985.605 1176.38 985.943 1176.73 986.476 1177.11C987.267 1177.67 988.21 1178.1 989.304 1178.4C990.398 1178.69 991.579 1178.83 992.845 1178.83C995.566 1178.83 997.667 1178.19 999.15 1176.91C1000.63 1175.63 1001.37 1174 1001.37 1172.03C1001.37 1170.88 1001.12 1169.91 1000.62 1169.12C1000.11 1168.31 999.409 1167.71 998.502 1167.33C997.595 1166.94 995.918 1166.64 993.471 1166.44C990.218 1166.18 988.009 1165.79 986.843 1165.27C985.677 1164.76 984.763 1163.94 984.101 1162.83C983.439 1161.71 983.108 1160.32 983.108 1158.67C983.108 1155.86 984.122 1153.56 986.152 1151.78C988.181 1149.99 990.988 1149.1 994.573 1149.1C996.012 1149.1 997.451 1149.26 998.891 1149.58C1000.34 1149.88 1001.8 1150.35 1003.25 1150.98ZM1006.6 1150.89V1149.53C1009.55 1149.63 1011.69 1149.69 1013.03 1149.69C1014.44 1149.69 1016.52 1149.63 1019.25 1149.53V1150.89H1017.68C1016.32 1150.89 1015.51 1151.15 1015.24 1151.67C1014.96 1152.19 1014.83 1154.54 1014.83 1158.71V1167.17C1014.83 1170.27 1014.99 1172.42 1015.32 1173.63C1015.67 1174.84 1016.55 1175.86 1017.96 1176.7C1019.37 1177.53 1021.25 1177.95 1023.61 1177.95C1026.05 1177.95 1028.1 1177.5 1029.77 1176.61C1030.92 1175.99 1031.76 1175.03 1032.29 1173.74C1032.83 1172.43 1033.09 1169.95 1033.09 1166.31V1158.17C1033.09 1154.4 1032.92 1152.25 1032.57 1151.71C1032.24 1151.17 1031.31 1150.89 1029.79 1150.89H1028.67V1149.53C1031.64 1149.63 1033.54 1149.69 1034.34 1149.69C1035.65 1149.69 1037.28 1149.63 1039.22 1149.53V1150.89H1037.76C1036.62 1150.89 1035.88 1151.2 1035.55 1151.82C1035.24 1152.43 1035.08 1154.57 1035.08 1158.26V1166.35C1035.08 1170.05 1034.89 1172.55 1034.52 1173.85C1034.16 1175.13 1033.49 1176.29 1032.51 1177.32C1031.54 1178.36 1030.25 1179.18 1028.62 1179.78C1027.01 1180.39 1025.11 1180.69 1022.92 1180.69C1020.66 1180.69 1018.68 1180.42 1016.98 1179.89C1015.29 1179.34 1014 1178.68 1013.14 1177.88C1012.29 1177.09 1011.67 1176.13 1011.28 1174.99C1010.91 1173.84 1010.72 1171.89 1010.72 1169.14L1010.77 1165.04V1158.45C1010.77 1154.39 1010.64 1152.12 1010.4 1151.63C1010.17 1151.14 1009.41 1150.89 1008.13 1150.89H1006.6ZM1049.76 1178.14C1051.17 1178.21 1052.55 1178.25 1053.88 1178.25C1056.59 1178.25 1058.71 1178.18 1060.23 1178.03C1061.3 1177.92 1062.4 1177.71 1063.54 1177.41L1064.83 1172.33H1066.23C1065.87 1175.06 1065.59 1177.6 1065.39 1179.96C1064.1 1180.17 1062.33 1180.28 1060.08 1180.28L1049.8 1180.11C1048.42 1180.11 1046.27 1180.19 1043.35 1180.34V1179.2C1044.5 1178.7 1045.18 1178.16 1045.38 1177.58C1045.59 1177.01 1045.7 1174.72 1045.7 1170.74V1158.86C1045.7 1154.54 1045.59 1152.14 1045.38 1151.65C1045.18 1151.15 1044.59 1150.89 1043.63 1150.89H1041.27V1149.53C1044.7 1149.63 1046.97 1149.69 1048.1 1149.69C1049.59 1149.69 1051.62 1149.63 1054.19 1149.53V1150.89H1051.51C1050.75 1150.89 1050.26 1151.12 1050.06 1151.56C1049.86 1152 1049.76 1153.82 1049.76 1157.03V1170.78L1049.82 1176.87L1049.76 1178.14ZM1083.05 1151.5C1082.9 1153.66 1082.82 1155.93 1082.82 1158.32V1170.63C1082.82 1175.21 1082.93 1177.73 1083.16 1178.21C1083.39 1178.67 1084.21 1178.9 1085.62 1178.9H1087.24V1180.26C1084.69 1180.16 1082.54 1180.11 1080.77 1180.11C1078.98 1180.11 1076.84 1180.16 1074.33 1180.26V1178.9H1076.14C1077.09 1178.9 1077.71 1178.78 1078 1178.53C1078.29 1178.27 1078.47 1177.78 1078.54 1177.04C1078.69 1175.36 1078.76 1173.18 1078.76 1170.52V1158.19C1078.76 1155.76 1078.71 1153.53 1078.61 1151.5H1076.4C1072.85 1151.5 1070.89 1151.59 1070.53 1151.76C1070.17 1151.92 1069.93 1152.56 1069.82 1153.68L1069.52 1156.57H1068.16L1068.2 1154C1068.2 1152.97 1068.11 1151.48 1067.94 1149.53C1075.71 1149.63 1080.28 1149.69 1081.65 1149.69L1093.59 1149.53C1093.32 1151.97 1093.16 1154.31 1093.12 1156.57H1091.78L1091.56 1153.74C1091.47 1152.77 1091.35 1152.19 1091.19 1152.02C1091.04 1151.83 1090.68 1151.71 1090.14 1151.67C1088.55 1151.56 1086.75 1151.5 1084.74 1151.5H1083.05ZM1116.97 1169.89H1104.49L1103.03 1173.37C1102.06 1175.67 1101.58 1177.08 1101.58 1177.6C1101.58 1177.93 1101.67 1178.17 1101.84 1178.32C1102.03 1178.46 1102.49 1178.57 1103.22 1178.66L1105.29 1178.9V1180.26C1103.91 1180.16 1102.36 1180.11 1100.63 1180.11C1098.56 1180.11 1096.74 1180.16 1095.17 1180.26V1178.9L1095.81 1178.88C1096.82 1178.85 1097.47 1178.75 1097.76 1178.57C1098.06 1178.39 1098.38 1177.94 1098.71 1177.24C1099.73 1175.16 1100.77 1172.92 1101.84 1170.52L1107.78 1157.07C1109.36 1153.5 1110.44 1150.91 1111.01 1149.3H1112.48L1123.41 1174.71C1124.14 1176.44 1124.63 1177.48 1124.88 1177.84C1125.12 1178.19 1125.4 1178.44 1125.72 1178.6C1126.04 1178.74 1126.75 1178.84 1127.86 1178.9V1180.26C1125.98 1180.16 1124.2 1180.11 1122.5 1180.11C1120.92 1180.11 1118.81 1180.16 1116.18 1180.26V1178.9L1118.31 1178.77C1119.08 1178.71 1119.53 1178.63 1119.67 1178.53C1119.89 1178.37 1120 1178.17 1120 1177.93C1120 1177.67 1119.78 1176.99 1119.35 1175.9L1116.97 1169.89ZM1105.29 1168.12H1116.18L1110.73 1155.13L1105.29 1168.12ZM1135.87 1154.41V1169.33C1135.87 1172.73 1135.93 1175.1 1136.06 1176.44C1136.16 1177.46 1136.33 1178.09 1136.56 1178.32C1136.8 1178.53 1137.49 1178.69 1138.63 1178.79L1140.01 1178.9V1180.26C1138.44 1180.16 1137.03 1180.11 1135.76 1180.11C1134.88 1180.11 1132.87 1180.16 1129.71 1180.26V1178.9H1131.27C1132.2 1178.9 1132.81 1178.77 1133.1 1178.51C1133.39 1178.25 1133.57 1177.74 1133.64 1176.98C1133.8 1175.39 1133.88 1173.24 1133.88 1170.52V1159.79C1133.88 1157.77 1133.86 1155.78 1133.82 1153.81C1133.79 1152.97 1133.67 1152.41 1133.47 1152.1C1133.28 1151.79 1133 1151.51 1132.63 1151.26C1132.25 1151.02 1131.73 1150.89 1131.05 1150.89H1129.71V1149.53C1131.54 1149.63 1132.94 1149.69 1133.9 1149.69C1134.94 1149.69 1136.08 1149.63 1137.31 1149.53C1138.74 1151.28 1140.08 1152.97 1141.33 1154.63C1142.6 1156.27 1143.91 1157.93 1145.26 1159.6L1152.64 1168.66C1155.31 1171.92 1157.23 1174.18 1158.41 1175.44V1161.58C1158.41 1155.78 1158.3 1152.61 1158.08 1152.08C1157.88 1151.53 1157.05 1151.19 1155.6 1151.05L1153.98 1150.89V1149.53C1156.3 1149.63 1158.1 1149.69 1159.38 1149.69C1160.72 1149.69 1162.45 1149.63 1164.56 1149.53V1150.89H1162.9C1161.56 1150.89 1160.79 1151.34 1160.59 1152.23C1160.46 1152.82 1160.39 1155.98 1160.39 1161.69V1171.43C1160.39 1174.05 1160.51 1177.18 1160.74 1180.82C1158.78 1180.52 1157.64 1180.29 1157.33 1180.15C1157.01 1180.02 1156.71 1179.8 1156.42 1179.48C1154.82 1177.71 1153.15 1175.75 1151.39 1173.59L1135.87 1154.41ZM1181.34 1151.5C1181.18 1153.66 1181.1 1155.93 1181.1 1158.32V1170.63C1181.1 1175.21 1181.22 1177.73 1181.45 1178.21C1181.68 1178.67 1182.5 1178.9 1183.91 1178.9H1185.53V1180.26C1182.98 1180.16 1180.82 1180.11 1179.05 1180.11C1177.26 1180.11 1175.12 1180.16 1172.61 1180.26V1178.9H1174.43C1175.38 1178.9 1176 1178.78 1176.29 1178.53C1176.57 1178.27 1176.75 1177.78 1176.83 1177.04C1176.97 1175.36 1177.04 1173.18 1177.04 1170.52V1158.19C1177.04 1155.76 1176.99 1153.53 1176.89 1151.5H1174.69C1171.13 1151.5 1169.17 1151.59 1168.81 1151.76C1168.45 1151.92 1168.22 1152.56 1168.1 1153.68L1167.8 1156.57H1166.44L1166.48 1154C1166.48 1152.97 1166.4 1151.48 1166.22 1149.53C1174 1149.63 1178.57 1149.69 1179.93 1149.69L1191.87 1149.53C1191.6 1151.97 1191.44 1154.31 1191.4 1156.57H1190.06L1189.84 1153.74C1189.76 1152.77 1189.64 1152.19 1189.48 1152.02C1189.32 1151.83 1188.97 1151.71 1188.42 1151.67C1186.84 1151.56 1185.04 1151.5 1183.02 1151.5H1181.34ZM1213.34 1150.98C1212.93 1152.48 1212.72 1154.46 1212.69 1156.94H1211.2V1155.21C1211.2 1154.09 1211.05 1153.33 1210.75 1152.92C1210.44 1152.52 1209.65 1152.1 1208.37 1151.65C1207.1 1151.19 1205.76 1150.96 1204.35 1150.96C1202.05 1150.96 1200.24 1151.54 1198.91 1152.71C1197.6 1153.87 1196.95 1155.37 1196.95 1157.2C1196.95 1158.35 1197.21 1159.34 1197.75 1160.18C1198.29 1161 1199.02 1161.6 1199.93 1161.97C1200.85 1162.33 1202.79 1162.65 1205.76 1162.92C1208.72 1163.21 1210.72 1163.59 1211.76 1164.07C1212.81 1164.54 1213.65 1165.3 1214.26 1166.35C1214.9 1167.4 1215.21 1168.65 1215.21 1170.09C1215.21 1172.98 1214.01 1175.47 1211.59 1177.56C1209.17 1179.65 1205.94 1180.69 1201.91 1180.69C1200.53 1180.69 1199.14 1180.55 1197.73 1180.26C1196.33 1179.99 1194.92 1179.57 1193.49 1179.03C1193.75 1177.3 1193.88 1175.08 1193.86 1172.38H1195.33V1173.46C1195.33 1174.85 1195.4 1175.72 1195.54 1176.05C1195.69 1176.38 1196.03 1176.73 1196.56 1177.11C1197.35 1177.67 1198.29 1178.1 1199.39 1178.4C1200.48 1178.69 1201.66 1178.83 1202.93 1178.83C1205.65 1178.83 1207.75 1178.19 1209.23 1176.91C1210.72 1175.63 1211.46 1174 1211.46 1172.03C1211.46 1170.88 1211.21 1169.91 1210.7 1169.12C1210.2 1168.31 1209.49 1167.71 1208.59 1167.33C1207.68 1166.94 1206 1166.64 1203.56 1166.44C1200.3 1166.18 1198.09 1165.79 1196.93 1165.27C1195.76 1164.76 1194.85 1163.94 1194.18 1162.83C1193.52 1161.71 1193.19 1160.32 1193.19 1158.67C1193.19 1155.86 1194.21 1153.56 1196.24 1151.78C1198.27 1149.99 1201.07 1149.1 1204.66 1149.1C1206.1 1149.1 1207.54 1149.26 1208.97 1149.58C1210.43 1149.88 1211.88 1150.35 1213.34 1150.98Z" fill="#A5812C"/>
<rect x="118.291" y="1059.17" width="1091.65" height="10.1392" fill="#A5812C"/>
<rect x="118.291" y="1201.11" width="1091.65" height="10.1392" fill="#A5812C"/>
</g>
</svg>
